<?xml version="1.0" encoding="UTF-8" standalone="no"?>
<!DOCTYPE svg PUBLIC "-//W3C//DTD SVG 1.1//EN"
 "http://www.w3.org/Graphics/SVG/1.1/DTD/svg11.dtd">
<!-- Generated by graphviz version 2.40.1 (20161225.0304)
 -->
<!-- Title: Ogre::OverlaySystem Pages: 1 -->
<svg width="293pt" height="127pt"
 viewBox="0.00 0.00 293.00 127.00" xmlns="http://www.w3.org/2000/svg" xmlns:xlink="http://www.w3.org/1999/xlink">
<g id="graph0" class="graph" transform="scale(1 1) rotate(0) translate(4 123)">
<title>Ogre::OverlaySystem</title>
<!-- Node0 -->
<g id="node1" class="node">
<title>Node0</title>
<polygon fill="#bfbfbf" stroke="#000000" points="174,-50 174,-69 285,-69 285,-50 174,-50"/>
<text text-anchor="middle" x="229.5" y="-57" font-family="Helvetica,sans-Serif" font-size="10.00" fill="#000000">Ogre::OverlaySystem</text>
</g>
<!-- Node1 -->
<g id="node2" class="node">
<title>Node1</title>
<g id="a_node2"><a xlink:href="class_ogre_1_1_singleton.html" target="_top" xlink:title="Ogre::Singleton\&lt; Overlay\lSystem \&gt;">
<polygon fill="none" stroke="#000000" points="5.5,-88.5 5.5,-118.5 132.5,-118.5 132.5,-88.5 5.5,-88.5"/>
<text text-anchor="start" x="13.5" y="-106.5" font-family="Helvetica,sans-Serif" font-size="10.00" fill="#000000">Ogre::Singleton&lt; Overlay</text>
<text text-anchor="middle" x="69" y="-95.5" font-family="Helvetica,sans-Serif" font-size="10.00" fill="#000000">System &gt;</text>
</a>
</g>
</g>
<!-- Node1&#45;&gt;Node0 -->
<g id="edge1" class="edge">
<title>Node1&#45;&gt;Node0</title>
<path fill="none" stroke="#191970" d="M133.5535,-85.8031C154.3937,-80.0899 176.7036,-73.9738 194.561,-69.0783"/>
<polygon fill="#191970" stroke="#191970" points="132.5049,-82.4613 123.7861,-88.4808 134.3556,-89.2123 132.5049,-82.4613"/>
</g>
<!-- Node2 -->
<g id="node3" class="node">
<title>Node2</title>
<g id="a_node3"><a xlink:href="class_ogre_1_1_render_queue_listener.html" target="_top" xlink:title="Abstract interface which classes must implement if they wish to receive events from the render queue...">
<polygon fill="none" stroke="#000000" points="0,-50 0,-69 138,-69 138,-50 0,-50"/>
<text text-anchor="middle" x="69" y="-57" font-family="Helvetica,sans-Serif" font-size="10.00" fill="#000000">Ogre::RenderQueueListener</text>
</a>
</g>
</g>
<!-- Node2&#45;&gt;Node0 -->
<g id="edge2" class="edge">
<title>Node2&#45;&gt;Node0</title>
<path fill="none" stroke="#191970" d="M148.5241,-59.5C157.1182,-59.5 165.7234,-59.5 173.9454,-59.5"/>
<polygon fill="#191970" stroke="#191970" points="148.4642,-56.0001 138.4642,-59.5 148.4641,-63.0001 148.4642,-56.0001"/>
</g>
<!-- Node3 -->
<g id="node4" class="node">
<title>Node3</title>
<g id="a_node4"><a xlink:href="class_ogre_1_1_render_system_1_1_listener.html" target="_top" xlink:title="Defines a listener on the custom events that this render system can raise. ">
<polygon fill="none" stroke="#000000" points="14.5,-.5 14.5,-30.5 123.5,-30.5 123.5,-.5 14.5,-.5"/>
<text text-anchor="start" x="22.5" y="-18.5" font-family="Helvetica,sans-Serif" font-size="10.00" fill="#000000">Ogre::RenderSystem</text>
<text text-anchor="middle" x="69" y="-7.5" font-family="Helvetica,sans-Serif" font-size="10.00" fill="#000000">::Listener</text>
</a>
</g>
</g>
<!-- Node3&#45;&gt;Node0 -->
<g id="edge3" class="edge">
<title>Node3&#45;&gt;Node0</title>
<path fill="none" stroke="#191970" d="M133.5535,-33.1969C154.3937,-38.9101 176.7036,-45.0262 194.561,-49.9217"/>
<polygon fill="#191970" stroke="#191970" points="134.3556,-29.7877 123.7861,-30.5192 132.5049,-36.5387 134.3556,-29.7877"/>
</g>
</g>
</svg>
