<?xml version="1.0" encoding="UTF-8" standalone="no"?>
<!DOCTYPE svg PUBLIC "-//W3C//DTD SVG 1.1//EN"
 "http://www.w3.org/Graphics/SVG/1.1/DTD/svg11.dtd">
<!-- Generated by graphviz version 2.40.1 (20161225.0304)
 -->
<!-- Title: Ogre::ResourceManager Pages: 1 -->
<svg width="640pt" height="420pt"
 viewBox="0.00 0.00 640.00 420.00" xmlns="http://www.w3.org/2000/svg" xmlns:xlink="http://www.w3.org/1999/xlink">
<g id="graph0" class="graph" transform="scale(1 1) rotate(0) translate(4 416)">
<title>Ogre::ResourceManager</title>
<!-- Node0 -->
<g id="node1" class="node">
<title>Node0</title>
<polygon fill="#bfbfbf" stroke="#000000" points="134,-250.5 134,-269.5 257,-269.5 257,-250.5 134,-250.5"/>
<text text-anchor="middle" x="195.5" y="-257.5" font-family="Helvetica,sans-Serif" font-size="10.00" fill="#000000">Ogre::ResourceManager</text>
</g>
<!-- Node3 -->
<g id="node4" class="node">
<title>Node3</title>
<g id="a_node4"><a xlink:href="class_ogre_1_1_compositor_manager.html" target="_top" xlink:title="Class for managing Compositor settings for Ogre. ">
<polygon fill="none" stroke="#000000" points="298.5,-392.5 298.5,-411.5 429.5,-411.5 429.5,-392.5 298.5,-392.5"/>
<text text-anchor="middle" x="364" y="-399.5" font-family="Helvetica,sans-Serif" font-size="10.00" fill="#000000">Ogre::CompositorManager</text>
</a>
</g>
</g>
<!-- Node0&#45;&gt;Node3 -->
<g id="edge3" class="edge">
<title>Node0&#45;&gt;Node3</title>
<path fill="none" stroke="#191970" d="M205.1367,-278.6066C220.1743,-305.7642 251.818,-355.9596 293,-383 298.8665,-386.852 305.4894,-389.9258 312.273,-392.378"/>
<polygon fill="#191970" stroke="#191970" points="208.1809,-276.8775 200.361,-269.7291 202.0163,-280.1938 208.1809,-276.8775"/>
</g>
<!-- Node4 -->
<g id="node5" class="node">
<title>Node4</title>
<g id="a_node5"><a xlink:href="class_ogre_1_1_font_manager.html" target="_top" xlink:title="Manages Font resources, parsing .fontdef files and generally organising them. ">
<polygon fill="none" stroke="#000000" points="313.5,-354.5 313.5,-373.5 414.5,-373.5 414.5,-354.5 313.5,-354.5"/>
<text text-anchor="middle" x="364" y="-361.5" font-family="Helvetica,sans-Serif" font-size="10.00" fill="#000000">Ogre::FontManager</text>
</a>
</g>
</g>
<!-- Node0&#45;&gt;Node4 -->
<g id="edge4" class="edge">
<title>Node0&#45;&gt;Node4</title>
<path fill="none" stroke="#191970" d="M210.6162,-277.2434C228.4448,-296.5273 259.8724,-327.3622 293,-345 300.2085,-348.8379 308.2502,-351.9444 316.258,-354.4452"/>
<polygon fill="#191970" stroke="#191970" points="213.1477,-274.8245 203.8427,-269.7582 207.9574,-279.5214 213.1477,-274.8245"/>
</g>
<!-- Node5 -->
<g id="node6" class="node">
<title>Node5</title>
<g id="a_node6"><a xlink:href="class_ogre_1_1_gpu_program_manager.html" target="_top" xlink:title="Ogre::GpuProgramManager">
<polygon fill="none" stroke="#000000" points="296,-316.5 296,-335.5 432,-335.5 432,-316.5 296,-316.5"/>
<text text-anchor="middle" x="364" y="-323.5" font-family="Helvetica,sans-Serif" font-size="10.00" fill="#000000">Ogre::GpuProgramManager</text>
</a>
</g>
</g>
<!-- Node0&#45;&gt;Node5 -->
<g id="edge5" class="edge">
<title>Node0&#45;&gt;Node5</title>
<path fill="none" stroke="#191970" d="M222.5275,-274.2416C241.8114,-284.0314 268.5535,-296.8623 293,-306 303.4361,-309.9008 314.979,-313.4602 325.6711,-316.4597"/>
<polygon fill="#191970" stroke="#191970" points="223.9334,-271.029 213.4391,-269.5725 220.7346,-277.2554 223.9334,-271.029"/>
</g>
<!-- Node8 -->
<g id="node9" class="node">
<title>Node8</title>
<g id="a_node9"><a xlink:href="class_ogre_1_1_high_level_gpu_program_manager.html" target="_top" xlink:title="This ResourceManager manages high&#45;level vertex and fragment programs. ">
<polygon fill="none" stroke="#000000" points="293,-267 293,-297 435,-297 435,-267 293,-267"/>
<text text-anchor="start" x="301" y="-285" font-family="Helvetica,sans-Serif" font-size="10.00" fill="#000000">Ogre::HighLevelGpuProgram</text>
<text text-anchor="middle" x="364" y="-274" font-family="Helvetica,sans-Serif" font-size="10.00" fill="#000000">Manager</text>
</a>
</g>
</g>
<!-- Node0&#45;&gt;Node8 -->
<g id="edge8" class="edge">
<title>Node0&#45;&gt;Node8</title>
<path fill="none" stroke="#191970" d="M267.4341,-269.392C275.8403,-270.4895 284.4138,-271.6089 292.8099,-272.7051"/>
<polygon fill="#191970" stroke="#191970" points="267.6554,-265.8913 257.2864,-268.0671 266.7491,-272.8323 267.6554,-265.8913"/>
</g>
<!-- Node9 -->
<g id="node10" class="node">
<title>Node9</title>
<g id="a_node10"><a xlink:href="class_ogre_1_1_material_manager.html" target="_top" xlink:title="Class for managing Material settings for Ogre. ">
<polygon fill="none" stroke="#000000" points="306,-228.5 306,-247.5 422,-247.5 422,-228.5 306,-228.5"/>
<text text-anchor="middle" x="364" y="-235.5" font-family="Helvetica,sans-Serif" font-size="10.00" fill="#000000">Ogre::MaterialManager</text>
</a>
</g>
</g>
<!-- Node0&#45;&gt;Node9 -->
<g id="edge9" class="edge">
<title>Node0&#45;&gt;Node9</title>
<path fill="none" stroke="#191970" d="M267.4611,-250.6045C280.281,-248.9307 293.4887,-247.2062 305.8626,-245.5906"/>
<polygon fill="#191970" stroke="#191970" points="266.7491,-247.1677 257.2864,-251.9329 267.6554,-254.1087 266.7491,-247.1677"/>
</g>
<!-- Node10 -->
<g id="node11" class="node">
<title>Node10</title>
<g id="a_node11"><a xlink:href="class_ogre_1_1_mesh_manager.html" target="_top" xlink:title="Handles the management of mesh resources. ">
<polygon fill="none" stroke="#000000" points="311.5,-190.5 311.5,-209.5 416.5,-209.5 416.5,-190.5 311.5,-190.5"/>
<text text-anchor="middle" x="364" y="-197.5" font-family="Helvetica,sans-Serif" font-size="10.00" fill="#000000">Ogre::MeshManager</text>
</a>
</g>
</g>
<!-- Node0&#45;&gt;Node10 -->
<g id="edge10" class="edge">
<title>Node0&#45;&gt;Node10</title>
<path fill="none" stroke="#191970" d="M225.4598,-246.1477C244.5393,-237.6409 269.9206,-226.8994 293,-219 303.141,-215.5291 314.2712,-212.2903 324.6497,-209.505"/>
<polygon fill="#191970" stroke="#191970" points="223.7808,-243.0653 216.1025,-250.3656 226.6575,-249.447 223.7808,-243.0653"/>
</g>
<!-- Node11 -->
<g id="node12" class="node">
<title>Node11</title>
<g id="a_node12"><a xlink:href="class_ogre_1_1_skeleton_manager.html" target="_top" xlink:title="Handles the management of skeleton resources. ">
<polygon fill="none" stroke="#000000" points="304.5,-152.5 304.5,-171.5 423.5,-171.5 423.5,-152.5 304.5,-152.5"/>
<text text-anchor="middle" x="364" y="-159.5" font-family="Helvetica,sans-Serif" font-size="10.00" fill="#000000">Ogre::SkeletonManager</text>
</a>
</g>
</g>
<!-- Node0&#45;&gt;Node11 -->
<g id="edge11" class="edge">
<title>Node0&#45;&gt;Node11</title>
<path fill="none" stroke="#191970" d="M211.9251,-242.9759C230.1428,-225.0454 261.1844,-197.2101 293,-181 300.5038,-177.1768 308.8577,-174.062 317.1245,-171.5445"/>
<polygon fill="#191970" stroke="#191970" points="209.0714,-240.8818 204.5005,-250.4399 214.0343,-245.8185 209.0714,-240.8818"/>
</g>
<!-- Node12 -->
<g id="node13" class="node">
<title>Node12</title>
<g id="a_node13"><a xlink:href="class_ogre_1_1_texture_manager.html" target="_top" xlink:title="Class for loading &amp; managing textures. ">
<polygon fill="none" stroke="#000000" points="307,-114.5 307,-133.5 421,-133.5 421,-114.5 307,-114.5"/>
<text text-anchor="middle" x="364" y="-121.5" font-family="Helvetica,sans-Serif" font-size="10.00" fill="#000000">Ogre::TextureManager</text>
</a>
</g>
</g>
<!-- Node0&#45;&gt;Node12 -->
<g id="edge12" class="edge">
<title>Node0&#45;&gt;Node12</title>
<path fill="none" stroke="#191970" d="M205.8024,-241.5823C221.3009,-215.5983 253.0959,-168.508 293,-143 299.0207,-139.1514 305.8048,-136.0774 312.7302,-133.6232"/>
<polygon fill="#191970" stroke="#191970" points="202.667,-240.0121 200.6774,-250.4185 208.7223,-243.5242 202.667,-240.0121"/>
</g>
<!-- Node1 -->
<g id="node2" class="node">
<title>Node1</title>
<g id="a_node2"><a xlink:href="class_ogre_1_1_script_loader.html" target="_top" xlink:title="Abstract class defining the interface used by classes which wish to perform script loading to define ...">
<polygon fill="none" stroke="#000000" points="0,-269.5 0,-288.5 98,-288.5 98,-269.5 0,-269.5"/>
<text text-anchor="middle" x="49" y="-276.5" font-family="Helvetica,sans-Serif" font-size="10.00" fill="#000000">Ogre::ScriptLoader</text>
</a>
</g>
</g>
<!-- Node1&#45;&gt;Node0 -->
<g id="edge1" class="edge">
<title>Node1&#45;&gt;Node0</title>
<path fill="none" stroke="#191970" d="M108.3279,-271.3056C116.7694,-270.2108 125.4669,-269.0828 133.9496,-267.9826"/>
<polygon fill="#191970" stroke="#191970" points="107.6567,-267.8632 98.1899,-272.6204 108.5571,-274.8051 107.6567,-267.8632"/>
</g>
<!-- Node2 -->
<g id="node3" class="node">
<title>Node2</title>
<g id="a_node3"><a xlink:href="class_ogre_1_1_allocated_object.html" target="_top" xlink:title="ResourceAlloc">
<polygon fill="none" stroke="#000000" points="9,-231.5 9,-250.5 89,-250.5 89,-231.5 9,-231.5"/>
<text text-anchor="middle" x="49" y="-238.5" font-family="Helvetica,sans-Serif" font-size="10.00" fill="#000000">ResourceAlloc</text>
</a>
</g>
</g>
<!-- Node2&#45;&gt;Node0 -->
<g id="edge2" class="edge">
<title>Node2&#45;&gt;Node0</title>
<path fill="none" stroke="#191970" d="M99.0362,-247.4893C110.2136,-248.939 122.1953,-250.4929 133.7821,-251.9956"/>
<polygon fill="#191970" stroke="#191970" points="99.3989,-244.0071 89.0318,-246.1918 98.4985,-250.949 99.3989,-244.0071"/>
</g>
<!-- Node6 -->
<g id="node7" class="node">
<title>Node6</title>
<g id="a_node7"><a xlink:href="class_ogre_1_1_d3_d9_gpu_program_manager.html" target="_top" xlink:title="Ogre::D3D9GpuProgramManager">
<polygon fill="none" stroke="#000000" points="471,-335.5 471,-354.5 632,-354.5 632,-335.5 471,-335.5"/>
<text text-anchor="middle" x="551.5" y="-342.5" font-family="Helvetica,sans-Serif" font-size="10.00" fill="#000000">Ogre::D3D9GpuProgramManager</text>
</a>
</g>
</g>
<!-- Node5&#45;&gt;Node6 -->
<g id="edge6" class="edge">
<title>Node5&#45;&gt;Node6</title>
<path fill="none" stroke="#191970" d="M442.3564,-333.9401C451.7904,-334.8961 461.4382,-335.8737 470.9035,-336.8329"/>
<polygon fill="#191970" stroke="#191970" points="442.5241,-330.4393 432.2222,-332.9132 441.8184,-337.4036 442.5241,-330.4393"/>
</g>
<!-- Node7 -->
<g id="node8" class="node">
<title>Node7</title>
<g id="a_node8"><a xlink:href="class_ogre_1_1_g_l_gpu_program_manager.html" target="_top" xlink:title="Ogre::GLGpuProgramManager">
<polygon fill="none" stroke="#000000" points="477,-297.5 477,-316.5 626,-316.5 626,-297.5 477,-297.5"/>
<text text-anchor="middle" x="551.5" y="-304.5" font-family="Helvetica,sans-Serif" font-size="10.00" fill="#000000">Ogre::GLGpuProgramManager</text>
</a>
</g>
</g>
<!-- Node5&#45;&gt;Node7 -->
<g id="edge7" class="edge">
<title>Node5&#45;&gt;Node7</title>
<path fill="none" stroke="#191970" d="M442.2335,-318.0723C453.7402,-316.9063 465.5676,-315.7078 476.9963,-314.5497"/>
<polygon fill="#191970" stroke="#191970" points="441.8184,-314.5964 432.2222,-319.0868 442.5241,-321.5607 441.8184,-314.5964"/>
</g>
<!-- Node13 -->
<g id="node14" class="node">
<title>Node13</title>
<g id="a_node14"><a xlink:href="class_ogre_1_1_d3_d11_texture_manager.html" target="_top" xlink:title="Ogre::D3D11TextureManager">
<polygon fill="none" stroke="#000000" points="479,-228.5 479,-247.5 624,-247.5 624,-228.5 479,-228.5"/>
<text text-anchor="middle" x="551.5" y="-235.5" font-family="Helvetica,sans-Serif" font-size="10.00" fill="#000000">Ogre::D3D11TextureManager</text>
</a>
</g>
</g>
<!-- Node12&#45;&gt;Node13 -->
<g id="edge13" class="edge">
<title>Node12&#45;&gt;Node13</title>
<path fill="none" stroke="#191970" d="M428.5857,-138.3887C430.8351,-139.787 432.9847,-141.3199 435,-143 463.7077,-166.9334 441.9401,-195.4955 471,-219 475.8009,-222.8831 481.2601,-225.9977 487.0211,-228.4926"/>
<polygon fill="#191970" stroke="#191970" points="429.9723,-135.1643 419.4885,-133.6349 426.7304,-141.3683 429.9723,-135.1643"/>
</g>
<!-- Node14 -->
<g id="node15" class="node">
<title>Node14</title>
<g id="a_node15"><a xlink:href="class_ogre_1_1_d3_d9_texture_manager.html" target="_top" xlink:title="Ogre::D3D9TextureManager">
<polygon fill="none" stroke="#000000" points="481.5,-190.5 481.5,-209.5 621.5,-209.5 621.5,-190.5 481.5,-190.5"/>
<text text-anchor="middle" x="551.5" y="-197.5" font-family="Helvetica,sans-Serif" font-size="10.00" fill="#000000">Ogre::D3D9TextureManager</text>
</a>
</g>
</g>
<!-- Node12&#45;&gt;Node14 -->
<g id="edge14" class="edge">
<title>Node12&#45;&gt;Node14</title>
<path fill="none" stroke="#191970" d="M423.4601,-137.2021C427.4726,-138.91 431.3612,-140.8338 435,-143 454.9905,-154.9001 450.835,-169.398 471,-181 477.7212,-184.8671 485.1887,-187.9481 492.7886,-190.4027"/>
<polygon fill="#191970" stroke="#191970" points="424.5237,-133.8624 413.9322,-133.5963 422.046,-140.4092 424.5237,-133.8624"/>
</g>
<!-- Node15 -->
<g id="node16" class="node">
<title>Node15</title>
<g id="a_node16"><a xlink:href="class_ogre_1_1_default_texture_manager.html" target="_top" xlink:title="Specialisation of TextureManager for offline processing. Cannot be used with an active RenderSystem...">
<polygon fill="none" stroke="#000000" points="478.5,-152.5 478.5,-171.5 624.5,-171.5 624.5,-152.5 478.5,-152.5"/>
<text text-anchor="middle" x="551.5" y="-159.5" font-family="Helvetica,sans-Serif" font-size="10.00" fill="#000000">Ogre::DefaultTextureManager</text>
</a>
</g>
</g>
<!-- Node12&#45;&gt;Node15 -->
<g id="edge15" class="edge">
<title>Node12&#45;&gt;Node15</title>
<path fill="none" stroke="#191970" d="M421.2838,-135.6095C447.9506,-141.014 479.2805,-147.3635 504.5261,-152.4799"/>
<polygon fill="#191970" stroke="#191970" points="421.8101,-132.1451 411.3142,-133.589 420.4197,-139.0056 421.8101,-132.1451"/>
</g>
<!-- Node16 -->
<g id="node17" class="node">
<title>Node16</title>
<g id="a_node17"><a xlink:href="class_ogre_1_1_g_l3_plus_texture_manager.html" target="_top" xlink:title="GL3Plus&#45;specific implementation of a TextureManager. ">
<polygon fill="none" stroke="#000000" points="475.5,-114.5 475.5,-133.5 627.5,-133.5 627.5,-114.5 475.5,-114.5"/>
<text text-anchor="middle" x="551.5" y="-121.5" font-family="Helvetica,sans-Serif" font-size="10.00" fill="#000000">Ogre::GL3PlusTextureManager</text>
</a>
</g>
</g>
<!-- Node12&#45;&gt;Node16 -->
<g id="edge16" class="edge">
<title>Node12&#45;&gt;Node16</title>
<path fill="none" stroke="#191970" d="M431.2586,-124C445.5667,-124 460.7718,-124 475.3839,-124"/>
<polygon fill="#191970" stroke="#191970" points="431.0199,-120.5001 421.0199,-124 431.0198,-127.5001 431.0199,-120.5001"/>
</g>
<!-- Node17 -->
<g id="node18" class="node">
<title>Node17</title>
<g id="a_node18"><a xlink:href="class_ogre_1_1_g_l_e_s2_texture_manager.html" target="_top" xlink:title="GL ES&#45;specific implementation of a TextureManager. ">
<polygon fill="none" stroke="#000000" points="478.5,-76.5 478.5,-95.5 624.5,-95.5 624.5,-76.5 478.5,-76.5"/>
<text text-anchor="middle" x="551.5" y="-83.5" font-family="Helvetica,sans-Serif" font-size="10.00" fill="#000000">Ogre::GLES2TextureManager</text>
</a>
</g>
</g>
<!-- Node12&#45;&gt;Node17 -->
<g id="edge17" class="edge">
<title>Node12&#45;&gt;Node17</title>
<path fill="none" stroke="#191970" d="M421.2838,-112.3905C447.9506,-106.986 479.2805,-100.6365 504.5261,-95.5201"/>
<polygon fill="#191970" stroke="#191970" points="420.4197,-108.9944 411.3142,-114.411 421.8101,-115.8549 420.4197,-108.9944"/>
</g>
<!-- Node18 -->
<g id="node19" class="node">
<title>Node18</title>
<g id="a_node19"><a xlink:href="class_ogre_1_1_g_l_texture_manager.html" target="_top" xlink:title="GL&#45;specific implementation of a TextureManager. ">
<polygon fill="none" stroke="#000000" points="488,-38.5 488,-57.5 615,-57.5 615,-38.5 488,-38.5"/>
<text text-anchor="middle" x="551.5" y="-45.5" font-family="Helvetica,sans-Serif" font-size="10.00" fill="#000000">Ogre::GLTextureManager</text>
</a>
</g>
</g>
<!-- Node12&#45;&gt;Node18 -->
<g id="edge18" class="edge">
<title>Node12&#45;&gt;Node18</title>
<path fill="none" stroke="#191970" d="M387.6243,-109.1219C408.7698,-96.3715 440.9783,-78.3218 471,-67 480.8083,-63.3011 491.5686,-60.1668 501.9404,-57.5758"/>
<polygon fill="#191970" stroke="#191970" points="385.7094,-106.1904 379.0065,-114.3954 389.3631,-112.1612 385.7094,-106.1904"/>
</g>
<!-- Node19 -->
<g id="node20" class="node">
<title>Node19</title>
<g id="a_node20"><a xlink:href="class_ogre_1_1_metal_texture_manager.html" target="_top" xlink:title="Ogre::MetalTextureManager">
<polygon fill="none" stroke="#000000" points="482.5,-.5 482.5,-19.5 620.5,-19.5 620.5,-.5 482.5,-.5"/>
<text text-anchor="middle" x="551.5" y="-7.5" font-family="Helvetica,sans-Serif" font-size="10.00" fill="#000000">Ogre::MetalTextureManager</text>
</a>
</g>
</g>
<!-- Node12&#45;&gt;Node19 -->
<g id="edge19" class="edge">
<title>Node12&#45;&gt;Node19</title>
<path fill="none" stroke="#191970" d="M378.4113,-106.7739C397.3905,-85.2396 432.8523,-48.8079 471,-29 478.519,-25.0958 486.8481,-21.982 495.2144,-19.5016"/>
<polygon fill="#191970" stroke="#191970" points="375.6384,-104.63 371.7569,-114.4882 380.9389,-109.2022 375.6384,-104.63"/>
</g>
</g>
</svg>
