<?xml version="1.0" encoding="UTF-8" standalone="no"?>
<!DOCTYPE svg PUBLIC "-//W3C//DTD SVG 1.1//EN"
 "http://www.w3.org/Graphics/SVG/1.1/DTD/svg11.dtd">
<!-- Generated by graphviz version 2.40.1 (20161225.0304)
 -->
<!-- Title: Ogre::StringInterface Pages: 1 -->
<svg width="870pt" height="970pt"
 viewBox="0.00 0.00 870.00 969.50" xmlns="http://www.w3.org/2000/svg" xmlns:xlink="http://www.w3.org/1999/xlink">
<g id="graph0" class="graph" transform="scale(1 1) rotate(0) translate(4 965.5)">
<title>Ogre::StringInterface</title>
<!-- Node0 -->
<g id="node1" class="node">
<title>Node0</title>
<polygon fill="#bfbfbf" stroke="#000000" points="0,-494.5 0,-513.5 107,-513.5 107,-494.5 0,-494.5"/>
<text text-anchor="middle" x="53.5" y="-501.5" font-family="Helvetica,sans-Serif" font-size="10.00" fill="#000000">Ogre::StringInterface</text>
</g>
<!-- Node1 -->
<g id="node2" class="node">
<title>Node1</title>
<g id="a_node2"><a xlink:href="class_ogre_1_1_external_texture_source.html" target="_top" xlink:title="IMPORTANT: Plugins must override default dictionary name! Base class that texture plugins derive from...">
<polygon fill="none" stroke="#000000" points="146.5,-854.5 146.5,-873.5 289.5,-873.5 289.5,-854.5 146.5,-854.5"/>
<text text-anchor="middle" x="218" y="-861.5" font-family="Helvetica,sans-Serif" font-size="10.00" fill="#000000">Ogre::ExternalTextureSource</text>
</a>
</g>
</g>
<!-- Node0&#45;&gt;Node1 -->
<g id="edge1" class="edge">
<title>Node0&#45;&gt;Node1</title>
<path fill="none" stroke="#191970" d="M56.0457,-523.7947C64.8809,-589.474 96.2571,-798.6555 143,-845 146.8154,-848.7829 151.2696,-851.8475 156.0697,-854.3259"/>
<polygon fill="#191970" stroke="#191970" points="59.4765,-523.0394 54.6996,-513.5826 52.5365,-523.9542 59.4765,-523.0394"/>
</g>
<!-- Node2 -->
<g id="node3" class="node">
<title>Node2</title>
<g id="a_node3"><a xlink:href="class_ogre_1_1_overlay_element.html" target="_top" xlink:title="Abstract definition of a 2D element to be displayed in an Overlay. ">
<polygon fill="none" stroke="#000000" points="161.5,-816.5 161.5,-835.5 274.5,-835.5 274.5,-816.5 161.5,-816.5"/>
<text text-anchor="middle" x="218" y="-823.5" font-family="Helvetica,sans-Serif" font-size="10.00" fill="#000000">Ogre::OverlayElement</text>
</a>
</g>
</g>
<!-- Node0&#45;&gt;Node2 -->
<g id="edge2" class="edge">
<title>Node0&#45;&gt;Node2</title>
<path fill="none" stroke="#191970" d="M61.1154,-523.0056C75.6835,-558.8559 109.0769,-638.6437 143,-703 165.9752,-746.5868 198.0035,-795.9287 211.5462,-816.3571"/>
<polygon fill="#191970" stroke="#191970" points="64.3596,-521.6919 57.3692,-513.7305 57.869,-524.3135 64.3596,-521.6919"/>
</g>
<!-- Node7 -->
<g id="node8" class="node">
<title>Node7</title>
<g id="a_node8"><a xlink:href="class_ogre_1_1_particle_affector.html" target="_top" xlink:title="Abstract class defining the interface to be implemented by particle affectors. ">
<polygon fill="none" stroke="#000000" points="162.5,-674.5 162.5,-693.5 273.5,-693.5 273.5,-674.5 162.5,-674.5"/>
<text text-anchor="middle" x="218" y="-681.5" font-family="Helvetica,sans-Serif" font-size="10.00" fill="#000000">Ogre::ParticleAffector</text>
</a>
</g>
</g>
<!-- Node0&#45;&gt;Node7 -->
<g id="edge7" class="edge">
<title>Node0&#45;&gt;Node7</title>
<path fill="none" stroke="#191970" d="M69.2317,-521.2141C103.2027,-558.386 182.4999,-645.155 209.112,-674.2746"/>
<polygon fill="#191970" stroke="#191970" points="71.674,-518.6982 62.3442,-513.6776 66.5067,-523.4205 71.674,-518.6982"/>
</g>
<!-- Node17 -->
<g id="node18" class="node">
<title>Node17</title>
<g id="a_node18"><a xlink:href="class_ogre_1_1_particle_emitter.html" target="_top" xlink:title="Abstract class defining the interface to be implemented by particle emitters. ">
<polygon fill="none" stroke="#000000" points="164,-494.5 164,-513.5 272,-513.5 272,-494.5 164,-494.5"/>
<text text-anchor="middle" x="218" y="-501.5" font-family="Helvetica,sans-Serif" font-size="10.00" fill="#000000">Ogre::ParticleEmitter</text>
</a>
</g>
</g>
<!-- Node0&#45;&gt;Node17 -->
<g id="edge17" class="edge">
<title>Node0&#45;&gt;Node17</title>
<path fill="none" stroke="#191970" d="M117.7287,-504C132.9397,-504 149.0156,-504 163.7341,-504"/>
<polygon fill="#191970" stroke="#191970" points="117.3635,-500.5001 107.3635,-504 117.3634,-507.5001 117.3635,-500.5001"/>
</g>
<!-- Node25 -->
<g id="node26" class="node">
<title>Node25</title>
<g id="a_node26"><a xlink:href="class_ogre_1_1_particle_system.html" target="_top" xlink:title="Class defining particle system based special effects. ">
<polygon fill="none" stroke="#000000" points="163,-456.5 163,-475.5 273,-475.5 273,-456.5 163,-456.5"/>
<text text-anchor="middle" x="218" y="-463.5" font-family="Helvetica,sans-Serif" font-size="10.00" fill="#000000">Ogre::ParticleSystem</text>
</a>
</g>
</g>
<!-- Node0&#45;&gt;Node25 -->
<g id="edge25" class="edge">
<title>Node0&#45;&gt;Node25</title>
<path fill="none" stroke="#191970" d="M104.9975,-492.1039C128.1197,-486.7626 155.0297,-480.5463 176.7882,-475.5201"/>
<polygon fill="#191970" stroke="#191970" points="103.9659,-488.75 95.0103,-494.411 105.5415,-495.5704 103.9659,-488.75"/>
</g>
<!-- Node26 -->
<g id="node27" class="node">
<title>Node26</title>
<g id="a_node27"><a xlink:href="class_ogre_1_1_particle_system_renderer.html" target="_top" xlink:title="Abstract class defining the interface required to be implemented by classes which provide rendering c...">
<polygon fill="none" stroke="#000000" points="143,-418.5 143,-437.5 293,-437.5 293,-418.5 143,-418.5"/>
<text text-anchor="middle" x="218" y="-425.5" font-family="Helvetica,sans-Serif" font-size="10.00" fill="#000000">Ogre::ParticleSystemRenderer</text>
</a>
</g>
</g>
<!-- Node0&#45;&gt;Node26 -->
<g id="edge26" class="edge">
<title>Node0&#45;&gt;Node26</title>
<path fill="none" stroke="#191970" d="M74.1208,-488.1593C91.6073,-475.4105 117.7963,-457.8825 143,-447 151.7555,-443.2195 161.4234,-440.0745 170.8242,-437.5034"/>
<polygon fill="#191970" stroke="#191970" points="71.7579,-485.5547 65.8211,-494.33 75.9345,-491.1723 71.7579,-485.5547"/>
</g>
<!-- Node28 -->
<g id="node29" class="node">
<title>Node28</title>
<g id="a_node29"><a xlink:href="class_ogre_1_1_resource.html" target="_top" xlink:title="Abstract class representing a loadable resource. ">
<polygon fill="none" stroke="#000000" points="175,-266.5 175,-285.5 261,-285.5 261,-266.5 175,-266.5"/>
<text text-anchor="middle" x="218" y="-273.5" font-family="Helvetica,sans-Serif" font-size="10.00" fill="#000000">Ogre::Resource</text>
</a>
</g>
</g>
<!-- Node0&#45;&gt;Node28 -->
<g id="edge28" class="edge">
<title>Node0&#45;&gt;Node28</title>
<path fill="none" stroke="#191970" d="M66.3723,-486.1587C99.35,-440.4511 186.0334,-320.3063 211.1118,-285.5472"/>
<polygon fill="#191970" stroke="#191970" points="63.3716,-484.3359 60.3589,-494.4934 69.0483,-488.4316 63.3716,-484.3359"/>
</g>
<!-- Node3 -->
<g id="node4" class="node">
<title>Node3</title>
<g id="a_node4"><a xlink:href="class_ogre_1_1_overlay_container.html" target="_top" xlink:title="A 2D element which contains other OverlayElement instances. ">
<polygon fill="none" stroke="#000000" points="346.5,-936.5 346.5,-955.5 465.5,-955.5 465.5,-936.5 346.5,-936.5"/>
<text text-anchor="middle" x="406" y="-943.5" font-family="Helvetica,sans-Serif" font-size="10.00" fill="#000000">Ogre::OverlayContainer</text>
</a>
</g>
</g>
<!-- Node2&#45;&gt;Node3 -->
<g id="edge3" class="edge">
<title>Node2&#45;&gt;Node3</title>
<path fill="none" stroke="#191970" d="M284.0954,-838.8223C287.256,-840.6244 290.2515,-842.6727 293,-845 323.3752,-870.7205 298.5453,-901.3737 329,-927 334.057,-931.2553 339.9247,-934.5828 346.1212,-937.1808"/>
<polygon fill="#191970" stroke="#191970" points="285.3487,-835.5416 274.819,-834.3681 282.3187,-841.8518 285.3487,-835.5416"/>
</g>
<!-- Node6 -->
<g id="node7" class="node">
<title>Node6</title>
<g id="a_node7"><a xlink:href="class_ogre_1_1_text_area_overlay_element.html" target="_top" xlink:title="This class implements an overlay element which contains simple unformatted text. ">
<polygon fill="none" stroke="#000000" points="329.5,-898.5 329.5,-917.5 482.5,-917.5 482.5,-898.5 329.5,-898.5"/>
<text text-anchor="middle" x="406" y="-905.5" font-family="Helvetica,sans-Serif" font-size="10.00" fill="#000000">Ogre::TextAreaOverlayElement</text>
</a>
</g>
</g>
<!-- Node2&#45;&gt;Node6 -->
<g id="edge6" class="edge">
<title>Node2&#45;&gt;Node6</title>
<path fill="none" stroke="#191970" d="M282.3785,-839.301C286.0805,-840.9801 289.6532,-842.8708 293,-845 314.3187,-858.5623 307.6395,-875.5038 329,-889 335.1693,-892.8979 342.0845,-895.9963 349.1724,-898.459"/>
<polygon fill="#191970" stroke="#191970" points="283.5506,-836.0005 272.9654,-835.5483 280.9583,-842.5028 283.5506,-836.0005"/>
</g>
<!-- Node4 -->
<g id="node5" class="node">
<title>Node4</title>
<g id="a_node5"><a xlink:href="class_ogre_1_1_panel_overlay_element.html" target="_top" xlink:title="OverlayElement representing a flat, single&#45;material (or transparent) panel which can contain other el...">
<polygon fill="none" stroke="#000000" points="521,-936.5 521,-955.5 659,-955.5 659,-936.5 521,-936.5"/>
<text text-anchor="middle" x="590" y="-943.5" font-family="Helvetica,sans-Serif" font-size="10.00" fill="#000000">Ogre::PanelOverlayElement</text>
</a>
</g>
</g>
<!-- Node3&#45;&gt;Node4 -->
<g id="edge4" class="edge">
<title>Node3&#45;&gt;Node4</title>
<path fill="none" stroke="#191970" d="M475.8264,-946C490.6133,-946 506.2128,-946 520.9699,-946"/>
<polygon fill="#191970" stroke="#191970" points="475.7396,-942.5001 465.7395,-946 475.7395,-949.5001 475.7396,-942.5001"/>
</g>
<!-- Node5 -->
<g id="node6" class="node">
<title>Node5</title>
<g id="a_node6"><a xlink:href="class_ogre_1_1_border_panel_overlay_element.html" target="_top" xlink:title="A specialisation of the PanelOverlayElement to provide a panel with a border. ">
<polygon fill="none" stroke="#000000" points="714,-931 714,-961 845,-961 845,-931 714,-931"/>
<text text-anchor="start" x="722" y="-949" font-family="Helvetica,sans-Serif" font-size="10.00" fill="#000000">Ogre::BorderPanelOverlay</text>
<text text-anchor="middle" x="779.5" y="-938" font-family="Helvetica,sans-Serif" font-size="10.00" fill="#000000">Element</text>
</a>
</g>
</g>
<!-- Node4&#45;&gt;Node5 -->
<g id="edge5" class="edge">
<title>Node4&#45;&gt;Node5</title>
<path fill="none" stroke="#191970" d="M669.3886,-946C684.2251,-946 699.5779,-946 713.9391,-946"/>
<polygon fill="#191970" stroke="#191970" points="669.2183,-942.5001 659.2182,-946 669.2182,-949.5001 669.2183,-942.5001"/>
</g>
<!-- Node8 -->
<g id="node9" class="node">
<title>Node8</title>
<g id="a_node9"><a xlink:href="class_ogre_1_1_colour_fader_affector.html" target="_top" xlink:title="This plugin subclass of ParticleAffector allows you to alter the colour of particles. ">
<polygon fill="none" stroke="#000000" points="340.5,-860.5 340.5,-879.5 471.5,-879.5 471.5,-860.5 340.5,-860.5"/>
<text text-anchor="middle" x="406" y="-867.5" font-family="Helvetica,sans-Serif" font-size="10.00" fill="#000000">Ogre::ColourFaderAffector</text>
</a>
</g>
</g>
<!-- Node7&#45;&gt;Node8 -->
<g id="edge8" class="edge">
<title>Node7&#45;&gt;Node8</title>
<path fill="none" stroke="#191970" d="M229.2275,-702.4842C254.487,-743.8265 314.6995,-840.9401 329,-851 334.5182,-854.8819 340.745,-857.9738 347.2069,-860.436"/>
<polygon fill="#191970" stroke="#191970" points="232.0609,-700.4078 223.868,-693.69 226.0834,-704.0507 232.0609,-700.4078"/>
</g>
<!-- Node9 -->
<g id="node10" class="node">
<title>Node9</title>
<g id="a_node10"><a xlink:href="class_ogre_1_1_colour_fader_affector2.html" target="_top" xlink:title="This plugin subclass of ParticleAffector allows you to alter the colour of particles. ">
<polygon fill="none" stroke="#000000" points="337.5,-822.5 337.5,-841.5 474.5,-841.5 474.5,-822.5 337.5,-822.5"/>
<text text-anchor="middle" x="406" y="-829.5" font-family="Helvetica,sans-Serif" font-size="10.00" fill="#000000">Ogre::ColourFaderAffector2</text>
</a>
</g>
</g>
<!-- Node7&#45;&gt;Node9 -->
<g id="edge9" class="edge">
<title>Node7&#45;&gt;Node9</title>
<path fill="none" stroke="#191970" d="M228.5858,-702.4042C245.8552,-730.712 282.8409,-784.6304 329,-813 335.3345,-816.8932 342.4227,-819.9894 349.6649,-822.4515"/>
<polygon fill="#191970" stroke="#191970" points="231.4363,-700.3498 223.317,-693.5433 225.4196,-703.9274 231.4363,-700.3498"/>
</g>
<!-- Node10 -->
<g id="node11" class="node">
<title>Node10</title>
<g id="a_node11"><a xlink:href="class_ogre_1_1_colour_image_affector.html" target="_top" xlink:title="Ogre::ColourImageAffector">
<polygon fill="none" stroke="#000000" points="339,-784.5 339,-803.5 473,-803.5 473,-784.5 339,-784.5"/>
<text text-anchor="middle" x="406" y="-791.5" font-family="Helvetica,sans-Serif" font-size="10.00" fill="#000000">Ogre::ColourImageAffector</text>
</a>
</g>
</g>
<!-- Node7&#45;&gt;Node10 -->
<g id="edge10" class="edge">
<title>Node7&#45;&gt;Node10</title>
<path fill="none" stroke="#191970" d="M233.8902,-701.0278C254.0587,-721.6195 290.8405,-755.8884 329,-775 336.633,-778.8229 345.0852,-781.9085 353.512,-784.3897"/>
<polygon fill="#191970" stroke="#191970" points="236.2241,-698.4051 226.7724,-693.618 231.1759,-703.2544 236.2241,-698.4051"/>
</g>
<!-- Node11 -->
<g id="node12" class="node">
<title>Node11</title>
<g id="a_node12"><a xlink:href="class_ogre_1_1_colour_interpolator_affector.html" target="_top" xlink:title="Ogre::ColourInterpolator\lAffector">
<polygon fill="none" stroke="#000000" points="345.5,-735 345.5,-765 466.5,-765 466.5,-735 345.5,-735"/>
<text text-anchor="start" x="353.5" y="-753" font-family="Helvetica,sans-Serif" font-size="10.00" fill="#000000">Ogre::ColourInterpolator</text>
<text text-anchor="middle" x="406" y="-742" font-family="Helvetica,sans-Serif" font-size="10.00" fill="#000000">Affector</text>
</a>
</g>
</g>
<!-- Node7&#45;&gt;Node11 -->
<g id="edge11" class="edge">
<title>Node7&#45;&gt;Node11</title>
<path fill="none" stroke="#191970" d="M252.5303,-697.1578C274.3736,-705.3809 303.2483,-716.0676 329,-725 338.5608,-728.3163 348.8344,-731.7448 358.6637,-734.9599"/>
<polygon fill="#191970" stroke="#191970" points="253.6172,-693.8271 243.0255,-693.5682 251.144,-700.3756 253.6172,-693.8271"/>
</g>
<!-- Node12 -->
<g id="node13" class="node">
<title>Node12</title>
<g id="a_node13"><a xlink:href="class_ogre_1_1_deflector_plane_affector.html" target="_top" xlink:title="This class defines a ParticleAffector which deflects particles. ">
<polygon fill="none" stroke="#000000" points="334.5,-696.5 334.5,-715.5 477.5,-715.5 477.5,-696.5 334.5,-696.5"/>
<text text-anchor="middle" x="406" y="-703.5" font-family="Helvetica,sans-Serif" font-size="10.00" fill="#000000">Ogre::DeflectorPlaneAffector</text>
</a>
</g>
</g>
<!-- Node7&#45;&gt;Node12 -->
<g id="edge12" class="edge">
<title>Node7&#45;&gt;Node12</title>
<path fill="none" stroke="#191970" d="M283.6737,-691.6852C300.0797,-693.6051 317.7554,-695.6735 334.4309,-697.6249"/>
<polygon fill="#191970" stroke="#191970" points="283.9822,-688.1975 273.6431,-690.5114 283.1685,-695.1501 283.9822,-688.1975"/>
</g>
<!-- Node13 -->
<g id="node14" class="node">
<title>Node13</title>
<g id="a_node14"><a xlink:href="class_ogre_1_1_direction_randomiser_affector.html" target="_top" xlink:title="This class defines a ParticleAffector which applies randomness to the movement of the particles...">
<polygon fill="none" stroke="#000000" points="338.5,-647 338.5,-677 473.5,-677 473.5,-647 338.5,-647"/>
<text text-anchor="start" x="346.5" y="-665" font-family="Helvetica,sans-Serif" font-size="10.00" fill="#000000">Ogre::DirectionRandomiser</text>
<text text-anchor="middle" x="406" y="-654" font-family="Helvetica,sans-Serif" font-size="10.00" fill="#000000">Affector</text>
</a>
</g>
</g>
<!-- Node7&#45;&gt;Node13 -->
<g id="edge13" class="edge">
<title>Node7&#45;&gt;Node13</title>
<path fill="none" stroke="#191970" d="M283.8189,-676.2978C301.4226,-674.2378 320.4793,-672.0077 338.1884,-669.9354"/>
<polygon fill="#191970" stroke="#191970" points="283.1685,-672.8499 273.6431,-677.4886 283.9822,-679.8025 283.1685,-672.8499"/>
</g>
<!-- Node14 -->
<g id="node15" class="node">
<title>Node14</title>
<g id="a_node15"><a xlink:href="class_ogre_1_1_linear_force_affector.html" target="_top" xlink:title="This class defines a ParticleAffector which applies a linear force to particles in a system...">
<polygon fill="none" stroke="#000000" points="341.5,-608.5 341.5,-627.5 470.5,-627.5 470.5,-608.5 341.5,-608.5"/>
<text text-anchor="middle" x="406" y="-615.5" font-family="Helvetica,sans-Serif" font-size="10.00" fill="#000000">Ogre::LinearForceAffector</text>
</a>
</g>
</g>
<!-- Node7&#45;&gt;Node14 -->
<g id="edge14" class="edge">
<title>Node7&#45;&gt;Node14</title>
<path fill="none" stroke="#191970" d="M247.7284,-670.3577C269.8398,-660.5373 300.9175,-647.4154 329,-638 340.5238,-634.1364 353.2236,-630.5657 364.9292,-627.5431"/>
<polygon fill="#191970" stroke="#191970" points="246.2325,-667.1926 238.5399,-674.4779 249.0966,-673.5799 246.2325,-667.1926"/>
</g>
<!-- Node15 -->
<g id="node16" class="node">
<title>Node15</title>
<g id="a_node16"><a xlink:href="class_ogre_1_1_rotation_affector.html" target="_top" xlink:title="This plugin subclass of ParticleAffector allows you to alter the rotation of particles. ">
<polygon fill="none" stroke="#000000" points="348.5,-570.5 348.5,-589.5 463.5,-589.5 463.5,-570.5 348.5,-570.5"/>
<text text-anchor="middle" x="406" y="-577.5" font-family="Helvetica,sans-Serif" font-size="10.00" fill="#000000">Ogre::RotationAffector</text>
</a>
</g>
</g>
<!-- Node7&#45;&gt;Node15 -->
<g id="edge15" class="edge">
<title>Node7&#45;&gt;Node15</title>
<path fill="none" stroke="#191970" d="M235.0742,-667.2432C255.6584,-647.9713 292.107,-616.7176 329,-599 336.9436,-595.1851 345.7279,-592.0902 354.4361,-589.5937"/>
<polygon fill="#191970" stroke="#191970" points="232.574,-664.7911 227.7516,-674.2248 237.4044,-669.8574 232.574,-664.7911"/>
</g>
<!-- Node16 -->
<g id="node17" class="node">
<title>Node16</title>
<g id="a_node17"><a xlink:href="class_ogre_1_1_scale_affector.html" target="_top" xlink:title="This plugin subclass of ParticleAffector allows you to alter the scale of particles. ">
<polygon fill="none" stroke="#000000" points="354.5,-532.5 354.5,-551.5 457.5,-551.5 457.5,-532.5 354.5,-532.5"/>
<text text-anchor="middle" x="406" y="-539.5" font-family="Helvetica,sans-Serif" font-size="10.00" fill="#000000">Ogre::ScaleAffector</text>
</a>
</g>
</g>
<!-- Node7&#45;&gt;Node16 -->
<g id="edge16" class="edge">
<title>Node7&#45;&gt;Node16</title>
<path fill="none" stroke="#191970" d="M229.3223,-665.664C247.0947,-638.4808 284.1804,-587.8222 329,-561 336.6797,-556.4041 345.4236,-552.9172 354.1962,-550.2723"/>
<polygon fill="#191970" stroke="#191970" points="226.2897,-663.9099 223.8604,-674.2225 232.1905,-667.6757 226.2897,-663.9099"/>
</g>
<!-- Node18 -->
<g id="node19" class="node">
<title>Node18</title>
<g id="a_node19"><a xlink:href="class_ogre_1_1_area_emitter.html" target="_top" xlink:title="Particle emitter which emits particles randomly from points inside an area (box, sphere, ellipsoid whatever subclasses choose to be). ">
<polygon fill="none" stroke="#000000" points="358.5,-494.5 358.5,-513.5 453.5,-513.5 453.5,-494.5 358.5,-494.5"/>
<text text-anchor="middle" x="406" y="-501.5" font-family="Helvetica,sans-Serif" font-size="10.00" fill="#000000">Ogre::AreaEmitter</text>
</a>
</g>
</g>
<!-- Node17&#45;&gt;Node18 -->
<g id="edge18" class="edge">
<title>Node17&#45;&gt;Node18</title>
<path fill="none" stroke="#191970" d="M282.2361,-504C307.1788,-504 335.2392,-504 358.3276,-504"/>
<polygon fill="#191970" stroke="#191970" points="282.1252,-500.5001 272.1252,-504 282.1251,-507.5001 282.1252,-500.5001"/>
</g>
<!-- Node24 -->
<g id="node25" class="node">
<title>Node24</title>
<g id="a_node25"><a xlink:href="class_ogre_1_1_point_emitter.html" target="_top" xlink:title="Particle emitter which emits particles from a single point. ">
<polygon fill="none" stroke="#000000" points="357,-456.5 357,-475.5 455,-475.5 455,-456.5 357,-456.5"/>
<text text-anchor="middle" x="406" y="-463.5" font-family="Helvetica,sans-Serif" font-size="10.00" fill="#000000">Ogre::PointEmitter</text>
</a>
</g>
</g>
<!-- Node17&#45;&gt;Node24 -->
<g id="edge24" class="edge">
<title>Node17&#45;&gt;Node24</title>
<path fill="none" stroke="#191970" d="M275.4365,-492.3905C302.1744,-486.986 333.5879,-480.6365 358.9008,-475.5201"/>
<polygon fill="#191970" stroke="#191970" points="274.5487,-488.9991 265.4403,-494.411 275.9356,-495.8603 274.5487,-488.9991"/>
</g>
<!-- Node19 -->
<g id="node20" class="node">
<title>Node19</title>
<g id="a_node20"><a xlink:href="class_ogre_1_1_box_emitter.html" target="_top" xlink:title="Particle emitter which emits particles randomly from points inside a box. ">
<polygon fill="none" stroke="#000000" points="544,-551.5 544,-570.5 636,-570.5 636,-551.5 544,-551.5"/>
<text text-anchor="middle" x="590" y="-558.5" font-family="Helvetica,sans-Serif" font-size="10.00" fill="#000000">Ogre::BoxEmitter</text>
</a>
</g>
</g>
<!-- Node18&#45;&gt;Node19 -->
<g id="edge19" class="edge">
<title>Node18&#45;&gt;Node19</title>
<path fill="none" stroke="#191970" d="M462.6759,-516.304C469.6008,-518.2984 476.5157,-520.5313 483,-523 499.9078,-529.437 502.156,-535.3979 519,-542 528.2665,-545.632 538.4775,-548.8147 548.1972,-551.4846"/>
<polygon fill="#191970" stroke="#191970" points="463.1404,-512.8031 452.5722,-513.553 461.3014,-519.5572 463.1404,-512.8031"/>
</g>
<!-- Node20 -->
<g id="node21" class="node">
<title>Node20</title>
<g id="a_node21"><a xlink:href="class_ogre_1_1_cylinder_emitter.html" target="_top" xlink:title="Particle emitter which emits particles randomly from points inside a cylinder. ">
<polygon fill="none" stroke="#000000" points="534.5,-513.5 534.5,-532.5 645.5,-532.5 645.5,-513.5 534.5,-513.5"/>
<text text-anchor="middle" x="590" y="-520.5" font-family="Helvetica,sans-Serif" font-size="10.00" fill="#000000">Ogre::CylinderEmitter</text>
</a>
</g>
</g>
<!-- Node18&#45;&gt;Node20 -->
<g id="edge20" class="edge">
<title>Node18&#45;&gt;Node20</title>
<path fill="none" stroke="#191970" d="M463.9325,-509.9822C486.3807,-512.3002 511.9801,-514.9436 534.2194,-517.24"/>
<polygon fill="#191970" stroke="#191970" points="464.1701,-506.4882 453.8635,-508.9424 463.4511,-513.4512 464.1701,-506.4882"/>
</g>
<!-- Node21 -->
<g id="node22" class="node">
<title>Node21</title>
<g id="a_node22"><a xlink:href="class_ogre_1_1_ellipsoid_emitter.html" target="_top" xlink:title="Particle emitter which emits particles randomly from points inside an ellipsoid. ">
<polygon fill="none" stroke="#000000" points="534,-475.5 534,-494.5 646,-494.5 646,-475.5 534,-475.5"/>
<text text-anchor="middle" x="590" y="-482.5" font-family="Helvetica,sans-Serif" font-size="10.00" fill="#000000">Ogre::EllipsoidEmitter</text>
</a>
</g>
</g>
<!-- Node18&#45;&gt;Node21 -->
<g id="edge21" class="edge">
<title>Node18&#45;&gt;Node21</title>
<path fill="none" stroke="#191970" d="M463.8878,-498.0225C486.2347,-495.7149 511.7099,-493.0843 533.8861,-490.7944"/>
<polygon fill="#191970" stroke="#191970" points="463.4511,-494.5488 453.8635,-499.0576 464.1701,-501.5118 463.4511,-494.5488"/>
</g>
<!-- Node23 -->
<g id="node24" class="node">
<title>Node23</title>
<g id="a_node24"><a xlink:href="class_ogre_1_1_ring_emitter.html" target="_top" xlink:title="Particle emitter which emits particles randomly from points inside a ring (e.g. ">
<polygon fill="none" stroke="#000000" points="542.5,-437.5 542.5,-456.5 637.5,-456.5 637.5,-437.5 542.5,-437.5"/>
<text text-anchor="middle" x="590" y="-444.5" font-family="Helvetica,sans-Serif" font-size="10.00" fill="#000000">Ogre::RingEmitter</text>
</a>
</g>
</g>
<!-- Node18&#45;&gt;Node23 -->
<g id="edge23" class="edge">
<title>Node18&#45;&gt;Node23</title>
<path fill="none" stroke="#191970" d="M462.6759,-491.696C469.6008,-489.7016 476.5157,-487.4687 483,-485 499.9078,-478.563 502.156,-472.6021 519,-466 528.2665,-462.368 538.4775,-459.1853 548.1972,-456.5154"/>
<polygon fill="#191970" stroke="#191970" points="461.3014,-488.4428 452.5722,-494.447 463.1404,-495.1969 461.3014,-488.4428"/>
</g>
<!-- Node22 -->
<g id="node23" class="node">
<title>Node22</title>
<g id="a_node23"><a xlink:href="class_ogre_1_1_hollow_ellipsoid_emitter.html" target="_top" xlink:title="Particle emitter which emits particles randomly from points inside a hollow ellipsoid. ">
<polygon fill="none" stroke="#000000" points="708.5,-475.5 708.5,-494.5 850.5,-494.5 850.5,-475.5 708.5,-475.5"/>
<text text-anchor="middle" x="779.5" y="-482.5" font-family="Helvetica,sans-Serif" font-size="10.00" fill="#000000">Ogre::HollowEllipsoidEmitter</text>
</a>
</g>
</g>
<!-- Node21&#45;&gt;Node22 -->
<g id="edge22" class="edge">
<title>Node21&#45;&gt;Node22</title>
<path fill="none" stroke="#191970" d="M656.3733,-485C673.2012,-485 691.3446,-485 708.3965,-485"/>
<polygon fill="#191970" stroke="#191970" points="656.0871,-481.5001 646.0871,-485 656.0871,-488.5001 656.0871,-481.5001"/>
</g>
<!-- Node27 -->
<g id="node28" class="node">
<title>Node27</title>
<g id="a_node28"><a xlink:href="class_ogre_1_1_billboard_particle_renderer.html" target="_top" xlink:title="Specialisation of ParticleSystemRenderer to render particles using a BillboardSet. ">
<polygon fill="none" stroke="#000000" points="329,-418.5 329,-437.5 483,-437.5 483,-418.5 329,-418.5"/>
<text text-anchor="middle" x="406" y="-425.5" font-family="Helvetica,sans-Serif" font-size="10.00" fill="#000000">Ogre::BillboardParticleRenderer</text>
</a>
</g>
</g>
<!-- Node26&#45;&gt;Node27 -->
<g id="edge27" class="edge">
<title>Node26&#45;&gt;Node27</title>
<path fill="none" stroke="#191970" d="M303.1174,-428C311.6933,-428 320.3686,-428 328.8545,-428"/>
<polygon fill="#191970" stroke="#191970" points="303.1131,-424.5001 293.1131,-428 303.113,-431.5001 303.1131,-424.5001"/>
</g>
<!-- Node29 -->
<g id="node30" class="node">
<title>Node29</title>
<g id="a_node30"><a xlink:href="class_ogre_1_1_bsp_level.html" target="_top" xlink:title="Holds all the data associated with a Binary Space Parition (BSP) based indoor level. ">
<polygon fill="none" stroke="#000000" points="364,-380.5 364,-399.5 448,-399.5 448,-380.5 364,-380.5"/>
<text text-anchor="middle" x="406" y="-387.5" font-family="Helvetica,sans-Serif" font-size="10.00" fill="#000000">Ogre::BspLevel</text>
</a>
</g>
</g>
<!-- Node28&#45;&gt;Node29 -->
<g id="edge29" class="edge">
<title>Node28&#45;&gt;Node29</title>
<path fill="none" stroke="#191970" d="M233.1624,-293.189C253.0413,-314.6423 289.9948,-350.9455 329,-371 339.7759,-376.5404 352.242,-380.5169 363.9629,-383.35"/>
<polygon fill="#191970" stroke="#191970" points="235.7262,-290.8061 226.4109,-285.7588 230.5455,-295.5136 235.7262,-290.8061"/>
</g>
<!-- Node30 -->
<g id="node31" class="node">
<title>Node30</title>
<g id="a_node31"><a xlink:href="class_ogre_1_1_compositor.html" target="_top" xlink:title="Class representing a Compositor object. ">
<polygon fill="none" stroke="#000000" points="359,-342.5 359,-361.5 453,-361.5 453,-342.5 359,-342.5"/>
<text text-anchor="middle" x="406" y="-349.5" font-family="Helvetica,sans-Serif" font-size="10.00" fill="#000000">Ogre::Compositor</text>
</a>
</g>
</g>
<!-- Node28&#45;&gt;Node30 -->
<g id="edge30" class="edge">
<title>Node28&#45;&gt;Node30</title>
<path fill="none" stroke="#191970" d="M242.3181,-290.5829C264.3181,-303.2608 297.9333,-321.3716 329,-333 338.8004,-336.6683 349.5682,-339.8332 359.8652,-342.4701"/>
<polygon fill="#191970" stroke="#191970" points="244.0425,-287.5368 233.642,-285.5168 240.5128,-293.5818 244.0425,-287.5368"/>
</g>
<!-- Node31 -->
<g id="node32" class="node">
<title>Node31</title>
<g id="a_node32"><a xlink:href="class_ogre_1_1_font.html" target="_top" xlink:title="Class representing a font in the system. ">
<polygon fill="none" stroke="#000000" points="374.5,-304.5 374.5,-323.5 437.5,-323.5 437.5,-304.5 374.5,-304.5"/>
<text text-anchor="middle" x="406" y="-311.5" font-family="Helvetica,sans-Serif" font-size="10.00" fill="#000000">Ogre::Font</text>
</a>
</g>
</g>
<!-- Node28&#45;&gt;Node31 -->
<g id="edge31" class="edge">
<title>Node28&#45;&gt;Node31</title>
<path fill="none" stroke="#191970" d="M271.1467,-286.7424C304.3724,-293.4582 346.0527,-301.883 374.2131,-307.575"/>
<polygon fill="#191970" stroke="#191970" points="271.6262,-283.2686 261.131,-284.718 270.2393,-290.1299 271.6262,-283.2686"/>
</g>
<!-- Node32 -->
<g id="node33" class="node">
<title>Node32</title>
<g id="a_node33"><a xlink:href="class_ogre_1_1_gpu_program.html" target="_top" xlink:title="Defines a program which runs on the GPU such as a vertex or fragment program. ">
<polygon fill="none" stroke="#000000" points="357,-266.5 357,-285.5 455,-285.5 455,-266.5 357,-266.5"/>
<text text-anchor="middle" x="406" y="-273.5" font-family="Helvetica,sans-Serif" font-size="10.00" fill="#000000">Ogre::GpuProgram</text>
</a>
</g>
</g>
<!-- Node28&#45;&gt;Node32 -->
<g id="edge32" class="edge">
<title>Node28&#45;&gt;Node32</title>
<path fill="none" stroke="#191970" d="M271.1399,-276C298.0259,-276 330.4492,-276 356.7654,-276"/>
<polygon fill="#191970" stroke="#191970" points="271.131,-272.5001 261.131,-276 271.131,-279.5001 271.131,-272.5001"/>
</g>
<!-- Node51 -->
<g id="node40" class="node">
<title>Node51</title>
<g id="a_node40"><a xlink:href="class_ogre_1_1_material.html" target="_top" xlink:title="Class encapsulates rendering properties of an object. ">
<polygon fill="none" stroke="#000000" points="367,-228.5 367,-247.5 445,-247.5 445,-228.5 367,-228.5"/>
<text text-anchor="middle" x="406" y="-235.5" font-family="Helvetica,sans-Serif" font-size="10.00" fill="#000000">Ogre::Material</text>
</a>
</g>
</g>
<!-- Node28&#45;&gt;Node51 -->
<g id="edge39" class="edge">
<title>Node28&#45;&gt;Node51</title>
<path fill="none" stroke="#191970" d="M271.1629,-265.2543C301.6187,-259.0983 339.174,-251.5074 366.9089,-245.9014"/>
<polygon fill="#191970" stroke="#191970" points="270.2393,-261.8701 261.131,-267.282 271.6262,-268.7314 270.2393,-261.8701"/>
</g>
<!-- Node52 -->
<g id="node41" class="node">
<title>Node52</title>
<g id="a_node41"><a xlink:href="class_ogre_1_1_mesh.html" target="_top" xlink:title="Resource holding data about 3D mesh. ">
<polygon fill="none" stroke="#000000" points="372,-190.5 372,-209.5 440,-209.5 440,-190.5 372,-190.5"/>
<text text-anchor="middle" x="406" y="-197.5" font-family="Helvetica,sans-Serif" font-size="10.00" fill="#000000">Ogre::Mesh</text>
</a>
</g>
</g>
<!-- Node28&#45;&gt;Node52 -->
<g id="edge40" class="edge">
<title>Node28&#45;&gt;Node52</title>
<path fill="none" stroke="#191970" d="M242.3181,-261.4171C264.3181,-248.7392 297.9333,-230.6284 329,-219 342.669,-213.8836 358.2198,-209.7468 371.7506,-206.6554"/>
<polygon fill="#191970" stroke="#191970" points="240.5128,-258.4182 233.642,-266.4832 244.0425,-264.4632 240.5128,-258.4182"/>
</g>
<!-- Node54 -->
<g id="node43" class="node">
<title>Node54</title>
<g id="a_node43"><a xlink:href="class_ogre_1_1_skeleton.html" target="_top" xlink:title="A collection of Bone objects used to animate a skinned mesh. ">
<polygon fill="none" stroke="#000000" points="365,-152.5 365,-171.5 447,-171.5 447,-152.5 365,-152.5"/>
<text text-anchor="middle" x="406" y="-159.5" font-family="Helvetica,sans-Serif" font-size="10.00" fill="#000000">Ogre::Skeleton</text>
</a>
</g>
</g>
<!-- Node28&#45;&gt;Node54 -->
<g id="edge42" class="edge">
<title>Node28&#45;&gt;Node54</title>
<path fill="none" stroke="#191970" d="M233.1624,-258.811C253.0413,-237.3577 289.9948,-201.0545 329,-181 340.0208,-175.3337 352.8095,-171.3032 364.7609,-168.4586"/>
<polygon fill="#191970" stroke="#191970" points="230.5455,-256.4864 226.4109,-266.2412 235.7262,-261.1939 230.5455,-256.4864"/>
</g>
<!-- Node56 -->
<g id="node45" class="node">
<title>Node56</title>
<g id="a_node45"><a xlink:href="class_ogre_1_1_texture.html" target="_top" xlink:title="Abstract class representing a Texture resource. ">
<polygon fill="none" stroke="#000000" points="367.5,-76.5 367.5,-95.5 444.5,-95.5 444.5,-76.5 367.5,-76.5"/>
<text text-anchor="middle" x="406" y="-83.5" font-family="Helvetica,sans-Serif" font-size="10.00" fill="#000000">Ogre::Texture</text>
</a>
</g>
</g>
<!-- Node28&#45;&gt;Node56 -->
<g id="edge44" class="edge">
<title>Node28&#45;&gt;Node56</title>
<path fill="none" stroke="#191970" d="M230.9021,-257.926C250.4423,-231.2019 289.4699,-180.2924 329,-143 348.8411,-124.2821 374.8616,-106.1537 391.0014,-95.5413"/>
<polygon fill="#191970" stroke="#191970" points="227.8631,-256.1554 224.8343,-266.3081 233.5333,-260.2601 227.8631,-256.1554"/>
</g>
<!-- Node33 -->
<g id="node34" class="node">
<title>Node33</title>
<g id="a_node34"><a xlink:href="class_ogre_1_1_d3_d9_gpu_program.html" target="_top" xlink:title="Direct3D implementation of a few things common to low&#45;level vertex &amp; fragment programs. ">
<polygon fill="none" stroke="#000000" points="528,-304.5 528,-323.5 652,-323.5 652,-304.5 528,-304.5"/>
<text text-anchor="middle" x="590" y="-311.5" font-family="Helvetica,sans-Serif" font-size="10.00" fill="#000000">Ogre::D3D9GpuProgram</text>
</a>
</g>
</g>
<!-- Node32&#45;&gt;Node33 -->
<g id="edge33" class="edge">
<title>Node32&#45;&gt;Node33</title>
<path fill="none" stroke="#191970" d="M462.5606,-287.681C488.6542,-293.0699 519.2378,-299.3861 543.9029,-304.4799"/>
<polygon fill="#191970" stroke="#191970" points="462.9322,-284.184 452.431,-285.589 461.5164,-291.0393 462.9322,-284.184"/>
</g>
<!-- Node36 -->
<g id="node37" class="node">
<title>Node36</title>
<g id="a_node37"><a xlink:href="class_ogre_1_1_g_l_gpu_program.html" target="_top" xlink:title="Generalised low&#45;level GL program, can be applied to multiple types (eg ARB and NV) ...">
<polygon fill="none" stroke="#ff0000" points="534.5,-266.5 534.5,-285.5 645.5,-285.5 645.5,-266.5 534.5,-266.5"/>
<text text-anchor="middle" x="590" y="-273.5" font-family="Helvetica,sans-Serif" font-size="10.00" fill="#000000">Ogre::GLGpuProgram</text>
</a>
</g>
</g>
<!-- Node32&#45;&gt;Node36 -->
<g id="edge36" class="edge">
<title>Node32&#45;&gt;Node36</title>
<path fill="none" stroke="#191970" d="M465.5711,-276C487.6756,-276 512.6442,-276 534.3825,-276"/>
<polygon fill="#191970" stroke="#191970" points="465.3087,-272.5001 455.3086,-276 465.3086,-279.5001 465.3087,-272.5001"/>
</g>
<!-- Node39 -->
<g id="node39" class="node">
<title>Node39</title>
<g id="a_node39"><a xlink:href="class_ogre_1_1_high_level_gpu_program.html" target="_top" xlink:title="Abstract base class representing a high&#45;level program (a vertex or fragment program). ">
<polygon fill="none" stroke="#ff0000" points="519,-228.5 519,-247.5 661,-247.5 661,-228.5 519,-228.5"/>
<text text-anchor="middle" x="590" y="-235.5" font-family="Helvetica,sans-Serif" font-size="10.00" fill="#000000">Ogre::HighLevelGpuProgram</text>
</a>
</g>
</g>
<!-- Node32&#45;&gt;Node39 -->
<g id="edge38" class="edge">
<title>Node32&#45;&gt;Node39</title>
<path fill="none" stroke="#191970" d="M462.5606,-264.319C488.6542,-258.9301 519.2378,-252.6139 543.9029,-247.5201"/>
<polygon fill="#191970" stroke="#191970" points="461.5164,-260.9607 452.431,-266.411 462.9322,-267.816 461.5164,-260.9607"/>
</g>
<!-- Node34 -->
<g id="node35" class="node">
<title>Node34</title>
<g id="a_node35"><a xlink:href="class_ogre_1_1_d3_d9_gpu_fragment_program.html" target="_top" xlink:title="Direct3D implementation of low&#45;level fragment programs. ">
<polygon fill="none" stroke="#000000" points="697,-342.5 697,-361.5 862,-361.5 862,-342.5 697,-342.5"/>
<text text-anchor="middle" x="779.5" y="-349.5" font-family="Helvetica,sans-Serif" font-size="10.00" fill="#000000">Ogre::D3D9GpuFragmentProgram</text>
</a>
</g>
</g>
<!-- Node33&#45;&gt;Node34 -->
<g id="edge34" class="edge">
<title>Node33&#45;&gt;Node34</title>
<path fill="none" stroke="#191970" d="M647.8948,-325.6095C674.846,-331.014 706.5102,-337.3635 732.025,-342.4799"/>
<polygon fill="#191970" stroke="#191970" points="648.3118,-322.1235 637.8189,-323.589 646.9355,-328.9869 648.3118,-322.1235"/>
</g>
<!-- Node35 -->
<g id="node36" class="node">
<title>Node35</title>
<g id="a_node36"><a xlink:href="class_ogre_1_1_d3_d9_gpu_vertex_program.html" target="_top" xlink:title="Direct3D implementation of low&#45;level vertex programs. ">
<polygon fill="none" stroke="#000000" points="703.5,-304.5 703.5,-323.5 855.5,-323.5 855.5,-304.5 703.5,-304.5"/>
<text text-anchor="middle" x="779.5" y="-311.5" font-family="Helvetica,sans-Serif" font-size="10.00" fill="#000000">Ogre::D3D9GpuVertexProgram</text>
</a>
</g>
</g>
<!-- Node33&#45;&gt;Node35 -->
<g id="edge35" class="edge">
<title>Node33&#45;&gt;Node35</title>
<path fill="none" stroke="#191970" d="M662.2125,-314C675.693,-314 689.8197,-314 703.4127,-314"/>
<polygon fill="#191970" stroke="#191970" points="662.0494,-310.5001 652.0494,-314 662.0494,-317.5001 662.0494,-310.5001"/>
</g>
<!-- Node37 -->
<g id="node38" class="node">
<title>Node37</title>
<g id="a_node38"><a xlink:href="class_ogre_1_1_g_l_arb_gpu_program.html" target="_top" xlink:title="Specialisation of the GL low&#45;level program for ARB programs. ">
<polygon fill="none" stroke="#000000" points="716.5,-266.5 716.5,-285.5 842.5,-285.5 842.5,-266.5 716.5,-266.5"/>
<text text-anchor="middle" x="779.5" y="-273.5" font-family="Helvetica,sans-Serif" font-size="10.00" fill="#000000">Ogre::GLArbGpuProgram</text>
</a>
</g>
</g>
<!-- Node36&#45;&gt;Node37 -->
<g id="edge37" class="edge">
<title>Node36&#45;&gt;Node37</title>
<path fill="none" stroke="#191970" d="M655.6575,-276C675.2974,-276 696.7841,-276 716.265,-276"/>
<polygon fill="#191970" stroke="#191970" points="655.5759,-272.5001 645.5758,-276 655.5758,-279.5001 655.5759,-272.5001"/>
</g>
<!-- Node53 -->
<g id="node42" class="node">
<title>Node53</title>
<g id="a_node42"><a xlink:href="class_ogre_1_1_patch_mesh.html" target="_top" xlink:title="Patch specialisation of Mesh. ">
<polygon fill="none" stroke="#000000" points="543.5,-190.5 543.5,-209.5 636.5,-209.5 636.5,-190.5 543.5,-190.5"/>
<text text-anchor="middle" x="590" y="-197.5" font-family="Helvetica,sans-Serif" font-size="10.00" fill="#000000">Ogre::PatchMesh</text>
</a>
</g>
</g>
<!-- Node52&#45;&gt;Node53 -->
<g id="edge41" class="edge">
<title>Node52&#45;&gt;Node53</title>
<path fill="none" stroke="#191970" d="M450.4951,-200C478.5376,-200 514.695,-200 543.1721,-200"/>
<polygon fill="#191970" stroke="#191970" points="450.1778,-196.5001 440.1778,-200 450.1777,-203.5001 450.1778,-196.5001"/>
</g>
<!-- Node55 -->
<g id="node44" class="node">
<title>Node55</title>
<g id="a_node44"><a xlink:href="class_ogre_1_1_skeleton_instance.html" target="_top" xlink:title="A SkeletonInstance is a single instance of a Skeleton used by a world object. ">
<polygon fill="none" stroke="#000000" points="530.5,-152.5 530.5,-171.5 649.5,-171.5 649.5,-152.5 530.5,-152.5"/>
<text text-anchor="middle" x="590" y="-159.5" font-family="Helvetica,sans-Serif" font-size="10.00" fill="#000000">Ogre::SkeletonInstance</text>
</a>
</g>
</g>
<!-- Node54&#45;&gt;Node55 -->
<g id="edge43" class="edge">
<title>Node54&#45;&gt;Node55</title>
<path fill="none" stroke="#191970" d="M457.3873,-162C480.0441,-162 506.8121,-162 530.3449,-162"/>
<polygon fill="#191970" stroke="#191970" points="457.2932,-158.5001 447.2932,-162 457.2932,-165.5001 457.2932,-158.5001"/>
</g>
<!-- Node57 -->
<g id="node46" class="node">
<title>Node57</title>
<g id="a_node46"><a xlink:href="class_ogre_1_1_d3_d11_texture.html" target="_top" xlink:title="Specialisation of Texture for D3D11. ">
<polygon fill="none" stroke="#000000" points="536.5,-114.5 536.5,-133.5 643.5,-133.5 643.5,-114.5 536.5,-114.5"/>
<text text-anchor="middle" x="590" y="-121.5" font-family="Helvetica,sans-Serif" font-size="10.00" fill="#000000">Ogre::D3D11Texture</text>
</a>
</g>
</g>
<!-- Node56&#45;&gt;Node57 -->
<g id="edge45" class="edge">
<title>Node56&#45;&gt;Node57</title>
<path fill="none" stroke="#191970" d="M454.4436,-96.0047C482.1493,-101.7265 516.7063,-108.8633 543.9946,-114.4989"/>
<polygon fill="#191970" stroke="#191970" points="455.0737,-92.561 444.5724,-93.966 453.6578,-99.4163 455.0737,-92.561"/>
</g>
<!-- Node58 -->
<g id="node47" class="node">
<title>Node58</title>
<g id="a_node47"><a xlink:href="class_ogre_1_1_d3_d9_texture.html" target="_top" xlink:title="Ogre::D3D9Texture">
<polygon fill="none" stroke="#000000" points="539,-76.5 539,-95.5 641,-95.5 641,-76.5 539,-76.5"/>
<text text-anchor="middle" x="590" y="-83.5" font-family="Helvetica,sans-Serif" font-size="10.00" fill="#000000">Ogre::D3D9Texture</text>
</a>
</g>
</g>
<!-- Node56&#45;&gt;Node58 -->
<g id="edge46" class="edge">
<title>Node56&#45;&gt;Node58</title>
<path fill="none" stroke="#191970" d="M454.5763,-86C480.5614,-86 512.544,-86 538.9023,-86"/>
<polygon fill="#191970" stroke="#191970" points="454.5725,-82.5001 444.5724,-86 454.5724,-89.5001 454.5725,-82.5001"/>
</g>
<!-- Node59 -->
<g id="node48" class="node">
<title>Node59</title>
<g id="a_node48"><a xlink:href="class_ogre_1_1_g_l_texture_common.html" target="_top" xlink:title="Ogre::GLTextureCommon">
<polygon fill="none" stroke="#ff0000" points="525.5,-38.5 525.5,-57.5 654.5,-57.5 654.5,-38.5 525.5,-38.5"/>
<text text-anchor="middle" x="590" y="-45.5" font-family="Helvetica,sans-Serif" font-size="10.00" fill="#000000">Ogre::GLTextureCommon</text>
</a>
</g>
</g>
<!-- Node56&#45;&gt;Node59 -->
<g id="edge47" class="edge">
<title>Node56&#45;&gt;Node59</title>
<path fill="none" stroke="#191970" d="M454.4436,-75.9953C482.1493,-70.2735 516.7063,-63.1367 543.9946,-57.5011"/>
<polygon fill="#191970" stroke="#191970" points="453.6578,-72.5837 444.5724,-78.034 455.0737,-79.439 453.6578,-72.5837"/>
</g>
<!-- Node63 -->
<g id="node49" class="node">
<title>Node63</title>
<g id="a_node49"><a xlink:href="class_ogre_1_1_metal_texture.html" target="_top" xlink:title="Ogre::MetalTexture">
<polygon fill="none" stroke="#ff0000" points="539.5,-.5 539.5,-19.5 640.5,-19.5 640.5,-.5 539.5,-.5"/>
<text text-anchor="middle" x="590" y="-7.5" font-family="Helvetica,sans-Serif" font-size="10.00" fill="#000000">Ogre::MetalTexture</text>
</a>
</g>
</g>
<!-- Node56&#45;&gt;Node63 -->
<g id="edge48" class="edge">
<title>Node56&#45;&gt;Node63</title>
<path fill="none" stroke="#191970" d="M431.2341,-71.3758C453.6963,-58.8228 487.7425,-40.9202 519,-29 528.4188,-25.4081 538.7858,-22.2237 548.6188,-19.5373"/>
<polygon fill="#191970" stroke="#191970" points="429.3402,-68.4259 422.3586,-76.3951 432.7861,-74.519 429.3402,-68.4259"/>
</g>
</g>
</svg>
