<?xml version="1.0" encoding="UTF-8" standalone="no"?>
<!DOCTYPE svg PUBLIC "-//W3C//DTD SVG 1.1//EN"
 "http://www.w3.org/Graphics/SVG/1.1/DTD/svg11.dtd">
<!-- Generated by graphviz version 2.40.1 (20161225.0304)
 -->
<!-- Title: Ogre::RenderSystem Pages: 1 -->
<svg width="619pt" height="142pt"
 viewBox="0.00 0.00 619.00 142.00" xmlns="http://www.w3.org/2000/svg" xmlns:xlink="http://www.w3.org/1999/xlink">
<g id="graph0" class="graph" transform="scale(1 1) rotate(0) translate(4 138)">
<title>Ogre::RenderSystem</title>
<!-- Node0 -->
<g id="node1" class="node">
<title>Node0</title>
<polygon fill="#bfbfbf" stroke="#000000" points="123,-57.5 123,-76.5 232,-76.5 232,-57.5 123,-57.5"/>
<text text-anchor="middle" x="177.5" y="-64.5" font-family="Helvetica,sans-Serif" font-size="10.00" fill="#000000">Ogre::RenderSystem</text>
</g>
<!-- Node2 -->
<g id="node3" class="node">
<title>Node2</title>
<g id="a_node3"><a xlink:href="class_ogre_1_1_d3_d11_render_system.html" target="_top" xlink:title="Implementation of DirectX11 as a rendering system. ">
<polygon fill="none" stroke="#000000" points="278.5,-114.5 278.5,-133.5 418.5,-133.5 418.5,-114.5 278.5,-114.5"/>
<text text-anchor="middle" x="348.5" y="-121.5" font-family="Helvetica,sans-Serif" font-size="10.00" fill="#000000">Ogre::D3D11RenderSystem</text>
</a>
</g>
</g>
<!-- Node0&#45;&gt;Node2 -->
<g id="edge2" class="edge">
<title>Node0&#45;&gt;Node2</title>
<path fill="none" stroke="#191970" d="M206.7482,-80.7371C224.2471,-88.5868 247.0816,-98.1917 268,-105 278.9237,-108.5554 290.8815,-111.7441 302.1602,-114.4481"/>
<polygon fill="#191970" stroke="#191970" points="208.1734,-77.5403 197.6217,-76.5857 205.275,-83.9121 208.1734,-77.5403"/>
</g>
<!-- Node3 -->
<g id="node4" class="node">
<title>Node3</title>
<g id="a_node4"><a xlink:href="class_ogre_1_1_d3_d9_render_system.html" target="_top" xlink:title="Implementation of DirectX9 as a rendering system. ">
<polygon fill="none" stroke="#000000" points="281.5,-76.5 281.5,-95.5 415.5,-95.5 415.5,-76.5 281.5,-76.5"/>
<text text-anchor="middle" x="348.5" y="-83.5" font-family="Helvetica,sans-Serif" font-size="10.00" fill="#000000">Ogre::D3D9RenderSystem</text>
</a>
</g>
</g>
<!-- Node0&#45;&gt;Node3 -->
<g id="edge3" class="edge">
<title>Node0&#45;&gt;Node3</title>
<path fill="none" stroke="#191970" d="M242.1613,-74.1846C254.9438,-75.6049 268.388,-77.0987 281.2538,-78.5282"/>
<polygon fill="#191970" stroke="#191970" points="242.401,-70.6898 232.0756,-73.064 241.6279,-77.647 242.401,-70.6898"/>
</g>
<!-- Node4 -->
<g id="node5" class="node">
<title>Node4</title>
<g id="a_node5"><a xlink:href="class_ogre_1_1_g_l_render_system_common.html" target="_top" xlink:title="Ogre::GLRenderSystemCommon">
<polygon fill="none" stroke="#000000" points="268,-38.5 268,-57.5 429,-57.5 429,-38.5 268,-38.5"/>
<text text-anchor="middle" x="348.5" y="-45.5" font-family="Helvetica,sans-Serif" font-size="10.00" fill="#000000">Ogre::GLRenderSystemCommon</text>
</a>
</g>
</g>
<!-- Node0&#45;&gt;Node4 -->
<g id="edge4" class="edge">
<title>Node0&#45;&gt;Node4</title>
<path fill="none" stroke="#191970" d="M242.1827,-59.813C250.6049,-58.8772 259.314,-57.9096 267.9554,-56.9494"/>
<polygon fill="#191970" stroke="#191970" points="241.6279,-56.353 232.0756,-60.936 242.401,-63.3102 241.6279,-56.353"/>
</g>
<!-- Node8 -->
<g id="node9" class="node">
<title>Node8</title>
<g id="a_node9"><a xlink:href="class_ogre_1_1_metal_render_system.html" target="_top" xlink:title="Implementation of Metal as a rendering system. ">
<polygon fill="none" stroke="#000000" points="282,-.5 282,-19.5 415,-19.5 415,-.5 282,-.5"/>
<text text-anchor="middle" x="348.5" y="-7.5" font-family="Helvetica,sans-Serif" font-size="10.00" fill="#000000">Ogre::MetalRenderSystem</text>
</a>
</g>
</g>
<!-- Node0&#45;&gt;Node8 -->
<g id="edge8" class="edge">
<title>Node0&#45;&gt;Node8</title>
<path fill="none" stroke="#191970" d="M206.7482,-53.2629C224.2471,-45.4132 247.0816,-35.8083 268,-29 278.9237,-25.4446 290.8815,-22.2559 302.1602,-19.5519"/>
<polygon fill="#191970" stroke="#191970" points="205.275,-50.0879 197.6217,-57.4143 208.1734,-56.4597 205.275,-50.0879"/>
</g>
<!-- Node1 -->
<g id="node2" class="node">
<title>Node1</title>
<g id="a_node2"><a xlink:href="class_ogre_1_1_allocated_object.html" target="_top" xlink:title="RenderSysAlloc">
<polygon fill="none" stroke="#000000" points="0,-57.5 0,-76.5 87,-76.5 87,-57.5 0,-57.5"/>
<text text-anchor="middle" x="43.5" y="-64.5" font-family="Helvetica,sans-Serif" font-size="10.00" fill="#000000">RenderSysAlloc</text>
</a>
</g>
</g>
<!-- Node1&#45;&gt;Node0 -->
<g id="edge1" class="edge">
<title>Node1&#45;&gt;Node0</title>
<path fill="none" stroke="#191970" d="M97.1713,-67C105.6575,-67 114.4411,-67 122.9473,-67"/>
<polygon fill="#191970" stroke="#191970" points="97.006,-63.5001 87.006,-67 97.0059,-70.5001 97.006,-63.5001"/>
</g>
<!-- Node5 -->
<g id="node6" class="node">
<title>Node5</title>
<g id="a_node6"><a xlink:href="class_ogre_1_1_g_l3_plus_render_system.html" target="_top" xlink:title="Implementation of GL 3 as a rendering system. ">
<polygon fill="none" stroke="#000000" points="465,-76.5 465,-95.5 611,-95.5 611,-76.5 465,-76.5"/>
<text text-anchor="middle" x="538" y="-83.5" font-family="Helvetica,sans-Serif" font-size="10.00" fill="#000000">Ogre::GL3PlusRenderSystem</text>
</a>
</g>
</g>
<!-- Node4&#45;&gt;Node5 -->
<g id="edge5" class="edge">
<title>Node4&#45;&gt;Node5</title>
<path fill="none" stroke="#191970" d="M406.3948,-59.6095C433.346,-65.014 465.0102,-71.3635 490.525,-76.4799"/>
<polygon fill="#191970" stroke="#191970" points="406.8118,-56.1235 396.3189,-57.589 405.4355,-62.9869 406.8118,-56.1235"/>
</g>
<!-- Node6 -->
<g id="node7" class="node">
<title>Node6</title>
<g id="a_node7"><a xlink:href="class_ogre_1_1_g_l_e_s2_render_system.html" target="_top" xlink:title="Implementation of GL ES 2.x as a rendering system. ">
<polygon fill="none" stroke="#000000" points="468,-38.5 468,-57.5 608,-57.5 608,-38.5 468,-38.5"/>
<text text-anchor="middle" x="538" y="-45.5" font-family="Helvetica,sans-Serif" font-size="10.00" fill="#000000">Ogre::GLES2RenderSystem</text>
</a>
</g>
</g>
<!-- Node4&#45;&gt;Node6 -->
<g id="edge6" class="edge">
<title>Node4&#45;&gt;Node6</title>
<path fill="none" stroke="#191970" d="M439.167,-48C448.8249,-48 458.5395,-48 467.9083,-48"/>
<polygon fill="#191970" stroke="#191970" points="439.1399,-44.5001 429.1398,-48 439.1398,-51.5001 439.1399,-44.5001"/>
</g>
<!-- Node7 -->
<g id="node8" class="node">
<title>Node7</title>
<g id="a_node8"><a xlink:href="class_ogre_1_1_g_l_render_system.html" target="_top" xlink:title="Implementation of GL as a rendering system. ">
<polygon fill="none" stroke="#000000" points="477,-.5 477,-19.5 599,-19.5 599,-.5 477,-.5"/>
<text text-anchor="middle" x="538" y="-7.5" font-family="Helvetica,sans-Serif" font-size="10.00" fill="#000000">Ogre::GLRenderSystem</text>
</a>
</g>
</g>
<!-- Node4&#45;&gt;Node7 -->
<g id="edge7" class="edge">
<title>Node4&#45;&gt;Node7</title>
<path fill="none" stroke="#191970" d="M406.3948,-36.3905C433.346,-30.986 465.0102,-24.6365 490.525,-19.5201"/>
<polygon fill="#191970" stroke="#191970" points="405.4355,-33.0131 396.3189,-38.411 406.8118,-39.8765 405.4355,-33.0131"/>
</g>
</g>
</svg>
