<?xml version="1.0" encoding="UTF-8" standalone="no"?>
<!DOCTYPE svg PUBLIC "-//W3C//DTD SVG 1.1//EN"
 "http://www.w3.org/Graphics/SVG/1.1/DTD/svg11.dtd">
<!-- Generated by graphviz version 2.40.1 (20161225.0304)
 -->
<!-- Title: Ogre::RenderWindow Pages: 1 -->
<svg width="782pt" height="148pt"
 viewBox="0.00 0.00 782.00 147.50" xmlns="http://www.w3.org/2000/svg" xmlns:xlink="http://www.w3.org/1999/xlink">
<g id="graph0" class="graph" transform="scale(1 1) rotate(0) translate(4 143.5)">
<title>Ogre::RenderWindow</title>
<!-- Node0 -->
<g id="node1" class="node">
<title>Node0</title>
<polygon fill="#bfbfbf" stroke="#000000" points="262,-57.5 262,-76.5 372,-76.5 372,-57.5 262,-57.5"/>
<text text-anchor="middle" x="317" y="-64.5" font-family="Helvetica,sans-Serif" font-size="10.00" fill="#000000">Ogre::RenderWindow</text>
</g>
<!-- Node3 -->
<g id="node4" class="node">
<title>Node3</title>
<g id="a_node4"><a xlink:href="class_ogre_1_1_d3_d11_render_window_base.html" target="_top" xlink:title="Ogre::D3D11RenderWindowBase">
<polygon fill="none" stroke="#000000" points="408,-114.5 408,-133.5 572,-133.5 572,-114.5 408,-114.5"/>
<text text-anchor="middle" x="490" y="-121.5" font-family="Helvetica,sans-Serif" font-size="10.00" fill="#000000">Ogre::D3D11RenderWindowBase</text>
</a>
</g>
</g>
<!-- Node0&#45;&gt;Node3 -->
<g id="edge3" class="edge">
<title>Node0&#45;&gt;Node3</title>
<path fill="none" stroke="#191970" d="M346.4074,-80.7605C364.002,-88.6182 386.9627,-98.2234 408,-105 419.1275,-108.5845 431.3082,-111.7841 442.7971,-114.4894"/>
<polygon fill="#191970" stroke="#191970" points="347.7841,-77.5418 337.2309,-76.6039 344.8959,-83.9182 347.7841,-77.5418"/>
</g>
<!-- Node5 -->
<g id="node6" class="node">
<title>Node5</title>
<g id="a_node6"><a xlink:href="class_ogre_1_1_d3_d9_render_window.html" target="_top" xlink:title="Ogre::D3D9RenderWindow">
<polygon fill="none" stroke="#000000" points="422,-76.5 422,-95.5 558,-95.5 558,-76.5 422,-76.5"/>
<text text-anchor="middle" x="490" y="-83.5" font-family="Helvetica,sans-Serif" font-size="10.00" fill="#000000">Ogre::D3D9RenderWindow</text>
</a>
</g>
</g>
<!-- Node0&#45;&gt;Node5 -->
<g id="edge5" class="edge">
<title>Node0&#45;&gt;Node5</title>
<path fill="none" stroke="#191970" d="M382.4176,-74.1846C395.3496,-75.6049 408.951,-77.0987 421.9672,-78.5282"/>
<polygon fill="#191970" stroke="#191970" points="382.5363,-70.6767 372.2139,-73.064 381.772,-77.6348 382.5363,-70.6767"/>
</g>
<!-- Node6 -->
<g id="node7" class="node">
<title>Node6</title>
<g id="a_node7"><a xlink:href="class_ogre_1_1_g_l_window.html" target="_top" xlink:title="Ogre::GLWindow">
<polygon fill="none" stroke="#000000" points="444,-38.5 444,-57.5 536,-57.5 536,-38.5 444,-38.5"/>
<text text-anchor="middle" x="490" y="-45.5" font-family="Helvetica,sans-Serif" font-size="10.00" fill="#000000">Ogre::GLWindow</text>
</a>
</g>
</g>
<!-- Node0&#45;&gt;Node6 -->
<g id="edge6" class="edge">
<title>Node0&#45;&gt;Node6</title>
<path fill="none" stroke="#191970" d="M382.1584,-59.8439C402.7424,-57.5832 425.0461,-55.1337 443.9994,-53.0521"/>
<polygon fill="#191970" stroke="#191970" points="381.772,-56.3652 372.2139,-60.936 382.5363,-63.3233 381.772,-56.3652"/>
</g>
<!-- Node7 -->
<g id="node8" class="node">
<title>Node7</title>
<g id="a_node8"><a xlink:href="class_ogre_1_1_metal_render_window.html" target="_top" xlink:title="Ogre::MetalRenderWindow">
<polygon fill="none" stroke="#000000" points="423,-.5 423,-19.5 557,-19.5 557,-.5 423,-.5"/>
<text text-anchor="middle" x="490" y="-7.5" font-family="Helvetica,sans-Serif" font-size="10.00" fill="#000000">Ogre::MetalRenderWindow</text>
</a>
</g>
</g>
<!-- Node0&#45;&gt;Node7 -->
<g id="edge7" class="edge">
<title>Node0&#45;&gt;Node7</title>
<path fill="none" stroke="#191970" d="M346.4074,-53.2395C364.002,-45.3818 386.9627,-35.7766 408,-29 419.1275,-25.4155 431.3082,-22.2159 442.7971,-19.5106"/>
<polygon fill="#191970" stroke="#191970" points="344.8959,-50.0818 337.2309,-57.3961 347.7841,-56.4582 344.8959,-50.0818"/>
</g>
<!-- Node1 -->
<g id="node2" class="node">
<title>Node1</title>
<g id="a_node2"><a xlink:href="class_ogre_1_1_render_target.html" target="_top" xlink:title="A &#39;canvas&#39; which can receive the results of a rendering operation. ">
<polygon fill="none" stroke="#000000" points="123,-57.5 123,-76.5 226,-76.5 226,-57.5 123,-57.5"/>
<text text-anchor="middle" x="174.5" y="-64.5" font-family="Helvetica,sans-Serif" font-size="10.00" fill="#000000">Ogre::RenderTarget</text>
</a>
</g>
</g>
<!-- Node1&#45;&gt;Node0 -->
<g id="edge1" class="edge">
<title>Node1&#45;&gt;Node0</title>
<path fill="none" stroke="#191970" d="M236.4362,-67C244.8029,-67 253.3439,-67 261.587,-67"/>
<polygon fill="#191970" stroke="#191970" points="236.3489,-63.5001 226.3489,-67 236.3488,-70.5001 236.3489,-63.5001"/>
</g>
<!-- Node2 -->
<g id="node3" class="node">
<title>Node2</title>
<g id="a_node3"><a xlink:href="class_ogre_1_1_allocated_object.html" target="_top" xlink:title="RenderSysAlloc">
<polygon fill="none" stroke="#000000" points="0,-57.5 0,-76.5 87,-76.5 87,-57.5 0,-57.5"/>
<text text-anchor="middle" x="43.5" y="-64.5" font-family="Helvetica,sans-Serif" font-size="10.00" fill="#000000">RenderSysAlloc</text>
</a>
</g>
</g>
<!-- Node2&#45;&gt;Node1 -->
<g id="edge2" class="edge">
<title>Node2&#45;&gt;Node1</title>
<path fill="none" stroke="#191970" d="M97.2744,-67C105.7407,-67 114.4771,-67 122.8928,-67"/>
<polygon fill="#191970" stroke="#191970" points="97.1211,-63.5001 87.1211,-67 97.1211,-70.5001 97.1211,-63.5001"/>
</g>
<!-- Node4 -->
<g id="node5" class="node">
<title>Node4</title>
<g id="a_node5"><a xlink:href="class_ogre_1_1_d3_d11_render_window_swap_chain_based.html" target="_top" xlink:title="Ogre::D3D11RenderWindowSwap\lChainBased">
<polygon fill="none" stroke="#000000" points="608,-109 608,-139 774,-139 774,-109 608,-109"/>
<text text-anchor="start" x="616" y="-127" font-family="Helvetica,sans-Serif" font-size="10.00" fill="#000000">Ogre::D3D11RenderWindowSwap</text>
<text text-anchor="middle" x="691" y="-116" font-family="Helvetica,sans-Serif" font-size="10.00" fill="#000000">ChainBased</text>
</a>
</g>
</g>
<!-- Node3&#45;&gt;Node4 -->
<g id="edge4" class="edge">
<title>Node3&#45;&gt;Node4</title>
<path fill="none" stroke="#191970" d="M582.0963,-124C590.7045,-124 599.3956,-124 607.9144,-124"/>
<polygon fill="#191970" stroke="#191970" points="582.0443,-120.5001 572.0443,-124 582.0443,-127.5001 582.0443,-120.5001"/>
</g>
</g>
</svg>
