<?xml version="1.0" encoding="UTF-8" standalone="no"?>
<!DOCTYPE svg PUBLIC "-//W3C//DTD SVG 1.1//EN"
 "http://www.w3.org/Graphics/SVG/1.1/DTD/svg11.dtd">
<!-- Generated by graphviz version 2.40.1 (20161225.0304)
 -->
<!-- Title: Ogre::HardwareIndexBuffer Pages: 1 -->
<svg width="590pt" height="313pt"
 viewBox="0.00 0.00 590.00 313.00" xmlns="http://www.w3.org/2000/svg" xmlns:xlink="http://www.w3.org/1999/xlink">
<g id="graph0" class="graph" transform="scale(1 1) rotate(0) translate(4 309)">
<title>Ogre::HardwareIndexBuffer</title>
<!-- Node0 -->
<g id="node1" class="node">
<title>Node0</title>
<polygon fill="#bfbfbf" stroke="#000000" points="249,-143 249,-162 385,-162 385,-143 249,-143"/>
<text text-anchor="middle" x="317" y="-150" font-family="Helvetica,sans-Serif" font-size="10.00" fill="#000000">Ogre::HardwareIndexBuffer</text>
</g>
<!-- Node3 -->
<g id="node4" class="node">
<title>Node3</title>
<g id="a_node4"><a xlink:href="class_ogre_1_1_d3_d11_hardware_index_buffer.html" target="_top" xlink:title="Ogre::D3D11HardwareIndex\lBuffer">
<polygon fill="none" stroke="#000000" points="431.5,-274.5 431.5,-304.5 571.5,-304.5 571.5,-274.5 431.5,-274.5"/>
<text text-anchor="start" x="439.5" y="-292.5" font-family="Helvetica,sans-Serif" font-size="10.00" fill="#000000">Ogre::D3D11HardwareIndex</text>
<text text-anchor="middle" x="501.5" y="-281.5" font-family="Helvetica,sans-Serif" font-size="10.00" fill="#000000">Buffer</text>
</a>
</g>
</g>
<!-- Node0&#45;&gt;Node3 -->
<g id="edge3" class="edge">
<title>Node0&#45;&gt;Node3</title>
<path fill="none" stroke="#191970" d="M329.1417,-170.6231C346.6174,-195.3475 381.1744,-239.4332 421,-264.5 427.0687,-268.3197 433.7634,-271.5931 440.6223,-274.3894"/>
<polygon fill="#191970" stroke="#191970" points="331.8689,-168.413 323.3049,-162.1752 326.1098,-172.3921 331.8689,-168.413"/>
</g>
<!-- Node4 -->
<g id="node5" class="node">
<title>Node4</title>
<g id="a_node5"><a xlink:href="class_ogre_1_1_d3_d9_hardware_index_buffer.html" target="_top" xlink:title="Ogre::D3D9HardwareIndexBuffer">
<polygon fill="none" stroke="#000000" points="421,-236 421,-255 582,-255 582,-236 421,-236"/>
<text text-anchor="middle" x="501.5" y="-243" font-family="Helvetica,sans-Serif" font-size="10.00" fill="#000000">Ogre::D3D9HardwareIndexBuffer</text>
</a>
</g>
</g>
<!-- Node0&#45;&gt;Node4 -->
<g id="edge4" class="edge">
<title>Node0&#45;&gt;Node4</title>
<path fill="none" stroke="#191970" d="M334.9489,-168.6109C354.675,-185.4773 387.9683,-211.5462 421,-226.5 429.503,-230.3494 438.8778,-233.469 448.1335,-235.9811"/>
<polygon fill="#191970" stroke="#191970" points="337.205,-165.9345 327.3657,-162.0051 332.607,-171.2127 337.205,-165.9345"/>
</g>
<!-- Node5 -->
<g id="node6" class="node">
<title>Node5</title>
<g id="a_node6"><a xlink:href="class_ogre_1_1_default_hardware_index_buffer.html" target="_top" xlink:title="Specialisation of HardwareIndexBuffer for emulation. ">
<polygon fill="none" stroke="#000000" points="431,-186.5 431,-216.5 572,-216.5 572,-186.5 431,-186.5"/>
<text text-anchor="start" x="439" y="-204.5" font-family="Helvetica,sans-Serif" font-size="10.00" fill="#000000">Ogre::DefaultHardwareIndex</text>
<text text-anchor="middle" x="501.5" y="-193.5" font-family="Helvetica,sans-Serif" font-size="10.00" fill="#000000">Buffer</text>
</a>
</g>
</g>
<!-- Node0&#45;&gt;Node5 -->
<g id="edge5" class="edge">
<title>Node0&#45;&gt;Node5</title>
<path fill="none" stroke="#191970" d="M362.8975,-164.6896C387.7156,-171.2808 418.5811,-179.4782 444.8812,-186.463"/>
<polygon fill="#191970" stroke="#191970" points="363.5748,-161.2482 353.0114,-162.064 361.778,-168.0137 363.5748,-161.2482"/>
</g>
<!-- Node6 -->
<g id="node7" class="node">
<title>Node6</title>
<g id="a_node7"><a xlink:href="class_ogre_1_1_g_l3_plus_hardware_index_buffer.html" target="_top" xlink:title="Ogre::GL3PlusHardwareIndex\lBuffer">
<polygon fill="none" stroke="#000000" points="428,-137.5 428,-167.5 575,-167.5 575,-137.5 428,-137.5"/>
<text text-anchor="start" x="436" y="-155.5" font-family="Helvetica,sans-Serif" font-size="10.00" fill="#000000">Ogre::GL3PlusHardwareIndex</text>
<text text-anchor="middle" x="501.5" y="-144.5" font-family="Helvetica,sans-Serif" font-size="10.00" fill="#000000">Buffer</text>
</a>
</g>
</g>
<!-- Node0&#45;&gt;Node6 -->
<g id="edge6" class="edge">
<title>Node0&#45;&gt;Node6</title>
<path fill="none" stroke="#191970" d="M395.363,-152.5C406.0896,-152.5 417.0726,-152.5 427.7138,-152.5"/>
<polygon fill="#191970" stroke="#191970" points="395.1768,-149.0001 385.1768,-152.5 395.1768,-156.0001 395.1768,-149.0001"/>
</g>
<!-- Node7 -->
<g id="node8" class="node">
<title>Node7</title>
<g id="a_node8"><a xlink:href="class_ogre_1_1_g_l_e_s2_hardware_index_buffer.html" target="_top" xlink:title="Ogre::GLES2HardwareIndex\lBuffer">
<polygon fill="none" stroke="#000000" points="431,-88.5 431,-118.5 572,-118.5 572,-88.5 431,-88.5"/>
<text text-anchor="start" x="439" y="-106.5" font-family="Helvetica,sans-Serif" font-size="10.00" fill="#000000">Ogre::GLES2HardwareIndex</text>
<text text-anchor="middle" x="501.5" y="-95.5" font-family="Helvetica,sans-Serif" font-size="10.00" fill="#000000">Buffer</text>
</a>
</g>
</g>
<!-- Node0&#45;&gt;Node7 -->
<g id="edge7" class="edge">
<title>Node0&#45;&gt;Node7</title>
<path fill="none" stroke="#191970" d="M362.8975,-140.3104C387.7156,-133.7192 418.5811,-125.5218 444.8812,-118.537"/>
<polygon fill="#191970" stroke="#191970" points="361.778,-136.9863 353.0114,-142.936 363.5748,-143.7518 361.778,-136.9863"/>
</g>
<!-- Node8 -->
<g id="node9" class="node">
<title>Node8</title>
<g id="a_node9"><a xlink:href="class_ogre_1_1_g_l_hardware_index_buffer.html" target="_top" xlink:title="Ogre::GLHardwareIndexBuffer">
<polygon fill="none" stroke="#000000" points="427,-50 427,-69 576,-69 576,-50 427,-50"/>
<text text-anchor="middle" x="501.5" y="-57" font-family="Helvetica,sans-Serif" font-size="10.00" fill="#000000">Ogre::GLHardwareIndexBuffer</text>
</a>
</g>
</g>
<!-- Node0&#45;&gt;Node8 -->
<g id="edge8" class="edge">
<title>Node0&#45;&gt;Node8</title>
<path fill="none" stroke="#191970" d="M334.9489,-136.3891C354.675,-119.5227 387.9683,-93.4538 421,-78.5 429.503,-74.6506 438.8778,-71.531 448.1335,-69.0189"/>
<polygon fill="#191970" stroke="#191970" points="332.607,-133.7873 327.3657,-142.9949 337.205,-139.0655 332.607,-133.7873"/>
</g>
<!-- Node9 -->
<g id="node10" class="node">
<title>Node9</title>
<g id="a_node10"><a xlink:href="class_ogre_1_1_metal_hardware_index_buffer.html" target="_top" xlink:title="Specialisation of HardwareIndexBuffer for Metal. ">
<polygon fill="none" stroke="#000000" points="434.5,-.5 434.5,-30.5 568.5,-30.5 568.5,-.5 434.5,-.5"/>
<text text-anchor="start" x="442.5" y="-18.5" font-family="Helvetica,sans-Serif" font-size="10.00" fill="#000000">Ogre::MetalHardwareIndex</text>
<text text-anchor="middle" x="501.5" y="-7.5" font-family="Helvetica,sans-Serif" font-size="10.00" fill="#000000">Buffer</text>
</a>
</g>
</g>
<!-- Node0&#45;&gt;Node9 -->
<g id="edge9" class="edge">
<title>Node0&#45;&gt;Node9</title>
<path fill="none" stroke="#191970" d="M329.1417,-134.3769C346.6174,-109.6525 381.1744,-65.5668 421,-40.5 427.0687,-36.6803 433.7634,-33.4069 440.6223,-30.6106"/>
<polygon fill="#191970" stroke="#191970" points="326.1098,-132.6079 323.3049,-142.8248 331.8689,-136.587 326.1098,-132.6079"/>
</g>
<!-- Node1 -->
<g id="node2" class="node">
<title>Node1</title>
<g id="a_node2"><a xlink:href="class_ogre_1_1_hardware_buffer.html" target="_top" xlink:title="Abstract class defining common features of hardware buffers. ">
<polygon fill="none" stroke="#000000" points="101,-143 101,-162 213,-162 213,-143 101,-143"/>
<text text-anchor="middle" x="157" y="-150" font-family="Helvetica,sans-Serif" font-size="10.00" fill="#000000">Ogre::HardwareBuffer</text>
</a>
</g>
</g>
<!-- Node1&#45;&gt;Node0 -->
<g id="edge1" class="edge">
<title>Node1&#45;&gt;Node0</title>
<path fill="none" stroke="#191970" d="M223.4701,-152.5C231.8207,-152.5 240.3739,-152.5 248.7513,-152.5"/>
<polygon fill="#191970" stroke="#191970" points="223.41,-149.0001 213.41,-152.5 223.41,-156.0001 223.41,-149.0001"/>
</g>
<!-- Node2 -->
<g id="node3" class="node">
<title>Node2</title>
<g id="a_node3"><a xlink:href="class_ogre_1_1_allocated_object.html" target="_top" xlink:title="BufferAlloc">
<polygon fill="none" stroke="#000000" points="0,-143 0,-162 65,-162 65,-143 0,-143"/>
<text text-anchor="middle" x="32.5" y="-150" font-family="Helvetica,sans-Serif" font-size="10.00" fill="#000000">BufferAlloc</text>
</a>
</g>
</g>
<!-- Node2&#45;&gt;Node1 -->
<g id="edge2" class="edge">
<title>Node2&#45;&gt;Node1</title>
<path fill="none" stroke="#191970" d="M75.3339,-152.5C83.5784,-152.5 92.3278,-152.5 100.9189,-152.5"/>
<polygon fill="#191970" stroke="#191970" points="75.2109,-149.0001 65.2109,-152.5 75.2109,-156.0001 75.2109,-149.0001"/>
</g>
</g>
</svg>
