<?xml version="1.0" encoding="UTF-8" standalone="no"?>
<!DOCTYPE svg PUBLIC "-//W3C//DTD SVG 1.1//EN"
 "http://www.w3.org/Graphics/SVG/1.1/DTD/svg11.dtd">
<!-- Generated by graphviz version 2.40.1 (20161225.0304)
 -->
<!-- Title: Ogre::TextureManager Pages: 1 -->
<svg width="606pt" height="256pt"
 viewBox="0.00 0.00 606.00 256.00" xmlns="http://www.w3.org/2000/svg" xmlns:xlink="http://www.w3.org/1999/xlink">
<g id="graph0" class="graph" transform="scale(1 1) rotate(0) translate(4 252)">
<title>Ogre::TextureManager</title>
<!-- Node0 -->
<g id="node1" class="node">
<title>Node0</title>
<polygon fill="#bfbfbf" stroke="#000000" points="296,-114.5 296,-133.5 410,-133.5 410,-114.5 296,-114.5"/>
<text text-anchor="middle" x="353" y="-121.5" font-family="Helvetica,sans-Serif" font-size="10.00" fill="#000000">Ogre::TextureManager</text>
</g>
<!-- Node5 -->
<g id="node6" class="node">
<title>Node5</title>
<g id="a_node6"><a xlink:href="class_ogre_1_1_d3_d11_texture_manager.html" target="_top" xlink:title="Ogre::D3D11TextureManager">
<polygon fill="none" stroke="#000000" points="449.5,-228.5 449.5,-247.5 594.5,-247.5 594.5,-228.5 449.5,-228.5"/>
<text text-anchor="middle" x="522" y="-235.5" font-family="Helvetica,sans-Serif" font-size="10.00" fill="#000000">Ogre::D3D11TextureManager</text>
</a>
</g>
</g>
<!-- Node0&#45;&gt;Node5 -->
<g id="edge5" class="edge">
<title>Node0&#45;&gt;Node5</title>
<path fill="none" stroke="#191970" d="M365.484,-141.784C381.5917,-163.369 411.6591,-199.3146 446,-219 452.7256,-222.8554 460.224,-225.9358 467.8176,-228.3953"/>
<polygon fill="#191970" stroke="#191970" points="368.1745,-139.5327 359.4636,-133.5018 362.5123,-143.6486 368.1745,-139.5327"/>
</g>
<!-- Node6 -->
<g id="node7" class="node">
<title>Node6</title>
<g id="a_node7"><a xlink:href="class_ogre_1_1_d3_d9_texture_manager.html" target="_top" xlink:title="Ogre::D3D9TextureManager">
<polygon fill="none" stroke="#000000" points="452,-190.5 452,-209.5 592,-209.5 592,-190.5 452,-190.5"/>
<text text-anchor="middle" x="522" y="-197.5" font-family="Helvetica,sans-Serif" font-size="10.00" fill="#000000">Ogre::D3D9TextureManager</text>
</a>
</g>
</g>
<!-- Node0&#45;&gt;Node6 -->
<g id="edge6" class="edge">
<title>Node0&#45;&gt;Node6</title>
<path fill="none" stroke="#191970" d="M374.016,-139.4704C392.238,-152.234 419.7399,-169.9773 446,-181 454.9038,-184.7374 464.7147,-187.8631 474.2446,-190.4291"/>
<polygon fill="#191970" stroke="#191970" points="376.0362,-136.6123 365.8622,-133.6559 371.972,-142.3116 376.0362,-136.6123"/>
</g>
<!-- Node7 -->
<g id="node8" class="node">
<title>Node7</title>
<g id="a_node8"><a xlink:href="class_ogre_1_1_default_texture_manager.html" target="_top" xlink:title="Specialisation of TextureManager for offline processing. Cannot be used with an active RenderSystem...">
<polygon fill="none" stroke="#000000" points="449,-152.5 449,-171.5 595,-171.5 595,-152.5 449,-152.5"/>
<text text-anchor="middle" x="522" y="-159.5" font-family="Helvetica,sans-Serif" font-size="10.00" fill="#000000">Ogre::DefaultTextureManager</text>
</a>
</g>
</g>
<!-- Node0&#45;&gt;Node7 -->
<g id="edge7" class="edge">
<title>Node0&#45;&gt;Node7</title>
<path fill="none" stroke="#191970" d="M405.5869,-135.8243C429.4129,-141.1816 457.2069,-147.4311 479.6608,-152.4799"/>
<polygon fill="#191970" stroke="#191970" points="406.1701,-132.3681 395.6458,-133.589 404.6344,-139.1976 406.1701,-132.3681"/>
</g>
<!-- Node8 -->
<g id="node9" class="node">
<title>Node8</title>
<g id="a_node9"><a xlink:href="class_ogre_1_1_g_l3_plus_texture_manager.html" target="_top" xlink:title="GL3Plus&#45;specific implementation of a TextureManager. ">
<polygon fill="none" stroke="#000000" points="446,-114.5 446,-133.5 598,-133.5 598,-114.5 446,-114.5"/>
<text text-anchor="middle" x="522" y="-121.5" font-family="Helvetica,sans-Serif" font-size="10.00" fill="#000000">Ogre::GL3PlusTextureManager</text>
</a>
</g>
</g>
<!-- Node0&#45;&gt;Node8 -->
<g id="edge8" class="edge">
<title>Node0&#45;&gt;Node8</title>
<path fill="none" stroke="#191970" d="M420.3458,-124C428.7666,-124 437.4247,-124 445.9662,-124"/>
<polygon fill="#191970" stroke="#191970" points="420.2157,-120.5001 410.2157,-124 420.2157,-127.5001 420.2157,-120.5001"/>
</g>
<!-- Node9 -->
<g id="node10" class="node">
<title>Node9</title>
<g id="a_node10"><a xlink:href="class_ogre_1_1_g_l_e_s2_texture_manager.html" target="_top" xlink:title="GL ES&#45;specific implementation of a TextureManager. ">
<polygon fill="none" stroke="#000000" points="449,-76.5 449,-95.5 595,-95.5 595,-76.5 449,-76.5"/>
<text text-anchor="middle" x="522" y="-83.5" font-family="Helvetica,sans-Serif" font-size="10.00" fill="#000000">Ogre::GLES2TextureManager</text>
</a>
</g>
</g>
<!-- Node0&#45;&gt;Node9 -->
<g id="edge9" class="edge">
<title>Node0&#45;&gt;Node9</title>
<path fill="none" stroke="#191970" d="M405.5869,-112.1757C429.4129,-106.8184 457.2069,-100.5689 479.6608,-95.5201"/>
<polygon fill="#191970" stroke="#191970" points="404.6344,-108.8024 395.6458,-114.411 406.1701,-115.6319 404.6344,-108.8024"/>
</g>
<!-- Node10 -->
<g id="node11" class="node">
<title>Node10</title>
<g id="a_node11"><a xlink:href="class_ogre_1_1_g_l_texture_manager.html" target="_top" xlink:title="GL&#45;specific implementation of a TextureManager. ">
<polygon fill="none" stroke="#000000" points="458.5,-38.5 458.5,-57.5 585.5,-57.5 585.5,-38.5 458.5,-38.5"/>
<text text-anchor="middle" x="522" y="-45.5" font-family="Helvetica,sans-Serif" font-size="10.00" fill="#000000">Ogre::GLTextureManager</text>
</a>
</g>
</g>
<!-- Node0&#45;&gt;Node10 -->
<g id="edge10" class="edge">
<title>Node0&#45;&gt;Node10</title>
<path fill="none" stroke="#191970" d="M374.016,-108.5296C392.238,-95.766 419.7399,-78.0227 446,-67 454.9038,-63.2626 464.7147,-60.1369 474.2446,-57.5709"/>
<polygon fill="#191970" stroke="#191970" points="371.972,-105.6884 365.8622,-114.3441 376.0362,-111.3877 371.972,-105.6884"/>
</g>
<!-- Node11 -->
<g id="node12" class="node">
<title>Node11</title>
<g id="a_node12"><a xlink:href="class_ogre_1_1_metal_texture_manager.html" target="_top" xlink:title="Ogre::MetalTextureManager">
<polygon fill="none" stroke="#000000" points="453,-.5 453,-19.5 591,-19.5 591,-.5 453,-.5"/>
<text text-anchor="middle" x="522" y="-7.5" font-family="Helvetica,sans-Serif" font-size="10.00" fill="#000000">Ogre::MetalTextureManager</text>
</a>
</g>
</g>
<!-- Node0&#45;&gt;Node11 -->
<g id="edge11" class="edge">
<title>Node0&#45;&gt;Node11</title>
<path fill="none" stroke="#191970" d="M365.484,-106.216C381.5917,-84.631 411.6591,-48.6854 446,-29 452.7256,-25.1446 460.224,-22.0642 467.8176,-19.6047"/>
<polygon fill="#191970" stroke="#191970" points="362.5123,-104.3514 359.4636,-114.4982 368.1745,-108.4673 362.5123,-104.3514"/>
</g>
<!-- Node1 -->
<g id="node2" class="node">
<title>Node1</title>
<g id="a_node2"><a xlink:href="class_ogre_1_1_resource_manager.html" target="_top" xlink:title="Defines a generic resource handler. ">
<polygon fill="none" stroke="#000000" points="135.5,-136.5 135.5,-155.5 258.5,-155.5 258.5,-136.5 135.5,-136.5"/>
<text text-anchor="middle" x="197" y="-143.5" font-family="Helvetica,sans-Serif" font-size="10.00" fill="#000000">Ogre::ResourceManager</text>
</a>
</g>
</g>
<!-- Node1&#45;&gt;Node0 -->
<g id="edge1" class="edge">
<title>Node1&#45;&gt;Node0</title>
<path fill="none" stroke="#191970" d="M268.8158,-135.8721C277.8805,-134.5938 287.0574,-133.2996 295.8525,-132.0593"/>
<polygon fill="#191970" stroke="#191970" points="268.0686,-132.4428 258.6553,-137.305 269.0461,-139.3742 268.0686,-132.4428"/>
</g>
<!-- Node2 -->
<g id="node3" class="node">
<title>Node2</title>
<g id="a_node3"><a xlink:href="class_ogre_1_1_script_loader.html" target="_top" xlink:title="Abstract class defining the interface used by classes which wish to perform script loading to define ...">
<polygon fill="none" stroke="#000000" points="0,-155.5 0,-174.5 98,-174.5 98,-155.5 0,-155.5"/>
<text text-anchor="middle" x="49" y="-162.5" font-family="Helvetica,sans-Serif" font-size="10.00" fill="#000000">Ogre::ScriptLoader</text>
</a>
</g>
</g>
<!-- Node2&#45;&gt;Node1 -->
<g id="edge2" class="edge">
<title>Node2&#45;&gt;Node1</title>
<path fill="none" stroke="#191970" d="M108.481,-157.3639C117.3085,-156.2307 126.4228,-155.0606 135.2947,-153.9216"/>
<polygon fill="#191970" stroke="#191970" points="107.7548,-153.9283 98.2819,-158.6733 108.6462,-160.8714 107.7548,-153.9283"/>
</g>
<!-- Node3 -->
<g id="node4" class="node">
<title>Node3</title>
<g id="a_node4"><a xlink:href="class_ogre_1_1_allocated_object.html" target="_top" xlink:title="ResourceAlloc">
<polygon fill="none" stroke="#000000" points="9,-117.5 9,-136.5 89,-136.5 89,-117.5 9,-117.5"/>
<text text-anchor="middle" x="49" y="-124.5" font-family="Helvetica,sans-Serif" font-size="10.00" fill="#000000">ResourceAlloc</text>
</a>
</g>
</g>
<!-- Node3&#45;&gt;Node1 -->
<g id="edge3" class="edge">
<title>Node3&#45;&gt;Node1</title>
<path fill="none" stroke="#191970" d="M99.0663,-133.4274C110.7638,-134.9291 123.3555,-136.5456 135.4862,-138.103"/>
<polygon fill="#191970" stroke="#191970" points="99.4152,-129.9436 89.0509,-132.1417 98.5238,-136.8866 99.4152,-129.9436"/>
</g>
<!-- Node4 -->
<g id="node5" class="node">
<title>Node4</title>
<g id="a_node5"><a xlink:href="class_ogre_1_1_singleton.html" target="_top" xlink:title="Ogre::Singleton\&lt; Texture\lManager \&gt;">
<polygon fill="none" stroke="#000000" points="134,-87 134,-117 260,-117 260,-87 134,-87"/>
<text text-anchor="start" x="142" y="-105" font-family="Helvetica,sans-Serif" font-size="10.00" fill="#000000">Ogre::Singleton&lt; Texture</text>
<text text-anchor="middle" x="197" y="-94" font-family="Helvetica,sans-Serif" font-size="10.00" fill="#000000">Manager &gt;</text>
</a>
</g>
</g>
<!-- Node4&#45;&gt;Node0 -->
<g id="edge4" class="edge">
<title>Node4&#45;&gt;Node0</title>
<path fill="none" stroke="#191970" d="M270.0786,-112.3059C278.7161,-113.5241 287.4344,-114.7536 295.8075,-115.9344"/>
<polygon fill="#191970" stroke="#191970" points="270.3923,-108.8156 260.0015,-110.8848 269.4147,-115.7471 270.3923,-108.8156"/>
</g>
</g>
</svg>
