<?xml version="1.0" encoding="UTF-8" standalone="no"?>
<!DOCTYPE svg PUBLIC "-//W3C//DTD SVG 1.1//EN"
 "http://www.w3.org/Graphics/SVG/1.1/DTD/svg11.dtd">
<!-- Generated by graphviz version 2.40.1 (20161225.0304)
 -->
<!-- Title: Ogre::HighLevelGpuProgram Pages: 1 -->
<svg width="1063pt" height="230pt"
 viewBox="0.00 0.00 1063.00 229.50" xmlns="http://www.w3.org/2000/svg" xmlns:xlink="http://www.w3.org/1999/xlink">
<g id="graph0" class="graph" transform="scale(1 1) rotate(0) translate(4 225.5)">
<title>Ogre::HighLevelGpuProgram</title>
<!-- Node0 -->
<g id="node1" class="node">
<title>Node0</title>
<polygon fill="#bfbfbf" stroke="#000000" points="399,-107 399,-126 541,-126 541,-107 399,-107"/>
<text text-anchor="middle" x="470" y="-114" font-family="Helvetica,sans-Serif" font-size="10.00" fill="#000000">Ogre::HighLevelGpuProgram</text>
</g>
<!-- Node5 -->
<g id="node6" class="node">
<title>Node5</title>
<g id="a_node6"><a xlink:href="class_ogre_1_1_cg_program.html" target="_top" xlink:title="Specialisation of HighLevelGpuProgram to provide support for nVidia&#39;s CG language. ">
<polygon fill="none" stroke="#000000" points="600,-202 600,-221 693,-221 693,-202 600,-202"/>
<text text-anchor="middle" x="646.5" y="-209" font-family="Helvetica,sans-Serif" font-size="10.00" fill="#000000">Ogre::CgProgram</text>
</a>
</g>
</g>
<!-- Node0&#45;&gt;Node5 -->
<g id="edge5" class="edge">
<title>Node0&#45;&gt;Node5</title>
<path fill="none" stroke="#191970" d="M488.5793,-132.813C508.97,-149.9375 543.3039,-176.5448 577,-192.5 584.9138,-196.2472 593.6961,-199.3658 602.2803,-201.9193"/>
<polygon fill="#191970" stroke="#191970" points="490.6133,-129.9474 480.7366,-126.1132 486.0666,-135.2697 490.6133,-129.9474"/>
</g>
<!-- Node6 -->
<g id="node7" class="node">
<title>Node6</title>
<g id="a_node7"><a xlink:href="class_ogre_1_1_d3_d11_h_l_s_l_program.html" target="_top" xlink:title="Specialization of HighLevelGpuProgram to provide support for D3D11 High&#45;Level Shader Language (HLSL)...">
<polygon fill="none" stroke="#000000" points="578.5,-164 578.5,-183 714.5,-183 714.5,-164 578.5,-164"/>
<text text-anchor="middle" x="646.5" y="-171" font-family="Helvetica,sans-Serif" font-size="10.00" fill="#000000">Ogre::D3D11HLSLProgram</text>
</a>
</g>
</g>
<!-- Node0&#45;&gt;Node6 -->
<g id="edge6" class="edge">
<title>Node0&#45;&gt;Node6</title>
<path fill="none" stroke="#191970" d="M504.7209,-129.5688C525.5506,-137.2238 552.644,-146.8575 577,-154.5 587.5028,-157.7956 598.9973,-161.0706 609.5607,-163.9497"/>
<polygon fill="#191970" stroke="#191970" points="505.9247,-126.2823 495.3315,-126.0964 503.4967,-132.8478 505.9247,-126.2823"/>
</g>
<!-- Node7 -->
<g id="node8" class="node">
<title>Node7</title>
<g id="a_node8"><a xlink:href="class_ogre_1_1_d3_d9_h_l_s_l_program.html" target="_top" xlink:title="Specialisation of HighLevelGpuProgram to provide support for D3D9 High&#45;Level Shader Language (HLSL)...">
<polygon fill="none" stroke="#000000" points="581,-126 581,-145 712,-145 712,-126 581,-126"/>
<text text-anchor="middle" x="646.5" y="-133" font-family="Helvetica,sans-Serif" font-size="10.00" fill="#000000">Ogre::D3D9HLSLProgram</text>
</a>
</g>
</g>
<!-- Node0&#45;&gt;Node7 -->
<g id="edge7" class="edge">
<title>Node0&#45;&gt;Node7</title>
<path fill="none" stroke="#191970" d="M551.2609,-125.2476C561.1428,-126.3114 571.1424,-127.3879 580.7598,-128.4231"/>
<polygon fill="#191970" stroke="#191970" points="551.3436,-121.7364 541.0264,-124.1459 550.5943,-128.6962 551.3436,-121.7364"/>
</g>
<!-- Node8 -->
<g id="node9" class="node">
<title>Node8</title>
<g id="a_node9"><a xlink:href="class_ogre_1_1_g_l_s_l_shader_common.html" target="_top" xlink:title="Specialisation of HighLevelGpuProgram to provide support for OpenGL Shader Language (GLSL)...">
<polygon fill="none" stroke="#000000" points="577,-88 577,-107 716,-107 716,-88 577,-88"/>
<text text-anchor="middle" x="646.5" y="-95" font-family="Helvetica,sans-Serif" font-size="10.00" fill="#000000">Ogre::GLSLShaderCommon</text>
</a>
</g>
</g>
<!-- Node0&#45;&gt;Node8 -->
<g id="edge8" class="edge">
<title>Node0&#45;&gt;Node8</title>
<path fill="none" stroke="#191970" d="M551.0491,-107.7752C559.6395,-106.8504 568.3216,-105.9158 576.7668,-105.0067"/>
<polygon fill="#191970" stroke="#191970" points="550.5943,-104.3038 541.0264,-108.8541 551.3436,-111.2636 550.5943,-104.3038"/>
</g>
<!-- Node14 -->
<g id="node15" class="node">
<title>Node14</title>
<g id="a_node15"><a xlink:href="class_ogre_1_1_metal_program.html" target="_top" xlink:title="Specialisation of HighLevelGpuProgram to provide support for Metal Shader Language. ">
<polygon fill="none" stroke="#000000" points="594.5,-50 594.5,-69 698.5,-69 698.5,-50 594.5,-50"/>
<text text-anchor="middle" x="646.5" y="-57" font-family="Helvetica,sans-Serif" font-size="10.00" fill="#000000">Ogre::MetalProgram</text>
</a>
</g>
</g>
<!-- Node0&#45;&gt;Node14 -->
<g id="edge14" class="edge">
<title>Node0&#45;&gt;Node14</title>
<path fill="none" stroke="#191970" d="M504.7209,-103.4312C525.5506,-95.7762 552.644,-86.1425 577,-78.5 587.5028,-75.2044 598.9973,-71.9294 609.5607,-69.0503"/>
<polygon fill="#191970" stroke="#191970" points="503.4967,-100.1522 495.3315,-106.9036 505.9247,-106.7177 503.4967,-100.1522"/>
</g>
<!-- Node15 -->
<g id="node16" class="node">
<title>Node15</title>
<g id="a_node16"><a xlink:href="class_ogre_1_1_unified_high_level_gpu_program.html" target="_top" xlink:title="Specialisation of HighLevelGpuProgram which just delegates its implementation to one other GpuProgram...">
<polygon fill="none" stroke="#000000" points="578.5,-.5 578.5,-30.5 714.5,-30.5 714.5,-.5 578.5,-.5"/>
<text text-anchor="start" x="586.5" y="-18.5" font-family="Helvetica,sans-Serif" font-size="10.00" fill="#000000">Ogre::UnifiedHighLevelGpu</text>
<text text-anchor="middle" x="646.5" y="-7.5" font-family="Helvetica,sans-Serif" font-size="10.00" fill="#000000">Program</text>
</a>
</g>
</g>
<!-- Node0&#45;&gt;Node15 -->
<g id="edge15" class="edge">
<title>Node0&#45;&gt;Node15</title>
<path fill="none" stroke="#191970" d="M489.1655,-100.4297C509.8092,-83.7267 544.1321,-57.6718 577,-40.5 583.9328,-36.878 591.5077,-33.5626 599.0252,-30.6134"/>
<polygon fill="#191970" stroke="#191970" points="486.7127,-97.9148 481.1998,-106.9624 491.1516,-103.3274 486.7127,-97.9148"/>
</g>
<!-- Node1 -->
<g id="node2" class="node">
<title>Node1</title>
<g id="a_node2"><a xlink:href="class_ogre_1_1_gpu_program.html" target="_top" xlink:title="Defines a program which runs on the GPU such as a vertex or fragment program. ">
<polygon fill="none" stroke="#000000" points="265,-107 265,-126 363,-126 363,-107 265,-107"/>
<text text-anchor="middle" x="314" y="-114" font-family="Helvetica,sans-Serif" font-size="10.00" fill="#000000">Ogre::GpuProgram</text>
</a>
</g>
</g>
<!-- Node1&#45;&gt;Node0 -->
<g id="edge1" class="edge">
<title>Node1&#45;&gt;Node0</title>
<path fill="none" stroke="#191970" d="M373.5907,-116.5C381.8138,-116.5 390.3263,-116.5 398.7338,-116.5"/>
<polygon fill="#191970" stroke="#191970" points="373.3594,-113.0001 363.3594,-116.5 373.3593,-120.0001 373.3594,-113.0001"/>
</g>
<!-- Node2 -->
<g id="node3" class="node">
<title>Node2</title>
<g id="a_node3"><a xlink:href="class_ogre_1_1_resource.html" target="_top" xlink:title="Abstract class representing a loadable resource. ">
<polygon fill="none" stroke="#000000" points="143,-107 143,-126 229,-126 229,-107 143,-107"/>
<text text-anchor="middle" x="186" y="-114" font-family="Helvetica,sans-Serif" font-size="10.00" fill="#000000">Ogre::Resource</text>
</a>
</g>
</g>
<!-- Node2&#45;&gt;Node1 -->
<g id="edge2" class="edge">
<title>Node2&#45;&gt;Node1</title>
<path fill="none" stroke="#191970" d="M239.4794,-116.5C247.932,-116.5 256.6364,-116.5 264.9808,-116.5"/>
<polygon fill="#191970" stroke="#191970" points="239.335,-113.0001 229.335,-116.5 239.3349,-120.0001 239.335,-113.0001"/>
</g>
<!-- Node3 -->
<g id="node4" class="node">
<title>Node3</title>
<g id="a_node4"><a xlink:href="class_ogre_1_1_string_interface.html" target="_top" xlink:title="Class defining the common interface which classes can use to present a reflection&#45;style, self&#45;defining parameter set to callers. ">
<polygon fill="none" stroke="#000000" points="0,-126 0,-145 107,-145 107,-126 0,-126"/>
<text text-anchor="middle" x="53.5" y="-133" font-family="Helvetica,sans-Serif" font-size="10.00" fill="#000000">Ogre::StringInterface</text>
</a>
</g>
</g>
<!-- Node3&#45;&gt;Node2 -->
<g id="edge3" class="edge">
<title>Node3&#45;&gt;Node2</title>
<path fill="none" stroke="#191970" d="M117.1703,-126.3699C125.8787,-125.1212 134.6466,-123.8639 142.8709,-122.6846"/>
<polygon fill="#191970" stroke="#191970" points="116.4128,-122.9427 107.0109,-127.8267 117.4065,-129.8718 116.4128,-122.9427"/>
</g>
<!-- Node4 -->
<g id="node5" class="node">
<title>Node4</title>
<g id="a_node5"><a xlink:href="class_ogre_1_1_allocated_object.html" target="_top" xlink:title="ResourceAlloc">
<polygon fill="none" stroke="#000000" points="13.5,-88 13.5,-107 93.5,-107 93.5,-88 13.5,-88"/>
<text text-anchor="middle" x="53.5" y="-95" font-family="Helvetica,sans-Serif" font-size="10.00" fill="#000000">ResourceAlloc</text>
</a>
</g>
</g>
<!-- Node4&#45;&gt;Node2 -->
<g id="edge4" class="edge">
<title>Node4&#45;&gt;Node2</title>
<path fill="none" stroke="#191970" d="M103.7115,-104.7001C116.5821,-106.5457 130.312,-108.5146 142.795,-110.3046"/>
<polygon fill="#191970" stroke="#191970" points="104.0095,-101.2072 93.6139,-103.2522 103.0159,-108.1363 104.0095,-101.2072"/>
</g>
<!-- Node9 -->
<g id="node10" class="node">
<title>Node9</title>
<g id="a_node10"><a xlink:href="class_ogre_1_1_g_l_s_l_1_1_g_l_s_l_program.html" target="_top" xlink:title="Ogre::GLSL::GLSLProgram">
<polygon fill="none" stroke="#000000" points="752,-126 752,-145 888,-145 888,-126 752,-126"/>
<text text-anchor="middle" x="820" y="-133" font-family="Helvetica,sans-Serif" font-size="10.00" fill="#000000">Ogre::GLSL::GLSLProgram</text>
</a>
</g>
</g>
<!-- Node8&#45;&gt;Node9 -->
<g id="edge9" class="edge">
<title>Node8&#45;&gt;Node9</title>
<path fill="none" stroke="#191970" d="M700.1598,-109.2526C724.6927,-114.6258 753.3787,-120.9086 776.5335,-125.9799"/>
<polygon fill="#191970" stroke="#191970" points="700.7987,-105.8096 690.2814,-107.089 699.301,-112.6475 700.7987,-105.8096"/>
</g>
<!-- Node10 -->
<g id="node11" class="node">
<title>Node10</title>
<g id="a_node11"><a xlink:href="class_ogre_1_1_g_l_s_l_e_s_program.html" target="_top" xlink:title="Ogre::GLSLESProgram">
<polygon fill="none" stroke="#000000" points="760.5,-88 760.5,-107 879.5,-107 879.5,-88 760.5,-88"/>
<text text-anchor="middle" x="820" y="-95" font-family="Helvetica,sans-Serif" font-size="10.00" fill="#000000">Ogre::GLSLESProgram</text>
</a>
</g>
</g>
<!-- Node8&#45;&gt;Node10 -->
<g id="edge10" class="edge">
<title>Node8&#45;&gt;Node10</title>
<path fill="none" stroke="#191970" d="M726.1505,-97.5C737.6951,-97.5 749.4086,-97.5 760.4656,-97.5"/>
<polygon fill="#191970" stroke="#191970" points="726.0694,-94.0001 716.0694,-97.5 726.0694,-101.0001 726.0694,-94.0001"/>
</g>
<!-- Node12 -->
<g id="node13" class="node">
<title>Node12</title>
<g id="a_node13"><a xlink:href="class_ogre_1_1_g_l_s_l_shader.html" target="_top" xlink:title="Ogre::GLSLShader">
<polygon fill="none" stroke="#000000" points="770.5,-50 770.5,-69 869.5,-69 869.5,-50 770.5,-50"/>
<text text-anchor="middle" x="820" y="-57" font-family="Helvetica,sans-Serif" font-size="10.00" fill="#000000">Ogre::GLSLShader</text>
</a>
</g>
</g>
<!-- Node8&#45;&gt;Node12 -->
<g id="edge12" class="edge">
<title>Node8&#45;&gt;Node12</title>
<path fill="none" stroke="#191970" d="M700.1598,-85.7474C724.6927,-80.3742 753.3787,-74.0914 776.5335,-69.0201"/>
<polygon fill="#191970" stroke="#191970" points="699.301,-82.3525 690.2814,-87.911 700.7987,-89.1904 699.301,-82.3525"/>
</g>
<!-- Node11 -->
<g id="node12" class="node">
<title>Node11</title>
<g id="a_node12"><a xlink:href="class_ogre_1_1_g_l_s_l_e_s_cg_program.html" target="_top" xlink:title="Specialisation of HighLevelGpuProgram to provide support for CG. ">
<polygon fill="none" stroke="#000000" points="924,-88 924,-107 1055,-107 1055,-88 924,-88"/>
<text text-anchor="middle" x="989.5" y="-95" font-family="Helvetica,sans-Serif" font-size="10.00" fill="#000000">Ogre::GLSLESCgProgram</text>
</a>
</g>
</g>
<!-- Node10&#45;&gt;Node11 -->
<g id="edge11" class="edge">
<title>Node10&#45;&gt;Node11</title>
<path fill="none" stroke="#191970" d="M889.9599,-97.5C901.2027,-97.5 912.8038,-97.5 923.9385,-97.5"/>
<polygon fill="#191970" stroke="#191970" points="889.7594,-94.0001 879.7594,-97.5 889.7593,-101.0001 889.7594,-94.0001"/>
</g>
<!-- Node13 -->
<g id="node14" class="node">
<title>Node13</title>
<g id="a_node14"><a xlink:href="class_ogre_1_1_s_p_i_r_v_shader.html" target="_top" xlink:title="Ogre::SPIRVShader">
<polygon fill="none" stroke="#000000" points="937,-50 937,-69 1042,-69 1042,-50 937,-50"/>
<text text-anchor="middle" x="989.5" y="-57" font-family="Helvetica,sans-Serif" font-size="10.00" fill="#000000">Ogre::SPIRVShader</text>
</a>
</g>
</g>
<!-- Node12&#45;&gt;Node13 -->
<g id="edge13" class="edge">
<title>Node12&#45;&gt;Node13</title>
<path fill="none" stroke="#191970" d="M880.0557,-59.5C898.6332,-59.5 918.9453,-59.5 936.972,-59.5"/>
<polygon fill="#191970" stroke="#191970" points="879.9389,-56.0001 869.9388,-59.5 879.9388,-63.0001 879.9389,-56.0001"/>
</g>
</g>
</svg>
