<?xml version="1.0" encoding="UTF-8" standalone="no"?>
<!DOCTYPE svg PUBLIC "-//W3C//DTD SVG 1.1//EN"
 "http://www.w3.org/Graphics/SVG/1.1/DTD/svg11.dtd">
<!-- Generated by graphviz version 2.40.1 (20161225.0304)
 -->
<!-- Title: Ogre::GpuProgram Pages: 1 -->
<svg width="1089pt" height="382pt"
 viewBox="0.00 0.00 1089.00 381.50" xmlns="http://www.w3.org/2000/svg" xmlns:xlink="http://www.w3.org/1999/xlink">
<g id="graph0" class="graph" transform="scale(1 1) rotate(0) translate(4 377.5)">
<title>Ogre::GpuProgram</title>
<!-- Node0 -->
<g id="node1" class="node">
<title>Node0</title>
<polygon fill="#bfbfbf" stroke="#000000" points="265,-259 265,-278 363,-278 363,-259 265,-259"/>
<text text-anchor="middle" x="314" y="-266" font-family="Helvetica,sans-Serif" font-size="10.00" fill="#000000">Ogre::GpuProgram</text>
</g>
<!-- Node4 -->
<g id="node5" class="node">
<title>Node4</title>
<g id="a_node5"><a xlink:href="class_ogre_1_1_d3_d9_gpu_program.html" target="_top" xlink:title="Direct3D implementation of a few things common to low&#45;level vertex &amp; fragment programs. ">
<polygon fill="none" stroke="#000000" points="408,-316 408,-335 532,-335 532,-316 408,-316"/>
<text text-anchor="middle" x="470" y="-323" font-family="Helvetica,sans-Serif" font-size="10.00" fill="#000000">Ogre::D3D9GpuProgram</text>
</a>
</g>
</g>
<!-- Node0&#45;&gt;Node4 -->
<g id="edge4" class="edge">
<title>Node0&#45;&gt;Node4</title>
<path fill="none" stroke="#191970" d="M349.7582,-281.5655C378.4329,-292.0428 418.0139,-306.5051 443.8039,-315.9284"/>
<polygon fill="#191970" stroke="#191970" points="350.7047,-278.1851 340.1109,-278.0405 348.3024,-284.7599 350.7047,-278.1851"/>
</g>
<!-- Node7 -->
<g id="node8" class="node">
<title>Node7</title>
<g id="a_node8"><a xlink:href="class_ogre_1_1_g_l_gpu_program.html" target="_top" xlink:title="Generalised low&#45;level GL program, can be applied to multiple types (eg ARB and NV) ...">
<polygon fill="none" stroke="#000000" points="414.5,-259 414.5,-278 525.5,-278 525.5,-259 414.5,-259"/>
<text text-anchor="middle" x="470" y="-266" font-family="Helvetica,sans-Serif" font-size="10.00" fill="#000000">Ogre::GLGpuProgram</text>
</a>
</g>
</g>
<!-- Node0&#45;&gt;Node7 -->
<g id="edge7" class="edge">
<title>Node0&#45;&gt;Node7</title>
<path fill="none" stroke="#191970" d="M373.4689,-268.5C386.9256,-268.5 401.1635,-268.5 414.4511,-268.5"/>
<polygon fill="#191970" stroke="#191970" points="373.3594,-265.0001 363.3594,-268.5 373.3593,-272.0001 373.3594,-265.0001"/>
</g>
<!-- Node10 -->
<g id="node11" class="node">
<title>Node10</title>
<g id="a_node11"><a xlink:href="class_ogre_1_1_high_level_gpu_program.html" target="_top" xlink:title="Abstract base class representing a high&#45;level program (a vertex or fragment program). ">
<polygon fill="none" stroke="#000000" points="399,-126 399,-145 541,-145 541,-126 399,-126"/>
<text text-anchor="middle" x="470" y="-133" font-family="Helvetica,sans-Serif" font-size="10.00" fill="#000000">Ogre::HighLevelGpuProgram</text>
</a>
</g>
</g>
<!-- Node0&#45;&gt;Node10 -->
<g id="edge10" class="edge">
<title>Node0&#45;&gt;Node10</title>
<path fill="none" stroke="#191970" d="M333.1646,-252.161C365.9536,-224.2062 431.8506,-168.0248 458.4616,-145.3372"/>
<polygon fill="#191970" stroke="#191970" points="330.5582,-249.7837 325.2191,-258.935 335.0997,-255.1106 330.5582,-249.7837"/>
</g>
<!-- Node1 -->
<g id="node2" class="node">
<title>Node1</title>
<g id="a_node2"><a xlink:href="class_ogre_1_1_resource.html" target="_top" xlink:title="Abstract class representing a loadable resource. ">
<polygon fill="none" stroke="#000000" points="143,-259 143,-278 229,-278 229,-259 143,-259"/>
<text text-anchor="middle" x="186" y="-266" font-family="Helvetica,sans-Serif" font-size="10.00" fill="#000000">Ogre::Resource</text>
</a>
</g>
</g>
<!-- Node1&#45;&gt;Node0 -->
<g id="edge1" class="edge">
<title>Node1&#45;&gt;Node0</title>
<path fill="none" stroke="#191970" d="M239.4794,-268.5C247.932,-268.5 256.6364,-268.5 264.9808,-268.5"/>
<polygon fill="#191970" stroke="#191970" points="239.335,-265.0001 229.335,-268.5 239.3349,-272.0001 239.335,-265.0001"/>
</g>
<!-- Node2 -->
<g id="node3" class="node">
<title>Node2</title>
<g id="a_node3"><a xlink:href="class_ogre_1_1_string_interface.html" target="_top" xlink:title="Class defining the common interface which classes can use to present a reflection&#45;style, self&#45;defining parameter set to callers. ">
<polygon fill="none" stroke="#000000" points="0,-278 0,-297 107,-297 107,-278 0,-278"/>
<text text-anchor="middle" x="53.5" y="-285" font-family="Helvetica,sans-Serif" font-size="10.00" fill="#000000">Ogre::StringInterface</text>
</a>
</g>
</g>
<!-- Node2&#45;&gt;Node1 -->
<g id="edge2" class="edge">
<title>Node2&#45;&gt;Node1</title>
<path fill="none" stroke="#191970" d="M117.1703,-278.3699C125.8787,-277.1212 134.6466,-275.8639 142.8709,-274.6846"/>
<polygon fill="#191970" stroke="#191970" points="116.4128,-274.9427 107.0109,-279.8267 117.4065,-281.8718 116.4128,-274.9427"/>
</g>
<!-- Node3 -->
<g id="node4" class="node">
<title>Node3</title>
<g id="a_node4"><a xlink:href="class_ogre_1_1_allocated_object.html" target="_top" xlink:title="ResourceAlloc">
<polygon fill="none" stroke="#000000" points="13.5,-240 13.5,-259 93.5,-259 93.5,-240 13.5,-240"/>
<text text-anchor="middle" x="53.5" y="-247" font-family="Helvetica,sans-Serif" font-size="10.00" fill="#000000">ResourceAlloc</text>
</a>
</g>
</g>
<!-- Node3&#45;&gt;Node1 -->
<g id="edge3" class="edge">
<title>Node3&#45;&gt;Node1</title>
<path fill="none" stroke="#191970" d="M103.7115,-256.7001C116.5821,-258.5457 130.312,-260.5146 142.795,-262.3046"/>
<polygon fill="#191970" stroke="#191970" points="104.0095,-253.2072 93.6139,-255.2522 103.0159,-260.1363 104.0095,-253.2072"/>
</g>
<!-- Node5 -->
<g id="node6" class="node">
<title>Node5</title>
<g id="a_node6"><a xlink:href="class_ogre_1_1_d3_d9_gpu_fragment_program.html" target="_top" xlink:title="Direct3D implementation of low&#45;level fragment programs. ">
<polygon fill="none" stroke="#000000" points="577,-354 577,-373 742,-373 742,-354 577,-354"/>
<text text-anchor="middle" x="659.5" y="-361" font-family="Helvetica,sans-Serif" font-size="10.00" fill="#000000">Ogre::D3D9GpuFragmentProgram</text>
</a>
</g>
</g>
<!-- Node4&#45;&gt;Node5 -->
<g id="edge5" class="edge">
<title>Node4&#45;&gt;Node5</title>
<path fill="none" stroke="#191970" d="M527.8948,-337.1095C554.846,-342.514 586.5102,-348.8635 612.025,-353.9799"/>
<polygon fill="#191970" stroke="#191970" points="528.3118,-333.6235 517.8189,-335.089 526.9355,-340.4869 528.3118,-333.6235"/>
</g>
<!-- Node6 -->
<g id="node7" class="node">
<title>Node6</title>
<g id="a_node7"><a xlink:href="class_ogre_1_1_d3_d9_gpu_vertex_program.html" target="_top" xlink:title="Direct3D implementation of low&#45;level vertex programs. ">
<polygon fill="none" stroke="#000000" points="583.5,-316 583.5,-335 735.5,-335 735.5,-316 583.5,-316"/>
<text text-anchor="middle" x="659.5" y="-323" font-family="Helvetica,sans-Serif" font-size="10.00" fill="#000000">Ogre::D3D9GpuVertexProgram</text>
</a>
</g>
</g>
<!-- Node4&#45;&gt;Node6 -->
<g id="edge6" class="edge">
<title>Node4&#45;&gt;Node6</title>
<path fill="none" stroke="#191970" d="M542.2125,-325.5C555.693,-325.5 569.8197,-325.5 583.4127,-325.5"/>
<polygon fill="#191970" stroke="#191970" points="542.0494,-322.0001 532.0494,-325.5 542.0494,-329.0001 542.0494,-322.0001"/>
</g>
<!-- Node8 -->
<g id="node9" class="node">
<title>Node8</title>
<g id="a_node9"><a xlink:href="class_ogre_1_1_g_l_arb_gpu_program.html" target="_top" xlink:title="Specialisation of the GL low&#45;level program for ARB programs. ">
<polygon fill="none" stroke="#000000" points="596.5,-278 596.5,-297 722.5,-297 722.5,-278 596.5,-278"/>
<text text-anchor="middle" x="659.5" y="-285" font-family="Helvetica,sans-Serif" font-size="10.00" fill="#000000">Ogre::GLArbGpuProgram</text>
</a>
</g>
</g>
<!-- Node7&#45;&gt;Node8 -->
<g id="edge8" class="edge">
<title>Node7&#45;&gt;Node8</title>
<path fill="none" stroke="#191970" d="M535.6575,-275.0831C555.2974,-277.0522 576.7841,-279.2066 596.265,-281.1598"/>
<polygon fill="#191970" stroke="#191970" points="535.8751,-271.5874 525.5758,-274.0722 535.1767,-278.5525 535.8751,-271.5874"/>
</g>
<!-- Node9 -->
<g id="node10" class="node">
<title>Node9</title>
<g id="a_node10"><a xlink:href="class_ogre_1_1_g_l_gpu_nvparse_program.html" target="_top" xlink:title="Ogre::GLGpuNvparseProgram">
<polygon fill="none" stroke="#000000" points="585.5,-240 585.5,-259 733.5,-259 733.5,-240 585.5,-240"/>
<text text-anchor="middle" x="659.5" y="-247" font-family="Helvetica,sans-Serif" font-size="10.00" fill="#000000">Ogre::GLGpuNvparseProgram</text>
</a>
</g>
</g>
<!-- Node7&#45;&gt;Node9 -->
<g id="edge9" class="edge">
<title>Node7&#45;&gt;Node9</title>
<path fill="none" stroke="#191970" d="M535.8599,-261.8966C551.807,-260.2977 568.9614,-258.5777 585.2647,-256.9431"/>
<polygon fill="#191970" stroke="#191970" points="535.1767,-258.4475 525.5758,-262.9278 535.8751,-265.4126 535.1767,-258.4475"/>
</g>
<!-- Node11 -->
<g id="node12" class="node">
<title>Node11</title>
<g id="a_node12"><a xlink:href="class_ogre_1_1_cg_program.html" target="_top" xlink:title="Specialisation of HighLevelGpuProgram to provide support for nVidia&#39;s CG language. ">
<polygon fill="none" stroke="#000000" points="613,-202 613,-221 706,-221 706,-202 613,-202"/>
<text text-anchor="middle" x="659.5" y="-209" font-family="Helvetica,sans-Serif" font-size="10.00" fill="#000000">Ogre::CgProgram</text>
</a>
</g>
</g>
<!-- Node10&#45;&gt;Node11 -->
<g id="edge11" class="edge">
<title>Node10&#45;&gt;Node11</title>
<path fill="none" stroke="#191970" d="M493.6093,-150.4181C514.7451,-163.1944 546.9477,-181.2597 577,-192.5 588.2885,-196.7222 600.8098,-200.1889 612.6159,-202.951"/>
<polygon fill="#191970" stroke="#191970" points="495.3498,-147.3797 484.996,-145.1327 491.6887,-153.346 495.3498,-147.3797"/>
</g>
<!-- Node12 -->
<g id="node13" class="node">
<title>Node12</title>
<g id="a_node13"><a xlink:href="class_ogre_1_1_d3_d11_h_l_s_l_program.html" target="_top" xlink:title="Specialization of HighLevelGpuProgram to provide support for D3D11 High&#45;Level Shader Language (HLSL)...">
<polygon fill="none" stroke="#000000" points="591.5,-164 591.5,-183 727.5,-183 727.5,-164 591.5,-164"/>
<text text-anchor="middle" x="659.5" y="-171" font-family="Helvetica,sans-Serif" font-size="10.00" fill="#000000">Ogre::D3D11HLSLProgram</text>
</a>
</g>
</g>
<!-- Node10&#45;&gt;Node12 -->
<g id="edge12" class="edge">
<title>Node10&#45;&gt;Node12</title>
<path fill="none" stroke="#191970" d="M527.8948,-147.1095C554.846,-152.514 586.5102,-158.8635 612.025,-163.9799"/>
<polygon fill="#191970" stroke="#191970" points="528.3118,-143.6235 517.8189,-145.089 526.9355,-150.4869 528.3118,-143.6235"/>
</g>
<!-- Node13 -->
<g id="node14" class="node">
<title>Node13</title>
<g id="a_node14"><a xlink:href="class_ogre_1_1_d3_d9_h_l_s_l_program.html" target="_top" xlink:title="Specialisation of HighLevelGpuProgram to provide support for D3D9 High&#45;Level Shader Language (HLSL)...">
<polygon fill="none" stroke="#000000" points="594,-126 594,-145 725,-145 725,-126 594,-126"/>
<text text-anchor="middle" x="659.5" y="-133" font-family="Helvetica,sans-Serif" font-size="10.00" fill="#000000">Ogre::D3D9HLSLProgram</text>
</a>
</g>
</g>
<!-- Node10&#45;&gt;Node13 -->
<g id="edge13" class="edge">
<title>Node10&#45;&gt;Node13</title>
<path fill="none" stroke="#191970" d="M551.3657,-135.5C565.5867,-135.5 580.2181,-135.5 593.9438,-135.5"/>
<polygon fill="#191970" stroke="#191970" points="551.102,-132.0001 541.102,-135.5 551.1019,-139.0001 551.102,-132.0001"/>
</g>
<!-- Node14 -->
<g id="node15" class="node">
<title>Node14</title>
<g id="a_node15"><a xlink:href="class_ogre_1_1_g_l_s_l_shader_common.html" target="_top" xlink:title="Specialisation of HighLevelGpuProgram to provide support for OpenGL Shader Language (GLSL)...">
<polygon fill="none" stroke="#000000" points="590,-88 590,-107 729,-107 729,-88 590,-88"/>
<text text-anchor="middle" x="659.5" y="-95" font-family="Helvetica,sans-Serif" font-size="10.00" fill="#000000">Ogre::GLSLShaderCommon</text>
</a>
</g>
</g>
<!-- Node10&#45;&gt;Node14 -->
<g id="edge14" class="edge">
<title>Node10&#45;&gt;Node14</title>
<path fill="none" stroke="#191970" d="M527.8948,-123.8905C554.846,-118.486 586.5102,-112.1365 612.025,-107.0201"/>
<polygon fill="#191970" stroke="#191970" points="526.9355,-120.5131 517.8189,-125.911 528.3118,-127.3765 526.9355,-120.5131"/>
</g>
<!-- Node20 -->
<g id="node21" class="node">
<title>Node20</title>
<g id="a_node21"><a xlink:href="class_ogre_1_1_metal_program.html" target="_top" xlink:title="Specialisation of HighLevelGpuProgram to provide support for Metal Shader Language. ">
<polygon fill="none" stroke="#000000" points="607.5,-50 607.5,-69 711.5,-69 711.5,-50 607.5,-50"/>
<text text-anchor="middle" x="659.5" y="-57" font-family="Helvetica,sans-Serif" font-size="10.00" fill="#000000">Ogre::MetalProgram</text>
</a>
</g>
</g>
<!-- Node10&#45;&gt;Node20 -->
<g id="edge20" class="edge">
<title>Node10&#45;&gt;Node20</title>
<path fill="none" stroke="#191970" d="M493.6093,-120.5819C514.7451,-107.8056 546.9477,-89.7403 577,-78.5 586.9118,-74.7927 597.7741,-71.6679 608.2682,-69.0911"/>
<polygon fill="#191970" stroke="#191970" points="491.6887,-117.654 484.996,-125.8673 495.3498,-123.6203 491.6887,-117.654"/>
</g>
<!-- Node21 -->
<g id="node22" class="node">
<title>Node21</title>
<g id="a_node22"><a xlink:href="class_ogre_1_1_unified_high_level_gpu_program.html" target="_top" xlink:title="Specialisation of HighLevelGpuProgram which just delegates its implementation to one other GpuProgram...">
<polygon fill="none" stroke="#000000" points="591.5,-.5 591.5,-30.5 727.5,-30.5 727.5,-.5 591.5,-.5"/>
<text text-anchor="start" x="599.5" y="-18.5" font-family="Helvetica,sans-Serif" font-size="10.00" fill="#000000">Ogre::UnifiedHighLevelGpu</text>
<text text-anchor="middle" x="659.5" y="-7.5" font-family="Helvetica,sans-Serif" font-size="10.00" fill="#000000">Program</text>
</a>
</g>
</g>
<!-- Node10&#45;&gt;Node21 -->
<g id="edge21" class="edge">
<title>Node10&#45;&gt;Node21</title>
<path fill="none" stroke="#191970" d="M484.9071,-118.3214C504.1676,-97.1382 539.6807,-61.3821 577,-40.5 583.7915,-36.6998 591.2278,-33.412 598.7669,-30.5851"/>
<polygon fill="#191970" stroke="#191970" points="482.1754,-116.1258 478.1299,-125.9179 487.3989,-120.7859 482.1754,-116.1258"/>
</g>
<!-- Node15 -->
<g id="node16" class="node">
<title>Node15</title>
<g id="a_node16"><a xlink:href="class_ogre_1_1_g_l_s_l_1_1_g_l_s_l_program.html" target="_top" xlink:title="Ogre::GLSL::GLSLProgram">
<polygon fill="none" stroke="#000000" points="778,-126 778,-145 914,-145 914,-126 778,-126"/>
<text text-anchor="middle" x="846" y="-133" font-family="Helvetica,sans-Serif" font-size="10.00" fill="#000000">Ogre::GLSL::GLSLProgram</text>
</a>
</g>
</g>
<!-- Node14&#45;&gt;Node15 -->
<g id="edge15" class="edge">
<title>Node14&#45;&gt;Node15</title>
<path fill="none" stroke="#191970" d="M716.4782,-109.1095C743.0028,-114.514 774.1657,-120.8635 799.2766,-125.9799"/>
<polygon fill="#191970" stroke="#191970" points="717.0593,-105.6561 706.5618,-107.089 715.6617,-112.5151 717.0593,-105.6561"/>
</g>
<!-- Node16 -->
<g id="node17" class="node">
<title>Node16</title>
<g id="a_node17"><a xlink:href="class_ogre_1_1_g_l_s_l_e_s_program.html" target="_top" xlink:title="Ogre::GLSLESProgram">
<polygon fill="none" stroke="#000000" points="786.5,-88 786.5,-107 905.5,-107 905.5,-88 786.5,-88"/>
<text text-anchor="middle" x="846" y="-95" font-family="Helvetica,sans-Serif" font-size="10.00" fill="#000000">Ogre::GLSLESProgram</text>
</a>
</g>
</g>
<!-- Node14&#45;&gt;Node16 -->
<g id="edge16" class="edge">
<title>Node14&#45;&gt;Node16</title>
<path fill="none" stroke="#191970" d="M739.4748,-97.5C755.2365,-97.5 771.5147,-97.5 786.4584,-97.5"/>
<polygon fill="#191970" stroke="#191970" points="739.211,-94.0001 729.2109,-97.5 739.2109,-101.0001 739.211,-94.0001"/>
</g>
<!-- Node18 -->
<g id="node19" class="node">
<title>Node18</title>
<g id="a_node19"><a xlink:href="class_ogre_1_1_g_l_s_l_shader.html" target="_top" xlink:title="Ogre::GLSLShader">
<polygon fill="none" stroke="#000000" points="796.5,-50 796.5,-69 895.5,-69 895.5,-50 796.5,-50"/>
<text text-anchor="middle" x="846" y="-57" font-family="Helvetica,sans-Serif" font-size="10.00" fill="#000000">Ogre::GLSLShader</text>
</a>
</g>
</g>
<!-- Node14&#45;&gt;Node18 -->
<g id="edge18" class="edge">
<title>Node14&#45;&gt;Node18</title>
<path fill="none" stroke="#191970" d="M716.4782,-85.8905C743.0028,-80.486 774.1657,-74.1365 799.2766,-69.0201"/>
<polygon fill="#191970" stroke="#191970" points="715.6617,-82.4849 706.5618,-87.911 717.0593,-89.3439 715.6617,-82.4849"/>
</g>
<!-- Node17 -->
<g id="node18" class="node">
<title>Node17</title>
<g id="a_node18"><a xlink:href="class_ogre_1_1_g_l_s_l_e_s_cg_program.html" target="_top" xlink:title="Specialisation of HighLevelGpuProgram to provide support for CG. ">
<polygon fill="none" stroke="#000000" points="950,-88 950,-107 1081,-107 1081,-88 950,-88"/>
<text text-anchor="middle" x="1015.5" y="-95" font-family="Helvetica,sans-Serif" font-size="10.00" fill="#000000">Ogre::GLSLESCgProgram</text>
</a>
</g>
</g>
<!-- Node16&#45;&gt;Node17 -->
<g id="edge17" class="edge">
<title>Node16&#45;&gt;Node17</title>
<path fill="none" stroke="#191970" d="M915.9599,-97.5C927.2027,-97.5 938.8038,-97.5 949.9385,-97.5"/>
<polygon fill="#191970" stroke="#191970" points="915.7594,-94.0001 905.7594,-97.5 915.7593,-101.0001 915.7594,-94.0001"/>
</g>
<!-- Node19 -->
<g id="node20" class="node">
<title>Node19</title>
<g id="a_node20"><a xlink:href="class_ogre_1_1_s_p_i_r_v_shader.html" target="_top" xlink:title="Ogre::SPIRVShader">
<polygon fill="none" stroke="#000000" points="963,-50 963,-69 1068,-69 1068,-50 963,-50"/>
<text text-anchor="middle" x="1015.5" y="-57" font-family="Helvetica,sans-Serif" font-size="10.00" fill="#000000">Ogre::SPIRVShader</text>
</a>
</g>
</g>
<!-- Node18&#45;&gt;Node19 -->
<g id="edge19" class="edge">
<title>Node18&#45;&gt;Node19</title>
<path fill="none" stroke="#191970" d="M906.0557,-59.5C924.6332,-59.5 944.9453,-59.5 962.972,-59.5"/>
<polygon fill="#191970" stroke="#191970" points="905.9389,-56.0001 895.9388,-59.5 905.9388,-63.0001 905.9389,-56.0001"/>
</g>
</g>
</svg>
