<?xml version="1.0" encoding="UTF-8" standalone="no"?>
<!DOCTYPE svg PUBLIC "-//W3C//DTD SVG 1.1//EN"
 "http://www.w3.org/Graphics/SVG/1.1/DTD/svg11.dtd">
<!-- Generated by graphviz version 2.40.1 (20161225.0304)
 -->
<!-- Title: Ogre::RenderTarget Pages: 1 -->
<svg width="796pt" height="586pt"
 viewBox="0.00 0.00 796.00 586.00" xmlns="http://www.w3.org/2000/svg" xmlns:xlink="http://www.w3.org/1999/xlink">
<g id="graph0" class="graph" transform="scale(1 1) rotate(0) translate(4 582)">
<title>Ogre::RenderTarget</title>
<!-- Node0 -->
<g id="node1" class="node">
<title>Node0</title>
<polygon fill="#bfbfbf" stroke="#000000" points="123,-231.5 123,-250.5 226,-250.5 226,-231.5 123,-231.5"/>
<text text-anchor="middle" x="174.5" y="-238.5" font-family="Helvetica,sans-Serif" font-size="10.00" fill="#000000">Ogre::RenderTarget</text>
</g>
<!-- Node2 -->
<g id="node3" class="node">
<title>Node2</title>
<g id="a_node3"><a xlink:href="class_ogre_1_1_multi_render_target.html" target="_top" xlink:title="This class represents a render target that renders to multiple RenderTextures at once. ">
<polygon fill="none" stroke="#000000" points="262,-427.5 262,-446.5 386,-446.5 386,-427.5 262,-427.5"/>
<text text-anchor="middle" x="324" y="-434.5" font-family="Helvetica,sans-Serif" font-size="10.00" fill="#000000">Ogre::MultiRenderTarget</text>
</a>
</g>
</g>
<!-- Node0&#45;&gt;Node2 -->
<g id="edge2" class="edge">
<title>Node0&#45;&gt;Node2</title>
<path fill="none" stroke="#191970" d="M188.1054,-258.8372C218.8428,-299.1351 292.8153,-396.1157 316.5415,-427.2217"/>
<polygon fill="#191970" stroke="#191970" points="190.7614,-256.5481 181.9137,-250.7197 185.1956,-260.7934 190.7614,-256.5481"/>
</g>
<!-- Node9 -->
<g id="node10" class="node">
<title>Node9</title>
<g id="a_node10"><a xlink:href="class_ogre_1_1_render_texture.html" target="_top" xlink:title="This class represents a RenderTarget that renders to a Texture. ">
<polygon fill="none" stroke="#000000" points="270,-231.5 270,-250.5 378,-250.5 378,-231.5 270,-231.5"/>
<text text-anchor="middle" x="324" y="-238.5" font-family="Helvetica,sans-Serif" font-size="10.00" fill="#000000">Ogre::RenderTexture</text>
</a>
</g>
</g>
<!-- Node0&#45;&gt;Node9 -->
<g id="edge9" class="edge">
<title>Node0&#45;&gt;Node9</title>
<path fill="none" stroke="#191970" d="M236.4393,-241C247.5567,-241 259.0638,-241 269.9371,-241"/>
<polygon fill="#191970" stroke="#191970" points="236.3683,-237.5001 226.3683,-241 236.3682,-244.5001 236.3683,-237.5001"/>
</g>
<!-- Node20 -->
<g id="node21" class="node">
<title>Node20</title>
<g id="a_node21"><a xlink:href="class_ogre_1_1_render_window.html" target="_top" xlink:title="Manages the target rendering window. ">
<polygon fill="none" stroke="#000000" points="269,-76.5 269,-95.5 379,-95.5 379,-76.5 269,-76.5"/>
<text text-anchor="middle" x="324" y="-83.5" font-family="Helvetica,sans-Serif" font-size="10.00" fill="#000000">Ogre::RenderWindow</text>
</a>
</g>
</g>
<!-- Node0&#45;&gt;Node20 -->
<g id="edge20" class="edge">
<title>Node0&#45;&gt;Node20</title>
<path fill="none" stroke="#191970" d="M191.0168,-223.8756C222.4414,-191.2949 289.9051,-121.3493 314.6516,-95.6923"/>
<polygon fill="#191970" stroke="#191970" points="188.275,-221.6766 183.8519,-231.3041 193.3133,-226.5362 188.275,-221.6766"/>
</g>
<!-- Node1 -->
<g id="node2" class="node">
<title>Node1</title>
<g id="a_node2"><a xlink:href="class_ogre_1_1_allocated_object.html" target="_top" xlink:title="RenderSysAlloc">
<polygon fill="none" stroke="#000000" points="0,-231.5 0,-250.5 87,-250.5 87,-231.5 0,-231.5"/>
<text text-anchor="middle" x="43.5" y="-238.5" font-family="Helvetica,sans-Serif" font-size="10.00" fill="#000000">RenderSysAlloc</text>
</a>
</g>
</g>
<!-- Node1&#45;&gt;Node0 -->
<g id="edge1" class="edge">
<title>Node1&#45;&gt;Node0</title>
<path fill="none" stroke="#191970" d="M97.2744,-241C105.7407,-241 114.4771,-241 122.8928,-241"/>
<polygon fill="#191970" stroke="#191970" points="97.1211,-237.5001 87.1211,-241 97.1211,-244.5001 97.1211,-237.5001"/>
</g>
<!-- Node3 -->
<g id="node4" class="node">
<title>Node3</title>
<g id="a_node4"><a xlink:href="class_ogre_1_1_d3_d11_multi_render_target.html" target="_top" xlink:title="Ogre::D3D11MultiRenderTarget">
<polygon fill="none" stroke="#000000" points="426.5,-558.5 426.5,-577.5 581.5,-577.5 581.5,-558.5 426.5,-558.5"/>
<text text-anchor="middle" x="504" y="-565.5" font-family="Helvetica,sans-Serif" font-size="10.00" fill="#000000">Ogre::D3D11MultiRenderTarget</text>
</a>
</g>
</g>
<!-- Node2&#45;&gt;Node3 -->
<g id="edge3" class="edge">
<title>Node2&#45;&gt;Node3</title>
<path fill="none" stroke="#191970" d="M334.701,-455.1754C350.4982,-480.3315 382.4987,-525.331 422,-549 428.5183,-552.9057 435.7719,-556.0087 443.193,-558.4739"/>
<polygon fill="#191970" stroke="#191970" points="337.6575,-453.3011 329.458,-446.5914 331.6837,-456.9499 337.6575,-453.3011"/>
</g>
<!-- Node4 -->
<g id="node5" class="node">
<title>Node4</title>
<g id="a_node5"><a xlink:href="class_ogre_1_1_d3_d9_multi_render_target.html" target="_top" xlink:title="Ogre::D3D9MultiRenderTarget">
<polygon fill="none" stroke="#000000" points="429.5,-520.5 429.5,-539.5 578.5,-539.5 578.5,-520.5 429.5,-520.5"/>
<text text-anchor="middle" x="504" y="-527.5" font-family="Helvetica,sans-Serif" font-size="10.00" fill="#000000">Ogre::D3D9MultiRenderTarget</text>
</a>
</g>
</g>
<!-- Node2&#45;&gt;Node4 -->
<g id="edge4" class="edge">
<title>Node2&#45;&gt;Node4</title>
<path fill="none" stroke="#191970" d="M340.9748,-453.4096C359.4365,-470.3423 390.5385,-496.2951 422,-511 430.2079,-514.8363 439.2498,-517.9289 448.2403,-520.4129"/>
<polygon fill="#191970" stroke="#191970" points="343.341,-450.8304 333.649,-446.5507 338.5567,-455.9403 343.341,-450.8304"/>
</g>
<!-- Node5 -->
<g id="node6" class="node">
<title>Node5</title>
<g id="a_node6"><a xlink:href="class_ogre_1_1_g_l3_plus_f_b_o_multi_render_target.html" target="_top" xlink:title="MultiRenderTarget for OpenGL. ">
<polygon fill="none" stroke="#000000" points="427,-471 427,-501 581,-501 581,-471 427,-471"/>
<text text-anchor="start" x="435" y="-489" font-family="Helvetica,sans-Serif" font-size="10.00" fill="#000000">Ogre::GL3PlusFBOMultiRender</text>
<text text-anchor="middle" x="504" y="-478" font-family="Helvetica,sans-Serif" font-size="10.00" fill="#000000">Target</text>
</a>
</g>
</g>
<!-- Node2&#45;&gt;Node5 -->
<g id="edge5" class="edge">
<title>Node2&#45;&gt;Node5</title>
<path fill="none" stroke="#191970" d="M369.1012,-449.2776C393.2584,-455.8537 423.2176,-464.0092 448.7622,-470.963"/>
<polygon fill="#191970" stroke="#191970" points="369.7013,-445.8136 359.1331,-446.564 367.8626,-452.5678 369.7013,-445.8136"/>
</g>
<!-- Node6 -->
<g id="node7" class="node">
<title>Node6</title>
<g id="a_node7"><a xlink:href="class_ogre_1_1_g_l_e_s2_f_b_o_multi_render_target.html" target="_top" xlink:title="MultiRenderTarget for GL ES 2.x. ">
<polygon fill="none" stroke="#000000" points="430,-422 430,-452 578,-452 578,-422 430,-422"/>
<text text-anchor="start" x="438" y="-440" font-family="Helvetica,sans-Serif" font-size="10.00" fill="#000000">Ogre::GLES2FBOMultiRender</text>
<text text-anchor="middle" x="504" y="-429" font-family="Helvetica,sans-Serif" font-size="10.00" fill="#000000">Target</text>
</a>
</g>
</g>
<!-- Node2&#45;&gt;Node6 -->
<g id="edge6" class="edge">
<title>Node2&#45;&gt;Node6</title>
<path fill="none" stroke="#191970" d="M396.2024,-437C407.2319,-437 418.6327,-437 429.7062,-437"/>
<polygon fill="#191970" stroke="#191970" points="396.1979,-433.5001 386.1978,-437 396.1978,-440.5001 396.1979,-433.5001"/>
</g>
<!-- Node7 -->
<g id="node8" class="node">
<title>Node7</title>
<g id="a_node8"><a xlink:href="class_ogre_1_1_g_l_f_b_o_multi_render_target.html" target="_top" xlink:title="MultiRenderTarget for GL. ">
<polygon fill="none" stroke="#000000" points="425.5,-383.5 425.5,-402.5 582.5,-402.5 582.5,-383.5 425.5,-383.5"/>
<text text-anchor="middle" x="504" y="-390.5" font-family="Helvetica,sans-Serif" font-size="10.00" fill="#000000">Ogre::GLFBOMultiRenderTarget</text>
</a>
</g>
</g>
<!-- Node2&#45;&gt;Node7 -->
<g id="edge7" class="edge">
<title>Node2&#45;&gt;Node7</title>
<path fill="none" stroke="#191970" d="M373.0915,-424.968C388.7234,-421.1393 406.0875,-416.889 422,-413 435.9498,-409.5907 451.236,-405.8607 464.7911,-402.5552"/>
<polygon fill="#191970" stroke="#191970" points="371.982,-421.6362 363.1019,-427.4151 373.6475,-428.4352 371.982,-421.6362"/>
</g>
<!-- Node8 -->
<g id="node9" class="node">
<title>Node8</title>
<g id="a_node9"><a xlink:href="class_ogre_1_1_metal_multi_render_target.html" target="_top" xlink:title="Ogre::MetalMultiRenderTarget">
<polygon fill="none" stroke="#000000" points="430,-345.5 430,-364.5 578,-364.5 578,-345.5 430,-345.5"/>
<text text-anchor="middle" x="504" y="-352.5" font-family="Helvetica,sans-Serif" font-size="10.00" fill="#000000">Ogre::MetalMultiRenderTarget</text>
</a>
</g>
</g>
<!-- Node2&#45;&gt;Node8 -->
<g id="edge8" class="edge">
<title>Node2&#45;&gt;Node8</title>
<path fill="none" stroke="#191970" d="M344.0955,-421.1213C363.134,-406.821 393.0454,-386.2252 422,-374 431.0199,-370.1916 440.9351,-367.0753 450.6593,-364.5496"/>
<polygon fill="#191970" stroke="#191970" points="341.728,-418.5258 335.9151,-427.3836 345.9831,-424.0841 341.728,-418.5258"/>
</g>
<!-- Node10 -->
<g id="node11" class="node">
<title>Node10</title>
<g id="a_node11"><a xlink:href="class_ogre_1_1_d3_d11_render_texture.html" target="_top" xlink:title="RenderTexture implementation for D3D11. ">
<polygon fill="none" stroke="#000000" points="434.5,-307.5 434.5,-326.5 573.5,-326.5 573.5,-307.5 434.5,-307.5"/>
<text text-anchor="middle" x="504" y="-314.5" font-family="Helvetica,sans-Serif" font-size="10.00" fill="#000000">Ogre::D3D11RenderTexture</text>
</a>
</g>
</g>
<!-- Node9&#45;&gt;Node10 -->
<g id="edge10" class="edge">
<title>Node9&#45;&gt;Node10</title>
<path fill="none" stroke="#191970" d="M345.962,-256.3569C365.2099,-269.1705 394.3558,-287.0467 422,-298 431.51,-301.7681 441.9502,-304.8961 452.1008,-307.4523"/>
<polygon fill="#191970" stroke="#191970" points="347.8494,-253.408 337.6071,-250.6975 343.9236,-259.2036 347.8494,-253.408"/>
</g>
<!-- Node11 -->
<g id="node12" class="node">
<title>Node11</title>
<g id="a_node12"><a xlink:href="class_ogre_1_1_d3_d9_render_texture.html" target="_top" xlink:title="RenderTexture implementation for D3D9. ">
<polygon fill="none" stroke="#000000" points="437,-269.5 437,-288.5 571,-288.5 571,-269.5 437,-269.5"/>
<text text-anchor="middle" x="504" y="-276.5" font-family="Helvetica,sans-Serif" font-size="10.00" fill="#000000">Ogre::D3D9RenderTexture</text>
</a>
</g>
</g>
<!-- Node9&#45;&gt;Node11 -->
<g id="edge11" class="edge">
<title>Node9&#45;&gt;Node11</title>
<path fill="none" stroke="#191970" d="M379.331,-252.681C404.8574,-258.0699 434.7761,-264.3861 458.905,-269.4799"/>
<polygon fill="#191970" stroke="#191970" points="379.9289,-249.2301 369.4216,-250.589 378.483,-256.0792 379.9289,-249.2301"/>
</g>
<!-- Node12 -->
<g id="node13" class="node">
<title>Node12</title>
<g id="a_node13"><a xlink:href="class_ogre_1_1_g_l_render_texture.html" target="_top" xlink:title="Base class for GL Render Textures. ">
<polygon fill="none" stroke="#000000" points="443.5,-231.5 443.5,-250.5 564.5,-250.5 564.5,-231.5 443.5,-231.5"/>
<text text-anchor="middle" x="504" y="-238.5" font-family="Helvetica,sans-Serif" font-size="10.00" fill="#000000">Ogre::GLRenderTexture</text>
</a>
</g>
</g>
<!-- Node9&#45;&gt;Node12 -->
<g id="edge12" class="edge">
<title>Node9&#45;&gt;Node12</title>
<path fill="none" stroke="#191970" d="M388.1167,-241C406.1171,-241 425.6272,-241 443.415,-241"/>
<polygon fill="#191970" stroke="#191970" points="388.006,-237.5001 378.0059,-241 388.0059,-244.5001 388.006,-237.5001"/>
</g>
<!-- Node18 -->
<g id="node19" class="node">
<title>Node18</title>
<g id="a_node19"><a xlink:href="class_ogre_1_1_metal_depth_texture_target.html" target="_top" xlink:title="Ogre::MetalDepthTextureTarget">
<polygon fill="none" stroke="#000000" points="426.5,-193.5 426.5,-212.5 581.5,-212.5 581.5,-193.5 426.5,-193.5"/>
<text text-anchor="middle" x="504" y="-200.5" font-family="Helvetica,sans-Serif" font-size="10.00" fill="#000000">Ogre::MetalDepthTextureTarget</text>
</a>
</g>
</g>
<!-- Node9&#45;&gt;Node18 -->
<g id="edge18" class="edge">
<title>Node9&#45;&gt;Node18</title>
<path fill="none" stroke="#191970" d="M379.331,-229.319C404.8574,-223.9301 434.7761,-217.6139 458.905,-212.5201"/>
<polygon fill="#191970" stroke="#191970" points="378.483,-225.9208 369.4216,-231.411 379.9289,-232.7699 378.483,-225.9208"/>
</g>
<!-- Node19 -->
<g id="node20" class="node">
<title>Node19</title>
<g id="a_node20"><a xlink:href="class_ogre_1_1_metal_render_texture.html" target="_top" xlink:title="Ogre::MetalRenderTexture">
<polygon fill="none" stroke="#000000" points="438,-155.5 438,-174.5 570,-174.5 570,-155.5 438,-155.5"/>
<text text-anchor="middle" x="504" y="-162.5" font-family="Helvetica,sans-Serif" font-size="10.00" fill="#000000">Ogre::MetalRenderTexture</text>
</a>
</g>
</g>
<!-- Node9&#45;&gt;Node19 -->
<g id="edge19" class="edge">
<title>Node9&#45;&gt;Node19</title>
<path fill="none" stroke="#191970" d="M345.962,-225.6431C365.2099,-212.8295 394.3558,-194.9533 422,-184 431.51,-180.2319 441.9502,-177.1039 452.1008,-174.5477"/>
<polygon fill="#191970" stroke="#191970" points="343.9236,-222.7964 337.6071,-231.3025 347.8494,-228.592 343.9236,-222.7964"/>
</g>
<!-- Node13 -->
<g id="node14" class="node">
<title>Node13</title>
<g id="a_node14"><a xlink:href="class_ogre_1_1_g_l3_plus_f_b_o_render_texture.html" target="_top" xlink:title="RenderTexture for GL FBO. ">
<polygon fill="none" stroke="#000000" points="622,-308.5 622,-327.5 788,-327.5 788,-308.5 622,-308.5"/>
<text text-anchor="middle" x="705" y="-315.5" font-family="Helvetica,sans-Serif" font-size="10.00" fill="#000000">Ogre::GL3PlusFBORenderTexture</text>
</a>
</g>
</g>
<!-- Node12&#45;&gt;Node13 -->
<g id="edge13" class="edge">
<title>Node12&#45;&gt;Node13</title>
<path fill="none" stroke="#191970" d="M573.7573,-254.0173C578.0097,-255.7661 582.1289,-257.7498 586,-260 606.394,-271.8544 601.5903,-287.1726 622,-299 628.6508,-302.8541 636.0243,-305.9265 643.5525,-308.3756"/>
<polygon fill="#191970" stroke="#191970" points="574.8737,-250.6989 564.2799,-250.5519 572.4698,-257.2732 574.8737,-250.6989"/>
</g>
<!-- Node14 -->
<g id="node15" class="node">
<title>Node14</title>
<g id="a_node15"><a xlink:href="class_ogre_1_1_g_l_copying_render_texture.html" target="_top" xlink:title="Ogre::GLCopyingRenderTexture">
<polygon fill="none" stroke="#000000" points="626.5,-270.5 626.5,-289.5 783.5,-289.5 783.5,-270.5 626.5,-270.5"/>
<text text-anchor="middle" x="705" y="-277.5" font-family="Helvetica,sans-Serif" font-size="10.00" fill="#000000">Ogre::GLCopyingRenderTexture</text>
</a>
</g>
</g>
<!-- Node12&#45;&gt;Node14 -->
<g id="edge14" class="edge">
<title>Node12&#45;&gt;Node14</title>
<path fill="none" stroke="#191970" d="M563.3432,-252.5144C592.8384,-258.2373 628.0508,-265.0696 655.9896,-270.4905"/>
<polygon fill="#191970" stroke="#191970" points="563.6537,-249.0094 553.1701,-250.5405 562.3204,-255.8812 563.6537,-249.0094"/>
</g>
<!-- Node15 -->
<g id="node16" class="node">
<title>Node15</title>
<g id="a_node16"><a xlink:href="class_ogre_1_1_g_l_e_s2_f_b_o_render_texture.html" target="_top" xlink:title="RenderTexture for GL ES 2 FBO. ">
<polygon fill="none" stroke="#000000" points="625,-232.5 625,-251.5 785,-251.5 785,-232.5 625,-232.5"/>
<text text-anchor="middle" x="705" y="-239.5" font-family="Helvetica,sans-Serif" font-size="10.00" fill="#000000">Ogre::GLES2FBORenderTexture</text>
</a>
</g>
</g>
<!-- Node12&#45;&gt;Node15 -->
<g id="edge15" class="edge">
<title>Node12&#45;&gt;Node15</title>
<path fill="none" stroke="#191970" d="M574.9977,-241.3532C591.1256,-241.4335 608.3657,-241.5192 624.8442,-241.6012"/>
<polygon fill="#191970" stroke="#191970" points="574.5965,-237.8513 564.5792,-241.3014 574.5616,-244.8512 574.5965,-237.8513"/>
</g>
<!-- Node16 -->
<g id="node17" class="node">
<title>Node16</title>
<g id="a_node17"><a xlink:href="class_ogre_1_1_g_l_f_b_o_render_texture.html" target="_top" xlink:title="RenderTexture for GL FBO. ">
<polygon fill="none" stroke="#000000" points="634.5,-194.5 634.5,-213.5 775.5,-213.5 775.5,-194.5 634.5,-194.5"/>
<text text-anchor="middle" x="705" y="-201.5" font-family="Helvetica,sans-Serif" font-size="10.00" fill="#000000">Ogre::GLFBORenderTexture</text>
</a>
</g>
</g>
<!-- Node12&#45;&gt;Node16 -->
<g id="edge16" class="edge">
<title>Node12&#45;&gt;Node16</title>
<path fill="none" stroke="#191970" d="M565.824,-229.6195C593.7656,-224.476 626.4137,-218.4661 653.064,-213.5604"/>
<polygon fill="#191970" stroke="#191970" points="564.9636,-226.219 555.7625,-231.4716 566.2309,-233.1033 564.9636,-226.219"/>
</g>
<!-- Node17 -->
<g id="node18" class="node">
<title>Node17</title>
<g id="a_node18"><a xlink:href="class_ogre_1_1_g_l_p_b_render_texture.html" target="_top" xlink:title="Ogre::GLPBRenderTexture">
<polygon fill="none" stroke="#000000" points="638,-156.5 638,-175.5 772,-175.5 772,-156.5 638,-156.5"/>
<text text-anchor="middle" x="705" y="-163.5" font-family="Helvetica,sans-Serif" font-size="10.00" fill="#000000">Ogre::GLPBRenderTexture</text>
</a>
</g>
</g>
<!-- Node12&#45;&gt;Node17 -->
<g id="edge17" class="edge">
<title>Node12&#45;&gt;Node17</title>
<path fill="none" stroke="#191970" d="M573.4476,-227.9611C577.8019,-226.2173 582.026,-224.2406 586,-222 605.986,-210.7315 601.9991,-196.242 622,-185 628.9586,-181.0887 636.6746,-177.9821 644.5189,-175.5147"/>
<polygon fill="#191970" stroke="#191970" points="571.997,-224.7624 563.7542,-231.4187 574.3488,-231.3556 571.997,-224.7624"/>
</g>
<!-- Node21 -->
<g id="node22" class="node">
<title>Node21</title>
<g id="a_node22"><a xlink:href="class_ogre_1_1_d3_d11_render_window_base.html" target="_top" xlink:title="Ogre::D3D11RenderWindowBase">
<polygon fill="none" stroke="#000000" points="422,-114.5 422,-133.5 586,-133.5 586,-114.5 422,-114.5"/>
<text text-anchor="middle" x="504" y="-121.5" font-family="Helvetica,sans-Serif" font-size="10.00" fill="#000000">Ogre::D3D11RenderWindowBase</text>
</a>
</g>
</g>
<!-- Node20&#45;&gt;Node21 -->
<g id="edge21" class="edge">
<title>Node20&#45;&gt;Node21</title>
<path fill="none" stroke="#191970" d="M379.331,-97.681C404.8574,-103.0699 434.7761,-109.3861 458.905,-114.4799"/>
<polygon fill="#191970" stroke="#191970" points="379.9289,-94.2301 369.4216,-95.589 378.483,-101.0792 379.9289,-94.2301"/>
</g>
<!-- Node23 -->
<g id="node24" class="node">
<title>Node23</title>
<g id="a_node24"><a xlink:href="class_ogre_1_1_d3_d9_render_window.html" target="_top" xlink:title="Ogre::D3D9RenderWindow">
<polygon fill="none" stroke="#000000" points="436,-76.5 436,-95.5 572,-95.5 572,-76.5 436,-76.5"/>
<text text-anchor="middle" x="504" y="-83.5" font-family="Helvetica,sans-Serif" font-size="10.00" fill="#000000">Ogre::D3D9RenderWindow</text>
</a>
</g>
</g>
<!-- Node20&#45;&gt;Node23 -->
<g id="edge23" class="edge">
<title>Node20&#45;&gt;Node23</title>
<path fill="none" stroke="#191970" d="M389.6693,-86C404.6519,-86 420.6072,-86 435.6971,-86"/>
<polygon fill="#191970" stroke="#191970" points="389.4747,-82.5001 379.4747,-86 389.4746,-89.5001 389.4747,-82.5001"/>
</g>
<!-- Node24 -->
<g id="node25" class="node">
<title>Node24</title>
<g id="a_node25"><a xlink:href="class_ogre_1_1_g_l_window.html" target="_top" xlink:title="Ogre::GLWindow">
<polygon fill="none" stroke="#000000" points="458,-38.5 458,-57.5 550,-57.5 550,-38.5 458,-38.5"/>
<text text-anchor="middle" x="504" y="-45.5" font-family="Helvetica,sans-Serif" font-size="10.00" fill="#000000">Ogre::GLWindow</text>
</a>
</g>
</g>
<!-- Node20&#45;&gt;Node24 -->
<g id="edge24" class="edge">
<title>Node20&#45;&gt;Node24</title>
<path fill="none" stroke="#191970" d="M379.331,-74.319C404.8574,-68.9301 434.7761,-62.6139 458.905,-57.5201"/>
<polygon fill="#191970" stroke="#191970" points="378.483,-70.9208 369.4216,-76.411 379.9289,-77.7699 378.483,-70.9208"/>
</g>
<!-- Node25 -->
<g id="node26" class="node">
<title>Node25</title>
<g id="a_node26"><a xlink:href="class_ogre_1_1_metal_render_window.html" target="_top" xlink:title="Ogre::MetalRenderWindow">
<polygon fill="none" stroke="#000000" points="437,-.5 437,-19.5 571,-19.5 571,-.5 437,-.5"/>
<text text-anchor="middle" x="504" y="-7.5" font-family="Helvetica,sans-Serif" font-size="10.00" fill="#000000">Ogre::MetalRenderWindow</text>
</a>
</g>
</g>
<!-- Node20&#45;&gt;Node25 -->
<g id="edge25" class="edge">
<title>Node20&#45;&gt;Node25</title>
<path fill="none" stroke="#191970" d="M345.962,-70.6431C365.2099,-57.8295 394.3558,-39.9533 422,-29 431.51,-25.2319 441.9502,-22.1039 452.1008,-19.5477"/>
<polygon fill="#191970" stroke="#191970" points="343.9236,-67.7964 337.6071,-76.3025 347.8494,-73.592 343.9236,-67.7964"/>
</g>
<!-- Node22 -->
<g id="node23" class="node">
<title>Node22</title>
<g id="a_node23"><a xlink:href="class_ogre_1_1_d3_d11_render_window_swap_chain_based.html" target="_top" xlink:title="Ogre::D3D11RenderWindowSwap\lChainBased">
<polygon fill="none" stroke="#000000" points="622,-107 622,-137 788,-137 788,-107 622,-107"/>
<text text-anchor="start" x="630" y="-125" font-family="Helvetica,sans-Serif" font-size="10.00" fill="#000000">Ogre::D3D11RenderWindowSwap</text>
<text text-anchor="middle" x="705" y="-114" font-family="Helvetica,sans-Serif" font-size="10.00" fill="#000000">ChainBased</text>
</a>
</g>
</g>
<!-- Node21&#45;&gt;Node22 -->
<g id="edge22" class="edge">
<title>Node21&#45;&gt;Node22</title>
<path fill="none" stroke="#191970" d="M596.0963,-123.0836C604.7045,-122.998 613.3956,-122.9115 621.9144,-122.8267"/>
<polygon fill="#191970" stroke="#191970" points="596.0089,-119.5842 586.0443,-123.1836 596.0787,-126.5839 596.0089,-119.5842"/>
</g>
</g>
</svg>
