<?xml version="1.0" encoding="UTF-8" standalone="no"?>
<!DOCTYPE svg PUBLIC "-//W3C//DTD SVG 1.1//EN"
 "http://www.w3.org/Graphics/SVG/1.1/DTD/svg11.dtd">
<!-- Generated by graphviz version 2.40.1 (20161225.0304)
 -->
<!-- Title: Ogre::HardwareBufferManager Pages: 1 -->
<svg width="664pt" height="323pt"
 viewBox="0.00 0.00 664.00 323.00" xmlns="http://www.w3.org/2000/svg" xmlns:xlink="http://www.w3.org/1999/xlink">
<g id="graph0" class="graph" transform="scale(1 1) rotate(0) translate(4 319)">
<title>Ogre::HardwareBufferManager</title>
<!-- Node0 -->
<g id="node1" class="node">
<title>Node0</title>
<polygon fill="#bfbfbf" stroke="#000000" points="309,-143 309,-162 458,-162 458,-143 309,-143"/>
<text text-anchor="middle" x="383.5" y="-150" font-family="Helvetica,sans-Serif" font-size="10.00" fill="#000000">Ogre::HardwareBufferManager</text>
</g>
<!-- Node4 -->
<g id="node5" class="node">
<title>Node4</title>
<g id="a_node5"><a xlink:href="class_ogre_1_1_d3_d11_hardware_buffer_manager.html" target="_top" xlink:title="Implementation of HardwareBufferManager for D3D11. ">
<polygon fill="none" stroke="#000000" points="503.5,-284.5 503.5,-314.5 646.5,-314.5 646.5,-284.5 503.5,-284.5"/>
<text text-anchor="start" x="511.5" y="-302.5" font-family="Helvetica,sans-Serif" font-size="10.00" fill="#000000">Ogre::D3D11HardwareBuffer</text>
<text text-anchor="middle" x="575" y="-291.5" font-family="Helvetica,sans-Serif" font-size="10.00" fill="#000000">Manager</text>
</a>
</g>
</g>
<!-- Node0&#45;&gt;Node4 -->
<g id="edge4" class="edge">
<title>Node0&#45;&gt;Node4</title>
<path fill="none" stroke="#191970" d="M394.9105,-170.5775C412.7829,-197.4263 449.9315,-247.6579 494,-275.5 499.4557,-278.9469 505.4289,-281.9179 511.5804,-284.4748"/>
<polygon fill="#191970" stroke="#191970" points="397.8013,-168.6028 389.4129,-162.1309 391.9345,-172.4213 397.8013,-168.6028"/>
</g>
<!-- Node5 -->
<g id="node6" class="node">
<title>Node5</title>
<g id="a_node6"><a xlink:href="class_ogre_1_1_d3_d9_hardware_buffer_manager.html" target="_top" xlink:title="Implementation of HardwareBufferManager for D3D9. ">
<polygon fill="none" stroke="#000000" points="506.5,-235.5 506.5,-265.5 643.5,-265.5 643.5,-235.5 506.5,-235.5"/>
<text text-anchor="start" x="514.5" y="-253.5" font-family="Helvetica,sans-Serif" font-size="10.00" fill="#000000">Ogre::D3D9HardwareBuffer</text>
<text text-anchor="middle" x="575" y="-242.5" font-family="Helvetica,sans-Serif" font-size="10.00" fill="#000000">Manager</text>
</a>
</g>
</g>
<!-- Node0&#45;&gt;Node5 -->
<g id="edge5" class="edge">
<title>Node0&#45;&gt;Node5</title>
<path fill="none" stroke="#191970" d="M403.3247,-168.4908C424.6273,-185.0023 460.0196,-210.5412 494,-226.5 501.0361,-229.8045 508.6306,-232.7694 516.2507,-235.3937"/>
<polygon fill="#191970" stroke="#191970" points="405.3866,-165.6596 395.3626,-162.2288 401.0592,-171.1619 405.3866,-165.6596"/>
</g>
<!-- Node6 -->
<g id="node7" class="node">
<title>Node6</title>
<g id="a_node7"><a xlink:href="class_ogre_1_1_default_hardware_buffer_manager.html" target="_top" xlink:title="DefaultHardwareBufferManager as a Singleton. ">
<polygon fill="none" stroke="#000000" points="503.5,-186.5 503.5,-216.5 646.5,-216.5 646.5,-186.5 503.5,-186.5"/>
<text text-anchor="start" x="511.5" y="-204.5" font-family="Helvetica,sans-Serif" font-size="10.00" fill="#000000">Ogre::DefaultHardwareBuffer</text>
<text text-anchor="middle" x="575" y="-193.5" font-family="Helvetica,sans-Serif" font-size="10.00" fill="#000000">Manager</text>
</a>
</g>
</g>
<!-- Node0&#45;&gt;Node6 -->
<g id="edge6" class="edge">
<title>Node0&#45;&gt;Node6</title>
<path fill="none" stroke="#191970" d="M430.7957,-164.6018C456.6137,-171.208 488.8139,-179.4471 516.2331,-186.463"/>
<polygon fill="#191970" stroke="#191970" points="431.4333,-161.1522 420.8777,-162.064 429.698,-167.9337 431.4333,-161.1522"/>
</g>
<!-- Node7 -->
<g id="node8" class="node">
<title>Node7</title>
<g id="a_node8"><a xlink:href="class_ogre_1_1_g_l3_plus_hardware_buffer_manager.html" target="_top" xlink:title="Implementation of HardwareBufferManager for OpenGL. ">
<polygon fill="none" stroke="#000000" points="500.5,-137.5 500.5,-167.5 649.5,-167.5 649.5,-137.5 500.5,-137.5"/>
<text text-anchor="start" x="508.5" y="-155.5" font-family="Helvetica,sans-Serif" font-size="10.00" fill="#000000">Ogre::GL3PlusHardwareBuffer</text>
<text text-anchor="middle" x="575" y="-144.5" font-family="Helvetica,sans-Serif" font-size="10.00" fill="#000000">Manager</text>
</a>
</g>
</g>
<!-- Node0&#45;&gt;Node7 -->
<g id="edge7" class="edge">
<title>Node0&#45;&gt;Node7</title>
<path fill="none" stroke="#191970" d="M468.2512,-152.5C478.9299,-152.5 489.7935,-152.5 500.3013,-152.5"/>
<polygon fill="#191970" stroke="#191970" points="468.0873,-149.0001 458.0872,-152.5 468.0872,-156.0001 468.0873,-149.0001"/>
</g>
<!-- Node8 -->
<g id="node9" class="node">
<title>Node8</title>
<g id="a_node9"><a xlink:href="class_ogre_1_1_g_l_e_s2_hardware_buffer_manager.html" target="_top" xlink:title="Implementation of HardwareBufferManager for OpenGL ES. ">
<polygon fill="none" stroke="#000000" points="503.5,-88.5 503.5,-118.5 646.5,-118.5 646.5,-88.5 503.5,-88.5"/>
<text text-anchor="start" x="511.5" y="-106.5" font-family="Helvetica,sans-Serif" font-size="10.00" fill="#000000">Ogre::GLES2HardwareBuffer</text>
<text text-anchor="middle" x="575" y="-95.5" font-family="Helvetica,sans-Serif" font-size="10.00" fill="#000000">Manager</text>
</a>
</g>
</g>
<!-- Node0&#45;&gt;Node8 -->
<g id="edge8" class="edge">
<title>Node0&#45;&gt;Node8</title>
<path fill="none" stroke="#191970" d="M430.7957,-140.3982C456.6137,-133.792 488.8139,-125.5529 516.2331,-118.537"/>
<polygon fill="#191970" stroke="#191970" points="429.698,-137.0663 420.8777,-142.936 431.4333,-143.8478 429.698,-137.0663"/>
</g>
<!-- Node9 -->
<g id="node10" class="node">
<title>Node9</title>
<g id="a_node10"><a xlink:href="class_ogre_1_1_g_l_hardware_buffer_manager.html" target="_top" xlink:title="Implementation of HardwareBufferManager for OpenGL. ">
<polygon fill="none" stroke="#000000" points="494,-50 494,-69 656,-69 656,-50 494,-50"/>
<text text-anchor="middle" x="575" y="-57" font-family="Helvetica,sans-Serif" font-size="10.00" fill="#000000">Ogre::GLHardwareBufferManager</text>
</a>
</g>
</g>
<!-- Node0&#45;&gt;Node9 -->
<g id="edge9" class="edge">
<title>Node0&#45;&gt;Node9</title>
<path fill="none" stroke="#191970" d="M402.8048,-136.3877C423.9206,-119.5575 459.3876,-93.5537 494,-78.5 502.7421,-74.6978 512.3605,-71.5933 521.8221,-69.0794"/>
<polygon fill="#191970" stroke="#191970" points="400.4975,-133.7525 394.934,-142.7691 404.906,-139.1899 400.4975,-133.7525"/>
</g>
<!-- Node10 -->
<g id="node11" class="node">
<title>Node10</title>
<g id="a_node11"><a xlink:href="class_ogre_1_1_metal_hardware_buffer_manager.html" target="_top" xlink:title="Implementation of HardwareBufferManager for Metal. ">
<polygon fill="none" stroke="#000000" points="507,-.5 507,-30.5 643,-30.5 643,-.5 507,-.5"/>
<text text-anchor="start" x="515" y="-18.5" font-family="Helvetica,sans-Serif" font-size="10.00" fill="#000000">Ogre::MetalHardwareBuffer</text>
<text text-anchor="middle" x="575" y="-7.5" font-family="Helvetica,sans-Serif" font-size="10.00" fill="#000000">Manager</text>
</a>
</g>
</g>
<!-- Node0&#45;&gt;Node10 -->
<g id="edge10" class="edge">
<title>Node0&#45;&gt;Node10</title>
<path fill="none" stroke="#191970" d="M396.4099,-134.7241C415.2011,-110.0886 452.4128,-65.7549 494,-40.5 500.2896,-36.6805 507.2122,-33.3993 514.2807,-30.5918"/>
<polygon fill="#191970" stroke="#191970" points="393.5293,-132.7319 390.3463,-142.8373 399.1364,-136.9225 393.5293,-132.7319"/>
</g>
<!-- Node1 -->
<g id="node2" class="node">
<title>Node1</title>
<g id="a_node2"><a xlink:href="class_ogre_1_1_hardware_buffer_manager_base.html" target="_top" xlink:title="Base definition of a hardware buffer manager. ">
<polygon fill="none" stroke="#000000" points="101,-165 101,-184 273,-184 273,-165 101,-165"/>
<text text-anchor="middle" x="187" y="-172" font-family="Helvetica,sans-Serif" font-size="10.00" fill="#000000">Ogre::HardwareBufferManagerBase</text>
</a>
</g>
</g>
<!-- Node1&#45;&gt;Node0 -->
<g id="edge1" class="edge">
<title>Node1&#45;&gt;Node0</title>
<path fill="none" stroke="#191970" d="M282.1316,-163.8491C291.0926,-162.8459 300.0882,-161.8387 308.8199,-160.8611"/>
<polygon fill="#191970" stroke="#191970" points="281.5934,-160.3874 272.0449,-164.9784 282.3723,-167.344 281.5934,-160.3874"/>
</g>
<!-- Node2 -->
<g id="node3" class="node">
<title>Node2</title>
<g id="a_node3"><a xlink:href="class_ogre_1_1_allocated_object.html" target="_top" xlink:title="BufferAlloc">
<polygon fill="none" stroke="#000000" points="0,-165 0,-184 65,-184 65,-165 0,-165"/>
<text text-anchor="middle" x="32.5" y="-172" font-family="Helvetica,sans-Serif" font-size="10.00" fill="#000000">BufferAlloc</text>
</a>
</g>
</g>
<!-- Node2&#45;&gt;Node1 -->
<g id="edge2" class="edge">
<title>Node2&#45;&gt;Node1</title>
<path fill="none" stroke="#191970" d="M75.417,-174.5C83.4407,-174.5 92.0848,-174.5 100.8844,-174.5"/>
<polygon fill="#191970" stroke="#191970" points="75.2655,-171.0001 65.2655,-174.5 75.2654,-178.0001 75.2655,-171.0001"/>
</g>
<!-- Node3 -->
<g id="node4" class="node">
<title>Node3</title>
<g id="a_node4"><a xlink:href="class_ogre_1_1_singleton.html" target="_top" xlink:title="Ogre::Singleton\&lt; Hardware\lBufferManager \&gt;">
<polygon fill="none" stroke="#000000" points="119.5,-115.5 119.5,-145.5 254.5,-145.5 254.5,-115.5 119.5,-115.5"/>
<text text-anchor="start" x="127.5" y="-133.5" font-family="Helvetica,sans-Serif" font-size="10.00" fill="#000000">Ogre::Singleton&lt; Hardware</text>
<text text-anchor="middle" x="187" y="-122.5" font-family="Helvetica,sans-Serif" font-size="10.00" fill="#000000">BufferManager &gt;</text>
</a>
</g>
</g>
<!-- Node3&#45;&gt;Node0 -->
<g id="edge3" class="edge">
<title>Node3&#45;&gt;Node0</title>
<path fill="none" stroke="#191970" d="M264.5624,-139.1838C279.0874,-140.81 294.2443,-142.507 308.6841,-144.1237"/>
<polygon fill="#191970" stroke="#191970" points="264.9515,-135.7056 254.6242,-138.0712 264.1726,-142.6622 264.9515,-135.7056"/>
</g>
</g>
</svg>
