<?xml version="1.0" encoding="UTF-8" standalone="no"?>
<!DOCTYPE svg PUBLIC "-//W3C//DTD SVG 1.1//EN"
 "http://www.w3.org/Graphics/SVG/1.1/DTD/svg11.dtd">
<!-- Generated by graphviz version 2.40.1 (20161225.0304)
 -->
<!-- Title: Ogre::Plugin Pages: 1 -->
<svg width="369pt" height="560pt"
 viewBox="0.00 0.00 369.00 560.00" xmlns="http://www.w3.org/2000/svg" xmlns:xlink="http://www.w3.org/1999/xlink">
<g id="graph0" class="graph" transform="scale(1 1) rotate(0) translate(4 556)">
<title>Ogre::Plugin</title>
<!-- Node0 -->
<g id="node1" class="node">
<title>Node0</title>
<polygon fill="#bfbfbf" stroke="#000000" points="101,-266.5 101,-285.5 172,-285.5 172,-266.5 101,-266.5"/>
<text text-anchor="middle" x="136.5" y="-273.5" font-family="Helvetica,sans-Serif" font-size="10.00" fill="#000000">Ogre::Plugin</text>
</g>
<!-- Node2 -->
<g id="node3" class="node">
<title>Node2</title>
<g id="a_node3"><a xlink:href="class_ogre_1_1_bsp_scene_manager_plugin.html" target="_top" xlink:title="Plugin instance for BSPSceneManager. ">
<polygon fill="none" stroke="#000000" points="208,-532.5 208,-551.5 361,-551.5 361,-532.5 208,-532.5"/>
<text text-anchor="middle" x="284.5" y="-539.5" font-family="Helvetica,sans-Serif" font-size="10.00" fill="#000000">Ogre::BspSceneManagerPlugin</text>
</a>
</g>
</g>
<!-- Node0&#45;&gt;Node2 -->
<g id="edge2" class="edge">
<title>Node0&#45;&gt;Node2</title>
<path fill="none" stroke="#191970" d="M139.6008,-295.5841C148.3158,-348.2039 174.5865,-490.8433 208,-523 211.9441,-526.7957 216.5233,-529.8692 221.443,-532.3534"/>
<polygon fill="#191970" stroke="#191970" points="143.0267,-294.8445 137.9701,-285.5343 136.1171,-295.9658 143.0267,-294.8445"/>
</g>
<!-- Node3 -->
<g id="node4" class="node">
<title>Node3</title>
<g id="a_node4"><a xlink:href="class_ogre_1_1_cg_plugin.html" target="_top" xlink:title="Plugin instance for Cg Program Manager. ">
<polygon fill="none" stroke="#000000" points="243,-494.5 243,-513.5 326,-513.5 326,-494.5 243,-494.5"/>
<text text-anchor="middle" x="284.5" y="-501.5" font-family="Helvetica,sans-Serif" font-size="10.00" fill="#000000">Ogre::CgPlugin</text>
</a>
</g>
</g>
<!-- Node0&#45;&gt;Node3 -->
<g id="edge3" class="edge">
<title>Node0&#45;&gt;Node3</title>
<path fill="none" stroke="#191970" d="M140.6336,-295.3183C150.9775,-341.917 179.2211,-458.6004 208,-485 217.4794,-493.6957 230.3116,-498.5672 242.7563,-501.2505"/>
<polygon fill="#191970" stroke="#191970" points="144.0524,-294.5683 138.4999,-285.545 137.2135,-296.0614 144.0524,-294.5683"/>
</g>
<!-- Node4 -->
<g id="node5" class="node">
<title>Node4</title>
<g id="a_node5"><a xlink:href="class_ogre_1_1_d3_d11_plugin.html" target="_top" xlink:title="Plugin instance for D3D11 Manager. ">
<polygon fill="none" stroke="#000000" points="234,-456.5 234,-475.5 335,-475.5 335,-456.5 234,-456.5"/>
<text text-anchor="middle" x="284.5" y="-463.5" font-family="Helvetica,sans-Serif" font-size="10.00" fill="#000000">Ogre::D3D11Plugin</text>
</a>
</g>
</g>
<!-- Node0&#45;&gt;Node4 -->
<g id="edge4" class="edge">
<title>Node0&#45;&gt;Node4</title>
<path fill="none" stroke="#191970" d="M139.0194,-296.0753C144.6192,-331.9675 161.5027,-407.1069 208,-447 215.3741,-453.3267 224.5422,-457.6055 233.942,-460.4858"/>
<polygon fill="#191970" stroke="#191970" points="142.4451,-295.3044 137.5745,-285.8955 135.5146,-296.2881 142.4451,-295.3044"/>
</g>
<!-- Node5 -->
<g id="node6" class="node">
<title>Node5</title>
<g id="a_node6"><a xlink:href="class_ogre_1_1_d3_d9_plugin.html" target="_top" xlink:title="Plugin instance for D3D9 Manager. ">
<polygon fill="none" stroke="#000000" points="236.5,-418.5 236.5,-437.5 332.5,-437.5 332.5,-418.5 236.5,-418.5"/>
<text text-anchor="middle" x="284.5" y="-425.5" font-family="Helvetica,sans-Serif" font-size="10.00" fill="#000000">Ogre::D3D9Plugin</text>
</a>
</g>
</g>
<!-- Node0&#45;&gt;Node5 -->
<g id="edge5" class="edge">
<title>Node0&#45;&gt;Node5</title>
<path fill="none" stroke="#191970" d="M141.5557,-295.6846C150.1286,-324.9893 170.3681,-379.7645 208,-409 216.2132,-415.3806 226.2921,-419.6473 236.4051,-422.4929"/>
<polygon fill="#191970" stroke="#191970" points="144.8639,-294.5151 138.8294,-285.8068 138.1162,-296.3776 144.8639,-294.5151"/>
</g>
<!-- Node6 -->
<g id="node7" class="node">
<title>Node6</title>
<g id="a_node7"><a xlink:href="class_ogre_1_1_dot_scene_plugin.html" target="_top" xlink:title="Ogre::DotScenePlugin">
<polygon fill="none" stroke="#000000" points="227.5,-380.5 227.5,-399.5 341.5,-399.5 341.5,-380.5 227.5,-380.5"/>
<text text-anchor="middle" x="284.5" y="-387.5" font-family="Helvetica,sans-Serif" font-size="10.00" fill="#000000">Ogre::DotScenePlugin</text>
</a>
</g>
</g>
<!-- Node0&#45;&gt;Node6 -->
<g id="edge6" class="edge">
<title>Node0&#45;&gt;Node6</title>
<path fill="none" stroke="#191970" d="M145.5389,-294.7102C157.0127,-316.4297 178.8713,-351.7268 208,-371 213.9346,-374.9267 220.6147,-378.0421 227.4925,-380.5138"/>
<polygon fill="#191970" stroke="#191970" points="148.5272,-292.8644 140.8813,-285.5302 142.2847,-296.0317 148.5272,-292.8644"/>
</g>
<!-- Node7 -->
<g id="node8" class="node">
<title>Node7</title>
<g id="a_node8"><a xlink:href="class_ogre_1_1_free_image_plugin.html" target="_top" xlink:title="Ogre::FreeImagePlugin">
<polygon fill="none" stroke="#000000" points="226,-342.5 226,-361.5 343,-361.5 343,-342.5 226,-342.5"/>
<text text-anchor="middle" x="284.5" y="-349.5" font-family="Helvetica,sans-Serif" font-size="10.00" fill="#000000">Ogre::FreeImagePlugin</text>
</a>
</g>
</g>
<!-- Node0&#45;&gt;Node7 -->
<g id="edge7" class="edge">
<title>Node0&#45;&gt;Node7</title>
<path fill="none" stroke="#191970" d="M152.9313,-292.5537C166.5676,-305.3854 187.0535,-322.668 208,-333 215.732,-336.8138 224.2913,-339.9012 232.8027,-342.3887"/>
<polygon fill="#191970" stroke="#191970" points="155.3631,-290.0365 145.7422,-285.5992 150.496,-295.0677 155.3631,-290.0365"/>
</g>
<!-- Node8 -->
<g id="node9" class="node">
<title>Node8</title>
<g id="a_node9"><a xlink:href="class_ogre_1_1_g_l3_plus_plugin.html" target="_top" xlink:title="Plugin instance for GL3Plus Manager. ">
<polygon fill="none" stroke="#000000" points="230.5,-304.5 230.5,-323.5 338.5,-323.5 338.5,-304.5 230.5,-304.5"/>
<text text-anchor="middle" x="284.5" y="-311.5" font-family="Helvetica,sans-Serif" font-size="10.00" fill="#000000">Ogre::GL3PlusPlugin</text>
</a>
</g>
</g>
<!-- Node0&#45;&gt;Node8 -->
<g id="edge8" class="edge">
<title>Node0&#45;&gt;Node8</title>
<path fill="none" stroke="#191970" d="M182.0271,-288.217C190.647,-290.4964 199.5955,-292.8398 208,-295 220.1936,-298.1342 233.5031,-301.4695 245.5516,-304.4566"/>
<polygon fill="#191970" stroke="#191970" points="182.6746,-284.7677 172.1114,-285.5854 180.8789,-291.5335 182.6746,-284.7677"/>
</g>
<!-- Node9 -->
<g id="node10" class="node">
<title>Node9</title>
<g id="a_node10"><a xlink:href="class_ogre_1_1_g_l_e_s2_plugin.html" target="_top" xlink:title="Plugin instance for GL ES 2 Manager. ">
<polygon fill="none" stroke="#000000" points="233.5,-266.5 233.5,-285.5 335.5,-285.5 335.5,-266.5 233.5,-266.5"/>
<text text-anchor="middle" x="284.5" y="-273.5" font-family="Helvetica,sans-Serif" font-size="10.00" fill="#000000">Ogre::GLES2Plugin</text>
</a>
</g>
</g>
<!-- Node0&#45;&gt;Node9 -->
<g id="edge9" class="edge">
<title>Node0&#45;&gt;Node9</title>
<path fill="none" stroke="#191970" d="M182.5719,-276C198.6755,-276 216.8469,-276 233.3401,-276"/>
<polygon fill="#191970" stroke="#191970" points="182.3267,-272.5001 172.3267,-276 182.3266,-279.5001 182.3267,-272.5001"/>
</g>
<!-- Node10 -->
<g id="node11" class="node">
<title>Node10</title>
<g id="a_node11"><a xlink:href="class_ogre_1_1_g_l_plugin.html" target="_top" xlink:title="Plugin instance for GL Manager. ">
<polygon fill="none" stroke="#000000" points="243,-228.5 243,-247.5 326,-247.5 326,-228.5 243,-228.5"/>
<text text-anchor="middle" x="284.5" y="-235.5" font-family="Helvetica,sans-Serif" font-size="10.00" fill="#000000">Ogre::GLPlugin</text>
</a>
</g>
</g>
<!-- Node0&#45;&gt;Node10 -->
<g id="edge10" class="edge">
<title>Node0&#45;&gt;Node10</title>
<path fill="none" stroke="#191970" d="M182.0271,-263.783C190.647,-261.5036 199.5955,-259.1602 208,-257 220.1936,-253.8658 233.5031,-250.5305 245.5516,-247.5434"/>
<polygon fill="#191970" stroke="#191970" points="180.8789,-260.4665 172.1114,-266.4146 182.6746,-267.2323 180.8789,-260.4665"/>
</g>
<!-- Node11 -->
<g id="node12" class="node">
<title>Node11</title>
<g id="a_node12"><a xlink:href="class_ogre_1_1_metal_plugin.html" target="_top" xlink:title="Plugin instance for Metal Manager. ">
<polygon fill="none" stroke="#000000" points="237,-190.5 237,-209.5 332,-209.5 332,-190.5 237,-190.5"/>
<text text-anchor="middle" x="284.5" y="-197.5" font-family="Helvetica,sans-Serif" font-size="10.00" fill="#000000">Ogre::MetalPlugin</text>
</a>
</g>
</g>
<!-- Node0&#45;&gt;Node11 -->
<g id="edge11" class="edge">
<title>Node0&#45;&gt;Node11</title>
<path fill="none" stroke="#191970" d="M152.9313,-259.4463C166.5676,-246.6146 187.0535,-229.332 208,-219 216.9593,-214.5808 227.0295,-211.137 236.8485,-208.4716"/>
<polygon fill="#191970" stroke="#191970" points="150.496,-256.9323 145.7422,-266.4008 155.3631,-261.9635 150.496,-256.9323"/>
</g>
<!-- Node12 -->
<g id="node13" class="node">
<title>Node12</title>
<g id="a_node13"><a xlink:href="class_ogre_1_1_octree_plugin.html" target="_top" xlink:title="Plugin instance for Octree Manager. ">
<polygon fill="none" stroke="#000000" points="234.5,-152.5 234.5,-171.5 334.5,-171.5 334.5,-152.5 234.5,-152.5"/>
<text text-anchor="middle" x="284.5" y="-159.5" font-family="Helvetica,sans-Serif" font-size="10.00" fill="#000000">Ogre::OctreePlugin</text>
</a>
</g>
</g>
<!-- Node0&#45;&gt;Node12 -->
<g id="edge12" class="edge">
<title>Node0&#45;&gt;Node12</title>
<path fill="none" stroke="#191970" d="M145.5389,-257.2898C157.0127,-235.5703 178.8713,-200.2732 208,-181 215.8748,-175.7896 225.0621,-172.0076 234.2822,-169.2626"/>
<polygon fill="#191970" stroke="#191970" points="142.2847,-255.9683 140.8813,-266.4698 148.5272,-259.1356 142.2847,-255.9683"/>
</g>
<!-- Node13 -->
<g id="node14" class="node">
<title>Node13</title>
<g id="a_node14"><a xlink:href="class_ogre_1_1_octree_zone_plugin.html" target="_top" xlink:title="Plugin instance for OctreeZone. ">
<polygon fill="none" stroke="#000000" points="223.5,-114.5 223.5,-133.5 345.5,-133.5 345.5,-114.5 223.5,-114.5"/>
<text text-anchor="middle" x="284.5" y="-121.5" font-family="Helvetica,sans-Serif" font-size="10.00" fill="#000000">Ogre::OctreeZonePlugin</text>
</a>
</g>
</g>
<!-- Node0&#45;&gt;Node13 -->
<g id="edge13" class="edge">
<title>Node0&#45;&gt;Node13</title>
<path fill="none" stroke="#191970" d="M141.5557,-256.3154C150.1286,-227.0107 170.3681,-172.2355 208,-143 212.9711,-139.138 218.6257,-136.0505 224.5577,-133.5838"/>
<polygon fill="#191970" stroke="#191970" points="138.1162,-255.6224 138.8294,-266.1932 144.8639,-257.4849 138.1162,-255.6224"/>
</g>
<!-- Node14 -->
<g id="node15" class="node">
<title>Node14</title>
<g id="a_node15"><a xlink:href="class_ogre_1_1_particle_f_x_plugin.html" target="_top" xlink:title="Plugin instance for ParticleFX Manager. ">
<polygon fill="none" stroke="#000000" points="226.5,-76.5 226.5,-95.5 342.5,-95.5 342.5,-76.5 226.5,-76.5"/>
<text text-anchor="middle" x="284.5" y="-83.5" font-family="Helvetica,sans-Serif" font-size="10.00" fill="#000000">Ogre::ParticleFXPlugin</text>
</a>
</g>
</g>
<!-- Node0&#45;&gt;Node14 -->
<g id="edge14" class="edge">
<title>Node0&#45;&gt;Node14</title>
<path fill="none" stroke="#191970" d="M139.0194,-255.9247C144.6192,-220.0325 161.5027,-144.8931 208,-105 213.4007,-100.3664 219.7638,-96.8312 226.4754,-94.1395"/>
<polygon fill="#191970" stroke="#191970" points="135.5146,-255.7119 137.5745,-266.1045 142.4451,-256.6956 135.5146,-255.7119"/>
</g>
<!-- Node15 -->
<g id="node16" class="node">
<title>Node15</title>
<g id="a_node16"><a xlink:href="class_ogre_1_1_p_c_z_plugin.html" target="_top" xlink:title="Plugin instance for PCZ Manager. ">
<polygon fill="none" stroke="#000000" points="239,-38.5 239,-57.5 330,-57.5 330,-38.5 239,-38.5"/>
<text text-anchor="middle" x="284.5" y="-45.5" font-family="Helvetica,sans-Serif" font-size="10.00" fill="#000000">Ogre::PCZPlugin</text>
</a>
</g>
</g>
<!-- Node0&#45;&gt;Node15 -->
<g id="edge15" class="edge">
<title>Node0&#45;&gt;Node15</title>
<path fill="none" stroke="#191970" d="M140.6336,-256.6817C150.9775,-210.083 179.2211,-93.3996 208,-67 216.4709,-59.2294 227.6193,-54.5126 238.7759,-51.6821"/>
<polygon fill="#191970" stroke="#191970" points="137.2135,-255.9386 138.4999,-266.455 144.0524,-257.4317 137.2135,-255.9386"/>
</g>
<!-- Node16 -->
<g id="node17" class="node">
<title>Node16</title>
<g id="a_node17"><a xlink:href="class_ogre_1_1_s_t_b_i_plugin.html" target="_top" xlink:title="Ogre::STBIPlugin">
<polygon fill="none" stroke="#000000" points="238,-.5 238,-19.5 331,-19.5 331,-.5 238,-.5"/>
<text text-anchor="middle" x="284.5" y="-7.5" font-family="Helvetica,sans-Serif" font-size="10.00" fill="#000000">Ogre::STBIPlugin</text>
</a>
</g>
</g>
<!-- Node0&#45;&gt;Node16 -->
<g id="edge16" class="edge">
<title>Node0&#45;&gt;Node16</title>
<path fill="none" stroke="#191970" d="M139.6008,-256.4159C148.3158,-203.7961 174.5865,-61.1567 208,-29 216.0854,-21.2187 226.84,-16.4729 237.7243,-13.6164"/>
<polygon fill="#191970" stroke="#191970" points="136.1171,-256.0342 137.9701,-266.4657 143.0267,-257.1555 136.1171,-256.0342"/>
</g>
<!-- Node1 -->
<g id="node2" class="node">
<title>Node1</title>
<g id="a_node2"><a xlink:href="class_ogre_1_1_allocated_object.html" target="_top" xlink:title="PluginAlloc">
<polygon fill="none" stroke="#000000" points="0,-266.5 0,-285.5 65,-285.5 65,-266.5 0,-266.5"/>
<text text-anchor="middle" x="32.5" y="-273.5" font-family="Helvetica,sans-Serif" font-size="10.00" fill="#000000">PluginAlloc</text>
</a>
</g>
</g>
<!-- Node1&#45;&gt;Node0 -->
<g id="edge1" class="edge">
<title>Node1&#45;&gt;Node0</title>
<path fill="none" stroke="#191970" d="M75.231,-276C83.7095,-276 92.5277,-276 100.7444,-276"/>
<polygon fill="#191970" stroke="#191970" points="75.1209,-272.5001 65.1209,-276 75.1209,-279.5001 75.1209,-272.5001"/>
</g>
</g>
</svg>
