<?xml version="1.0" encoding="UTF-8" standalone="no"?>
<!DOCTYPE svg PUBLIC "-//W3C//DTD SVG 1.1//EN"
 "http://www.w3.org/Graphics/SVG/1.1/DTD/svg11.dtd">
<!-- Generated by graphviz version 2.40.1 (20161225.0304)
 -->
<!-- Title: Ogre::DepthBuffer Pages: 1 -->
<svg width="582pt" height="142pt"
 viewBox="0.00 0.00 582.00 142.00" xmlns="http://www.w3.org/2000/svg" xmlns:xlink="http://www.w3.org/1999/xlink">
<g id="graph0" class="graph" transform="scale(1 1) rotate(0) translate(4 138)">
<title>Ogre::DepthBuffer</title>
<!-- Node0 -->
<g id="node1" class="node">
<title>Node0</title>
<polygon fill="#bfbfbf" stroke="#000000" points="123,-57.5 123,-76.5 219,-76.5 219,-57.5 123,-57.5"/>
<text text-anchor="middle" x="171" y="-64.5" font-family="Helvetica,sans-Serif" font-size="10.00" fill="#000000">Ogre::DepthBuffer</text>
</g>
<!-- Node2 -->
<g id="node3" class="node">
<title>Node2</title>
<g id="a_node3"><a xlink:href="class_ogre_1_1_d3_d11_depth_buffer.html" target="_top" xlink:title="Ogre::D3D11DepthBuffer">
<polygon fill="none" stroke="#000000" points="266,-114.5 266,-133.5 393,-133.5 393,-114.5 266,-114.5"/>
<text text-anchor="middle" x="329.5" y="-121.5" font-family="Helvetica,sans-Serif" font-size="10.00" fill="#000000">Ogre::D3D11DepthBuffer</text>
</a>
</g>
</g>
<!-- Node0&#45;&gt;Node2 -->
<g id="edge2" class="edge">
<title>Node0&#45;&gt;Node2</title>
<path fill="none" stroke="#191970" d="M198.9927,-81.153C215.0918,-88.9125 235.8623,-98.289 255,-105 265.0768,-108.5336 276.131,-111.7142 286.5677,-114.4173"/>
<polygon fill="#191970" stroke="#191970" points="200.1492,-77.8223 189.6287,-76.5688 197.0713,-84.1093 200.1492,-77.8223"/>
</g>
<!-- Node3 -->
<g id="node4" class="node">
<title>Node3</title>
<g id="a_node4"><a xlink:href="class_ogre_1_1_d3_d9_depth_buffer.html" target="_top" xlink:title="Ogre::D3D9DepthBuffer">
<polygon fill="none" stroke="#000000" points="268.5,-76.5 268.5,-95.5 390.5,-95.5 390.5,-76.5 268.5,-76.5"/>
<text text-anchor="middle" x="329.5" y="-83.5" font-family="Helvetica,sans-Serif" font-size="10.00" fill="#000000">Ogre::D3D9DepthBuffer</text>
</a>
</g>
</g>
<!-- Node0&#45;&gt;Node3 -->
<g id="edge3" class="edge">
<title>Node0&#45;&gt;Node3</title>
<path fill="none" stroke="#191970" d="M229.4308,-74.0043C242.1583,-75.53 255.6569,-77.1481 268.4819,-78.6855"/>
<polygon fill="#191970" stroke="#191970" points="229.762,-70.519 219.4165,-72.8039 228.9288,-77.4693 229.762,-70.519"/>
</g>
<!-- Node4 -->
<g id="node5" class="node">
<title>Node4</title>
<g id="a_node5"><a xlink:href="class_ogre_1_1_g_l_depth_buffer_common.html" target="_top" xlink:title="OpenGL supports 3 different methods: FBO, pbuffer &amp; Copy. ">
<polygon fill="none" stroke="#000000" points="255,-38.5 255,-57.5 404,-57.5 404,-38.5 255,-38.5"/>
<text text-anchor="middle" x="329.5" y="-45.5" font-family="Helvetica,sans-Serif" font-size="10.00" fill="#000000">Ogre::GLDepthBufferCommon</text>
</a>
</g>
</g>
<!-- Node0&#45;&gt;Node4 -->
<g id="edge4" class="edge">
<title>Node0&#45;&gt;Node4</title>
<path fill="none" stroke="#191970" d="M229.6176,-59.9733C237.8283,-58.989 246.3565,-57.9667 254.8151,-56.9528"/>
<polygon fill="#191970" stroke="#191970" points="228.9288,-56.5307 219.4165,-61.1961 229.762,-63.481 228.9288,-56.5307"/>
</g>
<!-- Node8 -->
<g id="node9" class="node">
<title>Node8</title>
<g id="a_node9"><a xlink:href="class_ogre_1_1_metal_depth_buffer.html" target="_top" xlink:title="Ogre::MetalDepthBuffer">
<polygon fill="none" stroke="#000000" points="269.5,-.5 269.5,-19.5 389.5,-19.5 389.5,-.5 269.5,-.5"/>
<text text-anchor="middle" x="329.5" y="-7.5" font-family="Helvetica,sans-Serif" font-size="10.00" fill="#000000">Ogre::MetalDepthBuffer</text>
</a>
</g>
</g>
<!-- Node0&#45;&gt;Node8 -->
<g id="edge8" class="edge">
<title>Node0&#45;&gt;Node8</title>
<path fill="none" stroke="#191970" d="M198.9927,-52.847C215.0918,-45.0875 235.8623,-35.711 255,-29 265.0768,-25.4664 276.131,-22.2858 286.5677,-19.5827"/>
<polygon fill="#191970" stroke="#191970" points="197.0713,-49.8907 189.6287,-57.4312 200.1492,-56.1777 197.0713,-49.8907"/>
</g>
<!-- Node1 -->
<g id="node2" class="node">
<title>Node1</title>
<g id="a_node2"><a xlink:href="class_ogre_1_1_allocated_object.html" target="_top" xlink:title="RenderSysAlloc">
<polygon fill="none" stroke="#000000" points="0,-57.5 0,-76.5 87,-76.5 87,-57.5 0,-57.5"/>
<text text-anchor="middle" x="43.5" y="-64.5" font-family="Helvetica,sans-Serif" font-size="10.00" fill="#000000">RenderSysAlloc</text>
</a>
</g>
</g>
<!-- Node1&#45;&gt;Node0 -->
<g id="edge1" class="edge">
<title>Node1&#45;&gt;Node0</title>
<path fill="none" stroke="#191970" d="M97.2364,-67C105.7444,-67 114.4965,-67 122.8659,-67"/>
<polygon fill="#191970" stroke="#191970" points="97.0217,-63.5001 87.0217,-67 97.0216,-70.5001 97.0217,-63.5001"/>
</g>
<!-- Node5 -->
<g id="node6" class="node">
<title>Node5</title>
<g id="a_node6"><a xlink:href="class_ogre_1_1_g_l3_plus_depth_buffer.html" target="_top" xlink:title="Ogre::GL3PlusDepthBuffer">
<polygon fill="none" stroke="#000000" points="440,-76.5 440,-95.5 574,-95.5 574,-76.5 440,-76.5"/>
<text text-anchor="middle" x="507" y="-83.5" font-family="Helvetica,sans-Serif" font-size="10.00" fill="#000000">Ogre::GL3PlusDepthBuffer</text>
</a>
</g>
</g>
<!-- Node4&#45;&gt;Node5 -->
<g id="edge5" class="edge">
<title>Node4&#45;&gt;Node5</title>
<path fill="none" stroke="#191970" d="M384.3969,-59.7526C409.4954,-65.1258 438.8428,-71.4086 462.5313,-76.4799"/>
<polygon fill="#191970" stroke="#191970" points="384.8019,-56.26 374.2907,-57.589 383.3365,-63.1049 384.8019,-56.26"/>
</g>
<!-- Node6 -->
<g id="node7" class="node">
<title>Node6</title>
<g id="a_node7"><a xlink:href="class_ogre_1_1_g_l_depth_buffer.html" target="_top" xlink:title="Ogre::GLDepthBuffer">
<polygon fill="none" stroke="#000000" points="452.5,-38.5 452.5,-57.5 561.5,-57.5 561.5,-38.5 452.5,-38.5"/>
<text text-anchor="middle" x="507" y="-45.5" font-family="Helvetica,sans-Serif" font-size="10.00" fill="#000000">Ogre::GLDepthBuffer</text>
</a>
</g>
</g>
<!-- Node4&#45;&gt;Node6 -->
<g id="edge6" class="edge">
<title>Node4&#45;&gt;Node6</title>
<path fill="none" stroke="#191970" d="M414.3367,-48C427.2761,-48 440.3266,-48 452.3852,-48"/>
<polygon fill="#191970" stroke="#191970" points="414.0045,-44.5001 404.0045,-48 414.0044,-51.5001 414.0045,-44.5001"/>
</g>
<!-- Node7 -->
<g id="node8" class="node">
<title>Node7</title>
<g id="a_node8"><a xlink:href="class_ogre_1_1_g_l_e_s2_depth_buffer.html" target="_top" xlink:title="Ogre::GLES2DepthBuffer">
<polygon fill="none" stroke="#000000" points="443,-.5 443,-19.5 571,-19.5 571,-.5 443,-.5"/>
<text text-anchor="middle" x="507" y="-7.5" font-family="Helvetica,sans-Serif" font-size="10.00" fill="#000000">Ogre::GLES2DepthBuffer</text>
</a>
</g>
</g>
<!-- Node4&#45;&gt;Node7 -->
<g id="edge7" class="edge">
<title>Node4&#45;&gt;Node7</title>
<path fill="none" stroke="#191970" d="M384.3969,-36.2474C409.4954,-30.8742 438.8428,-24.5914 462.5313,-19.5201"/>
<polygon fill="#191970" stroke="#191970" points="383.3365,-32.8951 374.2907,-38.411 384.8019,-39.74 383.3365,-32.8951"/>
</g>
</g>
</svg>
