<?xml version="1.0" encoding="UTF-8" standalone="no"?>
<!DOCTYPE svg PUBLIC "-//W3C//DTD SVG 1.1//EN"
 "http://www.w3.org/Graphics/SVG/1.1/DTD/svg11.dtd">
<!-- Generated by graphviz version 2.40.1 (20161225.0304)
 -->
<!-- Title: Ogre::HardwareBuffer Pages: 1 -->
<svg width="958pt" height="1067pt"
 viewBox="0.00 0.00 958.00 1067.00" xmlns="http://www.w3.org/2000/svg" xmlns:xlink="http://www.w3.org/1999/xlink">
<g id="graph0" class="graph" transform="scale(1 1) rotate(0) translate(4 1063)">
<title>Ogre::HardwareBuffer</title>
<!-- Node0 -->
<g id="node1" class="node">
<title>Node0</title>
<polygon fill="#bfbfbf" stroke="#000000" points="101,-623 101,-642 213,-642 213,-623 101,-623"/>
<text text-anchor="middle" x="157" y="-630" font-family="Helvetica,sans-Serif" font-size="10.00" fill="#000000">Ogre::HardwareBuffer</text>
</g>
<!-- Node2 -->
<g id="node3" class="node">
<title>Node2</title>
<g id="a_node3"><a xlink:href="class_ogre_1_1_d3_d11_hardware_buffer.html" target="_top" xlink:title="Base implementation of a D3D11 buffer, dealing with all the common aspects. ">
<polygon fill="none" stroke="#000000" points="250.5,-886 250.5,-905 393.5,-905 393.5,-886 250.5,-886"/>
<text text-anchor="middle" x="322" y="-893" font-family="Helvetica,sans-Serif" font-size="10.00" fill="#000000">Ogre::D3D11HardwareBuffer</text>
</a>
</g>
</g>
<!-- Node0&#45;&gt;Node2 -->
<g id="edge2" class="edge">
<title>Node0&#45;&gt;Node2</title>
<path fill="none" stroke="#191970" d="M158.4844,-652.4028C163.0519,-698.9092 181.0389,-815.3827 249,-876.5 253.2845,-880.353 258.2527,-883.4429 263.543,-885.918"/>
<polygon fill="#191970" stroke="#191970" points="161.9469,-651.8205 157.59,-642.1629 154.9735,-652.4296 161.9469,-651.8205"/>
</g>
<!-- Node3 -->
<g id="node4" class="node">
<title>Node3</title>
<g id="a_node4"><a xlink:href="class_ogre_1_1_hardware_index_buffer.html" target="_top" xlink:title="Specialisation of HardwareBuffer for vertex index buffers, still abstract. ">
<polygon fill="none" stroke="#000000" points="254,-848 254,-867 390,-867 390,-848 254,-848"/>
<text text-anchor="middle" x="322" y="-855" font-family="Helvetica,sans-Serif" font-size="10.00" fill="#000000">Ogre::HardwareIndexBuffer</text>
</a>
</g>
</g>
<!-- Node0&#45;&gt;Node3 -->
<g id="edge3" class="edge">
<title>Node0&#45;&gt;Node3</title>
<path fill="none" stroke="#191970" d="M170.1566,-650.4408C203.349,-695.7032 289.6452,-813.3798 314.9366,-847.868"/>
<polygon fill="#191970" stroke="#191970" points="172.8259,-648.1623 164.0898,-642.168 167.1811,-652.3018 172.8259,-648.1623"/>
</g>
<!-- Node11 -->
<g id="node12" class="node">
<title>Node11</title>
<g id="a_node12"><a xlink:href="class_ogre_1_1_hardware_pixel_buffer.html" target="_top" xlink:title="Specialisation of HardwareBuffer for a pixel buffer. ">
<polygon fill="none" stroke="#000000" points="255,-623 255,-642 389,-642 389,-623 255,-623"/>
<text text-anchor="middle" x="322" y="-630" font-family="Helvetica,sans-Serif" font-size="10.00" fill="#000000">Ogre::HardwarePixelBuffer</text>
</a>
</g>
</g>
<!-- Node0&#45;&gt;Node11 -->
<g id="edge11" class="edge">
<title>Node0&#45;&gt;Node11</title>
<path fill="none" stroke="#191970" d="M223.5009,-632.5C233.8206,-632.5 244.4876,-632.5 254.8222,-632.5"/>
<polygon fill="#191970" stroke="#191970" points="223.3222,-629.0001 213.3222,-632.5 223.3221,-636.0001 223.3222,-629.0001"/>
</g>
<!-- Node27 -->
<g id="node28" class="node">
<title>Node27</title>
<g id="a_node28"><a xlink:href="class_ogre_1_1_hardware_uniform_buffer.html" target="_top" xlink:title="Specialisation of HardwareBuffer for a uniform buffer. ">
<polygon fill="none" stroke="#000000" points="249,-437 249,-456 395,-456 395,-437 249,-437"/>
<text text-anchor="middle" x="322" y="-444" font-family="Helvetica,sans-Serif" font-size="10.00" fill="#000000">Ogre::HardwareUniformBuffer</text>
</a>
</g>
</g>
<!-- Node0&#45;&gt;Node27 -->
<g id="edge27" class="edge">
<title>Node0&#45;&gt;Node27</title>
<path fill="none" stroke="#191970" d="M172.5352,-614.9876C206.6263,-576.5576 287.0552,-485.8923 313.4467,-456.1419"/>
<polygon fill="#191970" stroke="#191970" points="169.6567,-612.9583 165.6388,-622.7617 174.8933,-617.6036 169.6567,-612.9583"/>
</g>
<!-- Node32 -->
<g id="node33" class="node">
<title>Node32</title>
<g id="a_node33"><a xlink:href="class_ogre_1_1_hardware_vertex_buffer.html" target="_top" xlink:title="Specialisation of HardwareBuffer for a vertex buffer. ">
<polygon fill="none" stroke="#000000" points="252,-168 252,-187 392,-187 392,-168 252,-168"/>
<text text-anchor="middle" x="322" y="-175" font-family="Helvetica,sans-Serif" font-size="10.00" fill="#000000">Ogre::HardwareVertexBuffer</text>
</a>
</g>
</g>
<!-- Node0&#45;&gt;Node32 -->
<g id="edge32" class="edge">
<title>Node0&#45;&gt;Node32</title>
<path fill="none" stroke="#191970" d="M163.8822,-613.5219C191.9982,-535.9898 297.6367,-244.6837 318.4329,-187.3365"/>
<polygon fill="#191970" stroke="#191970" points="160.5651,-612.4025 160.4463,-622.9967 167.1458,-614.7889 160.5651,-612.4025"/>
</g>
<!-- Node1 -->
<g id="node2" class="node">
<title>Node1</title>
<g id="a_node2"><a xlink:href="class_ogre_1_1_allocated_object.html" target="_top" xlink:title="BufferAlloc">
<polygon fill="none" stroke="#000000" points="0,-623 0,-642 65,-642 65,-623 0,-623"/>
<text text-anchor="middle" x="32.5" y="-630" font-family="Helvetica,sans-Serif" font-size="10.00" fill="#000000">BufferAlloc</text>
</a>
</g>
</g>
<!-- Node1&#45;&gt;Node0 -->
<g id="edge1" class="edge">
<title>Node1&#45;&gt;Node0</title>
<path fill="none" stroke="#191970" d="M75.3339,-632.5C83.5784,-632.5 92.3278,-632.5 100.9189,-632.5"/>
<polygon fill="#191970" stroke="#191970" points="75.2109,-629.0001 65.2109,-632.5 75.2109,-636.0001 75.2109,-629.0001"/>
</g>
<!-- Node4 -->
<g id="node5" class="node">
<title>Node4</title>
<g id="a_node5"><a xlink:href="class_ogre_1_1_d3_d11_hardware_index_buffer.html" target="_top" xlink:title="Ogre::D3D11HardwareIndex\lBuffer">
<polygon fill="none" stroke="#000000" points="441.5,-1028.5 441.5,-1058.5 581.5,-1058.5 581.5,-1028.5 441.5,-1028.5"/>
<text text-anchor="start" x="449.5" y="-1046.5" font-family="Helvetica,sans-Serif" font-size="10.00" fill="#000000">Ogre::D3D11HardwareIndex</text>
<text text-anchor="middle" x="511.5" y="-1035.5" font-family="Helvetica,sans-Serif" font-size="10.00" fill="#000000">Buffer</text>
</a>
</g>
</g>
<!-- Node3&#45;&gt;Node4 -->
<g id="edge4" class="edge">
<title>Node3&#45;&gt;Node4</title>
<path fill="none" stroke="#191970" d="M390.4801,-872.5171C392.0687,-873.7465 393.5808,-875.0717 395,-876.5 440.892,-922.6837 386.1938,-971.2621 431,-1018.5 434.6256,-1022.3223 438.8234,-1025.564 443.3607,-1028.3128"/>
<polygon fill="#191970" stroke="#191970" points="392.296,-869.5243 381.9741,-867.1349 388.553,-875.4396 392.296,-869.5243"/>
</g>
<!-- Node5 -->
<g id="node6" class="node">
<title>Node5</title>
<g id="a_node6"><a xlink:href="class_ogre_1_1_d3_d9_hardware_index_buffer.html" target="_top" xlink:title="Ogre::D3D9HardwareIndexBuffer">
<polygon fill="none" stroke="#000000" points="431,-990 431,-1009 592,-1009 592,-990 431,-990"/>
<text text-anchor="middle" x="511.5" y="-997" font-family="Helvetica,sans-Serif" font-size="10.00" fill="#000000">Ogre::D3D9HardwareIndexBuffer</text>
</a>
</g>
</g>
<!-- Node3&#45;&gt;Node5 -->
<g id="edge5" class="edge">
<title>Node3&#45;&gt;Node5</title>
<path fill="none" stroke="#191970" d="M389.6511,-872.2023C391.5294,-873.5178 393.32,-874.9472 395,-876.5 430.9193,-909.7008 394.7038,-947.7116 431,-980.5 435.2623,-984.3504 440.1579,-987.4613 445.3849,-989.97"/>
<polygon fill="#191970" stroke="#191970" points="391.33,-869.1299 380.9249,-867.1336 387.814,-875.1829 391.33,-869.1299"/>
</g>
<!-- Node6 -->
<g id="node7" class="node">
<title>Node6</title>
<g id="a_node7"><a xlink:href="class_ogre_1_1_default_hardware_index_buffer.html" target="_top" xlink:title="Specialisation of HardwareIndexBuffer for emulation. ">
<polygon fill="none" stroke="#000000" points="441,-940.5 441,-970.5 582,-970.5 582,-940.5 441,-940.5"/>
<text text-anchor="start" x="449" y="-958.5" font-family="Helvetica,sans-Serif" font-size="10.00" fill="#000000">Ogre::DefaultHardwareIndex</text>
<text text-anchor="middle" x="511.5" y="-947.5" font-family="Helvetica,sans-Serif" font-size="10.00" fill="#000000">Buffer</text>
</a>
</g>
</g>
<!-- Node3&#45;&gt;Node6 -->
<g id="edge6" class="edge">
<title>Node3&#45;&gt;Node6</title>
<path fill="none" stroke="#191970" d="M386.375,-871.2336C389.3916,-872.803 392.2878,-874.5517 395,-876.5 418.7278,-893.5446 407.5751,-914.0413 431,-931.5 435.5603,-934.8988 440.5995,-937.8191 445.8657,-940.3277"/>
<polygon fill="#191970" stroke="#191970" points="387.5842,-867.94 377.0274,-867.0422 384.7201,-874.3273 387.5842,-867.94"/>
</g>
<!-- Node7 -->
<g id="node8" class="node">
<title>Node7</title>
<g id="a_node8"><a xlink:href="class_ogre_1_1_g_l3_plus_hardware_index_buffer.html" target="_top" xlink:title="Ogre::GL3PlusHardwareIndex\lBuffer">
<polygon fill="none" stroke="#000000" points="438,-891.5 438,-921.5 585,-921.5 585,-891.5 438,-891.5"/>
<text text-anchor="start" x="446" y="-909.5" font-family="Helvetica,sans-Serif" font-size="10.00" fill="#000000">Ogre::GL3PlusHardwareIndex</text>
<text text-anchor="middle" x="511.5" y="-898.5" font-family="Helvetica,sans-Serif" font-size="10.00" fill="#000000">Buffer</text>
</a>
</g>
</g>
<!-- Node3&#45;&gt;Node7 -->
<g id="edge7" class="edge">
<title>Node3&#45;&gt;Node7</title>
<path fill="none" stroke="#191970" d="M368.8018,-869.6018C394.3502,-876.208 426.214,-884.4471 453.3468,-891.463"/>
<polygon fill="#191970" stroke="#191970" points="369.5452,-866.179 358.9874,-867.064 367.7927,-872.9561 369.5452,-866.179"/>
</g>
<!-- Node8 -->
<g id="node9" class="node">
<title>Node8</title>
<g id="a_node9"><a xlink:href="class_ogre_1_1_g_l_e_s2_hardware_index_buffer.html" target="_top" xlink:title="Ogre::GLES2HardwareIndex\lBuffer">
<polygon fill="none" stroke="#000000" points="441,-842.5 441,-872.5 582,-872.5 582,-842.5 441,-842.5"/>
<text text-anchor="start" x="449" y="-860.5" font-family="Helvetica,sans-Serif" font-size="10.00" fill="#000000">Ogre::GLES2HardwareIndex</text>
<text text-anchor="middle" x="511.5" y="-849.5" font-family="Helvetica,sans-Serif" font-size="10.00" fill="#000000">Buffer</text>
</a>
</g>
</g>
<!-- Node3&#45;&gt;Node8 -->
<g id="edge8" class="edge">
<title>Node3&#45;&gt;Node8</title>
<path fill="none" stroke="#191970" d="M400.294,-857.5C413.7041,-857.5 427.5679,-857.5 440.7662,-857.5"/>
<polygon fill="#191970" stroke="#191970" points="400.1462,-854.0001 390.1461,-857.5 400.1461,-861.0001 400.1462,-854.0001"/>
</g>
<!-- Node9 -->
<g id="node10" class="node">
<title>Node9</title>
<g id="a_node10"><a xlink:href="class_ogre_1_1_g_l_hardware_index_buffer.html" target="_top" xlink:title="Ogre::GLHardwareIndexBuffer">
<polygon fill="none" stroke="#000000" points="437,-804 437,-823 586,-823 586,-804 437,-804"/>
<text text-anchor="middle" x="511.5" y="-811" font-family="Helvetica,sans-Serif" font-size="10.00" fill="#000000">Ogre::GLHardwareIndexBuffer</text>
</a>
</g>
</g>
<!-- Node3&#45;&gt;Node9 -->
<g id="edge9" class="edge">
<title>Node3&#45;&gt;Node9</title>
<path fill="none" stroke="#191970" d="M373.1497,-845.6236C403.6754,-838.5358 441.9225,-829.6552 470.4616,-823.0287"/>
<polygon fill="#191970" stroke="#191970" points="372.0679,-842.2815 363.1187,-847.9527 373.6512,-849.1002 372.0679,-842.2815"/>
</g>
<!-- Node10 -->
<g id="node11" class="node">
<title>Node10</title>
<g id="a_node11"><a xlink:href="class_ogre_1_1_metal_hardware_index_buffer.html" target="_top" xlink:title="Specialisation of HardwareIndexBuffer for Metal. ">
<polygon fill="none" stroke="#000000" points="444.5,-754.5 444.5,-784.5 578.5,-784.5 578.5,-754.5 444.5,-754.5"/>
<text text-anchor="start" x="452.5" y="-772.5" font-family="Helvetica,sans-Serif" font-size="10.00" fill="#000000">Ogre::MetalHardwareIndex</text>
<text text-anchor="middle" x="511.5" y="-761.5" font-family="Helvetica,sans-Serif" font-size="10.00" fill="#000000">Buffer</text>
</a>
</g>
</g>
<!-- Node3&#45;&gt;Node10 -->
<g id="edge10" class="edge">
<title>Node3&#45;&gt;Node10</title>
<path fill="none" stroke="#191970" d="M344.7074,-842.3632C366.2291,-828.5105 399.8143,-808.1506 431,-794.5 439.3118,-790.8618 448.3193,-787.5195 457.1979,-784.5431"/>
<polygon fill="#191970" stroke="#191970" points="342.7331,-839.4721 336.2646,-847.8631 346.5539,-845.3374 342.7331,-839.4721"/>
</g>
<!-- Node12 -->
<g id="node13" class="node">
<title>Node12</title>
<g id="a_node13"><a xlink:href="class_ogre_1_1_d3_d11_hardware_pixel_buffer.html" target="_top" xlink:title="Ogre::D3D11HardwarePixel\lBuffer">
<polygon fill="none" stroke="#000000" points="442.5,-705.5 442.5,-735.5 580.5,-735.5 580.5,-705.5 442.5,-705.5"/>
<text text-anchor="start" x="450.5" y="-723.5" font-family="Helvetica,sans-Serif" font-size="10.00" fill="#000000">Ogre::D3D11HardwarePixel</text>
<text text-anchor="middle" x="511.5" y="-712.5" font-family="Helvetica,sans-Serif" font-size="10.00" fill="#000000">Buffer</text>
</a>
</g>
</g>
<!-- Node11&#45;&gt;Node12 -->
<g id="edge12" class="edge">
<title>Node11&#45;&gt;Node12</title>
<path fill="none" stroke="#191970" d="M344.7074,-647.6368C366.2291,-661.4895 399.8143,-681.8494 431,-695.5 439.3118,-699.1382 448.3193,-702.4805 457.1979,-705.4569"/>
<polygon fill="#191970" stroke="#191970" points="346.5539,-644.6626 336.2646,-642.1369 342.7331,-650.5279 346.5539,-644.6626"/>
</g>
<!-- Node13 -->
<g id="node14" class="node">
<title>Node13</title>
<g id="a_node14"><a xlink:href="class_ogre_1_1_d3_d9_hardware_pixel_buffer.html" target="_top" xlink:title="Ogre::D3D9HardwarePixelBuffer">
<polygon fill="none" stroke="#000000" points="432,-667 432,-686 591,-686 591,-667 432,-667"/>
<text text-anchor="middle" x="511.5" y="-674" font-family="Helvetica,sans-Serif" font-size="10.00" fill="#000000">Ogre::D3D9HardwarePixelBuffer</text>
</a>
</g>
</g>
<!-- Node11&#45;&gt;Node13 -->
<g id="edge13" class="edge">
<title>Node11&#45;&gt;Node13</title>
<path fill="none" stroke="#191970" d="M373.1497,-644.3764C403.6754,-651.4642 441.9225,-660.3448 470.4616,-666.9713"/>
<polygon fill="#191970" stroke="#191970" points="373.6512,-640.8998 363.1187,-642.0473 372.0679,-647.7185 373.6512,-640.8998"/>
</g>
<!-- Node14 -->
<g id="node15" class="node">
<title>Node14</title>
<g id="a_node15"><a xlink:href="class_ogre_1_1_g_l_hardware_pixel_buffer_common.html" target="_top" xlink:title="Ogre::GLHardwarePixelBuffer\lCommon">
<polygon fill="none" stroke="#000000" points="438.5,-617.5 438.5,-647.5 584.5,-647.5 584.5,-617.5 438.5,-617.5"/>
<text text-anchor="start" x="446.5" y="-635.5" font-family="Helvetica,sans-Serif" font-size="10.00" fill="#000000">Ogre::GLHardwarePixelBuffer</text>
<text text-anchor="middle" x="511.5" y="-624.5" font-family="Helvetica,sans-Serif" font-size="10.00" fill="#000000">Common</text>
</a>
</g>
</g>
<!-- Node11&#45;&gt;Node14 -->
<g id="edge14" class="edge">
<title>Node11&#45;&gt;Node14</title>
<path fill="none" stroke="#191970" d="M399.318,-632.5C412.2309,-632.5 425.5911,-632.5 438.3943,-632.5"/>
<polygon fill="#191970" stroke="#191970" points="399.0773,-629.0001 389.0773,-632.5 399.0773,-636.0001 399.0773,-629.0001"/>
</g>
<!-- Node24 -->
<g id="node25" class="node">
<title>Node24</title>
<g id="a_node25"><a xlink:href="class_ogre_1_1_metal_depth_pixel_buffer.html" target="_top" xlink:title="Ogre::MetalDepthPixelBuffer">
<polygon fill="none" stroke="#000000" points="440.5,-579 440.5,-598 582.5,-598 582.5,-579 440.5,-579"/>
<text text-anchor="middle" x="511.5" y="-586" font-family="Helvetica,sans-Serif" font-size="10.00" fill="#000000">Ogre::MetalDepthPixelBuffer</text>
</a>
</g>
</g>
<!-- Node11&#45;&gt;Node24 -->
<g id="edge24" class="edge">
<title>Node11&#45;&gt;Node24</title>
<path fill="none" stroke="#191970" d="M373.1497,-620.6236C403.6754,-613.5358 441.9225,-604.6552 470.4616,-598.0287"/>
<polygon fill="#191970" stroke="#191970" points="372.0679,-617.2815 363.1187,-622.9527 373.6512,-624.1002 372.0679,-617.2815"/>
</g>
<!-- Node25 -->
<g id="node26" class="node">
<title>Node25</title>
<g id="a_node26"><a xlink:href="class_ogre_1_1_metal_hardware_pixel_buffer.html" target="_top" xlink:title="Ogre::MetalHardwarePixel\lBuffer">
<polygon fill="none" stroke="#000000" points="446,-529.5 446,-559.5 577,-559.5 577,-529.5 446,-529.5"/>
<text text-anchor="start" x="454" y="-547.5" font-family="Helvetica,sans-Serif" font-size="10.00" fill="#000000">Ogre::MetalHardwarePixel</text>
<text text-anchor="middle" x="511.5" y="-536.5" font-family="Helvetica,sans-Serif" font-size="10.00" fill="#000000">Buffer</text>
</a>
</g>
</g>
<!-- Node11&#45;&gt;Node25 -->
<g id="edge25" class="edge">
<title>Node11&#45;&gt;Node25</title>
<path fill="none" stroke="#191970" d="M344.7074,-617.3632C366.2291,-603.5105 399.8143,-583.1506 431,-569.5 439.3118,-565.8618 448.3193,-562.5195 457.1979,-559.5431"/>
<polygon fill="#191970" stroke="#191970" points="342.7331,-614.4721 336.2646,-622.8631 346.5539,-620.3374 342.7331,-614.4721"/>
</g>
<!-- Node15 -->
<g id="node16" class="node">
<title>Node15</title>
<g id="a_node16"><a xlink:href="class_ogre_1_1_g_l3_plus_hardware_pixel_buffer.html" target="_top" xlink:title="Ogre::GL3PlusHardwarePixel\lBuffer">
<polygon fill="none" stroke="#000000" points="628.5,-684.5 628.5,-714.5 773.5,-714.5 773.5,-684.5 628.5,-684.5"/>
<text text-anchor="start" x="636.5" y="-702.5" font-family="Helvetica,sans-Serif" font-size="10.00" fill="#000000">Ogre::GL3PlusHardwarePixel</text>
<text text-anchor="middle" x="701" y="-691.5" font-family="Helvetica,sans-Serif" font-size="10.00" fill="#000000">Buffer</text>
</a>
</g>
</g>
<!-- Node14&#45;&gt;Node15 -->
<g id="edge15" class="edge">
<title>Node14&#45;&gt;Node15</title>
<path fill="none" stroke="#191970" d="M571.8516,-650.7626C578.6693,-652.9679 585.4987,-655.2408 592,-657.5 616.1367,-665.8877 642.919,-676.1932 663.8954,-684.4967"/>
<polygon fill="#191970" stroke="#191970" points="572.5017,-647.2962 561.9109,-647.5894 570.373,-653.9646 572.5017,-647.2962"/>
</g>
<!-- Node18 -->
<g id="node19" class="node">
<title>Node18</title>
<g id="a_node19"><a xlink:href="class_ogre_1_1_g_l_e_s2_hardware_pixel_buffer.html" target="_top" xlink:title="Ogre::GLES2HardwarePixel\lBuffer">
<polygon fill="none" stroke="#000000" points="631.5,-617.5 631.5,-647.5 770.5,-647.5 770.5,-617.5 631.5,-617.5"/>
<text text-anchor="start" x="639.5" y="-635.5" font-family="Helvetica,sans-Serif" font-size="10.00" fill="#000000">Ogre::GLES2HardwarePixel</text>
<text text-anchor="middle" x="701" y="-624.5" font-family="Helvetica,sans-Serif" font-size="10.00" fill="#000000">Buffer</text>
</a>
</g>
</g>
<!-- Node14&#45;&gt;Node18 -->
<g id="edge18" class="edge">
<title>Node14&#45;&gt;Node18</title>
<path fill="none" stroke="#191970" d="M594.9084,-632.5C607.0754,-632.5 619.4955,-632.5 631.3506,-632.5"/>
<polygon fill="#191970" stroke="#191970" points="594.7657,-629.0001 584.7656,-632.5 594.7656,-636.0001 594.7657,-629.0001"/>
</g>
<!-- Node21 -->
<g id="node22" class="node">
<title>Node21</title>
<g id="a_node22"><a xlink:href="class_ogre_1_1_g_l_hardware_pixel_buffer.html" target="_top" xlink:title="Ogre::GLHardwarePixelBuffer">
<polygon fill="none" stroke="#000000" points="628,-576 628,-595 774,-595 774,-576 628,-576"/>
<text text-anchor="middle" x="701" y="-583" font-family="Helvetica,sans-Serif" font-size="10.00" fill="#000000">Ogre::GLHardwarePixelBuffer</text>
</a>
</g>
</g>
<!-- Node14&#45;&gt;Node21 -->
<g id="edge21" class="edge">
<title>Node14&#45;&gt;Node21</title>
<path fill="none" stroke="#191970" d="M581.8861,-615.0428C609.1793,-608.2735 639.3661,-600.7865 662.5216,-595.0434"/>
<polygon fill="#191970" stroke="#191970" points="580.8434,-611.6953 571.98,-617.4997 582.5285,-618.4894 580.8434,-611.6953"/>
</g>
<!-- Node16 -->
<g id="node17" class="node">
<title>Node16</title>
<g id="a_node17"><a xlink:href="class_ogre_1_1_g_l3_plus_render_buffer.html" target="_top" xlink:title="Renderbuffer surface. ">
<polygon fill="none" stroke="#000000" points="810.5,-728 810.5,-747 949.5,-747 949.5,-728 810.5,-728"/>
<text text-anchor="middle" x="880" y="-735" font-family="Helvetica,sans-Serif" font-size="10.00" fill="#000000">Ogre::GL3PlusRenderBuffer</text>
</a>
</g>
</g>
<!-- Node15&#45;&gt;Node16 -->
<g id="edge16" class="edge">
<title>Node15&#45;&gt;Node16</title>
<path fill="none" stroke="#191970" d="M781.6124,-716.6133C800.0378,-720.5248 818.9706,-724.544 835.2457,-727.9991"/>
<polygon fill="#191970" stroke="#191970" points="782.2544,-713.1716 771.7455,-714.5186 780.8007,-720.019 782.2544,-713.1716"/>
</g>
<!-- Node17 -->
<g id="node18" class="node">
<title>Node17</title>
<g id="a_node18"><a xlink:href="class_ogre_1_1_g_l3_plus_texture_buffer.html" target="_top" xlink:title="Texture surface. ">
<polygon fill="none" stroke="#000000" points="810,-690 810,-709 950,-709 950,-690 810,-690"/>
<text text-anchor="middle" x="880" y="-697" font-family="Helvetica,sans-Serif" font-size="10.00" fill="#000000">Ogre::GL3PlusTextureBuffer</text>
</a>
</g>
</g>
<!-- Node15&#45;&gt;Node17 -->
<g id="edge17" class="edge">
<title>Node15&#45;&gt;Node17</title>
<path fill="none" stroke="#191970" d="M783.7676,-699.5C792.5241,-699.5 801.3671,-699.5 809.9587,-699.5"/>
<polygon fill="#191970" stroke="#191970" points="783.5481,-696.0001 773.5481,-699.5 783.5481,-703.0001 783.5481,-696.0001"/>
</g>
<!-- Node19 -->
<g id="node20" class="node">
<title>Node19</title>
<g id="a_node20"><a xlink:href="class_ogre_1_1_g_l_e_s2_render_buffer.html" target="_top" xlink:title="Renderbuffer surface. ">
<polygon fill="none" stroke="#000000" points="813.5,-652 813.5,-671 946.5,-671 946.5,-652 813.5,-652"/>
<text text-anchor="middle" x="880" y="-659" font-family="Helvetica,sans-Serif" font-size="10.00" fill="#000000">Ogre::GLES2RenderBuffer</text>
</a>
</g>
</g>
<!-- Node18&#45;&gt;Node19 -->
<g id="edge19" class="edge">
<title>Node18&#45;&gt;Node19</title>
<path fill="none" stroke="#191970" d="M780.9866,-645.4587C794.5159,-647.6506 808.3385,-649.89 821.1989,-651.9736"/>
<polygon fill="#191970" stroke="#191970" points="781.1497,-641.9396 770.7186,-643.7952 780.0301,-648.8495 781.1497,-641.9396"/>
</g>
<!-- Node20 -->
<g id="node21" class="node">
<title>Node20</title>
<g id="a_node21"><a xlink:href="class_ogre_1_1_g_l_e_s2_texture_buffer.html" target="_top" xlink:title="Texture surface. ">
<polygon fill="none" stroke="#000000" points="813,-614 813,-633 947,-633 947,-614 813,-614"/>
<text text-anchor="middle" x="880" y="-621" font-family="Helvetica,sans-Serif" font-size="10.00" fill="#000000">Ogre::GLES2TextureBuffer</text>
</a>
</g>
</g>
<!-- Node18&#45;&gt;Node20 -->
<g id="edge20" class="edge">
<title>Node18&#45;&gt;Node20</title>
<path fill="none" stroke="#191970" d="M780.8719,-628.4841C791.5419,-627.9476 802.3966,-627.4018 812.8198,-626.8778"/>
<polygon fill="#191970" stroke="#191970" points="780.5302,-624.9968 770.7186,-628.9946 780.8818,-631.9879 780.5302,-624.9968"/>
</g>
<!-- Node22 -->
<g id="node23" class="node">
<title>Node22</title>
<g id="a_node23"><a xlink:href="class_ogre_1_1_g_l_render_buffer.html" target="_top" xlink:title="Renderbuffer surface. ">
<polygon fill="none" stroke="#000000" points="823,-576 823,-595 937,-595 937,-576 823,-576"/>
<text text-anchor="middle" x="880" y="-583" font-family="Helvetica,sans-Serif" font-size="10.00" fill="#000000">Ogre::GLRenderBuffer</text>
</a>
</g>
</g>
<!-- Node21&#45;&gt;Node22 -->
<g id="edge22" class="edge">
<title>Node21&#45;&gt;Node22</title>
<path fill="none" stroke="#191970" d="M784.4204,-585.5C797.4056,-585.5 810.5623,-585.5 822.7903,-585.5"/>
<polygon fill="#191970" stroke="#191970" points="784.0644,-582.0001 774.0643,-585.5 784.0643,-589.0001 784.0644,-582.0001"/>
</g>
<!-- Node23 -->
<g id="node24" class="node">
<title>Node23</title>
<g id="a_node24"><a xlink:href="class_ogre_1_1_g_l_texture_buffer.html" target="_top" xlink:title="Texture surface. ">
<polygon fill="none" stroke="#000000" points="822,-538 822,-557 938,-557 938,-538 822,-538"/>
<text text-anchor="middle" x="880" y="-545" font-family="Helvetica,sans-Serif" font-size="10.00" fill="#000000">Ogre::GLTextureBuffer</text>
</a>
</g>
</g>
<!-- Node21&#45;&gt;Node23 -->
<g id="edge23" class="edge">
<title>Node21&#45;&gt;Node23</title>
<path fill="none" stroke="#191970" d="M756.0236,-573.819C781.4082,-568.4301 811.1607,-562.1139 835.1556,-557.0201"/>
<polygon fill="#191970" stroke="#191970" points="755.2244,-570.4106 746.1693,-575.911 756.6781,-577.258 755.2244,-570.4106"/>
</g>
<!-- Node26 -->
<g id="node27" class="node">
<title>Node26</title>
<g id="a_node27"><a xlink:href="class_ogre_1_1_metal_texture_buffer.html" target="_top" xlink:title="Texture surface. ">
<polygon fill="none" stroke="#000000" points="637.5,-535 637.5,-554 764.5,-554 764.5,-535 637.5,-535"/>
<text text-anchor="middle" x="701" y="-542" font-family="Helvetica,sans-Serif" font-size="10.00" fill="#000000">Ogre::MetalTextureBuffer</text>
</a>
</g>
</g>
<!-- Node25&#45;&gt;Node26 -->
<g id="edge26" class="edge">
<title>Node25&#45;&gt;Node26</title>
<path fill="none" stroke="#191970" d="M587.4189,-544.5C603.953,-544.5 621.2843,-544.5 637.2876,-544.5"/>
<polygon fill="#191970" stroke="#191970" points="587.2461,-541.0001 577.2461,-544.5 587.246,-548.0001 587.2461,-541.0001"/>
</g>
<!-- Node28 -->
<g id="node29" class="node">
<title>Node28</title>
<g id="a_node29"><a xlink:href="class_ogre_1_1_d3_d11_hardware_uniform_buffer.html" target="_top" xlink:title="Specialisation of HardwareBuffer for D3D11. ">
<polygon fill="none" stroke="#000000" points="436,-480.5 436,-510.5 587,-510.5 587,-480.5 436,-480.5"/>
<text text-anchor="start" x="444" y="-498.5" font-family="Helvetica,sans-Serif" font-size="10.00" fill="#000000">Ogre::D3D11HardwareUniform</text>
<text text-anchor="middle" x="511.5" y="-487.5" font-family="Helvetica,sans-Serif" font-size="10.00" fill="#000000">Buffer</text>
</a>
</g>
</g>
<!-- Node27&#45;&gt;Node28 -->
<g id="edge28" class="edge">
<title>Node27&#45;&gt;Node28</title>
<path fill="none" stroke="#191970" d="M368.8018,-458.6018C394.3502,-465.208 426.214,-473.4471 453.3468,-480.463"/>
<polygon fill="#191970" stroke="#191970" points="369.5452,-455.179 358.9874,-456.064 367.7927,-461.9561 369.5452,-455.179"/>
</g>
<!-- Node29 -->
<g id="node30" class="node">
<title>Node29</title>
<g id="a_node30"><a xlink:href="class_ogre_1_1_default_hardware_uniform_buffer.html" target="_top" xlink:title="Specialisation of HardwareUniformBuffer for emulation. ">
<polygon fill="none" stroke="#000000" points="435.5,-431.5 435.5,-461.5 587.5,-461.5 587.5,-431.5 435.5,-431.5"/>
<text text-anchor="start" x="443.5" y="-449.5" font-family="Helvetica,sans-Serif" font-size="10.00" fill="#000000">Ogre::DefaultHardwareUniform</text>
<text text-anchor="middle" x="511.5" y="-438.5" font-family="Helvetica,sans-Serif" font-size="10.00" fill="#000000">Buffer</text>
</a>
</g>
</g>
<!-- Node27&#45;&gt;Node29 -->
<g id="edge29" class="edge">
<title>Node27&#45;&gt;Node29</title>
<path fill="none" stroke="#191970" d="M405.5127,-446.5C415.4213,-446.5 425.4961,-446.5 435.2955,-446.5"/>
<polygon fill="#191970" stroke="#191970" points="405.2657,-443.0001 395.2656,-446.5 405.2656,-450.0001 405.2657,-443.0001"/>
</g>
<!-- Node30 -->
<g id="node31" class="node">
<title>Node30</title>
<g id="a_node31"><a xlink:href="class_ogre_1_1_g_l3_plus_hardware_uniform_buffer.html" target="_top" xlink:title="Specialisation of HardwareUniformBuffer for OpenGL. ">
<polygon fill="none" stroke="#000000" points="432.5,-382.5 432.5,-412.5 590.5,-412.5 590.5,-382.5 432.5,-382.5"/>
<text text-anchor="start" x="440.5" y="-400.5" font-family="Helvetica,sans-Serif" font-size="10.00" fill="#000000">Ogre::GL3PlusHardwareUniform</text>
<text text-anchor="middle" x="511.5" y="-389.5" font-family="Helvetica,sans-Serif" font-size="10.00" fill="#000000">Buffer</text>
</a>
</g>
</g>
<!-- Node27&#45;&gt;Node30 -->
<g id="edge30" class="edge">
<title>Node27&#45;&gt;Node30</title>
<path fill="none" stroke="#191970" d="M368.8018,-434.3982C394.3502,-427.792 426.214,-419.5529 453.3468,-412.537"/>
<polygon fill="#191970" stroke="#191970" points="367.7927,-431.0439 358.9874,-436.936 369.5452,-437.821 367.7927,-431.0439"/>
</g>
<!-- Node31 -->
<g id="node32" class="node">
<title>Node31</title>
<g id="a_node32"><a xlink:href="class_ogre_1_1_g_l_e_s2_hardware_uniform_buffer.html" target="_top" xlink:title="Specialisation of HardwareUniformBuffer for OpenGL. ">
<polygon fill="none" stroke="#000000" points="435.5,-333.5 435.5,-363.5 587.5,-363.5 587.5,-333.5 435.5,-333.5"/>
<text text-anchor="start" x="443.5" y="-351.5" font-family="Helvetica,sans-Serif" font-size="10.00" fill="#000000">Ogre::GLES2HardwareUniform</text>
<text text-anchor="middle" x="511.5" y="-340.5" font-family="Helvetica,sans-Serif" font-size="10.00" fill="#000000">Buffer</text>
</a>
</g>
</g>
<!-- Node27&#45;&gt;Node31 -->
<g id="edge31" class="edge">
<title>Node27&#45;&gt;Node31</title>
<path fill="none" stroke="#191970" d="M341.5237,-430.5035C362.5108,-413.9873 397.4011,-388.4445 431,-372.5 437.9829,-369.1862 445.5248,-366.2159 453.095,-363.5888"/>
<polygon fill="#191970" stroke="#191970" points="339.3102,-427.792 333.6806,-436.7674 343.6786,-433.2617 339.3102,-427.792"/>
</g>
<!-- Node33 -->
<g id="node34" class="node">
<title>Node33</title>
<g id="a_node34"><a xlink:href="class_ogre_1_1_d3_d11_hardware_vertex_buffer.html" target="_top" xlink:title="Specialisation of HardwareVertexBuffer for D3D11. ">
<polygon fill="none" stroke="#000000" points="439,-284.5 439,-314.5 584,-314.5 584,-284.5 439,-284.5"/>
<text text-anchor="start" x="447" y="-302.5" font-family="Helvetica,sans-Serif" font-size="10.00" fill="#000000">Ogre::D3D11HardwareVertex</text>
<text text-anchor="middle" x="511.5" y="-291.5" font-family="Helvetica,sans-Serif" font-size="10.00" fill="#000000">Buffer</text>
</a>
</g>
</g>
<!-- Node32&#45;&gt;Node33 -->
<g id="edge33" class="edge">
<title>Node32&#45;&gt;Node33</title>
<path fill="none" stroke="#191970" d="M337.2009,-195C356.837,-216.5874 393.0301,-253.0532 431,-274.5 437.7533,-278.3145 445.1606,-281.6211 452.6618,-284.4666"/>
<polygon fill="#191970" stroke="#191970" points="339.5615,-192.3888 330.291,-187.2597 334.3396,-197.0505 339.5615,-192.3888"/>
</g>
<!-- Node34 -->
<g id="node35" class="node">
<title>Node34</title>
<g id="a_node35"><a xlink:href="class_ogre_1_1_d3_d9_hardware_vertex_buffer.html" target="_top" xlink:title="Specialisation of HardwareVertexBuffer for D3D9. ">
<polygon fill="none" stroke="#000000" points="441.5,-235.5 441.5,-265.5 581.5,-265.5 581.5,-235.5 441.5,-235.5"/>
<text text-anchor="start" x="449.5" y="-253.5" font-family="Helvetica,sans-Serif" font-size="10.00" fill="#000000">Ogre::D3D9HardwareVertex</text>
<text text-anchor="middle" x="511.5" y="-242.5" font-family="Helvetica,sans-Serif" font-size="10.00" fill="#000000">Buffer</text>
</a>
</g>
</g>
<!-- Node32&#45;&gt;Node34 -->
<g id="edge34" class="edge">
<title>Node32&#45;&gt;Node34</title>
<path fill="none" stroke="#191970" d="M351.1336,-191.4114C372.8764,-201.5272 403.4572,-215.1967 431,-225.5 440.3204,-228.9866 450.3692,-232.3849 460.1017,-235.4957"/>
<polygon fill="#191970" stroke="#191970" points="352.3482,-188.1153 341.8082,-187.0386 349.3762,-194.4531 352.3482,-188.1153"/>
</g>
<!-- Node35 -->
<g id="node36" class="node">
<title>Node35</title>
<g id="a_node36"><a xlink:href="class_ogre_1_1_default_hardware_vertex_buffer.html" target="_top" xlink:title="Specialisation of HardwareVertexBuffer for emulation. ">
<polygon fill="none" stroke="#000000" points="438.5,-186.5 438.5,-216.5 584.5,-216.5 584.5,-186.5 438.5,-186.5"/>
<text text-anchor="start" x="446.5" y="-204.5" font-family="Helvetica,sans-Serif" font-size="10.00" fill="#000000">Ogre::DefaultHardwareVertex</text>
<text text-anchor="middle" x="511.5" y="-193.5" font-family="Helvetica,sans-Serif" font-size="10.00" fill="#000000">Buffer</text>
</a>
</g>
</g>
<!-- Node32&#45;&gt;Node35 -->
<g id="edge35" class="edge">
<title>Node32&#45;&gt;Node35</title>
<path fill="none" stroke="#191970" d="M402.03,-187.6357C414.053,-189.1584 426.4001,-190.7222 438.2714,-192.2257"/>
<polygon fill="#191970" stroke="#191970" points="402.3849,-184.1528 392.0244,-186.3685 401.5054,-191.0973 402.3849,-184.1528"/>
</g>
<!-- Node36 -->
<g id="node37" class="node">
<title>Node36</title>
<g id="a_node37"><a xlink:href="class_ogre_1_1_g_l3_plus_hardware_vertex_buffer.html" target="_top" xlink:title="Specialisation of HardwareVertexBuffer for OpenGL. ">
<polygon fill="none" stroke="#000000" points="435.5,-137.5 435.5,-167.5 587.5,-167.5 587.5,-137.5 435.5,-137.5"/>
<text text-anchor="start" x="443.5" y="-155.5" font-family="Helvetica,sans-Serif" font-size="10.00" fill="#000000">Ogre::GL3PlusHardwareVertex</text>
<text text-anchor="middle" x="511.5" y="-144.5" font-family="Helvetica,sans-Serif" font-size="10.00" fill="#000000">Buffer</text>
</a>
</g>
</g>
<!-- Node32&#45;&gt;Node36 -->
<g id="edge36" class="edge">
<title>Node32&#45;&gt;Node36</title>
<path fill="none" stroke="#191970" d="M402.0703,-166.9366C413.112,-165.4799 424.4262,-163.9873 435.3935,-162.5404"/>
<polygon fill="#191970" stroke="#191970" points="401.4807,-163.484 392.0244,-168.262 402.3963,-170.4239 401.4807,-163.484"/>
</g>
<!-- Node37 -->
<g id="node38" class="node">
<title>Node37</title>
<g id="a_node38"><a xlink:href="class_ogre_1_1_g_l_e_s2_hardware_vertex_buffer.html" target="_top" xlink:title="Specialisation of HardwareVertexBuffer for OpenGL ES. ">
<polygon fill="none" stroke="#000000" points="438.5,-88.5 438.5,-118.5 584.5,-118.5 584.5,-88.5 438.5,-88.5"/>
<text text-anchor="start" x="446.5" y="-106.5" font-family="Helvetica,sans-Serif" font-size="10.00" fill="#000000">Ogre::GLES2HardwareVertex</text>
<text text-anchor="middle" x="511.5" y="-95.5" font-family="Helvetica,sans-Serif" font-size="10.00" fill="#000000">Buffer</text>
</a>
</g>
</g>
<!-- Node32&#45;&gt;Node37 -->
<g id="edge37" class="edge">
<title>Node32&#45;&gt;Node37</title>
<path fill="none" stroke="#191970" d="M349.9504,-163.3596C371.7009,-152.6805 402.8235,-138.1029 431,-127.5 439.326,-124.3669 448.2548,-121.3643 457.0263,-118.6078"/>
<polygon fill="#191970" stroke="#191970" points="348.3565,-160.2432 340.9499,-167.819 351.4643,-166.5155 348.3565,-160.2432"/>
</g>
<!-- Node38 -->
<g id="node39" class="node">
<title>Node38</title>
<g id="a_node39"><a xlink:href="class_ogre_1_1_g_l_hardware_vertex_buffer.html" target="_top" xlink:title="Specialisation of HardwareVertexBuffer for OpenGL. ">
<polygon fill="none" stroke="#000000" points="435,-50 435,-69 588,-69 588,-50 435,-50"/>
<text text-anchor="middle" x="511.5" y="-57" font-family="Helvetica,sans-Serif" font-size="10.00" fill="#000000">Ogre::GLHardwareVertexBuffer</text>
</a>
</g>
</g>
<!-- Node32&#45;&gt;Node38 -->
<g id="edge38" class="edge">
<title>Node32&#45;&gt;Node38</title>
<path fill="none" stroke="#191970" d="M336.0457,-160.176C355.1451,-137.8108 391.4851,-99.302 431,-78.5 438.3698,-74.6203 446.5323,-71.5233 454.7499,-69.0535"/>
<polygon fill="#191970" stroke="#191970" points="333.3282,-157.9697 329.5992,-167.8866 338.6986,-162.4596 333.3282,-157.9697"/>
</g>
<!-- Node39 -->
<g id="node40" class="node">
<title>Node39</title>
<g id="a_node40"><a xlink:href="class_ogre_1_1_metal_hardware_vertex_buffer.html" target="_top" xlink:title="Specialisation of HardwareVertexBuffer for Metal. ">
<polygon fill="none" stroke="#000000" points="442.5,-.5 442.5,-30.5 580.5,-30.5 580.5,-.5 442.5,-.5"/>
<text text-anchor="start" x="450.5" y="-18.5" font-family="Helvetica,sans-Serif" font-size="10.00" fill="#000000">Ogre::MetalHardwareVertex</text>
<text text-anchor="middle" x="511.5" y="-7.5" font-family="Helvetica,sans-Serif" font-size="10.00" fill="#000000">Buffer</text>
</a>
</g>
</g>
<!-- Node32&#45;&gt;Node39 -->
<g id="edge39" class="edge">
<title>Node32&#45;&gt;Node39</title>
<path fill="none" stroke="#191970" d="M331.7715,-159.0943C348.3027,-129.7034 384.5697,-72.2594 431,-40.5 436.677,-36.6168 442.9829,-33.3168 449.4953,-30.5167"/>
<polygon fill="#191970" stroke="#191970" points="328.6772,-157.4578 326.9357,-167.9085 334.8142,-160.8248 328.6772,-157.4578"/>
</g>
</g>
</svg>
