<?xml version="1.0" encoding="UTF-8" standalone="no"?>
<!DOCTYPE svg PUBLIC "-//W3C//DTD SVG 1.1//EN"
 "http://www.w3.org/Graphics/SVG/1.1/DTD/svg11.dtd">
<!-- Generated by graphviz version 2.40.1 (20161225.0304)
 -->
<!-- Title: Ogre::HardwarePixelBuffer Pages: 1 -->
<svg width="944pt" height="227pt"
 viewBox="0.00 0.00 944.00 226.50" xmlns="http://www.w3.org/2000/svg" xmlns:xlink="http://www.w3.org/1999/xlink">
<g id="graph0" class="graph" transform="scale(1 1) rotate(0) translate(4 222.5)">
<title>Ogre::HardwarePixelBuffer</title>
<!-- Node0 -->
<g id="node1" class="node">
<title>Node0</title>
<polygon fill="#bfbfbf" stroke="#000000" points="249,-94 249,-113 383,-113 383,-94 249,-94"/>
<text text-anchor="middle" x="316" y="-101" font-family="Helvetica,sans-Serif" font-size="10.00" fill="#000000">Ogre::HardwarePixelBuffer</text>
</g>
<!-- Node3 -->
<g id="node4" class="node">
<title>Node3</title>
<g id="a_node4"><a xlink:href="class_ogre_1_1_d3_d11_hardware_pixel_buffer.html" target="_top" xlink:title="Ogre::D3D11HardwarePixel\lBuffer">
<polygon fill="none" stroke="#000000" points="429.5,-176.5 429.5,-206.5 567.5,-206.5 567.5,-176.5 429.5,-176.5"/>
<text text-anchor="start" x="437.5" y="-194.5" font-family="Helvetica,sans-Serif" font-size="10.00" fill="#000000">Ogre::D3D11HardwarePixel</text>
<text text-anchor="middle" x="498.5" y="-183.5" font-family="Helvetica,sans-Serif" font-size="10.00" fill="#000000">Buffer</text>
</a>
</g>
</g>
<!-- Node0&#45;&gt;Node3 -->
<g id="edge3" class="edge">
<title>Node0&#45;&gt;Node3</title>
<path fill="none" stroke="#191970" d="M337.6144,-118.8856C357.8815,-132.7774 389.4136,-153.0452 419,-166.5 427.034,-170.1536 435.7531,-173.4854 444.3748,-176.4415"/>
<polygon fill="#191970" stroke="#191970" points="339.6097,-116.0101 329.3998,-113.18 335.6164,-121.7593 339.6097,-116.0101"/>
</g>
<!-- Node4 -->
<g id="node5" class="node">
<title>Node4</title>
<g id="a_node5"><a xlink:href="class_ogre_1_1_d3_d9_hardware_pixel_buffer.html" target="_top" xlink:title="Ogre::D3D9HardwarePixelBuffer">
<polygon fill="none" stroke="#000000" points="419,-138 419,-157 578,-157 578,-138 419,-138"/>
<text text-anchor="middle" x="498.5" y="-145" font-family="Helvetica,sans-Serif" font-size="10.00" fill="#000000">Ogre::D3D9HardwarePixelBuffer</text>
</a>
</g>
</g>
<!-- Node0&#45;&gt;Node4 -->
<g id="edge4" class="edge">
<title>Node0&#45;&gt;Node4</title>
<path fill="none" stroke="#191970" d="M364.9057,-115.4076C382.0139,-119.5632 401.3536,-124.2498 419,-128.5 431.8305,-131.5903 445.8307,-134.9428 458.4575,-137.9591"/>
<polygon fill="#191970" stroke="#191970" points="365.6639,-111.99 355.1202,-113.0295 364.0108,-118.7921 365.6639,-111.99"/>
</g>
<!-- Node5 -->
<g id="node6" class="node">
<title>Node5</title>
<g id="a_node6"><a xlink:href="class_ogre_1_1_g_l_hardware_pixel_buffer_common.html" target="_top" xlink:title="Ogre::GLHardwarePixelBuffer\lCommon">
<polygon fill="none" stroke="#000000" points="425.5,-88.5 425.5,-118.5 571.5,-118.5 571.5,-88.5 425.5,-88.5"/>
<text text-anchor="start" x="433.5" y="-106.5" font-family="Helvetica,sans-Serif" font-size="10.00" fill="#000000">Ogre::GLHardwarePixelBuffer</text>
<text text-anchor="middle" x="498.5" y="-95.5" font-family="Helvetica,sans-Serif" font-size="10.00" fill="#000000">Common</text>
</a>
</g>
</g>
<!-- Node0&#45;&gt;Node5 -->
<g id="edge5" class="edge">
<title>Node0&#45;&gt;Node5</title>
<path fill="none" stroke="#191970" d="M393.2658,-103.5C403.8898,-103.5 414.7728,-103.5 425.3203,-103.5"/>
<polygon fill="#191970" stroke="#191970" points="393.1788,-100.0001 383.1788,-103.5 393.1787,-107.0001 393.1788,-100.0001"/>
</g>
<!-- Node15 -->
<g id="node16" class="node">
<title>Node15</title>
<g id="a_node16"><a xlink:href="class_ogre_1_1_metal_depth_pixel_buffer.html" target="_top" xlink:title="Ogre::MetalDepthPixelBuffer">
<polygon fill="none" stroke="#000000" points="427.5,-50 427.5,-69 569.5,-69 569.5,-50 427.5,-50"/>
<text text-anchor="middle" x="498.5" y="-57" font-family="Helvetica,sans-Serif" font-size="10.00" fill="#000000">Ogre::MetalDepthPixelBuffer</text>
</a>
</g>
</g>
<!-- Node0&#45;&gt;Node15 -->
<g id="edge15" class="edge">
<title>Node0&#45;&gt;Node15</title>
<path fill="none" stroke="#191970" d="M364.9057,-91.5924C382.0139,-87.4368 401.3536,-82.7502 419,-78.5 431.8305,-75.4097 445.8307,-72.0572 458.4575,-69.0409"/>
<polygon fill="#191970" stroke="#191970" points="364.0108,-88.2079 355.1202,-93.9705 365.6639,-95.01 364.0108,-88.2079"/>
</g>
<!-- Node16 -->
<g id="node17" class="node">
<title>Node16</title>
<g id="a_node17"><a xlink:href="class_ogre_1_1_metal_hardware_pixel_buffer.html" target="_top" xlink:title="Ogre::MetalHardwarePixel\lBuffer">
<polygon fill="none" stroke="#000000" points="433,-.5 433,-30.5 564,-30.5 564,-.5 433,-.5"/>
<text text-anchor="start" x="441" y="-18.5" font-family="Helvetica,sans-Serif" font-size="10.00" fill="#000000">Ogre::MetalHardwarePixel</text>
<text text-anchor="middle" x="498.5" y="-7.5" font-family="Helvetica,sans-Serif" font-size="10.00" fill="#000000">Buffer</text>
</a>
</g>
</g>
<!-- Node0&#45;&gt;Node16 -->
<g id="edge16" class="edge">
<title>Node0&#45;&gt;Node16</title>
<path fill="none" stroke="#191970" d="M337.6144,-88.1144C357.8815,-74.2226 389.4136,-53.9548 419,-40.5 427.034,-36.8464 435.7531,-33.5146 444.3748,-30.5585"/>
<polygon fill="#191970" stroke="#191970" points="335.6164,-85.2407 329.3998,-93.82 339.6097,-90.9899 335.6164,-85.2407"/>
</g>
<!-- Node1 -->
<g id="node2" class="node">
<title>Node1</title>
<g id="a_node2"><a xlink:href="class_ogre_1_1_hardware_buffer.html" target="_top" xlink:title="Abstract class defining common features of hardware buffers. ">
<polygon fill="none" stroke="#000000" points="101,-94 101,-113 213,-113 213,-94 101,-94"/>
<text text-anchor="middle" x="157" y="-101" font-family="Helvetica,sans-Serif" font-size="10.00" fill="#000000">Ogre::HardwareBuffer</text>
</a>
</g>
</g>
<!-- Node1&#45;&gt;Node0 -->
<g id="edge1" class="edge">
<title>Node1&#45;&gt;Node0</title>
<path fill="none" stroke="#191970" d="M223.214,-103.5C231.6458,-103.5 240.2827,-103.5 248.7308,-103.5"/>
<polygon fill="#191970" stroke="#191970" points="223.0575,-100.0001 213.0575,-103.5 223.0574,-107.0001 223.0575,-100.0001"/>
</g>
<!-- Node2 -->
<g id="node3" class="node">
<title>Node2</title>
<g id="a_node3"><a xlink:href="class_ogre_1_1_allocated_object.html" target="_top" xlink:title="BufferAlloc">
<polygon fill="none" stroke="#000000" points="0,-94 0,-113 65,-113 65,-94 0,-94"/>
<text text-anchor="middle" x="32.5" y="-101" font-family="Helvetica,sans-Serif" font-size="10.00" fill="#000000">BufferAlloc</text>
</a>
</g>
</g>
<!-- Node2&#45;&gt;Node1 -->
<g id="edge2" class="edge">
<title>Node2&#45;&gt;Node1</title>
<path fill="none" stroke="#191970" d="M75.3339,-103.5C83.5784,-103.5 92.3278,-103.5 100.9189,-103.5"/>
<polygon fill="#191970" stroke="#191970" points="75.2109,-100.0001 65.2109,-103.5 75.2109,-107.0001 75.2109,-100.0001"/>
</g>
<!-- Node6 -->
<g id="node7" class="node">
<title>Node6</title>
<g id="a_node7"><a xlink:href="class_ogre_1_1_g_l3_plus_hardware_pixel_buffer.html" target="_top" xlink:title="Ogre::GL3PlusHardwarePixel\lBuffer">
<polygon fill="none" stroke="#000000" points="614.5,-155.5 614.5,-185.5 759.5,-185.5 759.5,-155.5 614.5,-155.5"/>
<text text-anchor="start" x="622.5" y="-173.5" font-family="Helvetica,sans-Serif" font-size="10.00" fill="#000000">Ogre::GL3PlusHardwarePixel</text>
<text text-anchor="middle" x="687" y="-162.5" font-family="Helvetica,sans-Serif" font-size="10.00" fill="#000000">Buffer</text>
</a>
</g>
</g>
<!-- Node5&#45;&gt;Node6 -->
<g id="edge6" class="edge">
<title>Node5&#45;&gt;Node6</title>
<path fill="none" stroke="#191970" d="M558.0956,-121.7908C564.8297,-123.991 571.5763,-126.2549 578,-128.5 602.026,-136.8972 628.6912,-147.155 649.6338,-155.4311"/>
<polygon fill="#191970" stroke="#191970" points="558.8689,-118.3627 548.2773,-118.6227 556.7193,-125.0245 558.8689,-118.3627"/>
</g>
<!-- Node9 -->
<g id="node10" class="node">
<title>Node9</title>
<g id="a_node10"><a xlink:href="class_ogre_1_1_g_l_e_s2_hardware_pixel_buffer.html" target="_top" xlink:title="Ogre::GLES2HardwarePixel\lBuffer">
<polygon fill="none" stroke="#000000" points="617.5,-88.5 617.5,-118.5 756.5,-118.5 756.5,-88.5 617.5,-88.5"/>
<text text-anchor="start" x="625.5" y="-106.5" font-family="Helvetica,sans-Serif" font-size="10.00" fill="#000000">Ogre::GLES2HardwarePixel</text>
<text text-anchor="middle" x="687" y="-95.5" font-family="Helvetica,sans-Serif" font-size="10.00" fill="#000000">Buffer</text>
</a>
</g>
</g>
<!-- Node5&#45;&gt;Node9 -->
<g id="edge9" class="edge">
<title>Node5&#45;&gt;Node9</title>
<path fill="none" stroke="#191970" d="M581.945,-103.5C593.75,-103.5 605.7841,-103.5 617.2934,-103.5"/>
<polygon fill="#191970" stroke="#191970" points="581.6489,-100.0001 571.6488,-103.5 581.6488,-107.0001 581.6489,-100.0001"/>
</g>
<!-- Node12 -->
<g id="node13" class="node">
<title>Node12</title>
<g id="a_node13"><a xlink:href="class_ogre_1_1_g_l_hardware_pixel_buffer.html" target="_top" xlink:title="Ogre::GLHardwarePixelBuffer">
<polygon fill="none" stroke="#000000" points="614,-47 614,-66 760,-66 760,-47 614,-47"/>
<text text-anchor="middle" x="687" y="-54" font-family="Helvetica,sans-Serif" font-size="10.00" fill="#000000">Ogre::GLHardwarePixelBuffer</text>
</a>
</g>
</g>
<!-- Node5&#45;&gt;Node12 -->
<g id="edge12" class="edge">
<title>Node5&#45;&gt;Node12</title>
<path fill="none" stroke="#191970" d="M568.5147,-86.0428C595.6638,-79.2735 625.6914,-71.7865 648.7247,-66.0434"/>
<polygon fill="#191970" stroke="#191970" points="567.517,-82.6843 558.6608,-88.4997 569.2106,-89.4763 567.517,-82.6843"/>
</g>
<!-- Node7 -->
<g id="node8" class="node">
<title>Node7</title>
<g id="a_node8"><a xlink:href="class_ogre_1_1_g_l3_plus_render_buffer.html" target="_top" xlink:title="Renderbuffer surface. ">
<polygon fill="none" stroke="#000000" points="796.5,-199 796.5,-218 935.5,-218 935.5,-199 796.5,-199"/>
<text text-anchor="middle" x="866" y="-206" font-family="Helvetica,sans-Serif" font-size="10.00" fill="#000000">Ogre::GL3PlusRenderBuffer</text>
</a>
</g>
</g>
<!-- Node6&#45;&gt;Node7 -->
<g id="edge7" class="edge">
<title>Node6&#45;&gt;Node7</title>
<path fill="none" stroke="#191970" d="M767.6124,-187.6133C786.0378,-191.5248 804.9706,-195.544 821.2457,-198.9991"/>
<polygon fill="#191970" stroke="#191970" points="768.2544,-184.1716 757.7455,-185.5186 766.8007,-191.019 768.2544,-184.1716"/>
</g>
<!-- Node8 -->
<g id="node9" class="node">
<title>Node8</title>
<g id="a_node9"><a xlink:href="class_ogre_1_1_g_l3_plus_texture_buffer.html" target="_top" xlink:title="Texture surface. ">
<polygon fill="none" stroke="#000000" points="796,-161 796,-180 936,-180 936,-161 796,-161"/>
<text text-anchor="middle" x="866" y="-168" font-family="Helvetica,sans-Serif" font-size="10.00" fill="#000000">Ogre::GL3PlusTextureBuffer</text>
</a>
</g>
</g>
<!-- Node6&#45;&gt;Node8 -->
<g id="edge8" class="edge">
<title>Node6&#45;&gt;Node8</title>
<path fill="none" stroke="#191970" d="M769.7676,-170.5C778.5241,-170.5 787.3671,-170.5 795.9587,-170.5"/>
<polygon fill="#191970" stroke="#191970" points="769.5481,-167.0001 759.5481,-170.5 769.5481,-174.0001 769.5481,-167.0001"/>
</g>
<!-- Node10 -->
<g id="node11" class="node">
<title>Node10</title>
<g id="a_node11"><a xlink:href="class_ogre_1_1_g_l_e_s2_render_buffer.html" target="_top" xlink:title="Renderbuffer surface. ">
<polygon fill="none" stroke="#000000" points="799.5,-123 799.5,-142 932.5,-142 932.5,-123 799.5,-123"/>
<text text-anchor="middle" x="866" y="-130" font-family="Helvetica,sans-Serif" font-size="10.00" fill="#000000">Ogre::GLES2RenderBuffer</text>
</a>
</g>
</g>
<!-- Node9&#45;&gt;Node10 -->
<g id="edge10" class="edge">
<title>Node9&#45;&gt;Node10</title>
<path fill="none" stroke="#191970" d="M766.9866,-116.4587C780.5159,-118.6506 794.3385,-120.89 807.1989,-122.9736"/>
<polygon fill="#191970" stroke="#191970" points="767.1497,-112.9396 756.7186,-114.7952 766.0301,-119.8495 767.1497,-112.9396"/>
</g>
<!-- Node11 -->
<g id="node12" class="node">
<title>Node11</title>
<g id="a_node12"><a xlink:href="class_ogre_1_1_g_l_e_s2_texture_buffer.html" target="_top" xlink:title="Texture surface. ">
<polygon fill="none" stroke="#000000" points="799,-85 799,-104 933,-104 933,-85 799,-85"/>
<text text-anchor="middle" x="866" y="-92" font-family="Helvetica,sans-Serif" font-size="10.00" fill="#000000">Ogre::GLES2TextureBuffer</text>
</a>
</g>
</g>
<!-- Node9&#45;&gt;Node11 -->
<g id="edge11" class="edge">
<title>Node9&#45;&gt;Node11</title>
<path fill="none" stroke="#191970" d="M766.8719,-99.4841C777.5419,-98.9476 788.3966,-98.4018 798.8198,-97.8778"/>
<polygon fill="#191970" stroke="#191970" points="766.5302,-95.9968 756.7186,-99.9946 766.8818,-102.9879 766.5302,-95.9968"/>
</g>
<!-- Node13 -->
<g id="node14" class="node">
<title>Node13</title>
<g id="a_node14"><a xlink:href="class_ogre_1_1_g_l_render_buffer.html" target="_top" xlink:title="Renderbuffer surface. ">
<polygon fill="none" stroke="#000000" points="809,-47 809,-66 923,-66 923,-47 809,-47"/>
<text text-anchor="middle" x="866" y="-54" font-family="Helvetica,sans-Serif" font-size="10.00" fill="#000000">Ogre::GLRenderBuffer</text>
</a>
</g>
</g>
<!-- Node12&#45;&gt;Node13 -->
<g id="edge13" class="edge">
<title>Node12&#45;&gt;Node13</title>
<path fill="none" stroke="#191970" d="M770.4204,-56.5C783.4056,-56.5 796.5623,-56.5 808.7903,-56.5"/>
<polygon fill="#191970" stroke="#191970" points="770.0644,-53.0001 760.0643,-56.5 770.0643,-60.0001 770.0644,-53.0001"/>
</g>
<!-- Node14 -->
<g id="node15" class="node">
<title>Node14</title>
<g id="a_node15"><a xlink:href="class_ogre_1_1_g_l_texture_buffer.html" target="_top" xlink:title="Texture surface. ">
<polygon fill="none" stroke="#000000" points="808,-9 808,-28 924,-28 924,-9 808,-9"/>
<text text-anchor="middle" x="866" y="-16" font-family="Helvetica,sans-Serif" font-size="10.00" fill="#000000">Ogre::GLTextureBuffer</text>
</a>
</g>
</g>
<!-- Node12&#45;&gt;Node14 -->
<g id="edge14" class="edge">
<title>Node12&#45;&gt;Node14</title>
<path fill="none" stroke="#191970" d="M742.0236,-44.819C767.4082,-39.4301 797.1607,-33.1139 821.1556,-28.0201"/>
<polygon fill="#191970" stroke="#191970" points="741.2244,-41.4106 732.1693,-46.911 742.6781,-48.258 741.2244,-41.4106"/>
</g>
<!-- Node17 -->
<g id="node18" class="node">
<title>Node17</title>
<g id="a_node18"><a xlink:href="class_ogre_1_1_metal_texture_buffer.html" target="_top" xlink:title="Texture surface. ">
<polygon fill="none" stroke="#000000" points="623.5,-6 623.5,-25 750.5,-25 750.5,-6 623.5,-6"/>
<text text-anchor="middle" x="687" y="-13" font-family="Helvetica,sans-Serif" font-size="10.00" fill="#000000">Ogre::MetalTextureBuffer</text>
</a>
</g>
</g>
<!-- Node16&#45;&gt;Node17 -->
<g id="edge17" class="edge">
<title>Node16&#45;&gt;Node17</title>
<path fill="none" stroke="#191970" d="M574.2168,-15.5C590.5531,-15.5 607.6628,-15.5 623.4766,-15.5"/>
<polygon fill="#191970" stroke="#191970" points="574.1636,-12.0001 564.1635,-15.5 574.1635,-19.0001 574.1636,-12.0001"/>
</g>
</g>
</svg>
