<?xml version="1.0" encoding="UTF-8" standalone="no"?>
<!DOCTYPE svg PUBLIC "-//W3C//DTD SVG 1.1//EN"
 "http://www.w3.org/Graphics/SVG/1.1/DTD/svg11.dtd">
<!-- Generated by graphviz version 2.40.1 (20161225.0304)
 -->
<!-- Title: Ogre::Sampler Pages: 1 -->
<svg width="376pt" height="84pt"
 viewBox="0.00 0.00 376.00 84.00" xmlns="http://www.w3.org/2000/svg" xmlns:xlink="http://www.w3.org/1999/xlink">
<g id="graph0" class="graph" transform="scale(1 1) rotate(0) translate(4 80)">
<title>Ogre::Sampler</title>
<!-- Node0 -->
<g id="node1" class="node">
<title>Node0</title>
<polygon fill="#bfbfbf" stroke="#000000" points="147,-56.5 147,-75.5 227,-75.5 227,-56.5 147,-56.5"/>
<text text-anchor="middle" x="187" y="-63.5" font-family="Helvetica,sans-Serif" font-size="10.00" fill="#000000">Ogre::Sampler</text>
</g>
<!-- Node1 -->
<g id="node2" class="node">
<title>Node1</title>
<g id="a_node2"><a xlink:href="class_ogre_1_1_d3_d11_sampler.html" target="_top" xlink:title="Ogre::D3D11Sampler">
<polygon fill="none" stroke="#000000" points="0,-.5 0,-19.5 110,-19.5 110,-.5 0,-.5"/>
<text text-anchor="middle" x="55" y="-7.5" font-family="Helvetica,sans-Serif" font-size="10.00" fill="#000000">Ogre::D3D11Sampler</text>
</a>
</g>
</g>
<!-- Node0&#45;&gt;Node1 -->
<g id="edge1" class="edge">
<title>Node0&#45;&gt;Node1</title>
<path fill="none" stroke="#191970" d="M154.9035,-52.3833C130.8965,-42.1985 98.6741,-28.5284 77.3955,-19.5011"/>
<polygon fill="#191970" stroke="#191970" points="153.7356,-55.6897 164.3084,-56.3733 156.4695,-49.2457 153.7356,-55.6897"/>
</g>
<!-- Node2 -->
<g id="node3" class="node">
<title>Node2</title>
<g id="a_node3"><a xlink:href="class_ogre_1_1_g_l3_plus_sampler.html" target="_top" xlink:title="Ogre::GL3PlusSampler">
<polygon fill="none" stroke="#000000" points="128.5,-.5 128.5,-19.5 245.5,-19.5 245.5,-.5 128.5,-.5"/>
<text text-anchor="middle" x="187" y="-7.5" font-family="Helvetica,sans-Serif" font-size="10.00" fill="#000000">Ogre::GL3PlusSampler</text>
</a>
</g>
</g>
<!-- Node0&#45;&gt;Node2 -->
<g id="edge2" class="edge">
<title>Node0&#45;&gt;Node2</title>
<path fill="none" stroke="#191970" d="M187,-46.1575C187,-37.155 187,-26.9199 187,-19.6427"/>
<polygon fill="#191970" stroke="#191970" points="183.5001,-46.2455 187,-56.2455 190.5001,-46.2456 183.5001,-46.2455"/>
</g>
<!-- Node3 -->
<g id="node4" class="node">
<title>Node3</title>
<g id="a_node4"><a xlink:href="class_ogre_1_1_metal_sampler.html" target="_top" xlink:title="Ogre::MetalSampler">
<polygon fill="none" stroke="#000000" points="264,-.5 264,-19.5 368,-19.5 368,-.5 264,-.5"/>
<text text-anchor="middle" x="316" y="-7.5" font-family="Helvetica,sans-Serif" font-size="10.00" fill="#000000">Ogre::MetalSampler</text>
</a>
</g>
</g>
<!-- Node0&#45;&gt;Node3 -->
<g id="edge3" class="edge">
<title>Node0&#45;&gt;Node3</title>
<path fill="none" stroke="#191970" d="M218.3671,-52.3833C241.8284,-42.1985 273.3185,-28.5284 294.1135,-19.5011"/>
<polygon fill="#191970" stroke="#191970" points="216.9551,-49.1806 209.1759,-56.3733 219.7426,-55.6017 216.9551,-49.1806"/>
</g>
</g>
</svg>
