<?xml version="1.0" encoding="UTF-8" standalone="no"?>
<!DOCTYPE svg PUBLIC "-//W3C//DTD SVG 1.1//EN"
 "http://www.w3.org/Graphics/SVG/1.1/DTD/svg11.dtd">
<!-- Generated by graphviz version 2.40.1 (20161225.0304)
 -->
<!-- Title: Ogre::HardwareVertexBuffer Pages: 1 -->
<svg width="586pt" height="323pt"
 viewBox="0.00 0.00 586.00 323.00" xmlns="http://www.w3.org/2000/svg" xmlns:xlink="http://www.w3.org/1999/xlink">
<g id="graph0" class="graph" transform="scale(1 1) rotate(0) translate(4 319)">
<title>Ogre::HardwareVertexBuffer</title>
<!-- Node0 -->
<g id="node1" class="node">
<title>Node0</title>
<polygon fill="#bfbfbf" stroke="#000000" points="249,-143 249,-162 389,-162 389,-143 249,-143"/>
<text text-anchor="middle" x="319" y="-150" font-family="Helvetica,sans-Serif" font-size="10.00" fill="#000000">Ogre::HardwareVertexBuffer</text>
</g>
<!-- Node3 -->
<g id="node4" class="node">
<title>Node3</title>
<g id="a_node4"><a xlink:href="class_ogre_1_1_d3_d11_hardware_vertex_buffer.html" target="_top" xlink:title="Specialisation of HardwareVertexBuffer for D3D11. ">
<polygon fill="none" stroke="#000000" points="429,-284.5 429,-314.5 574,-314.5 574,-284.5 429,-284.5"/>
<text text-anchor="start" x="437" y="-302.5" font-family="Helvetica,sans-Serif" font-size="10.00" fill="#000000">Ogre::D3D11HardwareVertex</text>
<text text-anchor="middle" x="501.5" y="-291.5" font-family="Helvetica,sans-Serif" font-size="10.00" fill="#000000">Buffer</text>
</a>
</g>
</g>
<!-- Node0&#45;&gt;Node3 -->
<g id="edge3" class="edge">
<title>Node0&#45;&gt;Node3</title>
<path fill="none" stroke="#191970" d="M330.0438,-170.8568C347.112,-197.6973 382.4176,-247.4948 425,-275.5 430.2334,-278.9419 435.9907,-281.9153 441.926,-284.4786"/>
<polygon fill="#191970" stroke="#191970" points="332.849,-168.7396 324.6009,-162.0898 326.9019,-172.4318 332.849,-168.7396"/>
</g>
<!-- Node4 -->
<g id="node5" class="node">
<title>Node4</title>
<g id="a_node5"><a xlink:href="class_ogre_1_1_d3_d9_hardware_vertex_buffer.html" target="_top" xlink:title="Specialisation of HardwareVertexBuffer for D3D9. ">
<polygon fill="none" stroke="#000000" points="431.5,-235.5 431.5,-265.5 571.5,-265.5 571.5,-235.5 431.5,-235.5"/>
<text text-anchor="start" x="439.5" y="-253.5" font-family="Helvetica,sans-Serif" font-size="10.00" fill="#000000">Ogre::D3D9HardwareVertex</text>
<text text-anchor="middle" x="501.5" y="-242.5" font-family="Helvetica,sans-Serif" font-size="10.00" fill="#000000">Buffer</text>
</a>
</g>
</g>
<!-- Node0&#45;&gt;Node4 -->
<g id="edge4" class="edge">
<title>Node0&#45;&gt;Node4</title>
<path fill="none" stroke="#191970" d="M338.2278,-168.657C358.6403,-185.1303 392.3934,-210.4777 425,-226.5 431.7461,-229.8149 439.05,-232.7992 446.3763,-235.4449"/>
<polygon fill="#191970" stroke="#191970" points="340.2921,-165.8236 330.3386,-162.1934 335.8558,-171.2383 340.2921,-165.8236"/>
</g>
<!-- Node5 -->
<g id="node6" class="node">
<title>Node5</title>
<g id="a_node6"><a xlink:href="class_ogre_1_1_default_hardware_vertex_buffer.html" target="_top" xlink:title="Specialisation of HardwareVertexBuffer for emulation. ">
<polygon fill="none" stroke="#000000" points="428.5,-186.5 428.5,-216.5 574.5,-216.5 574.5,-186.5 428.5,-186.5"/>
<text text-anchor="start" x="436.5" y="-204.5" font-family="Helvetica,sans-Serif" font-size="10.00" fill="#000000">Ogre::DefaultHardwareVertex</text>
<text text-anchor="middle" x="501.5" y="-193.5" font-family="Helvetica,sans-Serif" font-size="10.00" fill="#000000">Buffer</text>
</a>
</g>
</g>
<!-- Node0&#45;&gt;Node5 -->
<g id="edge5" class="edge">
<title>Node0&#45;&gt;Node5</title>
<path fill="none" stroke="#191970" d="M364.3999,-164.6896C388.9491,-171.2808 419.48,-179.4782 445.495,-186.463"/>
<polygon fill="#191970" stroke="#191970" points="365.1866,-161.2769 354.6211,-162.064 363.3714,-168.0375 365.1866,-161.2769"/>
</g>
<!-- Node6 -->
<g id="node7" class="node">
<title>Node6</title>
<g id="a_node7"><a xlink:href="class_ogre_1_1_g_l3_plus_hardware_vertex_buffer.html" target="_top" xlink:title="Specialisation of HardwareVertexBuffer for OpenGL. ">
<polygon fill="none" stroke="#000000" points="425.5,-137.5 425.5,-167.5 577.5,-167.5 577.5,-137.5 425.5,-137.5"/>
<text text-anchor="start" x="433.5" y="-155.5" font-family="Helvetica,sans-Serif" font-size="10.00" fill="#000000">Ogre::GL3PlusHardwareVertex</text>
<text text-anchor="middle" x="501.5" y="-144.5" font-family="Helvetica,sans-Serif" font-size="10.00" fill="#000000">Buffer</text>
</a>
</g>
</g>
<!-- Node0&#45;&gt;Node6 -->
<g id="edge6" class="edge">
<title>Node0&#45;&gt;Node6</title>
<path fill="none" stroke="#191970" d="M399.1462,-152.5C407.8271,-152.5 416.6441,-152.5 425.2766,-152.5"/>
<polygon fill="#191970" stroke="#191970" points="399.0374,-149.0001 389.0373,-152.5 399.0373,-156.0001 399.0374,-149.0001"/>
</g>
<!-- Node7 -->
<g id="node8" class="node">
<title>Node7</title>
<g id="a_node8"><a xlink:href="class_ogre_1_1_g_l_e_s2_hardware_vertex_buffer.html" target="_top" xlink:title="Specialisation of HardwareVertexBuffer for OpenGL ES. ">
<polygon fill="none" stroke="#000000" points="428.5,-88.5 428.5,-118.5 574.5,-118.5 574.5,-88.5 428.5,-88.5"/>
<text text-anchor="start" x="436.5" y="-106.5" font-family="Helvetica,sans-Serif" font-size="10.00" fill="#000000">Ogre::GLES2HardwareVertex</text>
<text text-anchor="middle" x="501.5" y="-95.5" font-family="Helvetica,sans-Serif" font-size="10.00" fill="#000000">Buffer</text>
</a>
</g>
</g>
<!-- Node0&#45;&gt;Node7 -->
<g id="edge7" class="edge">
<title>Node0&#45;&gt;Node7</title>
<path fill="none" stroke="#191970" d="M364.3999,-140.3104C388.9491,-133.7192 419.48,-125.5218 445.495,-118.537"/>
<polygon fill="#191970" stroke="#191970" points="363.3714,-136.9625 354.6211,-142.936 365.1866,-143.7231 363.3714,-136.9625"/>
</g>
<!-- Node8 -->
<g id="node9" class="node">
<title>Node8</title>
<g id="a_node9"><a xlink:href="class_ogre_1_1_g_l_hardware_vertex_buffer.html" target="_top" xlink:title="Specialisation of HardwareVertexBuffer for OpenGL. ">
<polygon fill="none" stroke="#000000" points="425,-50 425,-69 578,-69 578,-50 425,-50"/>
<text text-anchor="middle" x="501.5" y="-57" font-family="Helvetica,sans-Serif" font-size="10.00" fill="#000000">Ogre::GLHardwareVertexBuffer</text>
</a>
</g>
</g>
<!-- Node0&#45;&gt;Node8 -->
<g id="edge8" class="edge">
<title>Node0&#45;&gt;Node8</title>
<path fill="none" stroke="#191970" d="M337.7098,-136.2114C357.931,-119.4156 391.7444,-93.609 425,-78.5 433.3476,-74.7074 442.5658,-71.5986 451.627,-69.0754"/>
<polygon fill="#191970" stroke="#191970" points="335.2934,-133.671 329.9171,-142.8004 339.8131,-139.0164 335.2934,-133.671"/>
</g>
<!-- Node9 -->
<g id="node10" class="node">
<title>Node9</title>
<g id="a_node10"><a xlink:href="class_ogre_1_1_metal_hardware_vertex_buffer.html" target="_top" xlink:title="Specialisation of HardwareVertexBuffer for Metal. ">
<polygon fill="none" stroke="#000000" points="432.5,-.5 432.5,-30.5 570.5,-30.5 570.5,-.5 432.5,-.5"/>
<text text-anchor="start" x="440.5" y="-18.5" font-family="Helvetica,sans-Serif" font-size="10.00" fill="#000000">Ogre::MetalHardwareVertex</text>
<text text-anchor="middle" x="501.5" y="-7.5" font-family="Helvetica,sans-Serif" font-size="10.00" fill="#000000">Buffer</text>
</a>
</g>
</g>
<!-- Node0&#45;&gt;Node9 -->
<g id="edge9" class="edge">
<title>Node0&#45;&gt;Node9</title>
<path fill="none" stroke="#191970" d="M331.5099,-134.4702C349.4793,-109.855 384.8844,-65.8962 425,-40.5 431.0208,-36.6884 437.6789,-33.4032 444.4813,-30.5861"/>
<polygon fill="#191970" stroke="#191970" points="328.4684,-132.7067 325.5032,-142.8781 334.1642,-136.7758 328.4684,-132.7067"/>
</g>
<!-- Node1 -->
<g id="node2" class="node">
<title>Node1</title>
<g id="a_node2"><a xlink:href="class_ogre_1_1_hardware_buffer.html" target="_top" xlink:title="Abstract class defining common features of hardware buffers. ">
<polygon fill="none" stroke="#000000" points="101,-143 101,-162 213,-162 213,-143 101,-143"/>
<text text-anchor="middle" x="157" y="-150" font-family="Helvetica,sans-Serif" font-size="10.00" fill="#000000">Ogre::HardwareBuffer</text>
</a>
</g>
</g>
<!-- Node1&#45;&gt;Node0 -->
<g id="edge1" class="edge">
<title>Node1&#45;&gt;Node0</title>
<path fill="none" stroke="#191970" d="M223.3502,-152.5C231.7774,-152.5 240.4234,-152.5 248.9069,-152.5"/>
<polygon fill="#191970" stroke="#191970" points="223.2051,-149.0001 213.2051,-152.5 223.2051,-156.0001 223.2051,-149.0001"/>
</g>
<!-- Node2 -->
<g id="node3" class="node">
<title>Node2</title>
<g id="a_node3"><a xlink:href="class_ogre_1_1_allocated_object.html" target="_top" xlink:title="BufferAlloc">
<polygon fill="none" stroke="#000000" points="0,-143 0,-162 65,-162 65,-143 0,-143"/>
<text text-anchor="middle" x="32.5" y="-150" font-family="Helvetica,sans-Serif" font-size="10.00" fill="#000000">BufferAlloc</text>
</a>
</g>
</g>
<!-- Node2&#45;&gt;Node1 -->
<g id="edge2" class="edge">
<title>Node2&#45;&gt;Node1</title>
<path fill="none" stroke="#191970" d="M75.3339,-152.5C83.5784,-152.5 92.3278,-152.5 100.9189,-152.5"/>
<polygon fill="#191970" stroke="#191970" points="75.2109,-149.0001 65.2109,-152.5 75.2109,-156.0001 75.2109,-149.0001"/>
</g>
</g>
</svg>
