<?xml version="1.0" encoding="UTF-8" standalone="no"?>
<!DOCTYPE svg PUBLIC "-//W3C//DTD SVG 1.1//EN"
 "http://www.w3.org/Graphics/SVG/1.1/DTD/svg11.dtd">
<!-- Generated by graphviz version 2.40.1 (20161225.0304)
 -->
<!-- Title: Ogre::ScriptLoader Pages: 1 -->
<svg width="665pt" height="430pt"
 viewBox="0.00 0.00 665.00 430.00" xmlns="http://www.w3.org/2000/svg" xmlns:xlink="http://www.w3.org/1999/xlink">
<g id="graph0" class="graph" transform="scale(1 1) rotate(0) translate(4 426)">
<title>Ogre::ScriptLoader</title>
<!-- Node0 -->
<g id="node1" class="node">
<title>Node0</title>
<polygon fill="#bfbfbf" stroke="#000000" points="0,-307.5 0,-326.5 98,-326.5 98,-307.5 0,-307.5"/>
<text text-anchor="middle" x="49" y="-314.5" font-family="Helvetica,sans-Serif" font-size="10.00" fill="#000000">Ogre::ScriptLoader</text>
</g>
<!-- Node1 -->
<g id="node2" class="node">
<title>Node1</title>
<g id="a_node2"><a xlink:href="class_ogre_1_1_cg_fx_script_loader.html" target="_top" xlink:title="Manages Overlay objects, parsing them from .overlay files and storing a lookup library of them...">
<polygon fill="none" stroke="#000000" points="147,-402.5 147,-421.5 269,-421.5 269,-402.5 147,-402.5"/>
<text text-anchor="middle" x="208" y="-409.5" font-family="Helvetica,sans-Serif" font-size="10.00" fill="#000000">Ogre::CgFxScriptLoader</text>
</a>
</g>
</g>
<!-- Node0&#45;&gt;Node1 -->
<g id="edge1" class="edge">
<title>Node0&#45;&gt;Node1</title>
<path fill="none" stroke="#191970" d="M63.6497,-334.2468C79.3305,-351.6157 105.7878,-377.936 134,-393 141.2543,-396.8735 149.3352,-399.9852 157.4169,-402.4769"/>
<polygon fill="#191970" stroke="#191970" points="66.0908,-331.7228 56.857,-326.5278 60.8358,-336.3472 66.0908,-331.7228"/>
</g>
<!-- Node2 -->
<g id="node3" class="node">
<title>Node2</title>
<g id="a_node3"><a xlink:href="class_ogre_1_1_overlay_manager.html" target="_top" xlink:title="Manages Overlay objects, parsing them from .overlay files and storing a lookup library of them...">
<polygon fill="none" stroke="#000000" points="150.5,-364.5 150.5,-383.5 265.5,-383.5 265.5,-364.5 150.5,-364.5"/>
<text text-anchor="middle" x="208" y="-371.5" font-family="Helvetica,sans-Serif" font-size="10.00" fill="#000000">Ogre::OverlayManager</text>
</a>
</g>
</g>
<!-- Node0&#45;&gt;Node2 -->
<g id="edge2" class="edge">
<title>Node0&#45;&gt;Node2</title>
<path fill="none" stroke="#191970" d="M76.8881,-330.9041C93.2493,-338.6957 114.481,-348.1861 134,-355 144.1435,-358.541 155.2764,-361.7434 165.7571,-364.4669"/>
<polygon fill="#191970" stroke="#191970" points="78.3943,-327.7447 67.8675,-326.5458 75.3491,-334.0476 78.3943,-327.7447"/>
</g>
<!-- Node3 -->
<g id="node4" class="node">
<title>Node3</title>
<g id="a_node4"><a xlink:href="class_ogre_1_1_particle_system_manager.html" target="_top" xlink:title="Manages particle systems, particle system scripts (templates) and the available emitter &amp; affector fa...">
<polygon fill="none" stroke="#000000" points="134,-326.5 134,-345.5 282,-345.5 282,-326.5 134,-326.5"/>
<text text-anchor="middle" x="208" y="-333.5" font-family="Helvetica,sans-Serif" font-size="10.00" fill="#000000">Ogre::ParticleSystemManager</text>
</a>
</g>
</g>
<!-- Node0&#45;&gt;Node3 -->
<g id="edge3" class="edge">
<title>Node0&#45;&gt;Node3</title>
<path fill="none" stroke="#191970" d="M108.0305,-324.054C116.4063,-325.0548 125.1074,-326.0946 133.7262,-327.1245"/>
<polygon fill="#191970" stroke="#191970" points="108.3473,-320.567 98.0026,-322.8557 107.5167,-327.5176 108.3473,-320.567"/>
</g>
<!-- Node4 -->
<g id="node5" class="node">
<title>Node4</title>
<g id="a_node5"><a xlink:href="class_ogre_1_1_quake3_shader_manager.html" target="_top" xlink:title="Class for managing Quake3 custom shaders. ">
<polygon fill="none" stroke="#000000" points="135,-288.5 135,-307.5 281,-307.5 281,-288.5 135,-288.5"/>
<text text-anchor="middle" x="208" y="-295.5" font-family="Helvetica,sans-Serif" font-size="10.00" fill="#000000">Ogre::Quake3ShaderManager</text>
</a>
</g>
</g>
<!-- Node0&#45;&gt;Node4 -->
<g id="edge4" class="edge">
<title>Node0&#45;&gt;Node4</title>
<path fill="none" stroke="#191970" d="M108.0751,-309.9407C116.8173,-308.896 125.9129,-307.8091 134.8989,-306.7354"/>
<polygon fill="#191970" stroke="#191970" points="107.5167,-306.4824 98.0026,-311.1443 108.3473,-313.433 107.5167,-306.4824"/>
</g>
<!-- Node5 -->
<g id="node6" class="node">
<title>Node5</title>
<g id="a_node6"><a xlink:href="class_ogre_1_1_resource_manager.html" target="_top" xlink:title="Defines a generic resource handler. ">
<polygon fill="none" stroke="#000000" points="146.5,-250.5 146.5,-269.5 269.5,-269.5 269.5,-250.5 146.5,-250.5"/>
<text text-anchor="middle" x="208" y="-257.5" font-family="Helvetica,sans-Serif" font-size="10.00" fill="#000000">Ogre::ResourceManager</text>
</a>
</g>
</g>
<!-- Node0&#45;&gt;Node5 -->
<g id="edge5" class="edge">
<title>Node0&#45;&gt;Node5</title>
<path fill="none" stroke="#191970" d="M76.8881,-303.0959C93.2493,-295.3043 114.481,-285.8139 134,-279 144.1435,-275.459 155.2764,-272.2566 165.7571,-269.5331"/>
<polygon fill="#191970" stroke="#191970" points="75.3491,-299.9524 67.8675,-307.4542 78.3943,-306.2553 75.3491,-299.9524"/>
</g>
<!-- Node23 -->
<g id="node24" class="node">
<title>Node23</title>
<g id="a_node24"><a xlink:href="class_ogre_1_1_script_compiler_manager.html" target="_top" xlink:title="Manages threaded compilation of scripts. ">
<polygon fill="none" stroke="#000000" points="135,-212.5 135,-231.5 281,-231.5 281,-212.5 135,-212.5"/>
<text text-anchor="middle" x="208" y="-219.5" font-family="Helvetica,sans-Serif" font-size="10.00" fill="#000000">Ogre::ScriptCompilerManager</text>
</a>
</g>
</g>
<!-- Node0&#45;&gt;Node23 -->
<g id="edge23" class="edge">
<title>Node0&#45;&gt;Node23</title>
<path fill="none" stroke="#191970" d="M63.6497,-299.7532C79.3305,-282.3843 105.7878,-256.064 134,-241 141.2543,-237.1265 149.3352,-234.0148 157.4169,-231.5231"/>
<polygon fill="#191970" stroke="#191970" points="60.8358,-297.6528 56.857,-307.4722 66.0908,-302.2772 60.8358,-297.6528"/>
</g>
<!-- Node6 -->
<g id="node7" class="node">
<title>Node6</title>
<g id="a_node7"><a xlink:href="class_ogre_1_1_compositor_manager.html" target="_top" xlink:title="Class for managing Compositor settings for Ogre. ">
<polygon fill="none" stroke="#000000" points="323.5,-392.5 323.5,-411.5 454.5,-411.5 454.5,-392.5 323.5,-392.5"/>
<text text-anchor="middle" x="389" y="-399.5" font-family="Helvetica,sans-Serif" font-size="10.00" fill="#000000">Ogre::CompositorManager</text>
</a>
</g>
</g>
<!-- Node5&#45;&gt;Node6 -->
<g id="edge6" class="edge">
<title>Node5&#45;&gt;Node6</title>
<path fill="none" stroke="#191970" d="M276.5749,-274.6577C278.4798,-275.9859 280.2959,-277.4301 282,-279 317.974,-312.1416 282.1947,-349.6763 318,-383 322.1099,-386.825 326.9044,-389.8965 332.0268,-392.3604"/>
<polygon fill="#191970" stroke="#191970" points="278.136,-271.5175 267.7262,-269.5461 274.6346,-277.5789 278.136,-271.5175"/>
</g>
<!-- Node7 -->
<g id="node8" class="node">
<title>Node7</title>
<g id="a_node8"><a xlink:href="class_ogre_1_1_font_manager.html" target="_top" xlink:title="Manages Font resources, parsing .fontdef files and generally organising them. ">
<polygon fill="none" stroke="#000000" points="338.5,-354.5 338.5,-373.5 439.5,-373.5 439.5,-354.5 338.5,-354.5"/>
<text text-anchor="middle" x="389" y="-361.5" font-family="Helvetica,sans-Serif" font-size="10.00" fill="#000000">Ogre::FontManager</text>
</a>
</g>
</g>
<!-- Node5&#45;&gt;Node7 -->
<g id="edge7" class="edge">
<title>Node5&#45;&gt;Node7</title>
<path fill="none" stroke="#191970" d="M274.2448,-273.8612C276.9645,-275.399 279.5664,-277.1058 282,-279 308.3677,-299.5229 291.7368,-324.3436 318,-345 324.0178,-349.7331 331.1149,-353.2912 338.4548,-355.9652"/>
<polygon fill="#191970" stroke="#191970" points="275.7475,-270.7001 265.2206,-269.5019 272.7027,-277.0032 275.7475,-270.7001"/>
</g>
<!-- Node8 -->
<g id="node9" class="node">
<title>Node8</title>
<g id="a_node9"><a xlink:href="class_ogre_1_1_gpu_program_manager.html" target="_top" xlink:title="Ogre::GpuProgramManager">
<polygon fill="none" stroke="#000000" points="321,-316.5 321,-335.5 457,-335.5 457,-316.5 321,-316.5"/>
<text text-anchor="middle" x="389" y="-323.5" font-family="Helvetica,sans-Serif" font-size="10.00" fill="#000000">Ogre::GpuProgramManager</text>
</a>
</g>
</g>
<!-- Node5&#45;&gt;Node8 -->
<g id="edge8" class="edge">
<title>Node5&#45;&gt;Node8</title>
<path fill="none" stroke="#191970" d="M266.729,-272.676C271.9969,-274.5274 277.1626,-276.6262 282,-279 300.197,-287.9294 299.8486,-297.9784 318,-307 325.6558,-310.8051 334.1676,-313.9199 342.5628,-316.4451"/>
<polygon fill="#191970" stroke="#191970" points="267.7767,-269.3364 257.1852,-269.6047 265.6323,-275.9999 267.7767,-269.3364"/>
</g>
<!-- Node11 -->
<g id="node12" class="node">
<title>Node11</title>
<g id="a_node12"><a xlink:href="class_ogre_1_1_high_level_gpu_program_manager.html" target="_top" xlink:title="This ResourceManager manages high&#45;level vertex and fragment programs. ">
<polygon fill="none" stroke="#000000" points="318,-267 318,-297 460,-297 460,-267 318,-267"/>
<text text-anchor="start" x="326" y="-285" font-family="Helvetica,sans-Serif" font-size="10.00" fill="#000000">Ogre::HighLevelGpuProgram</text>
<text text-anchor="middle" x="389" y="-274" font-family="Helvetica,sans-Serif" font-size="10.00" fill="#000000">Manager</text>
</a>
</g>
</g>
<!-- Node5&#45;&gt;Node11 -->
<g id="edge11" class="edge">
<title>Node5&#45;&gt;Node11</title>
<path fill="none" stroke="#191970" d="M279.5395,-268.6954C292.1825,-270.2321 305.3424,-271.8317 317.9713,-273.3667"/>
<polygon fill="#191970" stroke="#191970" points="279.8802,-265.2111 269.5309,-267.4789 279.0355,-272.16 279.8802,-265.2111"/>
</g>
<!-- Node12 -->
<g id="node13" class="node">
<title>Node12</title>
<g id="a_node13"><a xlink:href="class_ogre_1_1_material_manager.html" target="_top" xlink:title="Class for managing Material settings for Ogre. ">
<polygon fill="none" stroke="#000000" points="331,-228.5 331,-247.5 447,-247.5 447,-228.5 331,-228.5"/>
<text text-anchor="middle" x="389" y="-235.5" font-family="Helvetica,sans-Serif" font-size="10.00" fill="#000000">Ogre::MaterialManager</text>
</a>
</g>
</g>
<!-- Node5&#45;&gt;Node12 -->
<g id="edge12" class="edge">
<title>Node5&#45;&gt;Node12</title>
<path fill="none" stroke="#191970" d="M279.4654,-251.3136C296.5577,-249.2361 314.5989,-247.0432 330.9982,-245.0499"/>
<polygon fill="#191970" stroke="#191970" points="279.0355,-247.84 269.5309,-252.5211 279.8802,-254.7889 279.0355,-247.84"/>
</g>
<!-- Node13 -->
<g id="node14" class="node">
<title>Node13</title>
<g id="a_node14"><a xlink:href="class_ogre_1_1_mesh_manager.html" target="_top" xlink:title="Handles the management of mesh resources. ">
<polygon fill="none" stroke="#000000" points="336.5,-190.5 336.5,-209.5 441.5,-209.5 441.5,-190.5 336.5,-190.5"/>
<text text-anchor="middle" x="389" y="-197.5" font-family="Helvetica,sans-Serif" font-size="10.00" fill="#000000">Ogre::MeshManager</text>
</a>
</g>
</g>
<!-- Node5&#45;&gt;Node13 -->
<g id="edge13" class="edge">
<title>Node5&#45;&gt;Node13</title>
<path fill="none" stroke="#191970" d="M263.8528,-247.5705C270.0648,-245.6269 276.2274,-243.4402 282,-241 299.2714,-233.699 300.7659,-226.3885 318,-219 326.6786,-215.2794 336.2724,-212.1221 345.5272,-209.5135"/>
<polygon fill="#191970" stroke="#191970" points="262.713,-244.2572 254.0994,-250.4262 264.68,-250.9752 262.713,-244.2572"/>
</g>
<!-- Node14 -->
<g id="node15" class="node">
<title>Node14</title>
<g id="a_node15"><a xlink:href="class_ogre_1_1_skeleton_manager.html" target="_top" xlink:title="Handles the management of skeleton resources. ">
<polygon fill="none" stroke="#000000" points="329.5,-152.5 329.5,-171.5 448.5,-171.5 448.5,-152.5 329.5,-152.5"/>
<text text-anchor="middle" x="389" y="-159.5" font-family="Helvetica,sans-Serif" font-size="10.00" fill="#000000">Ogre::SkeletonManager</text>
</a>
</g>
</g>
<!-- Node5&#45;&gt;Node14 -->
<g id="edge14" class="edge">
<title>Node5&#45;&gt;Node14</title>
<path fill="none" stroke="#191970" d="M273.9779,-246.1078C276.7849,-244.5787 279.4765,-242.8822 282,-241 306.9281,-222.4069 293.1666,-199.7194 318,-181 323.1966,-177.0828 329.1406,-173.9723 335.3279,-171.5025"/>
<polygon fill="#191970" stroke="#191970" points="272.2677,-243.0434 264.6857,-250.4437 275.2277,-249.3868 272.2677,-243.0434"/>
</g>
<!-- Node15 -->
<g id="node16" class="node">
<title>Node15</title>
<g id="a_node16"><a xlink:href="class_ogre_1_1_texture_manager.html" target="_top" xlink:title="Class for loading &amp; managing textures. ">
<polygon fill="none" stroke="#000000" points="332,-114.5 332,-133.5 446,-133.5 446,-114.5 332,-114.5"/>
<text text-anchor="middle" x="389" y="-121.5" font-family="Helvetica,sans-Serif" font-size="10.00" fill="#000000">Ogre::TextureManager</text>
</a>
</g>
</g>
<!-- Node5&#45;&gt;Node15 -->
<g id="edge15" class="edge">
<title>Node5&#45;&gt;Node15</title>
<path fill="none" stroke="#191970" d="M276.5366,-245.3004C278.4524,-243.9841 280.2812,-242.5538 282,-241 316.4207,-209.8825 283.7377,-174.2918 318,-143 322.2399,-139.1277 327.183,-136.0297 332.4511,-133.5534"/>
<polygon fill="#191970" stroke="#191970" points="274.6013,-242.375 267.6512,-250.3717 278.0711,-248.4545 274.6013,-242.375"/>
</g>
<!-- Node9 -->
<g id="node10" class="node">
<title>Node9</title>
<g id="a_node10"><a xlink:href="class_ogre_1_1_d3_d9_gpu_program_manager.html" target="_top" xlink:title="Ogre::D3D9GpuProgramManager">
<polygon fill="none" stroke="#000000" points="496,-335.5 496,-354.5 657,-354.5 657,-335.5 496,-335.5"/>
<text text-anchor="middle" x="576.5" y="-342.5" font-family="Helvetica,sans-Serif" font-size="10.00" fill="#000000">Ogre::D3D9GpuProgramManager</text>
</a>
</g>
</g>
<!-- Node8&#45;&gt;Node9 -->
<g id="edge9" class="edge">
<title>Node8&#45;&gt;Node9</title>
<path fill="none" stroke="#191970" d="M467.3564,-333.9401C476.7904,-334.8961 486.4382,-335.8737 495.9035,-336.8329"/>
<polygon fill="#191970" stroke="#191970" points="467.5241,-330.4393 457.2222,-332.9132 466.8184,-337.4036 467.5241,-330.4393"/>
</g>
<!-- Node10 -->
<g id="node11" class="node">
<title>Node10</title>
<g id="a_node11"><a xlink:href="class_ogre_1_1_g_l_gpu_program_manager.html" target="_top" xlink:title="Ogre::GLGpuProgramManager">
<polygon fill="none" stroke="#000000" points="502,-297.5 502,-316.5 651,-316.5 651,-297.5 502,-297.5"/>
<text text-anchor="middle" x="576.5" y="-304.5" font-family="Helvetica,sans-Serif" font-size="10.00" fill="#000000">Ogre::GLGpuProgramManager</text>
</a>
</g>
</g>
<!-- Node8&#45;&gt;Node10 -->
<g id="edge10" class="edge">
<title>Node8&#45;&gt;Node10</title>
<path fill="none" stroke="#191970" d="M467.2335,-318.0723C478.7402,-316.9063 490.5676,-315.7078 501.9963,-314.5497"/>
<polygon fill="#191970" stroke="#191970" points="466.8184,-314.5964 457.2222,-319.0868 467.5241,-321.5607 466.8184,-314.5964"/>
</g>
<!-- Node16 -->
<g id="node17" class="node">
<title>Node16</title>
<g id="a_node17"><a xlink:href="class_ogre_1_1_d3_d11_texture_manager.html" target="_top" xlink:title="Ogre::D3D11TextureManager">
<polygon fill="none" stroke="#000000" points="504,-228.5 504,-247.5 649,-247.5 649,-228.5 504,-228.5"/>
<text text-anchor="middle" x="576.5" y="-235.5" font-family="Helvetica,sans-Serif" font-size="10.00" fill="#000000">Ogre::D3D11TextureManager</text>
</a>
</g>
</g>
<!-- Node15&#45;&gt;Node16 -->
<g id="edge16" class="edge">
<title>Node15&#45;&gt;Node16</title>
<path fill="none" stroke="#191970" d="M453.5857,-138.3887C455.8351,-139.787 457.9847,-141.3199 460,-143 488.7077,-166.9334 466.9401,-195.4955 496,-219 500.8009,-222.8831 506.2601,-225.9977 512.0211,-228.4926"/>
<polygon fill="#191970" stroke="#191970" points="454.9723,-135.1643 444.4885,-133.6349 451.7304,-141.3683 454.9723,-135.1643"/>
</g>
<!-- Node17 -->
<g id="node18" class="node">
<title>Node17</title>
<g id="a_node18"><a xlink:href="class_ogre_1_1_d3_d9_texture_manager.html" target="_top" xlink:title="Ogre::D3D9TextureManager">
<polygon fill="none" stroke="#000000" points="506.5,-190.5 506.5,-209.5 646.5,-209.5 646.5,-190.5 506.5,-190.5"/>
<text text-anchor="middle" x="576.5" y="-197.5" font-family="Helvetica,sans-Serif" font-size="10.00" fill="#000000">Ogre::D3D9TextureManager</text>
</a>
</g>
</g>
<!-- Node15&#45;&gt;Node17 -->
<g id="edge17" class="edge">
<title>Node15&#45;&gt;Node17</title>
<path fill="none" stroke="#191970" d="M448.4601,-137.2021C452.4726,-138.91 456.3612,-140.8338 460,-143 479.9905,-154.9001 475.835,-169.398 496,-181 502.7212,-184.8671 510.1887,-187.9481 517.7886,-190.4027"/>
<polygon fill="#191970" stroke="#191970" points="449.5237,-133.8624 438.9322,-133.5963 447.046,-140.4092 449.5237,-133.8624"/>
</g>
<!-- Node18 -->
<g id="node19" class="node">
<title>Node18</title>
<g id="a_node19"><a xlink:href="class_ogre_1_1_default_texture_manager.html" target="_top" xlink:title="Specialisation of TextureManager for offline processing. Cannot be used with an active RenderSystem...">
<polygon fill="none" stroke="#000000" points="503.5,-152.5 503.5,-171.5 649.5,-171.5 649.5,-152.5 503.5,-152.5"/>
<text text-anchor="middle" x="576.5" y="-159.5" font-family="Helvetica,sans-Serif" font-size="10.00" fill="#000000">Ogre::DefaultTextureManager</text>
</a>
</g>
</g>
<!-- Node15&#45;&gt;Node18 -->
<g id="edge18" class="edge">
<title>Node15&#45;&gt;Node18</title>
<path fill="none" stroke="#191970" d="M446.2838,-135.6095C472.9506,-141.014 504.2805,-147.3635 529.5261,-152.4799"/>
<polygon fill="#191970" stroke="#191970" points="446.8101,-132.1451 436.3142,-133.589 445.4197,-139.0056 446.8101,-132.1451"/>
</g>
<!-- Node19 -->
<g id="node20" class="node">
<title>Node19</title>
<g id="a_node20"><a xlink:href="class_ogre_1_1_g_l3_plus_texture_manager.html" target="_top" xlink:title="GL3Plus&#45;specific implementation of a TextureManager. ">
<polygon fill="none" stroke="#000000" points="500.5,-114.5 500.5,-133.5 652.5,-133.5 652.5,-114.5 500.5,-114.5"/>
<text text-anchor="middle" x="576.5" y="-121.5" font-family="Helvetica,sans-Serif" font-size="10.00" fill="#000000">Ogre::GL3PlusTextureManager</text>
</a>
</g>
</g>
<!-- Node15&#45;&gt;Node19 -->
<g id="edge19" class="edge">
<title>Node15&#45;&gt;Node19</title>
<path fill="none" stroke="#191970" d="M456.2586,-124C470.5667,-124 485.7718,-124 500.3839,-124"/>
<polygon fill="#191970" stroke="#191970" points="456.0199,-120.5001 446.0199,-124 456.0198,-127.5001 456.0199,-120.5001"/>
</g>
<!-- Node20 -->
<g id="node21" class="node">
<title>Node20</title>
<g id="a_node21"><a xlink:href="class_ogre_1_1_g_l_e_s2_texture_manager.html" target="_top" xlink:title="GL ES&#45;specific implementation of a TextureManager. ">
<polygon fill="none" stroke="#000000" points="503.5,-76.5 503.5,-95.5 649.5,-95.5 649.5,-76.5 503.5,-76.5"/>
<text text-anchor="middle" x="576.5" y="-83.5" font-family="Helvetica,sans-Serif" font-size="10.00" fill="#000000">Ogre::GLES2TextureManager</text>
</a>
</g>
</g>
<!-- Node15&#45;&gt;Node20 -->
<g id="edge20" class="edge">
<title>Node15&#45;&gt;Node20</title>
<path fill="none" stroke="#191970" d="M446.2838,-112.3905C472.9506,-106.986 504.2805,-100.6365 529.5261,-95.5201"/>
<polygon fill="#191970" stroke="#191970" points="445.4197,-108.9944 436.3142,-114.411 446.8101,-115.8549 445.4197,-108.9944"/>
</g>
<!-- Node21 -->
<g id="node22" class="node">
<title>Node21</title>
<g id="a_node22"><a xlink:href="class_ogre_1_1_g_l_texture_manager.html" target="_top" xlink:title="GL&#45;specific implementation of a TextureManager. ">
<polygon fill="none" stroke="#000000" points="513,-38.5 513,-57.5 640,-57.5 640,-38.5 513,-38.5"/>
<text text-anchor="middle" x="576.5" y="-45.5" font-family="Helvetica,sans-Serif" font-size="10.00" fill="#000000">Ogre::GLTextureManager</text>
</a>
</g>
</g>
<!-- Node15&#45;&gt;Node21 -->
<g id="edge21" class="edge">
<title>Node15&#45;&gt;Node21</title>
<path fill="none" stroke="#191970" d="M412.6243,-109.1219C433.7698,-96.3715 465.9783,-78.3218 496,-67 505.8083,-63.3011 516.5686,-60.1668 526.9404,-57.5758"/>
<polygon fill="#191970" stroke="#191970" points="410.7094,-106.1904 404.0065,-114.3954 414.3631,-112.1612 410.7094,-106.1904"/>
</g>
<!-- Node22 -->
<g id="node23" class="node">
<title>Node22</title>
<g id="a_node23"><a xlink:href="class_ogre_1_1_metal_texture_manager.html" target="_top" xlink:title="Ogre::MetalTextureManager">
<polygon fill="none" stroke="#000000" points="507.5,-.5 507.5,-19.5 645.5,-19.5 645.5,-.5 507.5,-.5"/>
<text text-anchor="middle" x="576.5" y="-7.5" font-family="Helvetica,sans-Serif" font-size="10.00" fill="#000000">Ogre::MetalTextureManager</text>
</a>
</g>
</g>
<!-- Node15&#45;&gt;Node22 -->
<g id="edge22" class="edge">
<title>Node15&#45;&gt;Node22</title>
<path fill="none" stroke="#191970" d="M403.4113,-106.7739C422.3905,-85.2396 457.8523,-48.8079 496,-29 503.519,-25.0958 511.8481,-21.982 520.2144,-19.5016"/>
<polygon fill="#191970" stroke="#191970" points="400.6384,-104.63 396.7569,-114.4882 405.9389,-109.2022 400.6384,-104.63"/>
</g>
</g>
</svg>
