<?xml version="1.0" encoding="UTF-8" standalone="no"?>
<!DOCTYPE svg PUBLIC "-//W3C//DTD SVG 1.1//EN"
 "http://www.w3.org/Graphics/SVG/1.1/DTD/svg11.dtd">
<!-- Generated by graphviz version 2.40.1 (20161225.0304)
 -->
<!-- Title: Ogre::RenderTexture Pages: 1 -->
<svg width="771pt" height="180pt"
 viewBox="0.00 0.00 771.00 180.00" xmlns="http://www.w3.org/2000/svg" xmlns:xlink="http://www.w3.org/1999/xlink">
<g id="graph0" class="graph" transform="scale(1 1) rotate(0) translate(4 176)">
<title>Ogre::RenderTexture</title>
<!-- Node0 -->
<g id="node1" class="node">
<title>Node0</title>
<polygon fill="#bfbfbf" stroke="#000000" points="262,-76.5 262,-95.5 370,-95.5 370,-76.5 262,-76.5"/>
<text text-anchor="middle" x="316" y="-83.5" font-family="Helvetica,sans-Serif" font-size="10.00" fill="#000000">Ogre::RenderTexture</text>
</g>
<!-- Node3 -->
<g id="node4" class="node">
<title>Node3</title>
<g id="a_node4"><a xlink:href="class_ogre_1_1_d3_d11_render_texture.html" target="_top" xlink:title="RenderTexture implementation for D3D11. ">
<polygon fill="none" stroke="#000000" points="414,-152.5 414,-171.5 553,-171.5 553,-152.5 414,-152.5"/>
<text text-anchor="middle" x="483.5" y="-159.5" font-family="Helvetica,sans-Serif" font-size="10.00" fill="#000000">Ogre::D3D11RenderTexture</text>
</a>
</g>
</g>
<!-- Node0&#45;&gt;Node3 -->
<g id="edge3" class="edge">
<title>Node0&#45;&gt;Node3</title>
<path fill="none" stroke="#191970" d="M336.7282,-101.8858C354.3077,-114.6614 380.6406,-132.2036 406,-143 414.7949,-146.7443 424.479,-149.8505 433.9339,-152.3905"/>
<polygon fill="#191970" stroke="#191970" points="338.5024,-98.8442 328.3847,-95.7004 334.3336,-104.4675 338.5024,-98.8442"/>
</g>
<!-- Node4 -->
<g id="node5" class="node">
<title>Node4</title>
<g id="a_node5"><a xlink:href="class_ogre_1_1_d3_d9_render_texture.html" target="_top" xlink:title="RenderTexture implementation for D3D9. ">
<polygon fill="none" stroke="#000000" points="416.5,-114.5 416.5,-133.5 550.5,-133.5 550.5,-114.5 416.5,-114.5"/>
<text text-anchor="middle" x="483.5" y="-121.5" font-family="Helvetica,sans-Serif" font-size="10.00" fill="#000000">Ogre::D3D9RenderTexture</text>
</a>
</g>
</g>
<!-- Node0&#45;&gt;Node4 -->
<g id="edge4" class="edge">
<title>Node0&#45;&gt;Node4</title>
<path fill="none" stroke="#191970" d="M368.1201,-97.8243C391.7347,-103.1816 419.282,-109.4311 441.5366,-114.4799"/>
<polygon fill="#191970" stroke="#191970" points="368.7939,-94.3883 358.2673,-95.589 367.2451,-101.2148 368.7939,-94.3883"/>
</g>
<!-- Node5 -->
<g id="node6" class="node">
<title>Node5</title>
<g id="a_node6"><a xlink:href="class_ogre_1_1_g_l_render_texture.html" target="_top" xlink:title="Base class for GL Render Textures. ">
<polygon fill="none" stroke="#000000" points="423,-76.5 423,-95.5 544,-95.5 544,-76.5 423,-76.5"/>
<text text-anchor="middle" x="483.5" y="-83.5" font-family="Helvetica,sans-Serif" font-size="10.00" fill="#000000">Ogre::GLRenderTexture</text>
</a>
</g>
</g>
<!-- Node0&#45;&gt;Node5 -->
<g id="edge5" class="edge">
<title>Node0&#45;&gt;Node5</title>
<path fill="none" stroke="#191970" d="M380.764,-86C394.5595,-86 409.0805,-86 422.7206,-86"/>
<polygon fill="#191970" stroke="#191970" points="380.3825,-82.5001 370.3824,-86 380.3824,-89.5001 380.3825,-82.5001"/>
</g>
<!-- Node11 -->
<g id="node12" class="node">
<title>Node11</title>
<g id="a_node12"><a xlink:href="class_ogre_1_1_metal_depth_texture_target.html" target="_top" xlink:title="Ogre::MetalDepthTextureTarget">
<polygon fill="none" stroke="#000000" points="406,-38.5 406,-57.5 561,-57.5 561,-38.5 406,-38.5"/>
<text text-anchor="middle" x="483.5" y="-45.5" font-family="Helvetica,sans-Serif" font-size="10.00" fill="#000000">Ogre::MetalDepthTextureTarget</text>
</a>
</g>
</g>
<!-- Node0&#45;&gt;Node11 -->
<g id="edge11" class="edge">
<title>Node0&#45;&gt;Node11</title>
<path fill="none" stroke="#191970" d="M368.1201,-74.1757C391.7347,-68.8184 419.282,-62.5689 441.5366,-57.5201"/>
<polygon fill="#191970" stroke="#191970" points="367.2451,-70.7852 358.2673,-76.411 368.7939,-77.6117 367.2451,-70.7852"/>
</g>
<!-- Node12 -->
<g id="node13" class="node">
<title>Node12</title>
<g id="a_node13"><a xlink:href="class_ogre_1_1_metal_render_texture.html" target="_top" xlink:title="Ogre::MetalRenderTexture">
<polygon fill="none" stroke="#000000" points="417.5,-.5 417.5,-19.5 549.5,-19.5 549.5,-.5 417.5,-.5"/>
<text text-anchor="middle" x="483.5" y="-7.5" font-family="Helvetica,sans-Serif" font-size="10.00" fill="#000000">Ogre::MetalRenderTexture</text>
</a>
</g>
</g>
<!-- Node0&#45;&gt;Node12 -->
<g id="edge12" class="edge">
<title>Node0&#45;&gt;Node12</title>
<path fill="none" stroke="#191970" d="M336.7282,-70.1142C354.3077,-57.3386 380.6406,-39.7964 406,-29 414.7949,-25.2557 424.479,-22.1495 433.9339,-19.6095"/>
<polygon fill="#191970" stroke="#191970" points="334.3336,-67.5325 328.3847,-76.2996 338.5024,-73.1558 334.3336,-67.5325"/>
</g>
<!-- Node1 -->
<g id="node2" class="node">
<title>Node1</title>
<g id="a_node2"><a xlink:href="class_ogre_1_1_render_target.html" target="_top" xlink:title="A &#39;canvas&#39; which can receive the results of a rendering operation. ">
<polygon fill="none" stroke="#000000" points="123,-76.5 123,-95.5 226,-95.5 226,-76.5 123,-76.5"/>
<text text-anchor="middle" x="174.5" y="-83.5" font-family="Helvetica,sans-Serif" font-size="10.00" fill="#000000">Ogre::RenderTarget</text>
</a>
</g>
</g>
<!-- Node1&#45;&gt;Node0 -->
<g id="edge1" class="edge">
<title>Node1&#45;&gt;Node0</title>
<path fill="none" stroke="#191970" d="M236.52,-86C244.9226,-86 253.4921,-86 261.7445,-86"/>
<polygon fill="#191970" stroke="#191970" points="236.3859,-82.5001 226.3859,-86 236.3859,-89.5001 236.3859,-82.5001"/>
</g>
<!-- Node2 -->
<g id="node3" class="node">
<title>Node2</title>
<g id="a_node3"><a xlink:href="class_ogre_1_1_allocated_object.html" target="_top" xlink:title="RenderSysAlloc">
<polygon fill="none" stroke="#000000" points="0,-76.5 0,-95.5 87,-95.5 87,-76.5 0,-76.5"/>
<text text-anchor="middle" x="43.5" y="-83.5" font-family="Helvetica,sans-Serif" font-size="10.00" fill="#000000">RenderSysAlloc</text>
</a>
</g>
</g>
<!-- Node2&#45;&gt;Node1 -->
<g id="edge2" class="edge">
<title>Node2&#45;&gt;Node1</title>
<path fill="none" stroke="#191970" d="M97.2744,-86C105.7407,-86 114.4771,-86 122.8928,-86"/>
<polygon fill="#191970" stroke="#191970" points="97.1211,-82.5001 87.1211,-86 97.1211,-89.5001 97.1211,-82.5001"/>
</g>
<!-- Node6 -->
<g id="node7" class="node">
<title>Node6</title>
<g id="a_node7"><a xlink:href="class_ogre_1_1_g_l3_plus_f_b_o_render_texture.html" target="_top" xlink:title="RenderTexture for GL FBO. ">
<polygon fill="none" stroke="#000000" points="597,-152.5 597,-171.5 763,-171.5 763,-152.5 597,-152.5"/>
<text text-anchor="middle" x="680" y="-159.5" font-family="Helvetica,sans-Serif" font-size="10.00" fill="#000000">Ogre::GL3PlusFBORenderTexture</text>
</a>
</g>
</g>
<!-- Node5&#45;&gt;Node6 -->
<g id="edge6" class="edge">
<title>Node5&#45;&gt;Node6</title>
<path fill="none" stroke="#191970" d="M548.718,-99.0067C552.9857,-100.7592 557.1222,-102.7466 561,-105 581.1147,-116.689 576.796,-131.466 597,-143 603.804,-146.8843 611.3483,-149.9746 619.0347,-152.4332"/>
<polygon fill="#191970" stroke="#191970" points="549.809,-95.679 539.2151,-95.533 547.4057,-102.2535 549.809,-95.679"/>
</g>
<!-- Node7 -->
<g id="node8" class="node">
<title>Node7</title>
<g id="a_node8"><a xlink:href="class_ogre_1_1_g_l_copying_render_texture.html" target="_top" xlink:title="Ogre::GLCopyingRenderTexture">
<polygon fill="none" stroke="#000000" points="601.5,-114.5 601.5,-133.5 758.5,-133.5 758.5,-114.5 601.5,-114.5"/>
<text text-anchor="middle" x="680" y="-121.5" font-family="Helvetica,sans-Serif" font-size="10.00" fill="#000000">Ogre::GLCopyingRenderTexture</text>
</a>
</g>
</g>
<!-- Node5&#45;&gt;Node7 -->
<g id="edge7" class="edge">
<title>Node5&#45;&gt;Node7</title>
<path fill="none" stroke="#191970" d="M542.9123,-97.4894C570.9495,-102.9114 604.0157,-109.3058 630.6481,-114.4561"/>
<polygon fill="#191970" stroke="#191970" points="543.3143,-94.0024 532.8316,-95.54 541.9852,-100.875 543.3143,-94.0024"/>
</g>
<!-- Node8 -->
<g id="node9" class="node">
<title>Node8</title>
<g id="a_node9"><a xlink:href="class_ogre_1_1_g_l_e_s2_f_b_o_render_texture.html" target="_top" xlink:title="RenderTexture for GL ES 2 FBO. ">
<polygon fill="none" stroke="#000000" points="600,-76.5 600,-95.5 760,-95.5 760,-76.5 600,-76.5"/>
<text text-anchor="middle" x="680" y="-83.5" font-family="Helvetica,sans-Serif" font-size="10.00" fill="#000000">Ogre::GLES2FBORenderTexture</text>
</a>
</g>
</g>
<!-- Node5&#45;&gt;Node8 -->
<g id="edge8" class="edge">
<title>Node5&#45;&gt;Node8</title>
<path fill="none" stroke="#191970" d="M554.1371,-86C568.9295,-86 584.6307,-86 599.7438,-86"/>
<polygon fill="#191970" stroke="#191970" points="554.0599,-82.5001 544.0599,-86 554.0598,-89.5001 554.0599,-82.5001"/>
</g>
<!-- Node9 -->
<g id="node10" class="node">
<title>Node9</title>
<g id="a_node10"><a xlink:href="class_ogre_1_1_g_l_f_b_o_render_texture.html" target="_top" xlink:title="RenderTexture for GL FBO. ">
<polygon fill="none" stroke="#000000" points="609.5,-38.5 609.5,-57.5 750.5,-57.5 750.5,-38.5 609.5,-38.5"/>
<text text-anchor="middle" x="680" y="-45.5" font-family="Helvetica,sans-Serif" font-size="10.00" fill="#000000">Ogre::GLFBORenderTexture</text>
</a>
</g>
</g>
<!-- Node5&#45;&gt;Node9 -->
<g id="edge9" class="edge">
<title>Node5&#45;&gt;Node9</title>
<path fill="none" stroke="#191970" d="M542.9123,-74.5106C570.9495,-69.0886 604.0157,-62.6942 630.6481,-57.5439"/>
<polygon fill="#191970" stroke="#191970" points="541.9852,-71.125 532.8316,-76.46 543.3143,-77.9976 541.9852,-71.125"/>
</g>
<!-- Node10 -->
<g id="node11" class="node">
<title>Node10</title>
<g id="a_node11"><a xlink:href="class_ogre_1_1_g_l_p_b_render_texture.html" target="_top" xlink:title="Ogre::GLPBRenderTexture">
<polygon fill="none" stroke="#000000" points="613,-.5 613,-19.5 747,-19.5 747,-.5 613,-.5"/>
<text text-anchor="middle" x="680" y="-7.5" font-family="Helvetica,sans-Serif" font-size="10.00" fill="#000000">Ogre::GLPBRenderTexture</text>
</a>
</g>
</g>
<!-- Node5&#45;&gt;Node10 -->
<g id="edge10" class="edge">
<title>Node5&#45;&gt;Node10</title>
<path fill="none" stroke="#191970" d="M548.718,-72.9933C552.9857,-71.2408 557.1222,-69.2534 561,-67 581.1147,-55.311 576.796,-40.534 597,-29 603.804,-25.1157 611.3483,-22.0254 619.0347,-19.5668"/>
<polygon fill="#191970" stroke="#191970" points="547.4057,-69.7465 539.2151,-76.467 549.809,-76.321 547.4057,-69.7465"/>
</g>
</g>
</svg>
