<?xml version="1.0" encoding="UTF-8" standalone="no"?>
<!DOCTYPE svg PUBLIC "-//W3C//DTD SVG 1.1//EN"
 "http://www.w3.org/Graphics/SVG/1.1/DTD/svg11.dtd">
<!-- Generated by graphviz version 2.40.1 (20161225.0304)
 -->
<!-- Title: Ogre::MultiRenderTarget Pages: 1 -->
<svg width="587pt" height="241pt"
 viewBox="0.00 0.00 587.00 241.00" xmlns="http://www.w3.org/2000/svg" xmlns:xlink="http://www.w3.org/1999/xlink">
<g id="graph0" class="graph" transform="scale(1 1) rotate(0) translate(4 237)">
<title>Ogre::MultiRenderTarget</title>
<!-- Node0 -->
<g id="node1" class="node">
<title>Node0</title>
<polygon fill="#bfbfbf" stroke="#000000" points="262,-106.5 262,-125.5 386,-125.5 386,-106.5 262,-106.5"/>
<text text-anchor="middle" x="324" y="-113.5" font-family="Helvetica,sans-Serif" font-size="10.00" fill="#000000">Ogre::MultiRenderTarget</text>
</g>
<!-- Node3 -->
<g id="node4" class="node">
<title>Node3</title>
<g id="a_node4"><a xlink:href="class_ogre_1_1_d3_d11_multi_render_target.html" target="_top" xlink:title="Ogre::D3D11MultiRenderTarget">
<polygon fill="none" stroke="#000000" points="423,-213.5 423,-232.5 578,-232.5 578,-213.5 423,-213.5"/>
<text text-anchor="middle" x="500.5" y="-220.5" font-family="Helvetica,sans-Serif" font-size="10.00" fill="#000000">Ogre::D3D11MultiRenderTarget</text>
</a>
</g>
</g>
<!-- Node0&#45;&gt;Node3 -->
<g id="edge3" class="edge">
<title>Node0&#45;&gt;Node3</title>
<path fill="none" stroke="#191970" d="M338.4533,-133.3896C356.0957,-153.4615 387.8298,-186.0113 422,-204 429.3205,-207.8538 437.4363,-210.9405 445.592,-213.4089"/>
<polygon fill="#191970" stroke="#191970" points="340.9595,-130.9358 331.7889,-125.6301 335.6493,-135.4966 340.9595,-130.9358"/>
</g>
<!-- Node4 -->
<g id="node5" class="node">
<title>Node4</title>
<g id="a_node5"><a xlink:href="class_ogre_1_1_d3_d9_multi_render_target.html" target="_top" xlink:title="Ogre::D3D9MultiRenderTarget">
<polygon fill="none" stroke="#000000" points="426,-175.5 426,-194.5 575,-194.5 575,-175.5 426,-175.5"/>
<text text-anchor="middle" x="500.5" y="-182.5" font-family="Helvetica,sans-Serif" font-size="10.00" fill="#000000">Ogre::D3D9MultiRenderTarget</text>
</a>
</g>
</g>
<!-- Node0&#45;&gt;Node4 -->
<g id="edge4" class="edge">
<title>Node0&#45;&gt;Node4</title>
<path fill="none" stroke="#191970" d="M348.5531,-130.5715C367.9467,-141.5718 395.9858,-156.3675 422,-166 431.8621,-169.6517 442.6834,-172.7946 453.0553,-175.4132"/>
<polygon fill="#191970" stroke="#191970" points="350.1862,-127.4731 339.7738,-125.5155 346.6928,-133.5391 350.1862,-127.4731"/>
</g>
<!-- Node5 -->
<g id="node6" class="node">
<title>Node5</title>
<g id="a_node6"><a xlink:href="class_ogre_1_1_g_l3_plus_f_b_o_multi_render_target.html" target="_top" xlink:title="MultiRenderTarget for OpenGL. ">
<polygon fill="none" stroke="#000000" points="423.5,-126 423.5,-156 577.5,-156 577.5,-126 423.5,-126"/>
<text text-anchor="start" x="431.5" y="-144" font-family="Helvetica,sans-Serif" font-size="10.00" fill="#000000">Ogre::GL3PlusFBOMultiRender</text>
<text text-anchor="middle" x="500.5" y="-133" font-family="Helvetica,sans-Serif" font-size="10.00" fill="#000000">Target</text>
</a>
</g>
</g>
<!-- Node0&#45;&gt;Node5 -->
<g id="edge5" class="edge">
<title>Node0&#45;&gt;Node5</title>
<path fill="none" stroke="#191970" d="M396.2164,-126.2289C405.1677,-127.4968 414.3468,-128.797 423.3684,-130.0748"/>
<polygon fill="#191970" stroke="#191970" points="396.6194,-122.7512 386.2273,-124.8141 395.6376,-129.682 396.6194,-122.7512"/>
</g>
<!-- Node6 -->
<g id="node7" class="node">
<title>Node6</title>
<g id="a_node7"><a xlink:href="class_ogre_1_1_g_l_e_s2_f_b_o_multi_render_target.html" target="_top" xlink:title="MultiRenderTarget for GL ES 2.x. ">
<polygon fill="none" stroke="#000000" points="426.5,-77 426.5,-107 574.5,-107 574.5,-77 426.5,-77"/>
<text text-anchor="start" x="434.5" y="-95" font-family="Helvetica,sans-Serif" font-size="10.00" fill="#000000">Ogre::GLES2FBOMultiRender</text>
<text text-anchor="middle" x="500.5" y="-84" font-family="Helvetica,sans-Serif" font-size="10.00" fill="#000000">Target</text>
</a>
</g>
</g>
<!-- Node0&#45;&gt;Node6 -->
<g id="edge6" class="edge">
<title>Node0&#45;&gt;Node6</title>
<path fill="none" stroke="#191970" d="M396.4264,-106.1517C406.3299,-104.805 416.5082,-103.421 426.4402,-102.0705"/>
<polygon fill="#191970" stroke="#191970" points="395.6645,-102.723 386.2273,-107.5385 396.6077,-109.6591 395.6645,-102.723"/>
</g>
<!-- Node7 -->
<g id="node8" class="node">
<title>Node7</title>
<g id="a_node8"><a xlink:href="class_ogre_1_1_g_l_f_b_o_multi_render_target.html" target="_top" xlink:title="MultiRenderTarget for GL. ">
<polygon fill="none" stroke="#000000" points="422,-38.5 422,-57.5 579,-57.5 579,-38.5 422,-38.5"/>
<text text-anchor="middle" x="500.5" y="-45.5" font-family="Helvetica,sans-Serif" font-size="10.00" fill="#000000">Ogre::GLFBOMultiRenderTarget</text>
</a>
</g>
</g>
<!-- Node0&#45;&gt;Node7 -->
<g id="edge7" class="edge">
<title>Node0&#45;&gt;Node7</title>
<path fill="none" stroke="#191970" d="M349.2841,-101.363C368.669,-90.6387 396.3607,-76.3754 422,-67 432.0086,-63.3402 442.9931,-60.1789 453.4921,-57.5426"/>
<polygon fill="#191970" stroke="#191970" points="347.4862,-98.3585 340.4805,-106.3065 350.9136,-104.462 347.4862,-98.3585"/>
</g>
<!-- Node8 -->
<g id="node9" class="node">
<title>Node8</title>
<g id="a_node9"><a xlink:href="class_ogre_1_1_metal_multi_render_target.html" target="_top" xlink:title="Ogre::MetalMultiRenderTarget">
<polygon fill="none" stroke="#000000" points="426.5,-.5 426.5,-19.5 574.5,-19.5 574.5,-.5 426.5,-.5"/>
<text text-anchor="middle" x="500.5" y="-7.5" font-family="Helvetica,sans-Serif" font-size="10.00" fill="#000000">Ogre::MetalMultiRenderTarget</text>
</a>
</g>
</g>
<!-- Node0&#45;&gt;Node8 -->
<g id="edge8" class="edge">
<title>Node0&#45;&gt;Node8</title>
<path fill="none" stroke="#191970" d="M338.4957,-98.8139C356.1788,-78.9757 387.9519,-46.8012 422,-29 429.4557,-25.102 437.7287,-21.9875 446.0262,-19.5033"/>
<polygon fill="#191970" stroke="#191970" points="335.7443,-96.6438 331.8143,-106.4828 341.0222,-101.2421 335.7443,-96.6438"/>
</g>
<!-- Node1 -->
<g id="node2" class="node">
<title>Node1</title>
<g id="a_node2"><a xlink:href="class_ogre_1_1_render_target.html" target="_top" xlink:title="A &#39;canvas&#39; which can receive the results of a rendering operation. ">
<polygon fill="none" stroke="#000000" points="123,-106.5 123,-125.5 226,-125.5 226,-106.5 123,-106.5"/>
<text text-anchor="middle" x="174.5" y="-113.5" font-family="Helvetica,sans-Serif" font-size="10.00" fill="#000000">Ogre::RenderTarget</text>
</a>
</g>
</g>
<!-- Node1&#45;&gt;Node0 -->
<g id="edge1" class="edge">
<title>Node1&#45;&gt;Node0</title>
<path fill="none" stroke="#191970" d="M236.4841,-116C244.8919,-116 253.5218,-116 261.9311,-116"/>
<polygon fill="#191970" stroke="#191970" points="236.3683,-112.5001 226.3683,-116 236.3682,-119.5001 236.3683,-112.5001"/>
</g>
<!-- Node2 -->
<g id="node3" class="node">
<title>Node2</title>
<g id="a_node3"><a xlink:href="class_ogre_1_1_allocated_object.html" target="_top" xlink:title="RenderSysAlloc">
<polygon fill="none" stroke="#000000" points="0,-106.5 0,-125.5 87,-125.5 87,-106.5 0,-106.5"/>
<text text-anchor="middle" x="43.5" y="-113.5" font-family="Helvetica,sans-Serif" font-size="10.00" fill="#000000">RenderSysAlloc</text>
</a>
</g>
</g>
<!-- Node2&#45;&gt;Node1 -->
<g id="edge2" class="edge">
<title>Node2&#45;&gt;Node1</title>
<path fill="none" stroke="#191970" d="M97.2744,-116C105.7407,-116 114.4771,-116 122.8928,-116"/>
<polygon fill="#191970" stroke="#191970" points="97.1211,-112.5001 87.1211,-116 97.1211,-119.5001 97.1211,-112.5001"/>
</g>
</g>
</svg>
