<?xml version="1.0" encoding="UTF-8" standalone="no"?>
<!DOCTYPE svg PUBLIC "-//W3C//DTD SVG 1.1//EN"
 "http://www.w3.org/Graphics/SVG/1.1/DTD/svg11.dtd">
<!-- Generated by graphviz version 2.40.1 (20161225.0304)
 -->
<!-- Title: Ogre::HighLevelGpuProgramFactory Pages: 1 -->
<svg width="462pt" height="382pt"
 viewBox="0.00 0.00 462.00 381.50" xmlns="http://www.w3.org/2000/svg" xmlns:xlink="http://www.w3.org/1999/xlink">
<g id="graph0" class="graph" transform="scale(1 1) rotate(0) translate(4 377.5)">
<title>Ogre::HighLevelGpuProgramFactory</title>
<!-- Node0 -->
<g id="node1" class="node">
<title>Node0</title>
<polygon fill="#bfbfbf" stroke="#000000" points="107,-177.5 107,-207.5 249,-207.5 249,-177.5 107,-177.5"/>
<text text-anchor="start" x="115" y="-195.5" font-family="Helvetica,sans-Serif" font-size="10.00" fill="#000000">Ogre::HighLevelGpuProgram</text>
<text text-anchor="middle" x="178" y="-184.5" font-family="Helvetica,sans-Serif" font-size="10.00" fill="#000000">Factory</text>
</g>
<!-- Node2 -->
<g id="node3" class="node">
<title>Node2</title>
<g id="a_node3"><a xlink:href="class_ogre_1_1_cg_program_factory.html" target="_top" xlink:title="Factory class for Cg programs. ">
<polygon fill="none" stroke="#000000" points="306.5,-354 306.5,-373 432.5,-373 432.5,-354 306.5,-354"/>
<text text-anchor="middle" x="369.5" y="-361" font-family="Helvetica,sans-Serif" font-size="10.00" fill="#000000">Ogre::CgProgramFactory</text>
</a>
</g>
</g>
<!-- Node0&#45;&gt;Node2 -->
<g id="edge2" class="edge">
<title>Node0&#45;&gt;Node2</title>
<path fill="none" stroke="#191970" d="M188.3437,-217.1174C204.0244,-251.2914 237.1408,-312.5041 285,-344.5 291.5001,-348.8456 298.846,-352.2097 306.4259,-354.8118"/>
<polygon fill="#191970" stroke="#191970" points="191.4783,-215.5526 184.2124,-207.8417 185.0839,-218.4006 191.4783,-215.5526"/>
</g>
<!-- Node3 -->
<g id="node4" class="node">
<title>Node3</title>
<g id="a_node4"><a xlink:href="class_ogre_1_1_d3_d11_h_l_s_l_program_factory.html" target="_top" xlink:title="Factory class for D3D11 HLSL programs. ">
<polygon fill="none" stroke="#000000" points="285,-316 285,-335 454,-335 454,-316 285,-316"/>
<text text-anchor="middle" x="369.5" y="-323" font-family="Helvetica,sans-Serif" font-size="10.00" fill="#000000">Ogre::D3D11HLSLProgramFactory</text>
</a>
</g>
</g>
<!-- Node0&#45;&gt;Node3 -->
<g id="edge3" class="edge">
<title>Node0&#45;&gt;Node3</title>
<path fill="none" stroke="#191970" d="M193.4979,-216.0494C212.0556,-242.2955 245.6158,-283.9962 285,-306.5 291.7888,-310.3791 299.3062,-313.4662 306.9759,-315.9231"/>
<polygon fill="#191970" stroke="#191970" points="196.3564,-214.0293 187.7928,-207.7911 190.597,-218.0081 196.3564,-214.0293"/>
</g>
<!-- Node4 -->
<g id="node5" class="node">
<title>Node4</title>
<g id="a_node5"><a xlink:href="class_ogre_1_1_d3_d9_h_l_s_l_program_factory.html" target="_top" xlink:title="Factory class for D3D9 HLSL programs. ">
<polygon fill="none" stroke="#000000" points="287.5,-278 287.5,-297 451.5,-297 451.5,-278 287.5,-278"/>
<text text-anchor="middle" x="369.5" y="-285" font-family="Helvetica,sans-Serif" font-size="10.00" fill="#000000">Ogre::D3D9HLSLProgramFactory</text>
</a>
</g>
</g>
<!-- Node0&#45;&gt;Node4 -->
<g id="edge4" class="edge">
<title>Node0&#45;&gt;Node4</title>
<path fill="none" stroke="#191970" d="M202.4872,-214.2257C223.1193,-231.4143 254.1349,-254.7393 285,-268.5 293.652,-272.3574 303.1631,-275.4668 312.5865,-277.963"/>
<polygon fill="#191970" stroke="#191970" points="204.7342,-211.5421 194.8444,-207.7418 200.2057,-216.88 204.7342,-211.5421"/>
</g>
<!-- Node5 -->
<g id="node6" class="node">
<title>Node5</title>
<g id="a_node6"><a xlink:href="class_ogre_1_1_g_l_s_l_1_1_g_l_s_l_program_factory.html" target="_top" xlink:title="Factory class for GLSL programs. ">
<polygon fill="none" stroke="#000000" points="285,-240 285,-259 454,-259 454,-240 285,-240"/>
<text text-anchor="middle" x="369.5" y="-247" font-family="Helvetica,sans-Serif" font-size="10.00" fill="#000000">Ogre::GLSL::GLSLProgramFactory</text>
</a>
</g>
</g>
<!-- Node0&#45;&gt;Node5 -->
<g id="edge5" class="edge">
<title>Node0&#45;&gt;Node5</title>
<path fill="none" stroke="#191970" d="M226.3025,-211.0415C244.5398,-217.6741 265.5752,-224.8889 285,-230.5 296.99,-233.9635 310.0877,-237.1784 322.3144,-239.9418"/>
<polygon fill="#191970" stroke="#191970" points="227.3597,-207.7012 216.7662,-207.5345 224.9435,-214.271 227.3597,-207.7012"/>
</g>
<!-- Node6 -->
<g id="node7" class="node">
<title>Node6</title>
<g id="a_node7"><a xlink:href="class_ogre_1_1_g_l_s_l_e_s_cg_program_factory.html" target="_top" xlink:title="Factory class for GLSL ES programs. ">
<polygon fill="none" stroke="#000000" points="287.5,-202 287.5,-221 451.5,-221 451.5,-202 287.5,-202"/>
<text text-anchor="middle" x="369.5" y="-209" font-family="Helvetica,sans-Serif" font-size="10.00" fill="#000000">Ogre::GLSLESCgProgramFactory</text>
</a>
</g>
</g>
<!-- Node0&#45;&gt;Node6 -->
<g id="edge6" class="edge">
<title>Node0&#45;&gt;Node6</title>
<path fill="none" stroke="#191970" d="M259.069,-200.5434C268.4005,-201.4692 277.9226,-202.414 287.2693,-203.3413"/>
<polygon fill="#191970" stroke="#191970" points="259.3321,-197.0524 249.0354,-199.5479 258.6409,-204.0182 259.3321,-197.0524"/>
</g>
<!-- Node7 -->
<g id="node8" class="node">
<title>Node7</title>
<g id="a_node8"><a xlink:href="class_ogre_1_1_g_l_s_l_e_s_program_factory.html" target="_top" xlink:title="Factory class for GLSL ES programs. ">
<polygon fill="none" stroke="#000000" points="293.5,-164 293.5,-183 445.5,-183 445.5,-164 293.5,-164"/>
<text text-anchor="middle" x="369.5" y="-171" font-family="Helvetica,sans-Serif" font-size="10.00" fill="#000000">Ogre::GLSLESProgramFactory</text>
</a>
</g>
</g>
<!-- Node0&#45;&gt;Node7 -->
<g id="edge7" class="edge">
<title>Node0&#45;&gt;Node7</title>
<path fill="none" stroke="#191970" d="M259.3287,-184.4308C270.6414,-183.3084 282.229,-182.1587 293.4402,-181.0464"/>
<polygon fill="#191970" stroke="#191970" points="258.6409,-180.9818 249.0354,-185.4521 259.3321,-187.9476 258.6409,-180.9818"/>
</g>
<!-- Node8 -->
<g id="node9" class="node">
<title>Node8</title>
<g id="a_node9"><a xlink:href="class_ogre_1_1_g_l_s_l_shader_factory.html" target="_top" xlink:title="Factory class for GLSL shaders. ">
<polygon fill="none" stroke="#000000" points="303.5,-126 303.5,-145 435.5,-145 435.5,-126 303.5,-126"/>
<text text-anchor="middle" x="369.5" y="-133" font-family="Helvetica,sans-Serif" font-size="10.00" fill="#000000">Ogre::GLSLShaderFactory</text>
</a>
</g>
</g>
<!-- Node0&#45;&gt;Node8 -->
<g id="edge8" class="edge">
<title>Node0&#45;&gt;Node8</title>
<path fill="none" stroke="#191970" d="M226.3025,-173.9585C244.5398,-167.3259 265.5752,-160.1111 285,-154.5 296.99,-151.0365 310.0877,-147.8216 322.3144,-145.0582"/>
<polygon fill="#191970" stroke="#191970" points="224.9435,-170.729 216.7662,-177.4655 227.3597,-177.2988 224.9435,-170.729"/>
</g>
<!-- Node9 -->
<g id="node10" class="node">
<title>Node9</title>
<g id="a_node10"><a xlink:href="class_ogre_1_1_metal_program_factory.html" target="_top" xlink:title="Factory class for Metal programs. ">
<polygon fill="none" stroke="#000000" points="301,-88 301,-107 438,-107 438,-88 301,-88"/>
<text text-anchor="middle" x="369.5" y="-95" font-family="Helvetica,sans-Serif" font-size="10.00" fill="#000000">Ogre::MetalProgramFactory</text>
</a>
</g>
</g>
<!-- Node0&#45;&gt;Node9 -->
<g id="edge9" class="edge">
<title>Node0&#45;&gt;Node9</title>
<path fill="none" stroke="#191970" d="M202.4872,-170.7743C223.1193,-153.5857 254.1349,-130.2607 285,-116.5 293.652,-112.6426 303.1631,-109.5332 312.5865,-107.037"/>
<polygon fill="#191970" stroke="#191970" points="200.2057,-168.12 194.8444,-177.2582 204.7342,-173.4579 200.2057,-168.12"/>
</g>
<!-- Node10 -->
<g id="node11" class="node">
<title>Node10</title>
<g id="a_node11"><a xlink:href="class_ogre_1_1_s_p_i_r_v_shader_factory.html" target="_top" xlink:title="Ogre::SPIRVShaderFactory">
<polygon fill="none" stroke="#000000" points="300.5,-50 300.5,-69 438.5,-69 438.5,-50 300.5,-50"/>
<text text-anchor="middle" x="369.5" y="-57" font-family="Helvetica,sans-Serif" font-size="10.00" fill="#000000">Ogre::SPIRVShaderFactory</text>
</a>
</g>
</g>
<!-- Node0&#45;&gt;Node10 -->
<g id="edge10" class="edge">
<title>Node0&#45;&gt;Node10</title>
<path fill="none" stroke="#191970" d="M193.4979,-168.9506C212.0556,-142.7045 245.6158,-101.0038 285,-78.5 291.7888,-74.6209 299.3062,-71.5338 306.9759,-69.0769"/>
<polygon fill="#191970" stroke="#191970" points="190.597,-166.9919 187.7928,-177.2089 196.3564,-170.9707 190.597,-166.9919"/>
</g>
<!-- Node11 -->
<g id="node12" class="node">
<title>Node11</title>
<g id="a_node12"><a xlink:href="class_ogre_1_1_unified_high_level_gpu_program_factory.html" target="_top" xlink:title="Factory class for Unified programs. ">
<polygon fill="none" stroke="#000000" points="301.5,-.5 301.5,-30.5 437.5,-30.5 437.5,-.5 301.5,-.5"/>
<text text-anchor="start" x="309.5" y="-18.5" font-family="Helvetica,sans-Serif" font-size="10.00" fill="#000000">Ogre::UnifiedHighLevelGpu</text>
<text text-anchor="middle" x="369.5" y="-7.5" font-family="Helvetica,sans-Serif" font-size="10.00" fill="#000000">ProgramFactory</text>
</a>
</g>
</g>
<!-- Node0&#45;&gt;Node11 -->
<g id="edge11" class="edge">
<title>Node0&#45;&gt;Node11</title>
<path fill="none" stroke="#191970" d="M188.6442,-168.3163C204.6851,-134.6623 238.2305,-74.0688 285,-40.5 290.3443,-36.6641 296.2774,-33.4115 302.4505,-30.6544"/>
<polygon fill="#191970" stroke="#191970" points="185.4435,-166.8988 184.4097,-177.4431 191.7934,-169.8449 185.4435,-166.8988"/>
</g>
<!-- Node1 -->
<g id="node2" class="node">
<title>Node1</title>
<g id="a_node2"><a xlink:href="class_ogre_1_1_allocated_object.html" target="_top" xlink:title="FactoryAlloc">
<polygon fill="none" stroke="#000000" points="0,-183 0,-202 71,-202 71,-183 0,-183"/>
<text text-anchor="middle" x="35.5" y="-190" font-family="Helvetica,sans-Serif" font-size="10.00" fill="#000000">FactoryAlloc</text>
</a>
</g>
</g>
<!-- Node1&#45;&gt;Node0 -->
<g id="edge1" class="edge">
<title>Node1&#45;&gt;Node0</title>
<path fill="none" stroke="#191970" d="M81.1388,-192.5C89.3216,-192.5 98.0241,-192.5 106.7272,-192.5"/>
<polygon fill="#191970" stroke="#191970" points="81.0912,-189.0001 71.0912,-192.5 81.0911,-196.0001 81.0912,-189.0001"/>
</g>
</g>
</svg>
