<?xml version="1.0" encoding="UTF-8" standalone="no"?>
<!DOCTYPE svg PUBLIC "-//W3C//DTD SVG 1.1//EN"
 "http://www.w3.org/Graphics/SVG/1.1/DTD/svg11.dtd">
<!-- Generated by graphviz version 2.40.1 (20161225.0304)
 -->
<!-- Title: Ogre::MetalTextureBuffer Pages: 1 -->
<svg width="142pt" height="263pt"
 viewBox="0.00 0.00 142.00 263.00" xmlns="http://www.w3.org/2000/svg" xmlns:xlink="http://www.w3.org/1999/xlink">
<g id="graph0" class="graph" transform="scale(1 1) rotate(0) translate(4 259)">
<title>Ogre::MetalTextureBuffer</title>
<!-- Node0 -->
<g id="node1" class="node">
<title>Node0</title>
<polygon fill="#bfbfbf" stroke="#000000" points="3.5,-.5 3.5,-19.5 130.5,-19.5 130.5,-.5 3.5,-.5"/>
<text text-anchor="middle" x="67" y="-7.5" font-family="Helvetica,sans-Serif" font-size="10.00" fill="#000000">Ogre::MetalTextureBuffer</text>
</g>
<!-- Node1 -->
<g id="node2" class="node">
<title>Node1</title>
<g id="a_node2"><a xlink:href="class_ogre_1_1_metal_hardware_pixel_buffer.html" target="_top" xlink:title="Ogre::MetalHardwarePixel\lBuffer">
<polygon fill="none" stroke="#000000" points="1.5,-56.5 1.5,-86.5 132.5,-86.5 132.5,-56.5 1.5,-56.5"/>
<text text-anchor="start" x="9.5" y="-74.5" font-family="Helvetica,sans-Serif" font-size="10.00" fill="#000000">Ogre::MetalHardwarePixel</text>
<text text-anchor="middle" x="67" y="-63.5" font-family="Helvetica,sans-Serif" font-size="10.00" fill="#000000">Buffer</text>
</a>
</g>
</g>
<!-- Node1&#45;&gt;Node0 -->
<g id="edge1" class="edge">
<title>Node1&#45;&gt;Node0</title>
<path fill="none" stroke="#191970" d="M67,-46.2849C67,-36.9858 67,-26.9883 67,-19.8469"/>
<polygon fill="#191970" stroke="#191970" points="63.5001,-46.2977 67,-56.2977 70.5001,-46.2978 63.5001,-46.2977"/>
</g>
<!-- Node2 -->
<g id="node3" class="node">
<title>Node2</title>
<g id="a_node3"><a xlink:href="class_ogre_1_1_hardware_pixel_buffer.html" target="_top" xlink:title="Specialisation of HardwareBuffer for a pixel buffer. ">
<polygon fill="none" stroke="#000000" points="0,-123.5 0,-142.5 134,-142.5 134,-123.5 0,-123.5"/>
<text text-anchor="middle" x="67" y="-130.5" font-family="Helvetica,sans-Serif" font-size="10.00" fill="#000000">Ogre::HardwarePixelBuffer</text>
</a>
</g>
</g>
<!-- Node2&#45;&gt;Node1 -->
<g id="edge2" class="edge">
<title>Node2&#45;&gt;Node1</title>
<path fill="none" stroke="#191970" d="M67,-113.3693C67,-104.681 67,-94.6241 67,-86.5446"/>
<polygon fill="#191970" stroke="#191970" points="63.5001,-113.3906 67,-123.3906 70.5001,-113.3907 63.5001,-113.3906"/>
</g>
<!-- Node3 -->
<g id="node4" class="node">
<title>Node3</title>
<g id="a_node4"><a xlink:href="class_ogre_1_1_hardware_buffer.html" target="_top" xlink:title="Abstract class defining common features of hardware buffers. ">
<polygon fill="none" stroke="#000000" points="11,-179.5 11,-198.5 123,-198.5 123,-179.5 11,-179.5"/>
<text text-anchor="middle" x="67" y="-186.5" font-family="Helvetica,sans-Serif" font-size="10.00" fill="#000000">Ogre::HardwareBuffer</text>
</a>
</g>
</g>
<!-- Node3&#45;&gt;Node2 -->
<g id="edge3" class="edge">
<title>Node3&#45;&gt;Node2</title>
<path fill="none" stroke="#191970" d="M67,-169.1575C67,-160.155 67,-149.9199 67,-142.6427"/>
<polygon fill="#191970" stroke="#191970" points="63.5001,-169.2455 67,-179.2455 70.5001,-169.2456 63.5001,-169.2455"/>
</g>
<!-- Node4 -->
<g id="node5" class="node">
<title>Node4</title>
<g id="a_node5"><a xlink:href="class_ogre_1_1_allocated_object.html" target="_top" xlink:title="BufferAlloc">
<polygon fill="none" stroke="#000000" points="34.5,-235.5 34.5,-254.5 99.5,-254.5 99.5,-235.5 34.5,-235.5"/>
<text text-anchor="middle" x="67" y="-242.5" font-family="Helvetica,sans-Serif" font-size="10.00" fill="#000000">BufferAlloc</text>
</a>
</g>
</g>
<!-- Node4&#45;&gt;Node3 -->
<g id="edge4" class="edge">
<title>Node4&#45;&gt;Node3</title>
<path fill="none" stroke="#191970" d="M67,-225.1575C67,-216.155 67,-205.9199 67,-198.6427"/>
<polygon fill="#191970" stroke="#191970" points="63.5001,-225.2455 67,-235.2455 70.5001,-225.2456 63.5001,-225.2455"/>
</g>
</g>
</svg>
