<?xml version="1.0" encoding="UTF-8" standalone="no"?>
<!DOCTYPE svg PUBLIC "-//W3C//DTD SVG 1.1//EN"
 "http://www.w3.org/Graphics/SVG/1.1/DTD/svg11.dtd">
<!-- Generated by graphviz version 2.40.1 (20161225.0304)
 -->
<!-- Title: Ogre::Resource Pages: 1 -->
<svg width="922pt" height="534pt"
 viewBox="0.00 0.00 922.00 534.00" xmlns="http://www.w3.org/2000/svg" xmlns:xlink="http://www.w3.org/1999/xlink">
<g id="graph0" class="graph" transform="scale(1 1) rotate(0) translate(4 530)">
<title>Ogre::Resource</title>
<!-- Node0 -->
<g id="node1" class="node">
<title>Node0</title>
<polygon fill="#bfbfbf" stroke="#000000" points="143,-291.5 143,-310.5 229,-310.5 229,-291.5 143,-291.5"/>
<text text-anchor="middle" x="186" y="-298.5" font-family="Helvetica,sans-Serif" font-size="10.00" fill="#000000">Ogre::Resource</text>
</g>
<!-- Node3 -->
<g id="node4" class="node">
<title>Node3</title>
<g id="a_node4"><a xlink:href="class_ogre_1_1_bsp_level.html" target="_top" xlink:title="Holds all the data associated with a Binary Space Parition (BSP) based indoor level. ">
<polygon fill="none" stroke="#000000" points="272,-424.5 272,-443.5 356,-443.5 356,-424.5 272,-424.5"/>
<text text-anchor="middle" x="314" y="-431.5" font-family="Helvetica,sans-Serif" font-size="10.00" fill="#000000">Ogre::BspLevel</text>
</a>
</g>
</g>
<!-- Node0&#45;&gt;Node3 -->
<g id="edge3" class="edge">
<title>Node0&#45;&gt;Node3</title>
<path fill="none" stroke="#191970" d="M194.6163,-319.8493C206.9171,-344.8334 231.7536,-388.8034 265,-415 269.8016,-418.7835 275.4463,-421.888 281.1637,-424.4097"/>
<polygon fill="#191970" stroke="#191970" points="197.718,-318.2219 190.2567,-310.6999 191.3987,-321.233 197.718,-318.2219"/>
</g>
<!-- Node4 -->
<g id="node5" class="node">
<title>Node4</title>
<g id="a_node5"><a xlink:href="class_ogre_1_1_compositor.html" target="_top" xlink:title="Class representing a Compositor object. ">
<polygon fill="none" stroke="#000000" points="267,-386.5 267,-405.5 361,-405.5 361,-386.5 267,-386.5"/>
<text text-anchor="middle" x="314" y="-393.5" font-family="Helvetica,sans-Serif" font-size="10.00" fill="#000000">Ogre::Compositor</text>
</a>
</g>
</g>
<!-- Node0&#45;&gt;Node4 -->
<g id="edge4" class="edge">
<title>Node0&#45;&gt;Node4</title>
<path fill="none" stroke="#191970" d="M200.6139,-318.6488C215.3803,-335.5413 239.5886,-360.7846 265,-377 270.7686,-380.6811 277.3629,-383.836 283.804,-386.4572"/>
<polygon fill="#191970" stroke="#191970" points="202.9529,-315.9983 193.7964,-310.6684 197.6306,-320.5451 202.9529,-315.9983"/>
</g>
<!-- Node5 -->
<g id="node6" class="node">
<title>Node5</title>
<g id="a_node6"><a xlink:href="class_ogre_1_1_font.html" target="_top" xlink:title="Class representing a font in the system. ">
<polygon fill="none" stroke="#000000" points="282.5,-348.5 282.5,-367.5 345.5,-367.5 345.5,-348.5 282.5,-348.5"/>
<text text-anchor="middle" x="314" y="-355.5" font-family="Helvetica,sans-Serif" font-size="10.00" fill="#000000">Ogre::Font</text>
</a>
</g>
</g>
<!-- Node0&#45;&gt;Node5 -->
<g id="edge5" class="edge">
<title>Node0&#45;&gt;Node5</title>
<path fill="none" stroke="#191970" d="M214.1897,-315.2226C229.1547,-322.6038 247.933,-331.5999 265,-339 272.4503,-342.2304 280.6426,-345.511 288.1606,-348.4166"/>
<polygon fill="#191970" stroke="#191970" points="215.4754,-311.9533 204.9625,-310.6383 212.3608,-318.2222 215.4754,-311.9533"/>
</g>
<!-- Node6 -->
<g id="node7" class="node">
<title>Node6</title>
<g id="a_node7"><a xlink:href="class_ogre_1_1_gpu_program.html" target="_top" xlink:title="Defines a program which runs on the GPU such as a vertex or fragment program. ">
<polygon fill="none" stroke="#000000" points="265,-310.5 265,-329.5 363,-329.5 363,-310.5 265,-310.5"/>
<text text-anchor="middle" x="314" y="-317.5" font-family="Helvetica,sans-Serif" font-size="10.00" fill="#000000">Ogre::GpuProgram</text>
</a>
</g>
</g>
<!-- Node0&#45;&gt;Node6 -->
<g id="edge6" class="edge">
<title>Node0&#45;&gt;Node6</title>
<path fill="none" stroke="#191970" d="M239.4794,-308.9383C247.932,-310.193 256.6364,-311.4851 264.9808,-312.7237"/>
<polygon fill="#191970" stroke="#191970" points="239.7405,-305.4388 229.335,-307.4325 238.7127,-312.363 239.7405,-305.4388"/>
</g>
<!-- Node25 -->
<g id="node24" class="node">
<title>Node25</title>
<g id="a_node24"><a xlink:href="class_ogre_1_1_material.html" target="_top" xlink:title="Class encapsulates rendering properties of an object. ">
<polygon fill="none" stroke="#000000" points="275,-272.5 275,-291.5 353,-291.5 353,-272.5 275,-272.5"/>
<text text-anchor="middle" x="314" y="-279.5" font-family="Helvetica,sans-Serif" font-size="10.00" fill="#000000">Ogre::Material</text>
</a>
</g>
</g>
<!-- Node0&#45;&gt;Node25 -->
<g id="edge23" class="edge">
<title>Node0&#45;&gt;Node25</title>
<path fill="none" stroke="#191970" d="M239.5005,-293.0585C251.2577,-291.3133 263.5009,-289.496 274.5841,-287.8508"/>
<polygon fill="#191970" stroke="#191970" points="238.7127,-289.637 229.335,-294.5675 239.7405,-296.5612 238.7127,-289.637"/>
</g>
<!-- Node26 -->
<g id="node25" class="node">
<title>Node26</title>
<g id="a_node25"><a xlink:href="class_ogre_1_1_mesh.html" target="_top" xlink:title="Resource holding data about 3D mesh. ">
<polygon fill="none" stroke="#000000" points="280,-234.5 280,-253.5 348,-253.5 348,-234.5 280,-234.5"/>
<text text-anchor="middle" x="314" y="-241.5" font-family="Helvetica,sans-Serif" font-size="10.00" fill="#000000">Ogre::Mesh</text>
</a>
</g>
</g>
<!-- Node0&#45;&gt;Node26 -->
<g id="edge24" class="edge">
<title>Node0&#45;&gt;Node26</title>
<path fill="none" stroke="#191970" d="M214.1897,-286.7774C229.1547,-279.3962 247.933,-270.4001 265,-263 272.4503,-259.7696 280.6426,-256.489 288.1606,-253.5834"/>
<polygon fill="#191970" stroke="#191970" points="212.3608,-283.7778 204.9625,-291.3617 215.4754,-290.0467 212.3608,-283.7778"/>
</g>
<!-- Node28 -->
<g id="node27" class="node">
<title>Node28</title>
<g id="a_node27"><a xlink:href="class_ogre_1_1_skeleton.html" target="_top" xlink:title="A collection of Bone objects used to animate a skinned mesh. ">
<polygon fill="none" stroke="#000000" points="273,-196.5 273,-215.5 355,-215.5 355,-196.5 273,-196.5"/>
<text text-anchor="middle" x="314" y="-203.5" font-family="Helvetica,sans-Serif" font-size="10.00" fill="#000000">Ogre::Skeleton</text>
</a>
</g>
</g>
<!-- Node0&#45;&gt;Node28 -->
<g id="edge26" class="edge">
<title>Node0&#45;&gt;Node28</title>
<path fill="none" stroke="#191970" d="M200.6139,-283.3512C215.3803,-266.4587 239.5886,-241.2154 265,-225 270.7686,-221.3189 277.3629,-218.164 283.804,-215.5428"/>
<polygon fill="#191970" stroke="#191970" points="197.6306,-281.4549 193.7964,-291.3316 202.9529,-286.0017 197.6306,-281.4549"/>
</g>
<!-- Node30 -->
<g id="node29" class="node">
<title>Node30</title>
<g id="a_node29"><a xlink:href="class_ogre_1_1_texture.html" target="_top" xlink:title="Abstract class representing a Texture resource. ">
<polygon fill="none" stroke="#000000" points="275.5,-114.5 275.5,-133.5 352.5,-133.5 352.5,-114.5 275.5,-114.5"/>
<text text-anchor="middle" x="314" y="-121.5" font-family="Helvetica,sans-Serif" font-size="10.00" fill="#000000">Ogre::Texture</text>
</a>
</g>
</g>
<!-- Node0&#45;&gt;Node30 -->
<g id="edge28" class="edge">
<title>Node0&#45;&gt;Node30</title>
<path fill="none" stroke="#191970" d="M198.1489,-282.8166C213.4064,-260.1344 240.5532,-220.2826 265,-187 279.1087,-167.792 296.3782,-145.9555 306.1923,-133.6934"/>
<polygon fill="#191970" stroke="#191970" points="195.0439,-281.1626 192.3804,-291.4171 200.8574,-285.0618 195.0439,-281.1626"/>
</g>
<!-- Node1 -->
<g id="node2" class="node">
<title>Node1</title>
<g id="a_node2"><a xlink:href="class_ogre_1_1_string_interface.html" target="_top" xlink:title="Class defining the common interface which classes can use to present a reflection&#45;style, self&#45;defining parameter set to callers. ">
<polygon fill="none" stroke="#000000" points="0,-310.5 0,-329.5 107,-329.5 107,-310.5 0,-310.5"/>
<text text-anchor="middle" x="53.5" y="-317.5" font-family="Helvetica,sans-Serif" font-size="10.00" fill="#000000">Ogre::StringInterface</text>
</a>
</g>
</g>
<!-- Node1&#45;&gt;Node0 -->
<g id="edge1" class="edge">
<title>Node1&#45;&gt;Node0</title>
<path fill="none" stroke="#191970" d="M117.1703,-310.8699C125.8787,-309.6212 134.6466,-308.3639 142.8709,-307.1846"/>
<polygon fill="#191970" stroke="#191970" points="116.4128,-307.4427 107.0109,-312.3267 117.4065,-314.3718 116.4128,-307.4427"/>
</g>
<!-- Node2 -->
<g id="node3" class="node">
<title>Node2</title>
<g id="a_node3"><a xlink:href="class_ogre_1_1_allocated_object.html" target="_top" xlink:title="ResourceAlloc">
<polygon fill="none" stroke="#000000" points="13.5,-272.5 13.5,-291.5 93.5,-291.5 93.5,-272.5 13.5,-272.5"/>
<text text-anchor="middle" x="53.5" y="-279.5" font-family="Helvetica,sans-Serif" font-size="10.00" fill="#000000">ResourceAlloc</text>
</a>
</g>
</g>
<!-- Node2&#45;&gt;Node0 -->
<g id="edge2" class="edge">
<title>Node2&#45;&gt;Node0</title>
<path fill="none" stroke="#191970" d="M103.7115,-289.2001C116.5821,-291.0457 130.312,-293.0146 142.795,-294.8046"/>
<polygon fill="#191970" stroke="#191970" points="104.0095,-285.7072 93.6139,-287.7522 103.0159,-292.6363 104.0095,-285.7072"/>
</g>
<!-- Node7 -->
<g id="node8" class="node">
<title>Node7</title>
<g id="a_node8"><a xlink:href="class_ogre_1_1_d3_d9_gpu_program.html" target="_top" xlink:title="Direct3D implementation of a few things common to low&#45;level vertex &amp; fragment programs. ">
<polygon fill="none" stroke="#000000" points="408,-468.5 408,-487.5 532,-487.5 532,-468.5 408,-468.5"/>
<text text-anchor="middle" x="470" y="-475.5" font-family="Helvetica,sans-Serif" font-size="10.00" fill="#000000">Ogre::D3D9GpuProgram</text>
</a>
</g>
</g>
<!-- Node6&#45;&gt;Node7 -->
<g id="edge7" class="edge">
<title>Node6&#45;&gt;Node7</title>
<path fill="none" stroke="#191970" d="M357.7139,-334.6742C359.5902,-335.9978 361.3666,-337.4366 363,-339 391.7536,-366.5214 374.7854,-389.4112 399,-421 414.3868,-441.0726 438.2745,-458.32 454.0265,-468.433"/>
<polygon fill="#191970" stroke="#191970" points="359.382,-331.5953 348.9808,-329.579 355.8544,-337.6415 359.382,-331.5953"/>
</g>
<!-- Node10 -->
<g id="node11" class="node">
<title>Node10</title>
<g id="a_node11"><a xlink:href="class_ogre_1_1_g_l_gpu_program.html" target="_top" xlink:title="Generalised low&#45;level GL program, can be applied to multiple types (eg ARB and NV) ...">
<polygon fill="none" stroke="#000000" points="414.5,-392.5 414.5,-411.5 525.5,-411.5 525.5,-392.5 414.5,-392.5"/>
<text text-anchor="middle" x="470" y="-399.5" font-family="Helvetica,sans-Serif" font-size="10.00" fill="#000000">Ogre::GLGpuProgram</text>
</a>
</g>
</g>
<!-- Node6&#45;&gt;Node10 -->
<g id="edge10" class="edge">
<title>Node6&#45;&gt;Node10</title>
<path fill="none" stroke="#191970" d="M350.3723,-333.3403C354.6731,-335.1415 358.9647,-337.0457 363,-339 397.3407,-355.6316 435.3452,-379.3815 455.5308,-392.4558"/>
<polygon fill="#191970" stroke="#191970" points="351.6219,-330.0704 341.0383,-329.5821 349.0073,-336.5639 351.6219,-330.0704"/>
</g>
<!-- Node13 -->
<g id="node14" class="node">
<title>Node13</title>
<g id="a_node14"><a xlink:href="class_ogre_1_1_high_level_gpu_program.html" target="_top" xlink:title="Abstract base class representing a high&#45;level program (a vertex or fragment program). ">
<polygon fill="none" stroke="#000000" points="399,-278.5 399,-297.5 541,-297.5 541,-278.5 399,-278.5"/>
<text text-anchor="middle" x="470" y="-285.5" font-family="Helvetica,sans-Serif" font-size="10.00" fill="#000000">Ogre::HighLevelGpuProgram</text>
</a>
</g>
</g>
<!-- Node6&#45;&gt;Node13 -->
<g id="edge13" class="edge">
<title>Node6&#45;&gt;Node13</title>
<path fill="none" stroke="#191970" d="M370.435,-308.4236C387.8634,-304.8485 406.8507,-300.9537 423.5266,-297.533"/>
<polygon fill="#191970" stroke="#191970" points="369.4755,-305.0475 360.3828,-310.4856 370.8821,-311.9047 369.4755,-305.0475"/>
</g>
<!-- Node8 -->
<g id="node9" class="node">
<title>Node8</title>
<g id="a_node9"><a xlink:href="class_ogre_1_1_d3_d9_gpu_fragment_program.html" target="_top" xlink:title="Direct3D implementation of low&#45;level fragment programs. ">
<polygon fill="none" stroke="#000000" points="577,-506.5 577,-525.5 742,-525.5 742,-506.5 577,-506.5"/>
<text text-anchor="middle" x="659.5" y="-513.5" font-family="Helvetica,sans-Serif" font-size="10.00" fill="#000000">Ogre::D3D9GpuFragmentProgram</text>
</a>
</g>
</g>
<!-- Node7&#45;&gt;Node8 -->
<g id="edge8" class="edge">
<title>Node7&#45;&gt;Node8</title>
<path fill="none" stroke="#191970" d="M527.8948,-489.6095C554.846,-495.014 586.5102,-501.3635 612.025,-506.4799"/>
<polygon fill="#191970" stroke="#191970" points="528.3118,-486.1235 517.8189,-487.589 526.9355,-492.9869 528.3118,-486.1235"/>
</g>
<!-- Node9 -->
<g id="node10" class="node">
<title>Node9</title>
<g id="a_node10"><a xlink:href="class_ogre_1_1_d3_d9_gpu_vertex_program.html" target="_top" xlink:title="Direct3D implementation of low&#45;level vertex programs. ">
<polygon fill="none" stroke="#000000" points="583.5,-468.5 583.5,-487.5 735.5,-487.5 735.5,-468.5 583.5,-468.5"/>
<text text-anchor="middle" x="659.5" y="-475.5" font-family="Helvetica,sans-Serif" font-size="10.00" fill="#000000">Ogre::D3D9GpuVertexProgram</text>
</a>
</g>
</g>
<!-- Node7&#45;&gt;Node9 -->
<g id="edge9" class="edge">
<title>Node7&#45;&gt;Node9</title>
<path fill="none" stroke="#191970" d="M542.2125,-478C555.693,-478 569.8197,-478 583.4127,-478"/>
<polygon fill="#191970" stroke="#191970" points="542.0494,-474.5001 532.0494,-478 542.0494,-481.5001 542.0494,-474.5001"/>
</g>
<!-- Node11 -->
<g id="node12" class="node">
<title>Node11</title>
<g id="a_node12"><a xlink:href="class_ogre_1_1_g_l_arb_gpu_program.html" target="_top" xlink:title="Specialisation of the GL low&#45;level program for ARB programs. ">
<polygon fill="none" stroke="#000000" points="596.5,-430.5 596.5,-449.5 722.5,-449.5 722.5,-430.5 596.5,-430.5"/>
<text text-anchor="middle" x="659.5" y="-437.5" font-family="Helvetica,sans-Serif" font-size="10.00" fill="#000000">Ogre::GLArbGpuProgram</text>
</a>
</g>
</g>
<!-- Node10&#45;&gt;Node11 -->
<g id="edge11" class="edge">
<title>Node10&#45;&gt;Node11</title>
<path fill="none" stroke="#191970" d="M527.8948,-413.6095C554.846,-419.014 586.5102,-425.3635 612.025,-430.4799"/>
<polygon fill="#191970" stroke="#191970" points="528.3118,-410.1235 517.8189,-411.589 526.9355,-416.9869 528.3118,-410.1235"/>
</g>
<!-- Node12 -->
<g id="node13" class="node">
<title>Node12</title>
<g id="a_node13"><a xlink:href="class_ogre_1_1_g_l_gpu_nvparse_program.html" target="_top" xlink:title="Ogre::GLGpuNvparseProgram">
<polygon fill="none" stroke="#000000" points="585.5,-392.5 585.5,-411.5 733.5,-411.5 733.5,-392.5 585.5,-392.5"/>
<text text-anchor="middle" x="659.5" y="-399.5" font-family="Helvetica,sans-Serif" font-size="10.00" fill="#000000">Ogre::GLGpuNvparseProgram</text>
</a>
</g>
</g>
<!-- Node10&#45;&gt;Node12 -->
<g id="edge12" class="edge">
<title>Node10&#45;&gt;Node12</title>
<path fill="none" stroke="#191970" d="M535.8599,-402C551.807,-402 568.9614,-402 585.2647,-402"/>
<polygon fill="#191970" stroke="#191970" points="535.5759,-398.5001 525.5758,-402 535.5758,-405.5001 535.5759,-398.5001"/>
</g>
<!-- Node14 -->
<g id="node15" class="node">
<title>Node14</title>
<g id="a_node15"><a xlink:href="class_ogre_1_1_cg_program.html" target="_top" xlink:title="Specialisation of HighLevelGpuProgram to provide support for nVidia&#39;s CG language. ">
<polygon fill="none" stroke="#000000" points="613,-354.5 613,-373.5 706,-373.5 706,-354.5 613,-354.5"/>
<text text-anchor="middle" x="659.5" y="-361.5" font-family="Helvetica,sans-Serif" font-size="10.00" fill="#000000">Ogre::CgProgram</text>
</a>
</g>
</g>
<!-- Node13&#45;&gt;Node14 -->
<g id="edge14" class="edge">
<title>Node13&#45;&gt;Node14</title>
<path fill="none" stroke="#191970" d="M493.6093,-302.9181C514.7451,-315.6944 546.9477,-333.7597 577,-345 588.2885,-349.2222 600.8098,-352.6889 612.6159,-355.451"/>
<polygon fill="#191970" stroke="#191970" points="495.3498,-299.8797 484.996,-297.6327 491.6887,-305.846 495.3498,-299.8797"/>
</g>
<!-- Node15 -->
<g id="node16" class="node">
<title>Node15</title>
<g id="a_node16"><a xlink:href="class_ogre_1_1_d3_d11_h_l_s_l_program.html" target="_top" xlink:title="Specialization of HighLevelGpuProgram to provide support for D3D11 High&#45;Level Shader Language (HLSL)...">
<polygon fill="none" stroke="#000000" points="591.5,-316.5 591.5,-335.5 727.5,-335.5 727.5,-316.5 591.5,-316.5"/>
<text text-anchor="middle" x="659.5" y="-323.5" font-family="Helvetica,sans-Serif" font-size="10.00" fill="#000000">Ogre::D3D11HLSLProgram</text>
</a>
</g>
</g>
<!-- Node13&#45;&gt;Node15 -->
<g id="edge15" class="edge">
<title>Node13&#45;&gt;Node15</title>
<path fill="none" stroke="#191970" d="M527.8948,-299.6095C554.846,-305.014 586.5102,-311.3635 612.025,-316.4799"/>
<polygon fill="#191970" stroke="#191970" points="528.3118,-296.1235 517.8189,-297.589 526.9355,-302.9869 528.3118,-296.1235"/>
</g>
<!-- Node16 -->
<g id="node17" class="node">
<title>Node16</title>
<g id="a_node17"><a xlink:href="class_ogre_1_1_d3_d9_h_l_s_l_program.html" target="_top" xlink:title="Specialisation of HighLevelGpuProgram to provide support for D3D9 High&#45;Level Shader Language (HLSL)...">
<polygon fill="none" stroke="#000000" points="594,-278.5 594,-297.5 725,-297.5 725,-278.5 594,-278.5"/>
<text text-anchor="middle" x="659.5" y="-285.5" font-family="Helvetica,sans-Serif" font-size="10.00" fill="#000000">Ogre::D3D9HLSLProgram</text>
</a>
</g>
</g>
<!-- Node13&#45;&gt;Node16 -->
<g id="edge16" class="edge">
<title>Node13&#45;&gt;Node16</title>
<path fill="none" stroke="#191970" d="M551.3657,-288C565.5867,-288 580.2181,-288 593.9438,-288"/>
<polygon fill="#191970" stroke="#191970" points="551.102,-284.5001 541.102,-288 551.1019,-291.5001 551.102,-284.5001"/>
</g>
<!-- Node17 -->
<g id="node18" class="node">
<title>Node17</title>
<g id="a_node18"><a xlink:href="class_ogre_1_1_g_l_s_l_shader_common.html" target="_top" xlink:title="Specialisation of HighLevelGpuProgram to provide support for OpenGL Shader Language (GLSL)...">
<polygon fill="none" stroke="#000000" points="590,-240.5 590,-259.5 729,-259.5 729,-240.5 590,-240.5"/>
<text text-anchor="middle" x="659.5" y="-247.5" font-family="Helvetica,sans-Serif" font-size="10.00" fill="#000000">Ogre::GLSLShaderCommon</text>
</a>
</g>
</g>
<!-- Node13&#45;&gt;Node17 -->
<g id="edge17" class="edge">
<title>Node13&#45;&gt;Node17</title>
<path fill="none" stroke="#191970" d="M527.8948,-276.3905C554.846,-270.986 586.5102,-264.6365 612.025,-259.5201"/>
<polygon fill="#191970" stroke="#191970" points="526.9355,-273.0131 517.8189,-278.411 528.3118,-279.8765 526.9355,-273.0131"/>
</g>
<!-- Node23 -->
<g id="node22" class="node">
<title>Node23</title>
<g id="a_node22"><a xlink:href="class_ogre_1_1_metal_program.html" target="_top" xlink:title="Specialisation of HighLevelGpuProgram to provide support for Metal Shader Language. ">
<polygon fill="none" stroke="#000000" points="607.5,-202.5 607.5,-221.5 711.5,-221.5 711.5,-202.5 607.5,-202.5"/>
<text text-anchor="middle" x="659.5" y="-209.5" font-family="Helvetica,sans-Serif" font-size="10.00" fill="#000000">Ogre::MetalProgram</text>
</a>
</g>
</g>
<!-- Node13&#45;&gt;Node23 -->
<g id="edge21" class="edge">
<title>Node13&#45;&gt;Node23</title>
<path fill="none" stroke="#191970" d="M515.0346,-275.1167C523.9264,-271.7589 532.9803,-267.7269 541,-263 559.4422,-252.1299 557.9774,-240.8189 577,-231 586.4036,-226.1461 597.0436,-222.5196 607.4806,-219.8141"/>
<polygon fill="#191970" stroke="#191970" points="513.7609,-271.8548 505.5065,-278.4967 516.1012,-278.452 513.7609,-271.8548"/>
</g>
<!-- Node24 -->
<g id="node23" class="node">
<title>Node24</title>
<g id="a_node23"><a xlink:href="class_ogre_1_1_unified_high_level_gpu_program.html" target="_top" xlink:title="Specialisation of HighLevelGpuProgram which just delegates its implementation to one other GpuProgram...">
<polygon fill="none" stroke="#000000" points="591.5,-153 591.5,-183 727.5,-183 727.5,-153 591.5,-153"/>
<text text-anchor="start" x="599.5" y="-171" font-family="Helvetica,sans-Serif" font-size="10.00" fill="#000000">Ogre::UnifiedHighLevelGpu</text>
<text text-anchor="middle" x="659.5" y="-160" font-family="Helvetica,sans-Serif" font-size="10.00" fill="#000000">Program</text>
</a>
</g>
</g>
<!-- Node13&#45;&gt;Node24 -->
<g id="edge22" class="edge">
<title>Node13&#45;&gt;Node24</title>
<path fill="none" stroke="#191970" d="M523.2552,-274.3719C529.6602,-271.3021 535.7723,-267.559 541,-263 567.3666,-240.0064 550.1304,-215.4037 577,-193 581.5979,-189.1663 586.7731,-185.9203 592.2329,-183.1719"/>
<polygon fill="#191970" stroke="#191970" points="521.5747,-271.2825 513.7304,-278.404 524.3037,-277.7287 521.5747,-271.2825"/>
</g>
<!-- Node18 -->
<g id="node19" class="node">
<title>Node18</title>
<g id="a_node19"><a xlink:href="class_ogre_1_1_g_l_s_l_1_1_g_l_s_l_program.html" target="_top" xlink:title="Ogre::GLSL::GLSLProgram">
<polygon fill="none" stroke="#000000" points="778,-278.5 778,-297.5 914,-297.5 914,-278.5 778,-278.5"/>
<text text-anchor="middle" x="846" y="-285.5" font-family="Helvetica,sans-Serif" font-size="10.00" fill="#000000">Ogre::GLSL::GLSLProgram</text>
</a>
</g>
</g>
<!-- Node17&#45;&gt;Node18 -->
<g id="edge18" class="edge">
<title>Node17&#45;&gt;Node18</title>
<path fill="none" stroke="#191970" d="M716.4782,-261.6095C743.0028,-267.014 774.1657,-273.3635 799.2766,-278.4799"/>
<polygon fill="#191970" stroke="#191970" points="717.0593,-258.1561 706.5618,-259.589 715.6617,-265.0151 717.0593,-258.1561"/>
</g>
<!-- Node19 -->
<g id="node20" class="node">
<title>Node19</title>
<g id="a_node20"><a xlink:href="class_ogre_1_1_g_l_s_l_e_s_program.html" target="_top" xlink:title="Ogre::GLSLESProgram">
<polygon fill="none" stroke="#ff0000" points="786.5,-240.5 786.5,-259.5 905.5,-259.5 905.5,-240.5 786.5,-240.5"/>
<text text-anchor="middle" x="846" y="-247.5" font-family="Helvetica,sans-Serif" font-size="10.00" fill="#000000">Ogre::GLSLESProgram</text>
</a>
</g>
</g>
<!-- Node17&#45;&gt;Node19 -->
<g id="edge19" class="edge">
<title>Node17&#45;&gt;Node19</title>
<path fill="none" stroke="#191970" d="M739.4748,-250C755.2365,-250 771.5147,-250 786.4584,-250"/>
<polygon fill="#191970" stroke="#191970" points="739.211,-246.5001 729.2109,-250 739.2109,-253.5001 739.211,-246.5001"/>
</g>
<!-- Node21 -->
<g id="node21" class="node">
<title>Node21</title>
<g id="a_node21"><a xlink:href="class_ogre_1_1_g_l_s_l_shader.html" target="_top" xlink:title="Ogre::GLSLShader">
<polygon fill="none" stroke="#ff0000" points="796.5,-202.5 796.5,-221.5 895.5,-221.5 895.5,-202.5 796.5,-202.5"/>
<text text-anchor="middle" x="846" y="-209.5" font-family="Helvetica,sans-Serif" font-size="10.00" fill="#000000">Ogre::GLSLShader</text>
</a>
</g>
</g>
<!-- Node17&#45;&gt;Node21 -->
<g id="edge20" class="edge">
<title>Node17&#45;&gt;Node21</title>
<path fill="none" stroke="#191970" d="M716.4782,-238.3905C743.0028,-232.986 774.1657,-226.6365 799.2766,-221.5201"/>
<polygon fill="#191970" stroke="#191970" points="715.6617,-234.9849 706.5618,-240.411 717.0593,-241.8439 715.6617,-234.9849"/>
</g>
<!-- Node27 -->
<g id="node26" class="node">
<title>Node27</title>
<g id="a_node26"><a xlink:href="class_ogre_1_1_patch_mesh.html" target="_top" xlink:title="Patch specialisation of Mesh. ">
<polygon fill="none" stroke="#000000" points="423.5,-234.5 423.5,-253.5 516.5,-253.5 516.5,-234.5 423.5,-234.5"/>
<text text-anchor="middle" x="470" y="-241.5" font-family="Helvetica,sans-Serif" font-size="10.00" fill="#000000">Ogre::PatchMesh</text>
</a>
</g>
</g>
<!-- Node26&#45;&gt;Node27 -->
<g id="edge25" class="edge">
<title>Node26&#45;&gt;Node27</title>
<path fill="none" stroke="#191970" d="M358.4783,-244C378.7931,-244 402.8544,-244 423.4177,-244"/>
<polygon fill="#191970" stroke="#191970" points="358.2349,-240.5001 348.2349,-244 358.2348,-247.5001 358.2349,-240.5001"/>
</g>
<!-- Node29 -->
<g id="node28" class="node">
<title>Node29</title>
<g id="a_node28"><a xlink:href="class_ogre_1_1_skeleton_instance.html" target="_top" xlink:title="A SkeletonInstance is a single instance of a Skeleton used by a world object. ">
<polygon fill="none" stroke="#000000" points="410.5,-196.5 410.5,-215.5 529.5,-215.5 529.5,-196.5 410.5,-196.5"/>
<text text-anchor="middle" x="470" y="-203.5" font-family="Helvetica,sans-Serif" font-size="10.00" fill="#000000">Ogre::SkeletonInstance</text>
</a>
</g>
</g>
<!-- Node28&#45;&gt;Node29 -->
<g id="edge27" class="edge">
<title>Node28&#45;&gt;Node29</title>
<path fill="none" stroke="#191970" d="M365.5916,-206C379.9686,-206 395.7029,-206 410.4954,-206"/>
<polygon fill="#191970" stroke="#191970" points="365.3956,-202.5001 355.3956,-206 365.3955,-209.5001 365.3956,-202.5001"/>
</g>
<!-- Node31 -->
<g id="node30" class="node">
<title>Node31</title>
<g id="a_node30"><a xlink:href="class_ogre_1_1_d3_d11_texture.html" target="_top" xlink:title="Specialisation of Texture for D3D11. ">
<polygon fill="none" stroke="#000000" points="416.5,-152.5 416.5,-171.5 523.5,-171.5 523.5,-152.5 416.5,-152.5"/>
<text text-anchor="middle" x="470" y="-159.5" font-family="Helvetica,sans-Serif" font-size="10.00" fill="#000000">Ogre::D3D11Texture</text>
</a>
</g>
</g>
<!-- Node30&#45;&gt;Node31 -->
<g id="edge29" class="edge">
<title>Node30&#45;&gt;Node31</title>
<path fill="none" stroke="#191970" d="M362.374,-135.7834C384.3622,-141.1395 410.0397,-147.3943 430.7982,-152.4509"/>
<polygon fill="#191970" stroke="#191970" points="363.1061,-132.3595 352.5618,-133.3933 361.4493,-139.1606 363.1061,-132.3595"/>
</g>
<!-- Node32 -->
<g id="node31" class="node">
<title>Node32</title>
<g id="a_node31"><a xlink:href="class_ogre_1_1_d3_d9_texture.html" target="_top" xlink:title="Ogre::D3D9Texture">
<polygon fill="none" stroke="#000000" points="419,-114.5 419,-133.5 521,-133.5 521,-114.5 419,-114.5"/>
<text text-anchor="middle" x="470" y="-121.5" font-family="Helvetica,sans-Serif" font-size="10.00" fill="#000000">Ogre::D3D9Texture</text>
</a>
</g>
</g>
<!-- Node30&#45;&gt;Node32 -->
<g id="edge30" class="edge">
<title>Node30&#45;&gt;Node32</title>
<path fill="none" stroke="#191970" d="M362.7661,-124C380.6251,-124 400.8747,-124 418.9299,-124"/>
<polygon fill="#191970" stroke="#191970" points="362.5618,-120.5001 352.5618,-124 362.5618,-127.5001 362.5618,-120.5001"/>
</g>
<!-- Node33 -->
<g id="node32" class="node">
<title>Node33</title>
<g id="a_node32"><a xlink:href="class_ogre_1_1_g_l_texture_common.html" target="_top" xlink:title="Ogre::GLTextureCommon">
<polygon fill="none" stroke="#000000" points="405.5,-76.5 405.5,-95.5 534.5,-95.5 534.5,-76.5 405.5,-76.5"/>
<text text-anchor="middle" x="470" y="-83.5" font-family="Helvetica,sans-Serif" font-size="10.00" fill="#000000">Ogre::GLTextureCommon</text>
</a>
</g>
</g>
<!-- Node30&#45;&gt;Node33 -->
<g id="edge31" class="edge">
<title>Node30&#45;&gt;Node33</title>
<path fill="none" stroke="#191970" d="M362.374,-112.2166C384.3622,-106.8605 410.0397,-100.6057 430.7982,-95.5491"/>
<polygon fill="#191970" stroke="#191970" points="361.4493,-108.8394 352.5618,-114.6067 363.1061,-115.6405 361.4493,-108.8394"/>
</g>
<!-- Node37 -->
<g id="node36" class="node">
<title>Node37</title>
<g id="a_node36"><a xlink:href="class_ogre_1_1_metal_texture.html" target="_top" xlink:title="Ogre::MetalTexture">
<polygon fill="none" stroke="#000000" points="419.5,-19.5 419.5,-38.5 520.5,-38.5 520.5,-19.5 419.5,-19.5"/>
<text text-anchor="middle" x="470" y="-26.5" font-family="Helvetica,sans-Serif" font-size="10.00" fill="#000000">Ogre::MetalTexture</text>
</a>
</g>
</g>
<!-- Node30&#45;&gt;Node37 -->
<g id="edge35" class="edge">
<title>Node30&#45;&gt;Node37</title>
<path fill="none" stroke="#191970" d="M335.8804,-108.4521C352.8215,-96.6298 377.0262,-80.2036 399,-67 416.2567,-56.6308 436.5644,-45.9035 451.0307,-38.5019"/>
<polygon fill="#191970" stroke="#191970" points="333.447,-105.8842 327.2763,-114.4967 337.4709,-111.6121 333.447,-105.8842"/>
</g>
<!-- Node34 -->
<g id="node33" class="node">
<title>Node34</title>
<g id="a_node33"><a xlink:href="class_ogre_1_1_g_l3_plus_texture.html" target="_top" xlink:title="Ogre::GL3PlusTexture">
<polygon fill="none" stroke="#000000" points="602.5,-114.5 602.5,-133.5 716.5,-133.5 716.5,-114.5 602.5,-114.5"/>
<text text-anchor="middle" x="659.5" y="-121.5" font-family="Helvetica,sans-Serif" font-size="10.00" fill="#000000">Ogre::GL3PlusTexture</text>
</a>
</g>
</g>
<!-- Node33&#45;&gt;Node34 -->
<g id="edge32" class="edge">
<title>Node33&#45;&gt;Node34</title>
<path fill="none" stroke="#191970" d="M527.8948,-97.6095C554.846,-103.014 586.5102,-109.3635 612.025,-114.4799"/>
<polygon fill="#191970" stroke="#191970" points="528.3118,-94.1235 517.8189,-95.589 526.9355,-100.9869 528.3118,-94.1235"/>
</g>
<!-- Node35 -->
<g id="node34" class="node">
<title>Node35</title>
<g id="a_node34"><a xlink:href="class_ogre_1_1_g_l_e_s2_texture.html" target="_top" xlink:title="Ogre::GLES2Texture">
<polygon fill="none" stroke="#000000" points="605.5,-76.5 605.5,-95.5 713.5,-95.5 713.5,-76.5 605.5,-76.5"/>
<text text-anchor="middle" x="659.5" y="-83.5" font-family="Helvetica,sans-Serif" font-size="10.00" fill="#000000">Ogre::GLES2Texture</text>
</a>
</g>
</g>
<!-- Node33&#45;&gt;Node35 -->
<g id="edge33" class="edge">
<title>Node33&#45;&gt;Node35</title>
<path fill="none" stroke="#191970" d="M544.8275,-86C565.0906,-86 586.627,-86 605.499,-86"/>
<polygon fill="#191970" stroke="#191970" points="544.6852,-82.5001 534.6851,-86 544.6851,-89.5001 544.6852,-82.5001"/>
</g>
<!-- Node36 -->
<g id="node35" class="node">
<title>Node36</title>
<g id="a_node35"><a xlink:href="class_ogre_1_1_g_l_texture.html" target="_top" xlink:title="Ogre::GLTexture">
<polygon fill="none" stroke="#000000" points="615,-38.5 615,-57.5 704,-57.5 704,-38.5 615,-38.5"/>
<text text-anchor="middle" x="659.5" y="-45.5" font-family="Helvetica,sans-Serif" font-size="10.00" fill="#000000">Ogre::GLTexture</text>
</a>
</g>
</g>
<!-- Node33&#45;&gt;Node36 -->
<g id="edge34" class="edge">
<title>Node33&#45;&gt;Node36</title>
<path fill="none" stroke="#191970" d="M527.8799,-74.3935C555.8744,-68.7798 588.9566,-62.1459 614.9509,-56.9333"/>
<polygon fill="#191970" stroke="#191970" points="526.9355,-71.0131 517.8189,-76.411 528.3118,-77.8765 526.9355,-71.0131"/>
</g>
<!-- Node38 -->
<g id="node37" class="node">
<title>Node38</title>
<g id="a_node37"><a xlink:href="class_ogre_1_1_metal_depth_texture.html" target="_top" xlink:title="Ogre::MetalDepthTexture">
<polygon fill="none" stroke="#000000" points="596,-.5 596,-19.5 723,-19.5 723,-.5 596,-.5"/>
<text text-anchor="middle" x="659.5" y="-7.5" font-family="Helvetica,sans-Serif" font-size="10.00" fill="#000000">Ogre::MetalDepthTexture</text>
</a>
</g>
</g>
<!-- Node37&#45;&gt;Node38 -->
<g id="edge36" class="edge">
<title>Node37&#45;&gt;Node38</title>
<path fill="none" stroke="#191970" d="M530.7384,-22.9101C551.4715,-20.8314 574.7098,-18.5014 595.6783,-16.399"/>
<polygon fill="#191970" stroke="#191970" points="530.3834,-19.4281 520.7825,-23.9083 531.0818,-26.3932 530.3834,-19.4281"/>
</g>
</g>
</svg>
