<?xml version="1.0" encoding="UTF-8" standalone="no"?>
<!DOCTYPE svg PUBLIC "-//W3C//DTD SVG 1.1//EN"
 "http://www.w3.org/Graphics/SVG/1.1/DTD/svg11.dtd">
<!-- Generated by graphviz version 2.40.1 (20161225.0304)
 -->
<!-- Title: Graphical Class Hierarchy Pages: 1 -->
<svg width="241pt" height="104pt"
 viewBox="0.00 0.00 241.00 104.00" xmlns="http://www.w3.org/2000/svg" xmlns:xlink="http://www.w3.org/1999/xlink">
<g id="graph0" class="graph" transform="scale(1 1) rotate(0) translate(4 100)">
<title>Graphical Class Hierarchy</title>
<!-- Node0 -->
<g id="node1" class="node">
<title>Node0</title>
<g id="a_node1"><a xlink:href="class_ogre_1_1_sampler.html" target="_top" xlink:title="Class which determines how a TextureUnitState accesses data from a Texture. ">
<polygon fill="none" stroke="#000000" points="0,-38.5 0,-57.5 80,-57.5 80,-38.5 0,-38.5"/>
<text text-anchor="middle" x="40" y="-45.5" font-family="Helvetica,sans-Serif" font-size="10.00" fill="#000000">Ogre::Sampler</text>
</a>
</g>
</g>
<!-- Node1 -->
<g id="node2" class="node">
<title>Node1</title>
<g id="a_node2"><a xlink:href="class_ogre_1_1_d3_d11_sampler.html" target="_top" xlink:title="Ogre::D3D11Sampler">
<polygon fill="none" stroke="#000000" points="119.5,-76.5 119.5,-95.5 229.5,-95.5 229.5,-76.5 119.5,-76.5"/>
<text text-anchor="middle" x="174.5" y="-83.5" font-family="Helvetica,sans-Serif" font-size="10.00" fill="#000000">Ogre::D3D11Sampler</text>
</a>
</g>
</g>
<!-- Node0&#45;&gt;Node1 -->
<g id="edge1" class="edge">
<title>Node0&#45;&gt;Node1</title>
<path fill="none" stroke="#191970" d="M83.6004,-60.3183C102.0798,-65.5393 123.2895,-71.5316 140.5708,-76.4141"/>
<polygon fill="#191970" stroke="#191970" points="84.515,-56.9398 73.94,-57.589 82.6117,-63.6761 84.515,-56.9398"/>
</g>
<!-- Node2 -->
<g id="node3" class="node">
<title>Node2</title>
<g id="a_node3"><a xlink:href="class_ogre_1_1_g_l3_plus_sampler.html" target="_top" xlink:title="Ogre::GL3PlusSampler">
<polygon fill="none" stroke="#000000" points="116,-38.5 116,-57.5 233,-57.5 233,-38.5 116,-38.5"/>
<text text-anchor="middle" x="174.5" y="-45.5" font-family="Helvetica,sans-Serif" font-size="10.00" fill="#000000">Ogre::GL3PlusSampler</text>
</a>
</g>
</g>
<!-- Node0&#45;&gt;Node2 -->
<g id="edge2" class="edge">
<title>Node0&#45;&gt;Node2</title>
<path fill="none" stroke="#191970" d="M90.5497,-48C98.7809,-48 107.3684,-48 115.7754,-48"/>
<polygon fill="#191970" stroke="#191970" points="90.3545,-44.5001 80.3544,-48 90.3544,-51.5001 90.3545,-44.5001"/>
</g>
<!-- Node3 -->
<g id="node4" class="node">
<title>Node3</title>
<g id="a_node4"><a xlink:href="class_ogre_1_1_metal_sampler.html" target="_top" xlink:title="Ogre::MetalSampler">
<polygon fill="none" stroke="#000000" points="122.5,-.5 122.5,-19.5 226.5,-19.5 226.5,-.5 122.5,-.5"/>
<text text-anchor="middle" x="174.5" y="-7.5" font-family="Helvetica,sans-Serif" font-size="10.00" fill="#000000">Ogre::MetalSampler</text>
</a>
</g>
</g>
<!-- Node0&#45;&gt;Node3 -->
<g id="edge3" class="edge">
<title>Node0&#45;&gt;Node3</title>
<path fill="none" stroke="#191970" d="M83.6004,-35.6817C102.0798,-30.4607 123.2895,-24.4684 140.5708,-19.5859"/>
<polygon fill="#191970" stroke="#191970" points="82.6117,-32.3239 73.94,-38.411 84.515,-39.0602 82.6117,-32.3239"/>
</g>
</g>
</svg>
