<?xml version="1.0" encoding="UTF-8" standalone="no"?>
<!DOCTYPE svg PUBLIC "-//W3C//DTD SVG 1.1//EN"
 "http://www.w3.org/Graphics/SVG/1.1/DTD/svg11.dtd">
<!-- Generated by graphviz version 2.40.1 (20161225.0304)
 -->
<!-- Title: Graphical Class Hierarchy Pages: 1 -->
<svg width="180pt" height="66pt"
 viewBox="0.00 0.00 180.00 66.00" xmlns="http://www.w3.org/2000/svg" xmlns:xlink="http://www.w3.org/1999/xlink">
<g id="graph0" class="graph" transform="scale(1 1) rotate(0) translate(4 62)">
<title>Graphical Class Hierarchy</title>
<!-- Node1279 -->
<g id="node1" class="node">
<title>Node1279</title>
<polygon fill="none" stroke="#bfbfbf" points="0,-38.5 0,-57.5 53,-57.5 53,-38.5 0,-38.5"/>
<text text-anchor="middle" x="26.5" y="-45.5" font-family="Helvetica,sans-Serif" font-size="10.00" fill="#000000">NSView</text>
</g>
<!-- Node0 -->
<g id="node2" class="node">
<title>Node0</title>
<g id="a_node2"><a xlink:href="interface_ogre_metal_view.html" target="_top" xlink:title="OgreMetalView">
<polygon fill="none" stroke="#000000" points="89,-19.5 89,-38.5 172,-38.5 172,-19.5 89,-19.5"/>
<text text-anchor="middle" x="130.5" y="-26.5" font-family="Helvetica,sans-Serif" font-size="10.00" fill="#000000">OgreMetalView</text>
</a>
</g>
</g>
<!-- Node1279&#45;&gt;Node0 -->
<g id="edge1" class="edge">
<title>Node1279&#45;&gt;Node0</title>
<path fill="none" stroke="#191970" d="M63.1077,-41.3121C71.3744,-39.8018 80.2115,-38.1873 88.6745,-36.6412"/>
<polygon fill="#191970" stroke="#191970" points="62.2208,-37.9161 53.0127,-43.1563 63.4789,-44.8021 62.2208,-37.9161"/>
</g>
<!-- Node8 -->
<g id="node3" class="node">
<title>Node8</title>
<polygon fill="none" stroke="#bfbfbf" points="2,-.5 2,-19.5 51,-19.5 51,-.5 2,-.5"/>
<text text-anchor="middle" x="26.5" y="-7.5" font-family="Helvetica,sans-Serif" font-size="10.00" fill="#000000">UIView</text>
</g>
<!-- Node8&#45;&gt;Node0 -->
<g id="edge2" class="edge">
<title>Node8&#45;&gt;Node0</title>
<path fill="none" stroke="#191970" d="M61.1724,-16.3344C70.0747,-17.9608 79.7419,-19.7269 88.9528,-21.4096"/>
<polygon fill="#191970" stroke="#191970" points="61.6128,-12.857 51.1465,-14.5027 60.3547,-19.743 61.6128,-12.857"/>
</g>
</g>
</svg>
